G04 EAGLE Gerber RS-274X export*
G75*
%MOMM*%
%FSLAX34Y34*%
%LPD*%
%INTop Copper*%
%IPPOS*%
%AMOC8*
5,1,8,0,0,1.08239X$1,22.5*%
G01*
%ADD10C,1.422400*%
%ADD11C,2.159000*%

G36*
X99445Y9056D02*
X99445Y9056D01*
X99523Y9081D01*
X99603Y9106D01*
X99606Y9108D01*
X99610Y9110D01*
X99668Y9168D01*
X99729Y9225D01*
X99730Y9228D01*
X99733Y9231D01*
X99761Y9310D01*
X99789Y9387D01*
X99789Y9391D01*
X99790Y9395D01*
X99780Y9477D01*
X99771Y9559D01*
X99769Y9563D01*
X99768Y9567D01*
X99723Y9635D01*
X99678Y9706D01*
X99675Y9708D01*
X99673Y9711D01*
X99652Y9723D01*
X99557Y9786D01*
X96708Y10966D01*
X94278Y13396D01*
X92963Y16570D01*
X92963Y34230D01*
X94278Y37404D01*
X96708Y39834D01*
X99882Y41149D01*
X103318Y41149D01*
X106492Y39834D01*
X108922Y37404D01*
X110237Y34230D01*
X110237Y16570D01*
X108922Y13396D01*
X106492Y10966D01*
X104815Y10271D01*
X104790Y10254D01*
X104762Y10245D01*
X104721Y10204D01*
X104674Y10170D01*
X104660Y10144D01*
X104639Y10123D01*
X104620Y10068D01*
X104592Y10017D01*
X104592Y9988D01*
X104582Y9960D01*
X104589Y9902D01*
X104587Y9844D01*
X104600Y9817D01*
X104604Y9788D01*
X104635Y9739D01*
X104660Y9687D01*
X104683Y9668D01*
X104699Y9643D01*
X104749Y9614D01*
X104794Y9578D01*
X104823Y9571D01*
X104849Y9556D01*
X104926Y9548D01*
X104964Y9540D01*
X104978Y9543D01*
X104993Y9541D01*
X107303Y9743D01*
X107330Y9752D01*
X107368Y9755D01*
X125179Y14527D01*
X125204Y14540D01*
X125241Y14550D01*
X141953Y22343D01*
X141976Y22360D01*
X142011Y22376D01*
X157116Y32952D01*
X157134Y32973D01*
X157166Y32995D01*
X170205Y46034D01*
X170220Y46058D01*
X170248Y46084D01*
X180824Y61189D01*
X180835Y61215D01*
X180857Y61247D01*
X188650Y77959D01*
X188656Y77986D01*
X188673Y78021D01*
X193445Y95832D01*
X193446Y95846D01*
X193451Y95858D01*
X193451Y95876D01*
X193457Y95897D01*
X195064Y114267D01*
X195060Y114295D01*
X195064Y114333D01*
X193457Y132703D01*
X193448Y132729D01*
X193445Y132768D01*
X191968Y138281D01*
X191459Y140182D01*
X189115Y148928D01*
X188673Y150579D01*
X188660Y150604D01*
X188650Y150641D01*
X180857Y167353D01*
X180840Y167376D01*
X180824Y167411D01*
X170248Y182516D01*
X170233Y182528D01*
X170226Y182542D01*
X170217Y182548D01*
X170205Y182566D01*
X157166Y195605D01*
X157142Y195620D01*
X157116Y195648D01*
X142011Y206224D01*
X141985Y206235D01*
X141953Y206257D01*
X125241Y214050D01*
X125214Y214056D01*
X125179Y214073D01*
X107368Y218845D01*
X107340Y218846D01*
X107303Y218857D01*
X88933Y220464D01*
X88905Y220460D01*
X88867Y220464D01*
X70497Y218857D01*
X70470Y218848D01*
X70432Y218845D01*
X52621Y214073D01*
X52596Y214060D01*
X52559Y214050D01*
X35847Y206257D01*
X35824Y206240D01*
X35789Y206224D01*
X20684Y195648D01*
X20666Y195627D01*
X20634Y195605D01*
X7595Y182566D01*
X7580Y182542D01*
X7562Y182525D01*
X7556Y182520D01*
X7555Y182518D01*
X7552Y182516D01*
X-3024Y167411D01*
X-3035Y167385D01*
X-3057Y167353D01*
X-10850Y150641D01*
X-10856Y150614D01*
X-10873Y150579D01*
X-15645Y132768D01*
X-15646Y132740D01*
X-15657Y132703D01*
X-17264Y114333D01*
X-17260Y114305D01*
X-17264Y114267D01*
X-15657Y95897D01*
X-15648Y95870D01*
X-15645Y95832D01*
X-15554Y95491D01*
X-13211Y86746D01*
X-12701Y84844D01*
X-10873Y78021D01*
X-10864Y78004D01*
X-10863Y78000D01*
X-10858Y77990D01*
X-10850Y77959D01*
X-3057Y61247D01*
X-3040Y61224D01*
X-3024Y61189D01*
X7552Y46084D01*
X7573Y46066D01*
X7595Y46034D01*
X20634Y32995D01*
X20658Y32980D01*
X20684Y32952D01*
X35789Y22376D01*
X35815Y22365D01*
X35847Y22343D01*
X52559Y14550D01*
X52586Y14544D01*
X52621Y14527D01*
X70152Y9830D01*
X70177Y9829D01*
X70201Y9820D01*
X70263Y9826D01*
X70325Y9824D01*
X70348Y9835D01*
X70373Y9837D01*
X70426Y9870D01*
X70482Y9896D01*
X70499Y9916D01*
X70520Y9929D01*
X70553Y9982D01*
X70592Y10030D01*
X70597Y10055D01*
X70611Y10077D01*
X70616Y10139D01*
X70630Y10199D01*
X70624Y10224D01*
X70627Y10250D01*
X70604Y10308D01*
X70590Y10368D01*
X70573Y10387D01*
X70564Y10411D01*
X70502Y10473D01*
X70479Y10501D01*
X70469Y10506D01*
X70461Y10513D01*
X70047Y10790D01*
X68702Y12135D01*
X67646Y13716D01*
X66918Y15472D01*
X66547Y17337D01*
X66547Y24639D01*
X75819Y24639D01*
X75869Y24650D01*
X75920Y24652D01*
X75952Y24670D01*
X75988Y24678D01*
X76027Y24711D01*
X76072Y24735D01*
X76093Y24765D01*
X76121Y24788D01*
X76142Y24835D01*
X76171Y24877D01*
X76180Y24919D01*
X76192Y24947D01*
X76191Y24977D01*
X76199Y25019D01*
X76199Y25401D01*
X76201Y25401D01*
X76201Y25019D01*
X76213Y24969D01*
X76214Y24918D01*
X76232Y24886D01*
X76240Y24850D01*
X76273Y24811D01*
X76297Y24766D01*
X76327Y24745D01*
X76351Y24717D01*
X76397Y24696D01*
X76439Y24666D01*
X76481Y24658D01*
X76509Y24646D01*
X76539Y24647D01*
X76581Y24639D01*
X85853Y24639D01*
X85853Y17337D01*
X85852Y17333D01*
X85625Y16192D01*
X85482Y15472D01*
X84754Y13716D01*
X83698Y12135D01*
X82353Y10790D01*
X80772Y9734D01*
X80435Y9594D01*
X80368Y9546D01*
X80299Y9499D01*
X80297Y9495D01*
X80294Y9493D01*
X80255Y9420D01*
X80215Y9347D01*
X80214Y9343D01*
X80212Y9340D01*
X80210Y9258D01*
X80206Y9174D01*
X80208Y9171D01*
X80207Y9167D01*
X80242Y9091D01*
X80275Y9015D01*
X80278Y9013D01*
X80280Y9009D01*
X80344Y8957D01*
X80408Y8904D01*
X80412Y8903D01*
X80415Y8900D01*
X80438Y8895D01*
X80547Y8864D01*
X88867Y8136D01*
X88895Y8140D01*
X88933Y8136D01*
X99445Y9056D01*
G37*
%LPC*%
G36*
X23949Y140950D02*
X23949Y140950D01*
X19421Y142826D01*
X15956Y146291D01*
X14080Y150819D01*
X14080Y155721D01*
X15956Y160249D01*
X19421Y163714D01*
X23949Y165590D01*
X28851Y165590D01*
X33379Y163714D01*
X36844Y160249D01*
X38720Y155721D01*
X38720Y150819D01*
X36844Y146291D01*
X33379Y142826D01*
X28851Y140950D01*
X23949Y140950D01*
G37*
%LPD*%
%LPC*%
G36*
X148949Y90950D02*
X148949Y90950D01*
X144421Y92826D01*
X140956Y96291D01*
X139080Y100819D01*
X139080Y105721D01*
X140956Y110249D01*
X144421Y113714D01*
X148949Y115590D01*
X153851Y115590D01*
X158379Y113714D01*
X161844Y110249D01*
X163720Y105721D01*
X163720Y100819D01*
X161844Y96291D01*
X158379Y92826D01*
X153851Y90950D01*
X148949Y90950D01*
G37*
%LPD*%
%LPC*%
G36*
X23949Y90950D02*
X23949Y90950D01*
X19421Y92826D01*
X15956Y96291D01*
X14080Y100819D01*
X14080Y105721D01*
X15956Y110249D01*
X19421Y113714D01*
X23949Y115590D01*
X28851Y115590D01*
X33379Y113714D01*
X36844Y110249D01*
X38720Y105721D01*
X38720Y100819D01*
X36844Y96291D01*
X33379Y92826D01*
X28851Y90950D01*
X23949Y90950D01*
G37*
%LPD*%
%LPC*%
G36*
X76961Y26161D02*
X76961Y26161D01*
X76961Y42165D01*
X77151Y42165D01*
X79016Y41794D01*
X80772Y41066D01*
X82353Y40010D01*
X83698Y38665D01*
X84754Y37084D01*
X85482Y35328D01*
X85853Y33463D01*
X85853Y26161D01*
X76961Y26161D01*
G37*
%LPD*%
%LPC*%
G36*
X66547Y26161D02*
X66547Y26161D01*
X66547Y33463D01*
X66562Y33539D01*
X66638Y33919D01*
X66789Y34679D01*
X66789Y34680D01*
X66918Y35328D01*
X67646Y37084D01*
X68702Y38665D01*
X70047Y40010D01*
X71628Y41066D01*
X73384Y41794D01*
X75249Y42165D01*
X75439Y42165D01*
X75439Y26161D01*
X66547Y26161D01*
G37*
%LPD*%
%LPC*%
G36*
X152161Y154031D02*
X152161Y154031D01*
X152161Y166606D01*
X152450Y166606D01*
X154523Y166277D01*
X156519Y165629D01*
X158390Y164676D01*
X160088Y163442D01*
X161572Y161958D01*
X162806Y160260D01*
X163759Y158389D01*
X164407Y156393D01*
X164736Y154320D01*
X164736Y154031D01*
X152161Y154031D01*
G37*
%LPD*%
%LPC*%
G36*
X138064Y154031D02*
X138064Y154031D01*
X138064Y154320D01*
X138393Y156393D01*
X139041Y158389D01*
X139994Y160260D01*
X141228Y161958D01*
X142712Y163442D01*
X144410Y164676D01*
X146281Y165629D01*
X148277Y166277D01*
X150350Y166606D01*
X150639Y166606D01*
X150639Y154031D01*
X138064Y154031D01*
G37*
%LPD*%
%LPC*%
G36*
X152161Y139934D02*
X152161Y139934D01*
X152161Y152509D01*
X164736Y152509D01*
X164736Y152220D01*
X164407Y150147D01*
X163759Y148151D01*
X162806Y146280D01*
X161572Y144582D01*
X160088Y143098D01*
X158390Y141864D01*
X156519Y140911D01*
X154523Y140263D01*
X152450Y139934D01*
X152161Y139934D01*
G37*
%LPD*%
%LPC*%
G36*
X150350Y139934D02*
X150350Y139934D01*
X148277Y140263D01*
X146281Y140911D01*
X144410Y141864D01*
X142712Y143098D01*
X141228Y144582D01*
X139994Y146280D01*
X139041Y148151D01*
X138393Y150147D01*
X138064Y152220D01*
X138064Y152509D01*
X150639Y152509D01*
X150639Y139934D01*
X150350Y139934D01*
G37*
%LPD*%
%LPC*%
G36*
X151399Y153269D02*
X151399Y153269D01*
X151399Y153271D01*
X151401Y153271D01*
X151401Y153269D01*
X151399Y153269D01*
G37*
%LPD*%
D10*
X76200Y32512D02*
X76200Y18288D01*
X101600Y18288D02*
X101600Y32512D01*
D11*
X26400Y153270D03*
X26400Y103270D03*
X151400Y103270D03*
X151400Y153270D03*
M02*
