G04 EAGLE Gerber RS-274X export*
G75*
%MOMM*%
%FSLAX34Y34*%
%LPD*%
%IN*%
%IPPOS*%
%AMOC8*
5,1,8,0,0,1.08239X$1,22.5*%
G01*
%ADD10C,0.254000*%


D10*
X205988Y112817D02*
X205988Y115783D01*
X205913Y118749D01*
X205763Y121712D01*
X205538Y124670D01*
X205237Y127621D01*
X204863Y130564D01*
X204413Y133497D01*
X203890Y136417D01*
X203293Y139323D01*
X202622Y142212D01*
X201879Y145084D01*
X201063Y147937D01*
X200174Y150767D01*
X199215Y153574D01*
X198185Y156356D01*
X197084Y159111D01*
X195914Y161838D01*
X194676Y164533D01*
X193369Y167197D01*
X191996Y169826D01*
X190556Y172420D01*
X189051Y174977D01*
X187482Y177494D01*
X185849Y179971D01*
X184154Y182406D01*
X182398Y184797D01*
X180583Y187143D01*
X178708Y189443D01*
X176775Y191694D01*
X174787Y193895D01*
X172743Y196045D01*
X170645Y198143D01*
X168495Y200187D01*
X166294Y202175D01*
X164043Y204108D01*
X161743Y205983D01*
X159397Y207798D01*
X157006Y209554D01*
X154571Y211249D01*
X152094Y212882D01*
X149577Y214451D01*
X147020Y215956D01*
X144426Y217396D01*
X141797Y218769D01*
X139133Y220076D01*
X136438Y221314D01*
X133711Y222484D01*
X130956Y223585D01*
X128174Y224615D01*
X125367Y225574D01*
X122537Y226463D01*
X119684Y227279D01*
X116812Y228022D01*
X113923Y228693D01*
X111017Y229290D01*
X108097Y229813D01*
X105164Y230263D01*
X102221Y230637D01*
X99270Y230938D01*
X96312Y231163D01*
X93349Y231313D01*
X90383Y231388D01*
X87417Y231388D01*
X84451Y231313D01*
X81488Y231163D01*
X78530Y230938D01*
X75579Y230637D01*
X72636Y230263D01*
X69703Y229813D01*
X66783Y229290D01*
X63877Y228693D01*
X60988Y228022D01*
X58116Y227279D01*
X55263Y226463D01*
X52433Y225574D01*
X49626Y224615D01*
X46844Y223585D01*
X44089Y222484D01*
X41362Y221314D01*
X38667Y220076D01*
X36003Y218769D01*
X33374Y217396D01*
X30780Y215956D01*
X28223Y214451D01*
X25706Y212882D01*
X23229Y211249D01*
X20794Y209554D01*
X18403Y207798D01*
X16057Y205983D01*
X13757Y204108D01*
X11507Y202175D01*
X9305Y200187D01*
X7155Y198143D01*
X5057Y196045D01*
X3013Y193895D01*
X1025Y191694D01*
X-908Y189443D01*
X-2783Y187143D01*
X-4598Y184797D01*
X-6354Y182406D01*
X-8049Y179971D01*
X-9682Y177494D01*
X-11251Y174977D01*
X-12756Y172420D01*
X-14196Y169826D01*
X-15569Y167197D01*
X-16876Y164533D01*
X-18114Y161838D01*
X-19284Y159111D01*
X-20385Y156356D01*
X-21415Y153574D01*
X-22374Y150767D01*
X-23263Y147937D01*
X-24079Y145084D01*
X-24822Y142212D01*
X-25493Y139323D01*
X-26090Y136417D01*
X-26613Y133497D01*
X-27063Y130564D01*
X-27437Y127621D01*
X-27738Y124670D01*
X-27963Y121712D01*
X-28113Y118749D01*
X-28188Y115783D01*
X-28188Y112817D01*
X-28113Y109851D01*
X-27963Y106888D01*
X-27738Y103930D01*
X-27437Y100979D01*
X-27063Y98036D01*
X-26613Y95103D01*
X-26090Y92183D01*
X-25493Y89277D01*
X-24822Y86388D01*
X-24079Y83516D01*
X-23263Y80663D01*
X-22374Y77833D01*
X-21415Y75026D01*
X-20385Y72244D01*
X-19284Y69489D01*
X-18114Y66762D01*
X-16876Y64067D01*
X-15569Y61403D01*
X-14196Y58774D01*
X-12756Y56180D01*
X-11251Y53623D01*
X-9682Y51106D01*
X-8049Y48629D01*
X-6354Y46194D01*
X-4598Y43803D01*
X-2783Y41457D01*
X-908Y39157D01*
X1025Y36907D01*
X3013Y34705D01*
X5057Y32555D01*
X7155Y30457D01*
X9305Y28413D01*
X11507Y26425D01*
X13757Y24492D01*
X16057Y22617D01*
X18403Y20802D01*
X20794Y19046D01*
X23229Y17351D01*
X25706Y15718D01*
X28223Y14149D01*
X30780Y12644D01*
X33374Y11204D01*
X36003Y9831D01*
X38667Y8524D01*
X41362Y7286D01*
X44089Y6116D01*
X46844Y5015D01*
X49626Y3985D01*
X52433Y3026D01*
X55263Y2138D01*
X58116Y1321D01*
X60988Y578D01*
X63877Y-93D01*
X66783Y-690D01*
X69703Y-1213D01*
X72636Y-1663D01*
X75579Y-2037D01*
X78530Y-2338D01*
X81488Y-2563D01*
X84451Y-2713D01*
X87417Y-2788D01*
X90383Y-2788D01*
X93349Y-2713D01*
X96312Y-2563D01*
X99270Y-2338D01*
X102221Y-2037D01*
X105164Y-1663D01*
X108097Y-1213D01*
X111017Y-690D01*
X113923Y-93D01*
X116812Y578D01*
X119684Y1321D01*
X122537Y2138D01*
X125367Y3026D01*
X128174Y3985D01*
X130956Y5015D01*
X133711Y6116D01*
X136438Y7286D01*
X139133Y8524D01*
X141797Y9831D01*
X144426Y11204D01*
X147020Y12644D01*
X149577Y14149D01*
X152094Y15718D01*
X154571Y17351D01*
X157006Y19046D01*
X159397Y20802D01*
X161743Y22617D01*
X164043Y24492D01*
X166294Y26425D01*
X168495Y28413D01*
X170645Y30457D01*
X172743Y32555D01*
X174787Y34705D01*
X176775Y36907D01*
X178708Y39157D01*
X180583Y41457D01*
X182398Y43803D01*
X184154Y46194D01*
X185849Y48629D01*
X187482Y51106D01*
X189051Y53623D01*
X190556Y56180D01*
X191996Y58774D01*
X193369Y61403D01*
X194676Y64067D01*
X195914Y66762D01*
X197084Y69489D01*
X198185Y72244D01*
X199215Y75026D01*
X200174Y77833D01*
X201063Y80663D01*
X201879Y83516D01*
X202622Y86388D01*
X203293Y89277D01*
X203890Y92183D01*
X204413Y95103D01*
X204863Y98036D01*
X205237Y100979D01*
X205538Y103930D01*
X205763Y106888D01*
X205913Y109851D01*
X205988Y112817D01*
M02*
