G04 EAGLE Gerber RS-274X export*
G75*
%MOMM*%
%FSLAX34Y34*%
%LPD*%
%INSilkscreen Top*%
%IPPOS*%
%AMOC8*
5,1,8,0,0,1.08239X$1,22.5*%
G01*
%ADD10C,0.152400*%
%ADD11C,0.203200*%
%ADD12C,0.700000*%


D10*
X88900Y35560D02*
X91440Y38100D01*
X88900Y35560D02*
X86360Y38100D01*
X88900Y15240D02*
X91440Y12700D01*
X88900Y15240D02*
X86360Y12700D01*
X66040Y12700D01*
X63500Y15240D01*
X111760Y12700D02*
X114300Y15240D01*
X111760Y12700D02*
X91440Y12700D01*
X114300Y15240D02*
X114300Y35560D01*
X111760Y38100D01*
X91440Y38100D01*
X86360Y38100D02*
X66040Y38100D01*
X63500Y35560D01*
X63500Y15240D01*
D11*
X28900Y168270D02*
X28900Y178270D01*
X38900Y188270D02*
X138900Y188270D01*
X148900Y178270D02*
X148900Y168270D01*
X148900Y138270D02*
X148900Y118270D01*
X148900Y88270D02*
X148900Y78270D01*
X138900Y68270D02*
X38900Y68270D01*
X28900Y78270D02*
X28900Y88270D01*
X28900Y118270D02*
X28900Y138270D01*
X28900Y178270D02*
X28903Y178512D01*
X28912Y178753D01*
X28926Y178994D01*
X28947Y179235D01*
X28973Y179475D01*
X29005Y179715D01*
X29043Y179954D01*
X29086Y180191D01*
X29136Y180428D01*
X29191Y180663D01*
X29251Y180897D01*
X29318Y181129D01*
X29389Y181360D01*
X29467Y181589D01*
X29550Y181816D01*
X29638Y182041D01*
X29732Y182264D01*
X29831Y182484D01*
X29936Y182702D01*
X30045Y182917D01*
X30160Y183130D01*
X30280Y183340D01*
X30405Y183546D01*
X30535Y183750D01*
X30670Y183951D01*
X30810Y184148D01*
X30954Y184342D01*
X31103Y184532D01*
X31257Y184718D01*
X31415Y184901D01*
X31577Y185080D01*
X31744Y185255D01*
X31915Y185426D01*
X32090Y185593D01*
X32269Y185755D01*
X32452Y185913D01*
X32638Y186067D01*
X32828Y186216D01*
X33022Y186360D01*
X33219Y186500D01*
X33420Y186635D01*
X33624Y186765D01*
X33830Y186890D01*
X34040Y187010D01*
X34253Y187125D01*
X34468Y187234D01*
X34686Y187339D01*
X34906Y187438D01*
X35129Y187532D01*
X35354Y187620D01*
X35581Y187703D01*
X35810Y187781D01*
X36041Y187852D01*
X36273Y187919D01*
X36507Y187979D01*
X36742Y188034D01*
X36979Y188084D01*
X37216Y188127D01*
X37455Y188165D01*
X37695Y188197D01*
X37935Y188223D01*
X38176Y188244D01*
X38417Y188258D01*
X38658Y188267D01*
X38900Y188270D01*
X138900Y188270D02*
X139142Y188267D01*
X139383Y188258D01*
X139624Y188244D01*
X139865Y188223D01*
X140105Y188197D01*
X140345Y188165D01*
X140584Y188127D01*
X140821Y188084D01*
X141058Y188034D01*
X141293Y187979D01*
X141527Y187919D01*
X141759Y187852D01*
X141990Y187781D01*
X142219Y187703D01*
X142446Y187620D01*
X142671Y187532D01*
X142894Y187438D01*
X143114Y187339D01*
X143332Y187234D01*
X143547Y187125D01*
X143760Y187010D01*
X143970Y186890D01*
X144176Y186765D01*
X144380Y186635D01*
X144581Y186500D01*
X144778Y186360D01*
X144972Y186216D01*
X145162Y186067D01*
X145348Y185913D01*
X145531Y185755D01*
X145710Y185593D01*
X145885Y185426D01*
X146056Y185255D01*
X146223Y185080D01*
X146385Y184901D01*
X146543Y184718D01*
X146697Y184532D01*
X146846Y184342D01*
X146990Y184148D01*
X147130Y183951D01*
X147265Y183750D01*
X147395Y183546D01*
X147520Y183340D01*
X147640Y183130D01*
X147755Y182917D01*
X147864Y182702D01*
X147969Y182484D01*
X148068Y182264D01*
X148162Y182041D01*
X148250Y181816D01*
X148333Y181589D01*
X148411Y181360D01*
X148482Y181129D01*
X148549Y180897D01*
X148609Y180663D01*
X148664Y180428D01*
X148714Y180191D01*
X148757Y179954D01*
X148795Y179715D01*
X148827Y179475D01*
X148853Y179235D01*
X148874Y178994D01*
X148888Y178753D01*
X148897Y178512D01*
X148900Y178270D01*
X148900Y78270D02*
X148897Y78028D01*
X148888Y77787D01*
X148874Y77546D01*
X148853Y77305D01*
X148827Y77065D01*
X148795Y76825D01*
X148757Y76586D01*
X148714Y76349D01*
X148664Y76112D01*
X148609Y75877D01*
X148549Y75643D01*
X148482Y75411D01*
X148411Y75180D01*
X148333Y74951D01*
X148250Y74724D01*
X148162Y74499D01*
X148068Y74276D01*
X147969Y74056D01*
X147864Y73838D01*
X147755Y73623D01*
X147640Y73410D01*
X147520Y73200D01*
X147395Y72994D01*
X147265Y72790D01*
X147130Y72589D01*
X146990Y72392D01*
X146846Y72198D01*
X146697Y72008D01*
X146543Y71822D01*
X146385Y71639D01*
X146223Y71460D01*
X146056Y71285D01*
X145885Y71114D01*
X145710Y70947D01*
X145531Y70785D01*
X145348Y70627D01*
X145162Y70473D01*
X144972Y70324D01*
X144778Y70180D01*
X144581Y70040D01*
X144380Y69905D01*
X144176Y69775D01*
X143970Y69650D01*
X143760Y69530D01*
X143547Y69415D01*
X143332Y69306D01*
X143114Y69201D01*
X142894Y69102D01*
X142671Y69008D01*
X142446Y68920D01*
X142219Y68837D01*
X141990Y68759D01*
X141759Y68688D01*
X141527Y68621D01*
X141293Y68561D01*
X141058Y68506D01*
X140821Y68456D01*
X140584Y68413D01*
X140345Y68375D01*
X140105Y68343D01*
X139865Y68317D01*
X139624Y68296D01*
X139383Y68282D01*
X139142Y68273D01*
X138900Y68270D01*
X38900Y68270D02*
X38658Y68273D01*
X38417Y68282D01*
X38176Y68296D01*
X37935Y68317D01*
X37695Y68343D01*
X37455Y68375D01*
X37216Y68413D01*
X36979Y68456D01*
X36742Y68506D01*
X36507Y68561D01*
X36273Y68621D01*
X36041Y68688D01*
X35810Y68759D01*
X35581Y68837D01*
X35354Y68920D01*
X35129Y69008D01*
X34906Y69102D01*
X34686Y69201D01*
X34468Y69306D01*
X34253Y69415D01*
X34040Y69530D01*
X33830Y69650D01*
X33624Y69775D01*
X33420Y69905D01*
X33219Y70040D01*
X33022Y70180D01*
X32828Y70324D01*
X32638Y70473D01*
X32452Y70627D01*
X32269Y70785D01*
X32090Y70947D01*
X31915Y71114D01*
X31744Y71285D01*
X31577Y71460D01*
X31415Y71639D01*
X31257Y71822D01*
X31103Y72008D01*
X30954Y72198D01*
X30810Y72392D01*
X30670Y72589D01*
X30535Y72790D01*
X30405Y72994D01*
X30280Y73200D01*
X30160Y73410D01*
X30045Y73623D01*
X29936Y73838D01*
X29831Y74056D01*
X29732Y74276D01*
X29638Y74499D01*
X29550Y74724D01*
X29467Y74951D01*
X29389Y75180D01*
X29318Y75411D01*
X29251Y75643D01*
X29191Y75877D01*
X29136Y76112D01*
X29086Y76349D01*
X29043Y76586D01*
X29005Y76825D01*
X28973Y77065D01*
X28947Y77305D01*
X28926Y77546D01*
X28912Y77787D01*
X28903Y78028D01*
X28900Y78270D01*
X53900Y128270D02*
X53911Y129129D01*
X53942Y129987D01*
X53995Y130845D01*
X54069Y131701D01*
X54163Y132554D01*
X54279Y133406D01*
X54415Y134254D01*
X54573Y135098D01*
X54750Y135939D01*
X54949Y136774D01*
X55168Y137605D01*
X55407Y138430D01*
X55667Y139249D01*
X55946Y140061D01*
X56245Y140866D01*
X56564Y141664D01*
X56903Y142453D01*
X57260Y143234D01*
X57637Y144006D01*
X58033Y144769D01*
X58447Y145521D01*
X58879Y146264D01*
X59330Y146995D01*
X59799Y147715D01*
X60285Y148423D01*
X60788Y149119D01*
X61308Y149803D01*
X61845Y150474D01*
X62398Y151131D01*
X62967Y151775D01*
X63551Y152404D01*
X64151Y153019D01*
X64766Y153619D01*
X65395Y154203D01*
X66039Y154772D01*
X66696Y155325D01*
X67367Y155862D01*
X68051Y156382D01*
X68747Y156885D01*
X69455Y157371D01*
X70175Y157840D01*
X70906Y158291D01*
X71649Y158723D01*
X72401Y159137D01*
X73164Y159533D01*
X73936Y159910D01*
X74717Y160267D01*
X75506Y160606D01*
X76304Y160925D01*
X77109Y161224D01*
X77921Y161503D01*
X78740Y161763D01*
X79565Y162002D01*
X80396Y162221D01*
X81231Y162420D01*
X82072Y162597D01*
X82916Y162755D01*
X83764Y162891D01*
X84616Y163007D01*
X85469Y163101D01*
X86325Y163175D01*
X87183Y163228D01*
X88041Y163259D01*
X88900Y163270D01*
X89759Y163259D01*
X90617Y163228D01*
X91475Y163175D01*
X92331Y163101D01*
X93184Y163007D01*
X94036Y162891D01*
X94884Y162755D01*
X95728Y162597D01*
X96569Y162420D01*
X97404Y162221D01*
X98235Y162002D01*
X99060Y161763D01*
X99879Y161503D01*
X100691Y161224D01*
X101496Y160925D01*
X102294Y160606D01*
X103083Y160267D01*
X103864Y159910D01*
X104636Y159533D01*
X105399Y159137D01*
X106151Y158723D01*
X106894Y158291D01*
X107625Y157840D01*
X108345Y157371D01*
X109053Y156885D01*
X109749Y156382D01*
X110433Y155862D01*
X111104Y155325D01*
X111761Y154772D01*
X112405Y154203D01*
X113034Y153619D01*
X113649Y153019D01*
X114249Y152404D01*
X114833Y151775D01*
X115402Y151131D01*
X115955Y150474D01*
X116492Y149803D01*
X117012Y149119D01*
X117515Y148423D01*
X118001Y147715D01*
X118470Y146995D01*
X118921Y146264D01*
X119353Y145521D01*
X119767Y144769D01*
X120163Y144006D01*
X120540Y143234D01*
X120897Y142453D01*
X121236Y141664D01*
X121555Y140866D01*
X121854Y140061D01*
X122133Y139249D01*
X122393Y138430D01*
X122632Y137605D01*
X122851Y136774D01*
X123050Y135939D01*
X123227Y135098D01*
X123385Y134254D01*
X123521Y133406D01*
X123637Y132554D01*
X123731Y131701D01*
X123805Y130845D01*
X123858Y129987D01*
X123889Y129129D01*
X123900Y128270D01*
X123889Y127411D01*
X123858Y126553D01*
X123805Y125695D01*
X123731Y124839D01*
X123637Y123986D01*
X123521Y123134D01*
X123385Y122286D01*
X123227Y121442D01*
X123050Y120601D01*
X122851Y119766D01*
X122632Y118935D01*
X122393Y118110D01*
X122133Y117291D01*
X121854Y116479D01*
X121555Y115674D01*
X121236Y114876D01*
X120897Y114087D01*
X120540Y113306D01*
X120163Y112534D01*
X119767Y111771D01*
X119353Y111019D01*
X118921Y110276D01*
X118470Y109545D01*
X118001Y108825D01*
X117515Y108117D01*
X117012Y107421D01*
X116492Y106737D01*
X115955Y106066D01*
X115402Y105409D01*
X114833Y104765D01*
X114249Y104136D01*
X113649Y103521D01*
X113034Y102921D01*
X112405Y102337D01*
X111761Y101768D01*
X111104Y101215D01*
X110433Y100678D01*
X109749Y100158D01*
X109053Y99655D01*
X108345Y99169D01*
X107625Y98700D01*
X106894Y98249D01*
X106151Y97817D01*
X105399Y97403D01*
X104636Y97007D01*
X103864Y96630D01*
X103083Y96273D01*
X102294Y95934D01*
X101496Y95615D01*
X100691Y95316D01*
X99879Y95037D01*
X99060Y94777D01*
X98235Y94538D01*
X97404Y94319D01*
X96569Y94120D01*
X95728Y93943D01*
X94884Y93785D01*
X94036Y93649D01*
X93184Y93533D01*
X92331Y93439D01*
X91475Y93365D01*
X90617Y93312D01*
X89759Y93281D01*
X88900Y93270D01*
X88041Y93281D01*
X87183Y93312D01*
X86325Y93365D01*
X85469Y93439D01*
X84616Y93533D01*
X83764Y93649D01*
X82916Y93785D01*
X82072Y93943D01*
X81231Y94120D01*
X80396Y94319D01*
X79565Y94538D01*
X78740Y94777D01*
X77921Y95037D01*
X77109Y95316D01*
X76304Y95615D01*
X75506Y95934D01*
X74717Y96273D01*
X73936Y96630D01*
X73164Y97007D01*
X72401Y97403D01*
X71649Y97817D01*
X70906Y98249D01*
X70175Y98700D01*
X69455Y99169D01*
X68747Y99655D01*
X68051Y100158D01*
X67367Y100678D01*
X66696Y101215D01*
X66039Y101768D01*
X65395Y102337D01*
X64766Y102921D01*
X64151Y103521D01*
X63551Y104136D01*
X62967Y104765D01*
X62398Y105409D01*
X61845Y106066D01*
X61308Y106737D01*
X60788Y107421D01*
X60285Y108117D01*
X59799Y108825D01*
X59330Y109545D01*
X58879Y110276D01*
X58447Y111019D01*
X58033Y111771D01*
X57637Y112534D01*
X57260Y113306D01*
X56903Y114087D01*
X56564Y114876D01*
X56245Y115674D01*
X55946Y116479D01*
X55667Y117291D01*
X55407Y118110D01*
X55168Y118935D01*
X54949Y119766D01*
X54750Y120601D01*
X54573Y121442D01*
X54415Y122286D01*
X54279Y123134D01*
X54163Y123986D01*
X54069Y124839D01*
X53995Y125695D01*
X53942Y126553D01*
X53911Y127411D01*
X53900Y128270D01*
D12*
X40900Y173270D02*
X40902Y173379D01*
X40908Y173488D01*
X40918Y173596D01*
X40932Y173704D01*
X40949Y173812D01*
X40971Y173919D01*
X40996Y174025D01*
X41026Y174129D01*
X41059Y174233D01*
X41096Y174336D01*
X41136Y174437D01*
X41180Y174536D01*
X41228Y174634D01*
X41280Y174731D01*
X41334Y174825D01*
X41392Y174917D01*
X41454Y175007D01*
X41519Y175094D01*
X41586Y175180D01*
X41657Y175263D01*
X41731Y175343D01*
X41808Y175420D01*
X41887Y175495D01*
X41969Y175566D01*
X42054Y175635D01*
X42141Y175700D01*
X42230Y175763D01*
X42322Y175821D01*
X42416Y175877D01*
X42511Y175929D01*
X42609Y175978D01*
X42708Y176023D01*
X42809Y176065D01*
X42911Y176102D01*
X43014Y176136D01*
X43119Y176167D01*
X43225Y176193D01*
X43331Y176216D01*
X43439Y176234D01*
X43547Y176249D01*
X43655Y176260D01*
X43764Y176267D01*
X43873Y176270D01*
X43982Y176269D01*
X44091Y176264D01*
X44199Y176255D01*
X44307Y176242D01*
X44415Y176225D01*
X44522Y176205D01*
X44628Y176180D01*
X44733Y176152D01*
X44837Y176120D01*
X44940Y176084D01*
X45042Y176044D01*
X45142Y176001D01*
X45240Y175954D01*
X45337Y175904D01*
X45431Y175850D01*
X45524Y175792D01*
X45615Y175732D01*
X45703Y175668D01*
X45789Y175601D01*
X45872Y175531D01*
X45953Y175458D01*
X46031Y175382D01*
X46106Y175303D01*
X46179Y175221D01*
X46248Y175137D01*
X46314Y175051D01*
X46377Y174962D01*
X46437Y174871D01*
X46494Y174778D01*
X46547Y174683D01*
X46596Y174586D01*
X46642Y174487D01*
X46684Y174387D01*
X46723Y174285D01*
X46758Y174181D01*
X46789Y174077D01*
X46817Y173972D01*
X46840Y173865D01*
X46860Y173758D01*
X46876Y173650D01*
X46888Y173542D01*
X46896Y173433D01*
X46900Y173324D01*
X46900Y173216D01*
X46896Y173107D01*
X46888Y172998D01*
X46876Y172890D01*
X46860Y172782D01*
X46840Y172675D01*
X46817Y172568D01*
X46789Y172463D01*
X46758Y172359D01*
X46723Y172255D01*
X46684Y172153D01*
X46642Y172053D01*
X46596Y171954D01*
X46547Y171857D01*
X46494Y171762D01*
X46437Y171669D01*
X46377Y171578D01*
X46314Y171489D01*
X46248Y171403D01*
X46179Y171319D01*
X46106Y171237D01*
X46031Y171158D01*
X45953Y171082D01*
X45872Y171009D01*
X45789Y170939D01*
X45703Y170872D01*
X45615Y170808D01*
X45524Y170748D01*
X45431Y170690D01*
X45337Y170636D01*
X45240Y170586D01*
X45142Y170539D01*
X45042Y170496D01*
X44940Y170456D01*
X44837Y170420D01*
X44733Y170388D01*
X44628Y170360D01*
X44522Y170335D01*
X44415Y170315D01*
X44307Y170298D01*
X44199Y170285D01*
X44091Y170276D01*
X43982Y170271D01*
X43873Y170270D01*
X43764Y170273D01*
X43655Y170280D01*
X43547Y170291D01*
X43439Y170306D01*
X43331Y170324D01*
X43225Y170347D01*
X43119Y170373D01*
X43014Y170404D01*
X42911Y170438D01*
X42809Y170475D01*
X42708Y170517D01*
X42609Y170562D01*
X42511Y170611D01*
X42416Y170663D01*
X42322Y170719D01*
X42230Y170777D01*
X42141Y170840D01*
X42054Y170905D01*
X41969Y170974D01*
X41887Y171045D01*
X41808Y171120D01*
X41731Y171197D01*
X41657Y171277D01*
X41586Y171360D01*
X41519Y171446D01*
X41454Y171533D01*
X41392Y171623D01*
X41334Y171715D01*
X41280Y171809D01*
X41228Y171906D01*
X41180Y172004D01*
X41136Y172103D01*
X41096Y172204D01*
X41059Y172307D01*
X41026Y172411D01*
X40996Y172515D01*
X40971Y172621D01*
X40949Y172728D01*
X40932Y172836D01*
X40918Y172944D01*
X40908Y173052D01*
X40902Y173161D01*
X40900Y173270D01*
X130900Y173270D02*
X130902Y173379D01*
X130908Y173488D01*
X130918Y173596D01*
X130932Y173704D01*
X130949Y173812D01*
X130971Y173919D01*
X130996Y174025D01*
X131026Y174129D01*
X131059Y174233D01*
X131096Y174336D01*
X131136Y174437D01*
X131180Y174536D01*
X131228Y174634D01*
X131280Y174731D01*
X131334Y174825D01*
X131392Y174917D01*
X131454Y175007D01*
X131519Y175094D01*
X131586Y175180D01*
X131657Y175263D01*
X131731Y175343D01*
X131808Y175420D01*
X131887Y175495D01*
X131969Y175566D01*
X132054Y175635D01*
X132141Y175700D01*
X132230Y175763D01*
X132322Y175821D01*
X132416Y175877D01*
X132511Y175929D01*
X132609Y175978D01*
X132708Y176023D01*
X132809Y176065D01*
X132911Y176102D01*
X133014Y176136D01*
X133119Y176167D01*
X133225Y176193D01*
X133331Y176216D01*
X133439Y176234D01*
X133547Y176249D01*
X133655Y176260D01*
X133764Y176267D01*
X133873Y176270D01*
X133982Y176269D01*
X134091Y176264D01*
X134199Y176255D01*
X134307Y176242D01*
X134415Y176225D01*
X134522Y176205D01*
X134628Y176180D01*
X134733Y176152D01*
X134837Y176120D01*
X134940Y176084D01*
X135042Y176044D01*
X135142Y176001D01*
X135240Y175954D01*
X135337Y175904D01*
X135431Y175850D01*
X135524Y175792D01*
X135615Y175732D01*
X135703Y175668D01*
X135789Y175601D01*
X135872Y175531D01*
X135953Y175458D01*
X136031Y175382D01*
X136106Y175303D01*
X136179Y175221D01*
X136248Y175137D01*
X136314Y175051D01*
X136377Y174962D01*
X136437Y174871D01*
X136494Y174778D01*
X136547Y174683D01*
X136596Y174586D01*
X136642Y174487D01*
X136684Y174387D01*
X136723Y174285D01*
X136758Y174181D01*
X136789Y174077D01*
X136817Y173972D01*
X136840Y173865D01*
X136860Y173758D01*
X136876Y173650D01*
X136888Y173542D01*
X136896Y173433D01*
X136900Y173324D01*
X136900Y173216D01*
X136896Y173107D01*
X136888Y172998D01*
X136876Y172890D01*
X136860Y172782D01*
X136840Y172675D01*
X136817Y172568D01*
X136789Y172463D01*
X136758Y172359D01*
X136723Y172255D01*
X136684Y172153D01*
X136642Y172053D01*
X136596Y171954D01*
X136547Y171857D01*
X136494Y171762D01*
X136437Y171669D01*
X136377Y171578D01*
X136314Y171489D01*
X136248Y171403D01*
X136179Y171319D01*
X136106Y171237D01*
X136031Y171158D01*
X135953Y171082D01*
X135872Y171009D01*
X135789Y170939D01*
X135703Y170872D01*
X135615Y170808D01*
X135524Y170748D01*
X135431Y170690D01*
X135337Y170636D01*
X135240Y170586D01*
X135142Y170539D01*
X135042Y170496D01*
X134940Y170456D01*
X134837Y170420D01*
X134733Y170388D01*
X134628Y170360D01*
X134522Y170335D01*
X134415Y170315D01*
X134307Y170298D01*
X134199Y170285D01*
X134091Y170276D01*
X133982Y170271D01*
X133873Y170270D01*
X133764Y170273D01*
X133655Y170280D01*
X133547Y170291D01*
X133439Y170306D01*
X133331Y170324D01*
X133225Y170347D01*
X133119Y170373D01*
X133014Y170404D01*
X132911Y170438D01*
X132809Y170475D01*
X132708Y170517D01*
X132609Y170562D01*
X132511Y170611D01*
X132416Y170663D01*
X132322Y170719D01*
X132230Y170777D01*
X132141Y170840D01*
X132054Y170905D01*
X131969Y170974D01*
X131887Y171045D01*
X131808Y171120D01*
X131731Y171197D01*
X131657Y171277D01*
X131586Y171360D01*
X131519Y171446D01*
X131454Y171533D01*
X131392Y171623D01*
X131334Y171715D01*
X131280Y171809D01*
X131228Y171906D01*
X131180Y172004D01*
X131136Y172103D01*
X131096Y172204D01*
X131059Y172307D01*
X131026Y172411D01*
X130996Y172515D01*
X130971Y172621D01*
X130949Y172728D01*
X130932Y172836D01*
X130918Y172944D01*
X130908Y173052D01*
X130902Y173161D01*
X130900Y173270D01*
X130900Y83270D02*
X130902Y83379D01*
X130908Y83488D01*
X130918Y83596D01*
X130932Y83704D01*
X130949Y83812D01*
X130971Y83919D01*
X130996Y84025D01*
X131026Y84129D01*
X131059Y84233D01*
X131096Y84336D01*
X131136Y84437D01*
X131180Y84536D01*
X131228Y84634D01*
X131280Y84731D01*
X131334Y84825D01*
X131392Y84917D01*
X131454Y85007D01*
X131519Y85094D01*
X131586Y85180D01*
X131657Y85263D01*
X131731Y85343D01*
X131808Y85420D01*
X131887Y85495D01*
X131969Y85566D01*
X132054Y85635D01*
X132141Y85700D01*
X132230Y85763D01*
X132322Y85821D01*
X132416Y85877D01*
X132511Y85929D01*
X132609Y85978D01*
X132708Y86023D01*
X132809Y86065D01*
X132911Y86102D01*
X133014Y86136D01*
X133119Y86167D01*
X133225Y86193D01*
X133331Y86216D01*
X133439Y86234D01*
X133547Y86249D01*
X133655Y86260D01*
X133764Y86267D01*
X133873Y86270D01*
X133982Y86269D01*
X134091Y86264D01*
X134199Y86255D01*
X134307Y86242D01*
X134415Y86225D01*
X134522Y86205D01*
X134628Y86180D01*
X134733Y86152D01*
X134837Y86120D01*
X134940Y86084D01*
X135042Y86044D01*
X135142Y86001D01*
X135240Y85954D01*
X135337Y85904D01*
X135431Y85850D01*
X135524Y85792D01*
X135615Y85732D01*
X135703Y85668D01*
X135789Y85601D01*
X135872Y85531D01*
X135953Y85458D01*
X136031Y85382D01*
X136106Y85303D01*
X136179Y85221D01*
X136248Y85137D01*
X136314Y85051D01*
X136377Y84962D01*
X136437Y84871D01*
X136494Y84778D01*
X136547Y84683D01*
X136596Y84586D01*
X136642Y84487D01*
X136684Y84387D01*
X136723Y84285D01*
X136758Y84181D01*
X136789Y84077D01*
X136817Y83972D01*
X136840Y83865D01*
X136860Y83758D01*
X136876Y83650D01*
X136888Y83542D01*
X136896Y83433D01*
X136900Y83324D01*
X136900Y83216D01*
X136896Y83107D01*
X136888Y82998D01*
X136876Y82890D01*
X136860Y82782D01*
X136840Y82675D01*
X136817Y82568D01*
X136789Y82463D01*
X136758Y82359D01*
X136723Y82255D01*
X136684Y82153D01*
X136642Y82053D01*
X136596Y81954D01*
X136547Y81857D01*
X136494Y81762D01*
X136437Y81669D01*
X136377Y81578D01*
X136314Y81489D01*
X136248Y81403D01*
X136179Y81319D01*
X136106Y81237D01*
X136031Y81158D01*
X135953Y81082D01*
X135872Y81009D01*
X135789Y80939D01*
X135703Y80872D01*
X135615Y80808D01*
X135524Y80748D01*
X135431Y80690D01*
X135337Y80636D01*
X135240Y80586D01*
X135142Y80539D01*
X135042Y80496D01*
X134940Y80456D01*
X134837Y80420D01*
X134733Y80388D01*
X134628Y80360D01*
X134522Y80335D01*
X134415Y80315D01*
X134307Y80298D01*
X134199Y80285D01*
X134091Y80276D01*
X133982Y80271D01*
X133873Y80270D01*
X133764Y80273D01*
X133655Y80280D01*
X133547Y80291D01*
X133439Y80306D01*
X133331Y80324D01*
X133225Y80347D01*
X133119Y80373D01*
X133014Y80404D01*
X132911Y80438D01*
X132809Y80475D01*
X132708Y80517D01*
X132609Y80562D01*
X132511Y80611D01*
X132416Y80663D01*
X132322Y80719D01*
X132230Y80777D01*
X132141Y80840D01*
X132054Y80905D01*
X131969Y80974D01*
X131887Y81045D01*
X131808Y81120D01*
X131731Y81197D01*
X131657Y81277D01*
X131586Y81360D01*
X131519Y81446D01*
X131454Y81533D01*
X131392Y81623D01*
X131334Y81715D01*
X131280Y81809D01*
X131228Y81906D01*
X131180Y82004D01*
X131136Y82103D01*
X131096Y82204D01*
X131059Y82307D01*
X131026Y82411D01*
X130996Y82515D01*
X130971Y82621D01*
X130949Y82728D01*
X130932Y82836D01*
X130918Y82944D01*
X130908Y83052D01*
X130902Y83161D01*
X130900Y83270D01*
X40900Y83270D02*
X40902Y83379D01*
X40908Y83488D01*
X40918Y83596D01*
X40932Y83704D01*
X40949Y83812D01*
X40971Y83919D01*
X40996Y84025D01*
X41026Y84129D01*
X41059Y84233D01*
X41096Y84336D01*
X41136Y84437D01*
X41180Y84536D01*
X41228Y84634D01*
X41280Y84731D01*
X41334Y84825D01*
X41392Y84917D01*
X41454Y85007D01*
X41519Y85094D01*
X41586Y85180D01*
X41657Y85263D01*
X41731Y85343D01*
X41808Y85420D01*
X41887Y85495D01*
X41969Y85566D01*
X42054Y85635D01*
X42141Y85700D01*
X42230Y85763D01*
X42322Y85821D01*
X42416Y85877D01*
X42511Y85929D01*
X42609Y85978D01*
X42708Y86023D01*
X42809Y86065D01*
X42911Y86102D01*
X43014Y86136D01*
X43119Y86167D01*
X43225Y86193D01*
X43331Y86216D01*
X43439Y86234D01*
X43547Y86249D01*
X43655Y86260D01*
X43764Y86267D01*
X43873Y86270D01*
X43982Y86269D01*
X44091Y86264D01*
X44199Y86255D01*
X44307Y86242D01*
X44415Y86225D01*
X44522Y86205D01*
X44628Y86180D01*
X44733Y86152D01*
X44837Y86120D01*
X44940Y86084D01*
X45042Y86044D01*
X45142Y86001D01*
X45240Y85954D01*
X45337Y85904D01*
X45431Y85850D01*
X45524Y85792D01*
X45615Y85732D01*
X45703Y85668D01*
X45789Y85601D01*
X45872Y85531D01*
X45953Y85458D01*
X46031Y85382D01*
X46106Y85303D01*
X46179Y85221D01*
X46248Y85137D01*
X46314Y85051D01*
X46377Y84962D01*
X46437Y84871D01*
X46494Y84778D01*
X46547Y84683D01*
X46596Y84586D01*
X46642Y84487D01*
X46684Y84387D01*
X46723Y84285D01*
X46758Y84181D01*
X46789Y84077D01*
X46817Y83972D01*
X46840Y83865D01*
X46860Y83758D01*
X46876Y83650D01*
X46888Y83542D01*
X46896Y83433D01*
X46900Y83324D01*
X46900Y83216D01*
X46896Y83107D01*
X46888Y82998D01*
X46876Y82890D01*
X46860Y82782D01*
X46840Y82675D01*
X46817Y82568D01*
X46789Y82463D01*
X46758Y82359D01*
X46723Y82255D01*
X46684Y82153D01*
X46642Y82053D01*
X46596Y81954D01*
X46547Y81857D01*
X46494Y81762D01*
X46437Y81669D01*
X46377Y81578D01*
X46314Y81489D01*
X46248Y81403D01*
X46179Y81319D01*
X46106Y81237D01*
X46031Y81158D01*
X45953Y81082D01*
X45872Y81009D01*
X45789Y80939D01*
X45703Y80872D01*
X45615Y80808D01*
X45524Y80748D01*
X45431Y80690D01*
X45337Y80636D01*
X45240Y80586D01*
X45142Y80539D01*
X45042Y80496D01*
X44940Y80456D01*
X44837Y80420D01*
X44733Y80388D01*
X44628Y80360D01*
X44522Y80335D01*
X44415Y80315D01*
X44307Y80298D01*
X44199Y80285D01*
X44091Y80276D01*
X43982Y80271D01*
X43873Y80270D01*
X43764Y80273D01*
X43655Y80280D01*
X43547Y80291D01*
X43439Y80306D01*
X43331Y80324D01*
X43225Y80347D01*
X43119Y80373D01*
X43014Y80404D01*
X42911Y80438D01*
X42809Y80475D01*
X42708Y80517D01*
X42609Y80562D01*
X42511Y80611D01*
X42416Y80663D01*
X42322Y80719D01*
X42230Y80777D01*
X42141Y80840D01*
X42054Y80905D01*
X41969Y80974D01*
X41887Y81045D01*
X41808Y81120D01*
X41731Y81197D01*
X41657Y81277D01*
X41586Y81360D01*
X41519Y81446D01*
X41454Y81533D01*
X41392Y81623D01*
X41334Y81715D01*
X41280Y81809D01*
X41228Y81906D01*
X41180Y82004D01*
X41136Y82103D01*
X41096Y82204D01*
X41059Y82307D01*
X41026Y82411D01*
X40996Y82515D01*
X40971Y82621D01*
X40949Y82728D01*
X40932Y82836D01*
X40918Y82944D01*
X40908Y83052D01*
X40902Y83161D01*
X40900Y83270D01*
M02*
