G04 EAGLE Gerber RS-274X export*
G75*
%MOMM*%
%FSLAX34Y34*%
%LPD*%
%INSilkscreen Bottom*%
%IPPOS*%
%AMOC8*
5,1,8,0,0,1.08239X$1,22.5*%
G01*
%ADD10C,0.152400*%


D10*
X-15827Y114300D02*
X-15795Y116870D01*
X-15701Y119439D01*
X-15543Y122004D01*
X-15323Y124565D01*
X-15039Y127120D01*
X-14693Y129667D01*
X-14285Y132204D01*
X-13815Y134731D01*
X-13282Y137246D01*
X-12688Y139747D01*
X-12033Y142232D01*
X-11317Y144701D01*
X-10541Y147151D01*
X-9705Y149581D01*
X-8810Y151991D01*
X-7855Y154377D01*
X-6842Y156740D01*
X-5772Y159077D01*
X-4645Y161386D01*
X-3461Y163668D01*
X-2222Y165920D01*
X-927Y168140D01*
X421Y170329D01*
X1823Y172483D01*
X3277Y174603D01*
X4782Y176686D01*
X6339Y178731D01*
X7945Y180738D01*
X9600Y182705D01*
X11302Y184630D01*
X13052Y186514D01*
X14847Y188353D01*
X16686Y190148D01*
X18570Y191898D01*
X20495Y193600D01*
X22462Y195255D01*
X24469Y196861D01*
X26514Y198418D01*
X28597Y199923D01*
X30717Y201377D01*
X32871Y202779D01*
X35060Y204127D01*
X37280Y205422D01*
X39532Y206661D01*
X41814Y207845D01*
X44123Y208972D01*
X46460Y210042D01*
X48823Y211055D01*
X51209Y212010D01*
X53619Y212905D01*
X56049Y213741D01*
X58499Y214517D01*
X60968Y215233D01*
X63453Y215888D01*
X65954Y216482D01*
X68469Y217015D01*
X70996Y217485D01*
X73533Y217893D01*
X76080Y218239D01*
X78635Y218523D01*
X81196Y218743D01*
X83761Y218901D01*
X86330Y218995D01*
X88900Y219027D01*
X91470Y218995D01*
X94039Y218901D01*
X96604Y218743D01*
X99165Y218523D01*
X101720Y218239D01*
X104267Y217893D01*
X106804Y217485D01*
X109331Y217015D01*
X111846Y216482D01*
X114347Y215888D01*
X116832Y215233D01*
X119301Y214517D01*
X121751Y213741D01*
X124181Y212905D01*
X126591Y212010D01*
X128977Y211055D01*
X131340Y210042D01*
X133677Y208972D01*
X135986Y207845D01*
X138268Y206661D01*
X140520Y205422D01*
X142740Y204127D01*
X144929Y202779D01*
X147083Y201377D01*
X149203Y199923D01*
X151286Y198418D01*
X153331Y196861D01*
X155338Y195255D01*
X157305Y193600D01*
X159230Y191898D01*
X161114Y190148D01*
X162953Y188353D01*
X164748Y186514D01*
X166498Y184630D01*
X168200Y182705D01*
X169855Y180738D01*
X171461Y178731D01*
X173018Y176686D01*
X174523Y174603D01*
X175977Y172483D01*
X177379Y170329D01*
X178727Y168140D01*
X180022Y165920D01*
X181261Y163668D01*
X182445Y161386D01*
X183572Y159077D01*
X184642Y156740D01*
X185655Y154377D01*
X186610Y151991D01*
X187505Y149581D01*
X188341Y147151D01*
X189117Y144701D01*
X189833Y142232D01*
X190488Y139747D01*
X191082Y137246D01*
X191615Y134731D01*
X192085Y132204D01*
X192493Y129667D01*
X192839Y127120D01*
X193123Y124565D01*
X193343Y122004D01*
X193501Y119439D01*
X193595Y116870D01*
X193627Y114300D01*
X193595Y111730D01*
X193501Y109161D01*
X193343Y106596D01*
X193123Y104035D01*
X192839Y101480D01*
X192493Y98933D01*
X192085Y96396D01*
X191615Y93869D01*
X191082Y91354D01*
X190488Y88853D01*
X189833Y86368D01*
X189117Y83899D01*
X188341Y81449D01*
X187505Y79019D01*
X186610Y76609D01*
X185655Y74223D01*
X184642Y71860D01*
X183572Y69523D01*
X182445Y67214D01*
X181261Y64932D01*
X180022Y62680D01*
X178727Y60460D01*
X177379Y58271D01*
X175977Y56117D01*
X174523Y53997D01*
X173018Y51914D01*
X171461Y49869D01*
X169855Y47862D01*
X168200Y45895D01*
X166498Y43970D01*
X164748Y42086D01*
X162953Y40247D01*
X161114Y38452D01*
X159230Y36702D01*
X157305Y35000D01*
X155338Y33345D01*
X153331Y31739D01*
X151286Y30182D01*
X149203Y28677D01*
X147083Y27223D01*
X144929Y25821D01*
X142740Y24473D01*
X140520Y23178D01*
X138268Y21939D01*
X135986Y20755D01*
X133677Y19628D01*
X131340Y18558D01*
X128977Y17545D01*
X126591Y16590D01*
X124181Y15695D01*
X121751Y14859D01*
X119301Y14083D01*
X116832Y13367D01*
X114347Y12712D01*
X111846Y12118D01*
X109331Y11585D01*
X106804Y11115D01*
X104267Y10707D01*
X101720Y10361D01*
X99165Y10077D01*
X96604Y9857D01*
X94039Y9699D01*
X91470Y9605D01*
X88900Y9573D01*
X86330Y9605D01*
X83761Y9699D01*
X81196Y9857D01*
X78635Y10077D01*
X76080Y10361D01*
X73533Y10707D01*
X70996Y11115D01*
X68469Y11585D01*
X65954Y12118D01*
X63453Y12712D01*
X60968Y13367D01*
X58499Y14083D01*
X56049Y14859D01*
X53619Y15695D01*
X51209Y16590D01*
X48823Y17545D01*
X46460Y18558D01*
X44123Y19628D01*
X41814Y20755D01*
X39532Y21939D01*
X37280Y23178D01*
X35060Y24473D01*
X32871Y25821D01*
X30717Y27223D01*
X28597Y28677D01*
X26514Y30182D01*
X24469Y31739D01*
X22462Y33345D01*
X20495Y35000D01*
X18570Y36702D01*
X16686Y38452D01*
X14847Y40247D01*
X13052Y42086D01*
X11302Y43970D01*
X9600Y45895D01*
X7945Y47862D01*
X6339Y49869D01*
X4782Y51914D01*
X3277Y53997D01*
X1823Y56117D01*
X421Y58271D01*
X-927Y60460D01*
X-2222Y62680D01*
X-3461Y64932D01*
X-4645Y67214D01*
X-5772Y69523D01*
X-6842Y71860D01*
X-7855Y74223D01*
X-8810Y76609D01*
X-9705Y79019D01*
X-10541Y81449D01*
X-11317Y83899D01*
X-12033Y86368D01*
X-12688Y88853D01*
X-13282Y91354D01*
X-13815Y93869D01*
X-14285Y96396D01*
X-14693Y98933D01*
X-15039Y101480D01*
X-15323Y104035D01*
X-15543Y106596D01*
X-15701Y109161D01*
X-15795Y111730D01*
X-15827Y114300D01*
X-7820Y114300D02*
X-7791Y116674D01*
X-7703Y119046D01*
X-7558Y121415D01*
X-7354Y123780D01*
X-7093Y126140D01*
X-6773Y128492D01*
X-6396Y130835D01*
X-5962Y133169D01*
X-5470Y135491D01*
X-4921Y137801D01*
X-4316Y140096D01*
X-3655Y142376D01*
X-2938Y144639D01*
X-2166Y146884D01*
X-1339Y149109D01*
X-458Y151313D01*
X478Y153495D01*
X1466Y155653D01*
X2507Y157786D01*
X3601Y159893D01*
X4745Y161973D01*
X5940Y164024D01*
X7186Y166045D01*
X8480Y168035D01*
X9823Y169992D01*
X11214Y171916D01*
X12651Y173805D01*
X14134Y175659D01*
X15663Y177475D01*
X17235Y179253D01*
X18851Y180992D01*
X20509Y182691D01*
X22208Y184349D01*
X23947Y185965D01*
X25725Y187537D01*
X27541Y189066D01*
X29395Y190549D01*
X31284Y191986D01*
X33208Y193377D01*
X35165Y194720D01*
X37155Y196014D01*
X39176Y197260D01*
X41227Y198455D01*
X43307Y199599D01*
X45414Y200693D01*
X47547Y201734D01*
X49705Y202722D01*
X51887Y203658D01*
X54091Y204539D01*
X56316Y205366D01*
X58561Y206138D01*
X60824Y206855D01*
X63104Y207516D01*
X65399Y208121D01*
X67709Y208670D01*
X70031Y209162D01*
X72365Y209596D01*
X74708Y209973D01*
X77060Y210293D01*
X79420Y210554D01*
X81785Y210758D01*
X84154Y210903D01*
X86526Y210991D01*
X88900Y211020D01*
X91274Y210991D01*
X93646Y210903D01*
X96015Y210758D01*
X98380Y210554D01*
X100740Y210293D01*
X103092Y209973D01*
X105435Y209596D01*
X107769Y209162D01*
X110091Y208670D01*
X112401Y208121D01*
X114696Y207516D01*
X116976Y206855D01*
X119239Y206138D01*
X121484Y205366D01*
X123709Y204539D01*
X125913Y203658D01*
X128095Y202722D01*
X130253Y201734D01*
X132386Y200693D01*
X134493Y199599D01*
X136573Y198455D01*
X138624Y197260D01*
X140645Y196014D01*
X142635Y194720D01*
X144592Y193377D01*
X146516Y191986D01*
X148405Y190549D01*
X150259Y189066D01*
X152075Y187537D01*
X153853Y185965D01*
X155592Y184349D01*
X157291Y182691D01*
X158949Y180992D01*
X160565Y179253D01*
X162137Y177475D01*
X163666Y175659D01*
X165149Y173805D01*
X166586Y171916D01*
X167977Y169992D01*
X169320Y168035D01*
X170614Y166045D01*
X171860Y164024D01*
X173055Y161973D01*
X174199Y159893D01*
X175293Y157786D01*
X176334Y155653D01*
X177322Y153495D01*
X178258Y151313D01*
X179139Y149109D01*
X179966Y146884D01*
X180738Y144639D01*
X181455Y142376D01*
X182116Y140096D01*
X182721Y137801D01*
X183270Y135491D01*
X183762Y133169D01*
X184196Y130835D01*
X184573Y128492D01*
X184893Y126140D01*
X185154Y123780D01*
X185358Y121415D01*
X185503Y119046D01*
X185591Y116674D01*
X185620Y114300D01*
X185591Y111926D01*
X185503Y109554D01*
X185358Y107185D01*
X185154Y104820D01*
X184893Y102460D01*
X184573Y100108D01*
X184196Y97765D01*
X183762Y95431D01*
X183270Y93109D01*
X182721Y90799D01*
X182116Y88504D01*
X181455Y86224D01*
X180738Y83961D01*
X179966Y81716D01*
X179139Y79491D01*
X178258Y77287D01*
X177322Y75105D01*
X176334Y72947D01*
X175293Y70814D01*
X174199Y68707D01*
X173055Y66627D01*
X171860Y64576D01*
X170614Y62555D01*
X169320Y60565D01*
X167977Y58608D01*
X166586Y56684D01*
X165149Y54795D01*
X163666Y52941D01*
X162137Y51125D01*
X160565Y49347D01*
X158949Y47608D01*
X157291Y45909D01*
X155592Y44251D01*
X153853Y42635D01*
X152075Y41063D01*
X150259Y39534D01*
X148405Y38051D01*
X146516Y36614D01*
X144592Y35223D01*
X142635Y33880D01*
X140645Y32586D01*
X138624Y31340D01*
X136573Y30145D01*
X134493Y29001D01*
X132386Y27907D01*
X130253Y26866D01*
X128095Y25878D01*
X125913Y24942D01*
X123709Y24061D01*
X121484Y23234D01*
X119239Y22462D01*
X116976Y21745D01*
X114696Y21084D01*
X112401Y20479D01*
X110091Y19930D01*
X107769Y19438D01*
X105435Y19004D01*
X103092Y18627D01*
X100740Y18307D01*
X98380Y18046D01*
X96015Y17842D01*
X93646Y17697D01*
X91274Y17609D01*
X88900Y17580D01*
X86526Y17609D01*
X84154Y17697D01*
X81785Y17842D01*
X79420Y18046D01*
X77060Y18307D01*
X74708Y18627D01*
X72365Y19004D01*
X70031Y19438D01*
X67709Y19930D01*
X65399Y20479D01*
X63104Y21084D01*
X60824Y21745D01*
X58561Y22462D01*
X56316Y23234D01*
X54091Y24061D01*
X51887Y24942D01*
X49705Y25878D01*
X47547Y26866D01*
X45414Y27907D01*
X43307Y29001D01*
X41227Y30145D01*
X39176Y31340D01*
X37155Y32586D01*
X35165Y33880D01*
X33208Y35223D01*
X31284Y36614D01*
X29395Y38051D01*
X27541Y39534D01*
X25725Y41063D01*
X23947Y42635D01*
X22208Y44251D01*
X20509Y45909D01*
X18851Y47608D01*
X17235Y49347D01*
X15663Y51125D01*
X14134Y52941D01*
X12651Y54795D01*
X11214Y56684D01*
X9823Y58608D01*
X8480Y60565D01*
X7186Y62555D01*
X5940Y64576D01*
X4745Y66627D01*
X3601Y68707D01*
X2507Y70814D01*
X1466Y72947D01*
X478Y75105D01*
X-458Y77287D01*
X-1339Y79491D01*
X-2166Y81716D01*
X-2938Y83961D01*
X-3655Y86224D01*
X-4316Y88504D01*
X-4921Y90799D01*
X-5470Y93109D01*
X-5962Y95431D01*
X-6396Y97765D01*
X-6773Y100108D01*
X-7093Y102460D01*
X-7354Y104820D01*
X-7558Y107185D01*
X-7703Y109554D01*
X-7791Y111926D01*
X-7820Y114300D01*
M02*
