M48
;GenerationSoftware,Autodesk,EAGLE,9.5.2*%
;CreationDate,2019-12-19T16:18:43Z*%
FMAT,2
ICI,OFF
METRIC,TZ,000.000
T5C0.300
T4C0.600
T3C0.813
T2C0.914
T1C0.965
%
G90
M71
T1
X20320Y45720
X22860Y45720
X25400Y45720
X27940Y45720
X27940Y43180
X27940Y40640
X27940Y35560
X27940Y33020
X27940Y30480
X27940Y27940
X27940Y25400
X27940Y22860
X27940Y20320
X27940Y17780
X27940Y15240
X27940Y12700
X33020Y12700
X33020Y15240
X33020Y17780
X33020Y20320
X33020Y22860
X33020Y40640
X33020Y25400
X33020Y27940
X33020Y30480
X33020Y33020
X33020Y35560
X33020Y38100
X33020Y43180
X33020Y45720
X35560Y45720
X38100Y45720
X40640Y45720
X43180Y45720
X45720Y45720
X48260Y45720
X48260Y43180
X48260Y40640
X48260Y38100
X48260Y35560
X48260Y33020
X48260Y30480
X48260Y27940
X48260Y25400
X48260Y22860
X48260Y20320
X48260Y17780
X48260Y15240
X48260Y12700
X12700Y12700
X12700Y15240
X12700Y17780
X12700Y20320
X12700Y22860
X12700Y25400
X12700Y27940
X12700Y30480
X12700Y33020
X12700Y35560
X12700Y38100
X12700Y40640
X12700Y43180
X12700Y45720
X15240Y45720
X17780Y45720
X27940Y38100
T2
X24130Y52070
X7620Y12700
X7620Y15240
X7620Y43180
X7620Y45720
X7620Y36830
X7620Y39370
X7620Y30480
X7620Y33020
X7620Y24130
X7620Y26670
X24130Y7620
X21590Y7620
X19050Y52070
X21590Y52070
T3
X7590Y8400
X15210Y8400
T4
X44450Y6350
X41910Y6350
X39370Y6350
X36830Y6350
X41910Y52070
X39370Y52070
X36830Y52070
X44450Y52070
T5
X48260Y54610
X48260Y52070
X8890Y54610
X6350Y54610
X6350Y52070
X20320Y43180
X31000Y47070
X19890Y5350
X12390Y7350
X6320Y20900
X9320Y17900
X9320Y20900
X6320Y17900
X26140Y6290
X29640Y6290
X33640Y6290
X31750Y51070
X40140Y27790
X40140Y30290
X40250Y40570
X27750Y51070
X29750Y53070
X33750Y53070
X21820Y55680
X15320Y55180
X10820Y52180
X42140Y9290
X13890Y5350
X18390Y7350
X24320Y12900
X16320Y13400
X44140Y11790
X44140Y15790
X44140Y19290
X44140Y23290
X36140Y11790
X36140Y15790
X36140Y19290
X36140Y23290
X44250Y36070
X35750Y36070
X24320Y39790
X20320Y39790
X16820Y39790
X24320Y29400
X16320Y29400
X24320Y21900
X16320Y21900
X20320Y21900
X24320Y25400
X16320Y25290
X24320Y34290
X16820Y34290
X7820Y19400
X10320Y48680
X13820Y50680
X47140Y49180
X43640Y49180
X24320Y17400
X6350Y6350
X35750Y40570
X16320Y17400
X36140Y27790
X44140Y27790
X44140Y30290
X36140Y30290
X44250Y40570
X28750Y52070
X32750Y52070
X20320Y13240
X20320Y17400
X20320Y34290
X8890Y6350
X45720Y6350
X48260Y6350
X48260Y8890
X40140Y16010
X40640Y25400
X40640Y34290
X40640Y43180
X45720Y54610
X20320Y25400
M30