G04 EAGLE Gerber RS-274X export*
G75*
%MOMM*%
%FSLAX34Y34*%
%LPD*%
%INTop Copper*%
%IPPOS*%
%AMOC8*
5,1,8,0,0,1.08239X$1,22.5*%
G01*
%ADD10C,1.422400*%
%ADD11C,1.473200*%
%ADD12C,1.108000*%
%ADD13C,1.320800*%
%ADD14C,0.812800*%
%ADD15C,0.406400*%
%ADD16C,0.706400*%

G36*
X221109Y42194D02*
X221109Y42194D01*
X221118Y42193D01*
X221309Y42214D01*
X221500Y42233D01*
X221509Y42235D01*
X221518Y42236D01*
X221700Y42294D01*
X221885Y42351D01*
X221893Y42355D01*
X221902Y42358D01*
X222070Y42451D01*
X222239Y42543D01*
X222246Y42548D01*
X222254Y42553D01*
X222402Y42678D01*
X222549Y42800D01*
X222554Y42807D01*
X222561Y42813D01*
X222681Y42965D01*
X222801Y43114D01*
X222805Y43122D01*
X222811Y43129D01*
X222898Y43301D01*
X222986Y43471D01*
X222989Y43480D01*
X222993Y43488D01*
X223045Y43674D01*
X223098Y43858D01*
X223099Y43867D01*
X223101Y43876D01*
X223115Y44068D01*
X223131Y44260D01*
X223130Y44268D01*
X223130Y44277D01*
X223106Y44470D01*
X223084Y44659D01*
X223081Y44668D01*
X223080Y44677D01*
X223018Y44860D01*
X222959Y45042D01*
X222954Y45050D01*
X222952Y45058D01*
X222856Y45224D01*
X222761Y45393D01*
X222755Y45400D01*
X222751Y45407D01*
X222536Y45660D01*
X220752Y47444D01*
X211162Y57034D01*
X210311Y59088D01*
X210311Y61621D01*
X210309Y61648D01*
X210311Y61675D01*
X210289Y61849D01*
X210271Y62022D01*
X210264Y62047D01*
X210260Y62074D01*
X210204Y62240D01*
X210153Y62407D01*
X210140Y62430D01*
X210132Y62456D01*
X210045Y62607D01*
X209961Y62761D01*
X209944Y62781D01*
X209931Y62805D01*
X209716Y63058D01*
X208578Y64196D01*
X207263Y67370D01*
X207263Y85030D01*
X208578Y88204D01*
X211008Y90634D01*
X214182Y91949D01*
X217618Y91949D01*
X220792Y90634D01*
X223222Y88204D01*
X224537Y85030D01*
X224537Y67370D01*
X223222Y64196D01*
X222951Y63925D01*
X222940Y63911D01*
X222926Y63900D01*
X222812Y63755D01*
X222696Y63614D01*
X222688Y63598D01*
X222677Y63584D01*
X222593Y63419D01*
X222508Y63258D01*
X222502Y63241D01*
X222494Y63225D01*
X222445Y63048D01*
X222393Y62872D01*
X222391Y62854D01*
X222386Y62837D01*
X222373Y62654D01*
X222356Y62471D01*
X222358Y62453D01*
X222357Y62435D01*
X222380Y62253D01*
X222400Y62071D01*
X222405Y62054D01*
X222407Y62036D01*
X222466Y61862D01*
X222521Y61687D01*
X222530Y61671D01*
X222536Y61654D01*
X222627Y61495D01*
X222716Y61335D01*
X222728Y61321D01*
X222737Y61305D01*
X222951Y61052D01*
X227496Y56508D01*
X227517Y56491D01*
X227534Y56470D01*
X227672Y56363D01*
X227808Y56253D01*
X227831Y56240D01*
X227852Y56224D01*
X228009Y56146D01*
X228163Y56064D01*
X228189Y56056D01*
X228213Y56044D01*
X228382Y55999D01*
X228549Y55949D01*
X228576Y55947D01*
X228602Y55940D01*
X228932Y55913D01*
X360992Y55913D01*
X361001Y55914D01*
X361010Y55913D01*
X361201Y55934D01*
X361393Y55953D01*
X361402Y55955D01*
X361411Y55956D01*
X361595Y56015D01*
X361778Y56071D01*
X361786Y56075D01*
X361794Y56078D01*
X361964Y56171D01*
X362132Y56263D01*
X362139Y56268D01*
X362147Y56273D01*
X362294Y56398D01*
X362441Y56520D01*
X362447Y56527D01*
X362454Y56533D01*
X362573Y56684D01*
X362694Y56834D01*
X362698Y56842D01*
X362703Y56849D01*
X362791Y57022D01*
X362879Y57191D01*
X362881Y57200D01*
X362886Y57208D01*
X362937Y57394D01*
X362990Y57578D01*
X362991Y57587D01*
X362994Y57596D01*
X363008Y57788D01*
X363023Y57980D01*
X363022Y57988D01*
X363023Y57997D01*
X362999Y58189D01*
X362976Y58379D01*
X362974Y58388D01*
X362973Y58397D01*
X362911Y58578D01*
X362852Y58762D01*
X362847Y58770D01*
X362844Y58778D01*
X362749Y58944D01*
X362654Y59113D01*
X362648Y59120D01*
X362643Y59127D01*
X362429Y59380D01*
X362311Y59498D01*
X361235Y62095D01*
X361235Y64905D01*
X362311Y67502D01*
X364298Y69489D01*
X367229Y70703D01*
X367233Y70705D01*
X367238Y70707D01*
X367413Y70802D01*
X367584Y70894D01*
X367588Y70896D01*
X367592Y70899D01*
X367743Y71024D01*
X367895Y71150D01*
X367898Y71153D01*
X367901Y71156D01*
X368024Y71309D01*
X368148Y71463D01*
X368151Y71467D01*
X368153Y71470D01*
X368244Y71645D01*
X368336Y71819D01*
X368337Y71823D01*
X368339Y71827D01*
X368393Y72017D01*
X368449Y72206D01*
X368449Y72210D01*
X368450Y72214D01*
X368466Y72409D01*
X368483Y72607D01*
X368483Y72611D01*
X368483Y72616D01*
X368460Y72813D01*
X368438Y73007D01*
X368437Y73011D01*
X368436Y73015D01*
X368376Y73201D01*
X368315Y73390D01*
X368313Y73394D01*
X368311Y73398D01*
X368214Y73571D01*
X368119Y73742D01*
X368116Y73745D01*
X368113Y73749D01*
X367985Y73898D01*
X367857Y74047D01*
X367853Y74050D01*
X367850Y74054D01*
X367696Y74173D01*
X367540Y74296D01*
X367536Y74298D01*
X367532Y74300D01*
X367356Y74388D01*
X367180Y74476D01*
X367176Y74478D01*
X367172Y74480D01*
X366979Y74531D01*
X366792Y74583D01*
X366787Y74583D01*
X366783Y74584D01*
X366452Y74611D01*
X261301Y74611D01*
X261270Y74608D01*
X261239Y74610D01*
X261069Y74588D01*
X260900Y74571D01*
X260871Y74562D01*
X260840Y74558D01*
X260524Y74457D01*
X255808Y72503D01*
X253668Y71617D01*
X253667Y71617D01*
X251191Y70591D01*
X251171Y70580D01*
X251150Y70573D01*
X250993Y70485D01*
X250836Y70401D01*
X250819Y70386D01*
X250799Y70375D01*
X250663Y70258D01*
X250525Y70144D01*
X250511Y70127D01*
X250494Y70112D01*
X250385Y69971D01*
X250272Y69832D01*
X250261Y69812D01*
X250248Y69794D01*
X250168Y69633D01*
X250085Y69475D01*
X250078Y69454D01*
X250068Y69434D01*
X250022Y69260D01*
X249972Y69089D01*
X249970Y69066D01*
X249964Y69045D01*
X249937Y68714D01*
X249937Y67370D01*
X248622Y64196D01*
X246192Y61766D01*
X243018Y60451D01*
X239582Y60451D01*
X236408Y61766D01*
X233978Y64196D01*
X232663Y67370D01*
X232663Y85030D01*
X233978Y88204D01*
X236408Y90634D01*
X239582Y91949D01*
X243018Y91949D01*
X246192Y90634D01*
X248622Y88204D01*
X249960Y84973D01*
X249977Y84809D01*
X249981Y84796D01*
X249982Y84783D01*
X250040Y84604D01*
X250095Y84424D01*
X250101Y84412D01*
X250105Y84400D01*
X250197Y84235D01*
X250287Y84070D01*
X250295Y84060D01*
X250302Y84048D01*
X250424Y83905D01*
X250544Y83761D01*
X250555Y83753D01*
X250563Y83742D01*
X250712Y83626D01*
X250858Y83509D01*
X250870Y83502D01*
X250880Y83494D01*
X251049Y83409D01*
X251215Y83323D01*
X251228Y83319D01*
X251240Y83313D01*
X251422Y83264D01*
X251602Y83212D01*
X251616Y83211D01*
X251629Y83207D01*
X251817Y83194D01*
X252004Y83179D01*
X252017Y83180D01*
X252030Y83179D01*
X252218Y83204D01*
X252403Y83226D01*
X252416Y83230D01*
X252429Y83232D01*
X252745Y83333D01*
X256246Y84783D01*
X256786Y85007D01*
X258674Y85789D01*
X386112Y85789D01*
X388166Y84938D01*
X398438Y74666D01*
X399289Y72612D01*
X399289Y68744D01*
X399291Y68717D01*
X399289Y68690D01*
X399311Y68516D01*
X399329Y68343D01*
X399336Y68318D01*
X399340Y68291D01*
X399395Y68125D01*
X399447Y67958D01*
X399460Y67935D01*
X399468Y67909D01*
X399555Y67758D01*
X399639Y67604D01*
X399655Y67584D01*
X400765Y64905D01*
X400765Y62095D01*
X399689Y59498D01*
X399571Y59380D01*
X399566Y59373D01*
X399559Y59368D01*
X399438Y59218D01*
X399316Y59069D01*
X399312Y59061D01*
X399306Y59054D01*
X399218Y58884D01*
X399128Y58713D01*
X399125Y58705D01*
X399121Y58697D01*
X399068Y58511D01*
X399013Y58327D01*
X399012Y58318D01*
X399010Y58310D01*
X398994Y58118D01*
X398976Y57926D01*
X398977Y57917D01*
X398977Y57908D01*
X398999Y57718D01*
X399020Y57526D01*
X399023Y57517D01*
X399024Y57509D01*
X399083Y57326D01*
X399141Y57142D01*
X399146Y57134D01*
X399148Y57126D01*
X399243Y56959D01*
X399336Y56790D01*
X399342Y56783D01*
X399346Y56775D01*
X399473Y56629D01*
X399597Y56483D01*
X399604Y56477D01*
X399609Y56470D01*
X399761Y56353D01*
X399913Y56233D01*
X399921Y56229D01*
X399928Y56224D01*
X400100Y56138D01*
X400271Y56051D01*
X400280Y56048D01*
X400288Y56044D01*
X400476Y55994D01*
X400659Y55943D01*
X400668Y55942D01*
X400677Y55940D01*
X401008Y55913D01*
X406768Y55913D01*
X406794Y55915D01*
X406821Y55913D01*
X406995Y55935D01*
X407168Y55953D01*
X407194Y55960D01*
X407220Y55964D01*
X407386Y56019D01*
X407553Y56071D01*
X407577Y56084D01*
X407602Y56092D01*
X407753Y56179D01*
X407907Y56263D01*
X407928Y56280D01*
X407951Y56293D01*
X408204Y56508D01*
X411590Y59893D01*
X411604Y59911D01*
X411621Y59925D01*
X411731Y60066D01*
X411845Y60205D01*
X411855Y60225D01*
X411869Y60242D01*
X411950Y60403D01*
X412034Y60561D01*
X412040Y60582D01*
X412050Y60602D01*
X412097Y60775D01*
X412148Y60947D01*
X412150Y60969D01*
X412156Y60990D01*
X412168Y61168D01*
X412185Y61348D01*
X412182Y61370D01*
X412184Y61392D01*
X412161Y61569D01*
X412141Y61748D01*
X412135Y61769D01*
X412132Y61791D01*
X412035Y62091D01*
X412035Y64905D01*
X413111Y67502D01*
X415098Y69489D01*
X417695Y70565D01*
X420505Y70565D01*
X423102Y69489D01*
X425089Y67502D01*
X426165Y64905D01*
X426165Y62095D01*
X425053Y59411D01*
X425029Y59381D01*
X425016Y59357D01*
X425000Y59336D01*
X424922Y59179D01*
X424840Y59025D01*
X424832Y59000D01*
X424820Y58976D01*
X424775Y58806D01*
X424725Y58640D01*
X424723Y58613D01*
X424716Y58587D01*
X424702Y58421D01*
X423838Y56334D01*
X414948Y47444D01*
X413164Y45660D01*
X413158Y45653D01*
X413151Y45648D01*
X413031Y45498D01*
X412909Y45349D01*
X412905Y45341D01*
X412899Y45334D01*
X412811Y45164D01*
X412720Y44993D01*
X412718Y44984D01*
X412714Y44977D01*
X412661Y44792D01*
X412605Y44607D01*
X412605Y44598D01*
X412602Y44590D01*
X412587Y44399D01*
X412569Y44206D01*
X412570Y44197D01*
X412569Y44188D01*
X412592Y43999D01*
X412612Y43806D01*
X412615Y43797D01*
X412616Y43789D01*
X412676Y43607D01*
X412734Y43422D01*
X412738Y43414D01*
X412741Y43406D01*
X412835Y43239D01*
X412929Y43070D01*
X412935Y43063D01*
X412939Y43055D01*
X413064Y42910D01*
X413189Y42763D01*
X413196Y42757D01*
X413202Y42750D01*
X413353Y42634D01*
X413505Y42513D01*
X413513Y42509D01*
X413520Y42504D01*
X413692Y42418D01*
X413864Y42331D01*
X413873Y42328D01*
X413881Y42324D01*
X414067Y42274D01*
X414252Y42223D01*
X414261Y42222D01*
X414270Y42220D01*
X414600Y42193D01*
X460000Y42193D01*
X460043Y42197D01*
X460100Y42195D01*
X464587Y42416D01*
X464658Y42426D01*
X464883Y42452D01*
X473684Y44203D01*
X473716Y44213D01*
X473750Y44217D01*
X474065Y44318D01*
X474069Y44320D01*
X474070Y44320D01*
X482356Y47753D01*
X482385Y47768D01*
X482417Y47779D01*
X482707Y47940D01*
X490168Y52926D01*
X490194Y52947D01*
X490223Y52964D01*
X490476Y53178D01*
X496822Y59524D01*
X496843Y59550D01*
X496868Y59572D01*
X497074Y59832D01*
X502060Y67293D01*
X502076Y67322D01*
X502096Y67349D01*
X502247Y67644D01*
X505682Y75935D01*
X505691Y75965D01*
X505694Y75971D01*
X505695Y75973D01*
X505706Y75997D01*
X505797Y76316D01*
X507548Y85117D01*
X507555Y85189D01*
X507584Y85413D01*
X507805Y89900D01*
X507803Y89944D01*
X507807Y90000D01*
X507807Y520000D01*
X507803Y520043D01*
X507805Y520100D01*
X507584Y524587D01*
X507574Y524658D01*
X507548Y524883D01*
X505797Y533684D01*
X505787Y533716D01*
X505783Y533750D01*
X505682Y534065D01*
X502247Y542356D01*
X502232Y542385D01*
X502221Y542417D01*
X502060Y542707D01*
X497074Y550168D01*
X497053Y550194D01*
X497036Y550223D01*
X496822Y550476D01*
X490476Y556822D01*
X490450Y556843D01*
X490428Y556868D01*
X490168Y557074D01*
X482707Y562060D01*
X482678Y562076D01*
X482651Y562096D01*
X482356Y562247D01*
X474065Y565682D01*
X474033Y565691D01*
X474003Y565706D01*
X473684Y565797D01*
X473680Y565798D01*
X464883Y567548D01*
X464811Y567555D01*
X464587Y567584D01*
X460100Y567805D01*
X460056Y567803D01*
X460000Y567807D01*
X80000Y567807D01*
X79957Y567803D01*
X79900Y567805D01*
X75413Y567584D01*
X75342Y567574D01*
X75117Y567548D01*
X66316Y565797D01*
X66284Y565787D01*
X66250Y565783D01*
X65935Y565682D01*
X65931Y565680D01*
X65930Y565680D01*
X57644Y562247D01*
X57615Y562232D01*
X57583Y562221D01*
X57293Y562060D01*
X49832Y557074D01*
X49806Y557053D01*
X49777Y557036D01*
X49524Y556822D01*
X43178Y550476D01*
X43157Y550450D01*
X43132Y550428D01*
X42926Y550168D01*
X37940Y542707D01*
X37925Y542678D01*
X37904Y542651D01*
X37753Y542356D01*
X34318Y534065D01*
X34309Y534033D01*
X34294Y534003D01*
X34203Y533684D01*
X32452Y524883D01*
X32445Y524811D01*
X32416Y524587D01*
X32195Y520100D01*
X32197Y520056D01*
X32193Y520000D01*
X32193Y90000D01*
X32197Y89957D01*
X32195Y89900D01*
X32416Y85413D01*
X32426Y85342D01*
X32452Y85117D01*
X34203Y76316D01*
X34207Y76302D01*
X34209Y76289D01*
X34214Y76272D01*
X34217Y76250D01*
X34318Y75935D01*
X37753Y67644D01*
X37768Y67615D01*
X37779Y67583D01*
X37940Y67293D01*
X42926Y59832D01*
X42947Y59806D01*
X42964Y59777D01*
X43178Y59524D01*
X49524Y53178D01*
X49550Y53157D01*
X49572Y53132D01*
X49832Y52926D01*
X57293Y47940D01*
X57322Y47925D01*
X57349Y47904D01*
X57644Y47753D01*
X65935Y44318D01*
X65967Y44309D01*
X65997Y44294D01*
X66316Y44203D01*
X66320Y44202D01*
X75117Y42452D01*
X75189Y42445D01*
X75413Y42416D01*
X79900Y42195D01*
X79944Y42197D01*
X80000Y42193D01*
X221100Y42193D01*
X221109Y42194D01*
G37*
%LPC*%
G36*
X328431Y245109D02*
X328431Y245109D01*
X325164Y246463D01*
X322663Y248964D01*
X321309Y252231D01*
X321309Y255769D01*
X322663Y259036D01*
X323302Y259676D01*
X323308Y259683D01*
X323315Y259688D01*
X323435Y259837D01*
X323557Y259987D01*
X323562Y259995D01*
X323567Y260002D01*
X323655Y260172D01*
X323746Y260343D01*
X323749Y260352D01*
X323753Y260359D01*
X323806Y260544D01*
X323861Y260729D01*
X323862Y260738D01*
X323864Y260746D01*
X323880Y260937D01*
X323897Y261130D01*
X323896Y261139D01*
X323897Y261148D01*
X323875Y261337D01*
X323854Y261530D01*
X323851Y261539D01*
X323850Y261547D01*
X323791Y261728D01*
X323732Y261914D01*
X323728Y261922D01*
X323725Y261930D01*
X323631Y262096D01*
X323537Y262266D01*
X323532Y262273D01*
X323527Y262281D01*
X323401Y262427D01*
X323277Y262573D01*
X323270Y262579D01*
X323264Y262586D01*
X323111Y262704D01*
X322961Y262823D01*
X322953Y262827D01*
X322946Y262832D01*
X322773Y262919D01*
X322602Y263005D01*
X322594Y263008D01*
X322586Y263012D01*
X322398Y263062D01*
X322214Y263113D01*
X322205Y263114D01*
X322197Y263116D01*
X321866Y263143D01*
X290627Y263143D01*
X287948Y265822D01*
X283608Y270162D01*
X283590Y270177D01*
X283576Y270194D01*
X283435Y270304D01*
X283296Y270417D01*
X283276Y270428D01*
X283259Y270442D01*
X283099Y270522D01*
X282940Y270606D01*
X282919Y270612D01*
X282899Y270622D01*
X282726Y270670D01*
X282555Y270721D01*
X282532Y270723D01*
X282511Y270729D01*
X282333Y270741D01*
X282154Y270757D01*
X282131Y270755D01*
X282109Y270756D01*
X281932Y270733D01*
X281753Y270714D01*
X281732Y270707D01*
X281710Y270704D01*
X281394Y270603D01*
X281168Y270509D01*
X277631Y270509D01*
X274364Y271863D01*
X271863Y274364D01*
X270509Y277631D01*
X270509Y281169D01*
X271863Y284436D01*
X274364Y286937D01*
X277631Y288291D01*
X281169Y288291D01*
X284436Y286937D01*
X286937Y284436D01*
X288291Y281169D01*
X288291Y277632D01*
X288197Y277406D01*
X288191Y277385D01*
X288181Y277365D01*
X288133Y277192D01*
X288081Y277021D01*
X288079Y276998D01*
X288073Y276977D01*
X288060Y276797D01*
X288043Y276620D01*
X288045Y276598D01*
X288043Y276575D01*
X288066Y276397D01*
X288084Y276219D01*
X288091Y276198D01*
X288094Y276176D01*
X288151Y276006D01*
X288204Y275835D01*
X288215Y275815D01*
X288222Y275794D01*
X288311Y275639D01*
X288397Y275482D01*
X288412Y275465D01*
X288423Y275445D01*
X288638Y275192D01*
X292978Y270852D01*
X292999Y270835D01*
X293017Y270814D01*
X293154Y270708D01*
X293290Y270597D01*
X293314Y270584D01*
X293335Y270568D01*
X293491Y270490D01*
X293646Y270408D01*
X293671Y270400D01*
X293695Y270388D01*
X293864Y270343D01*
X294031Y270293D01*
X294058Y270291D01*
X294084Y270284D01*
X294415Y270257D01*
X321866Y270257D01*
X321875Y270258D01*
X321884Y270257D01*
X322076Y270278D01*
X322267Y270297D01*
X322275Y270299D01*
X322284Y270300D01*
X322466Y270358D01*
X322652Y270415D01*
X322659Y270419D01*
X322668Y270422D01*
X322836Y270515D01*
X323006Y270607D01*
X323012Y270612D01*
X323020Y270617D01*
X323168Y270742D01*
X323315Y270864D01*
X323320Y270871D01*
X323327Y270877D01*
X323447Y271029D01*
X323567Y271178D01*
X323571Y271186D01*
X323577Y271193D01*
X323665Y271366D01*
X323753Y271535D01*
X323755Y271544D01*
X323759Y271552D01*
X323811Y271737D01*
X323864Y271922D01*
X323865Y271931D01*
X323867Y271940D01*
X323881Y272130D01*
X323897Y272324D01*
X323896Y272332D01*
X323897Y272341D01*
X323872Y272533D01*
X323850Y272723D01*
X323847Y272732D01*
X323846Y272741D01*
X323785Y272923D01*
X323725Y273106D01*
X323721Y273114D01*
X323718Y273122D01*
X323622Y273289D01*
X323527Y273457D01*
X323521Y273464D01*
X323517Y273471D01*
X323302Y273724D01*
X322663Y274364D01*
X321309Y277631D01*
X321309Y281169D01*
X322663Y284436D01*
X323302Y285076D01*
X323308Y285083D01*
X323315Y285088D01*
X323435Y285237D01*
X323557Y285387D01*
X323562Y285395D01*
X323567Y285402D01*
X323655Y285572D01*
X323746Y285743D01*
X323749Y285752D01*
X323753Y285759D01*
X323805Y285943D01*
X323861Y286129D01*
X323862Y286138D01*
X323864Y286146D01*
X323880Y286337D01*
X323897Y286530D01*
X323896Y286539D01*
X323897Y286548D01*
X323875Y286737D01*
X323854Y286930D01*
X323851Y286939D01*
X323850Y286947D01*
X323790Y287130D01*
X323732Y287314D01*
X323728Y287322D01*
X323725Y287330D01*
X323631Y287498D01*
X323537Y287666D01*
X323532Y287673D01*
X323527Y287681D01*
X323401Y287827D01*
X323277Y287973D01*
X323270Y287979D01*
X323264Y287986D01*
X323111Y288104D01*
X322961Y288223D01*
X322953Y288227D01*
X322946Y288232D01*
X322773Y288319D01*
X322602Y288405D01*
X322594Y288408D01*
X322586Y288412D01*
X322398Y288462D01*
X322214Y288513D01*
X322205Y288514D01*
X322197Y288516D01*
X321866Y288543D01*
X290627Y288543D01*
X283608Y295562D01*
X283590Y295577D01*
X283576Y295594D01*
X283435Y295704D01*
X283296Y295817D01*
X283276Y295828D01*
X283259Y295842D01*
X283099Y295922D01*
X282940Y296006D01*
X282919Y296012D01*
X282899Y296022D01*
X282726Y296070D01*
X282555Y296121D01*
X282532Y296123D01*
X282511Y296129D01*
X282333Y296141D01*
X282154Y296157D01*
X282131Y296155D01*
X282109Y296156D01*
X281932Y296133D01*
X281753Y296114D01*
X281732Y296107D01*
X281710Y296104D01*
X281394Y296003D01*
X281168Y295909D01*
X277631Y295909D01*
X274364Y297263D01*
X271863Y299764D01*
X270509Y303031D01*
X270509Y306569D01*
X271863Y309836D01*
X274364Y312337D01*
X274774Y312507D01*
X277631Y313691D01*
X281169Y313691D01*
X284436Y312337D01*
X286937Y309836D01*
X288291Y306569D01*
X288291Y303032D01*
X288197Y302806D01*
X288191Y302785D01*
X288181Y302765D01*
X288133Y302592D01*
X288081Y302421D01*
X288079Y302398D01*
X288073Y302377D01*
X288060Y302197D01*
X288043Y302020D01*
X288045Y301998D01*
X288043Y301975D01*
X288066Y301797D01*
X288084Y301619D01*
X288091Y301598D01*
X288094Y301576D01*
X288151Y301406D01*
X288204Y301235D01*
X288215Y301215D01*
X288222Y301194D01*
X288311Y301039D01*
X288397Y300882D01*
X288412Y300865D01*
X288423Y300845D01*
X288638Y300592D01*
X292978Y296252D01*
X292999Y296235D01*
X293017Y296214D01*
X293154Y296108D01*
X293290Y295997D01*
X293314Y295984D01*
X293335Y295968D01*
X293491Y295890D01*
X293646Y295808D01*
X293671Y295800D01*
X293695Y295788D01*
X293864Y295743D01*
X294031Y295693D01*
X294058Y295691D01*
X294084Y295684D01*
X294415Y295657D01*
X321866Y295657D01*
X321875Y295658D01*
X321884Y295657D01*
X322076Y295678D01*
X322267Y295697D01*
X322275Y295699D01*
X322284Y295700D01*
X322466Y295758D01*
X322652Y295815D01*
X322659Y295819D01*
X322668Y295822D01*
X322836Y295915D01*
X323006Y296007D01*
X323012Y296012D01*
X323020Y296017D01*
X323168Y296142D01*
X323315Y296264D01*
X323320Y296271D01*
X323327Y296277D01*
X323447Y296429D01*
X323567Y296578D01*
X323571Y296586D01*
X323577Y296593D01*
X323665Y296766D01*
X323753Y296935D01*
X323755Y296944D01*
X323759Y296952D01*
X323811Y297137D01*
X323864Y297322D01*
X323865Y297331D01*
X323867Y297340D01*
X323881Y297532D01*
X323897Y297724D01*
X323896Y297732D01*
X323897Y297741D01*
X323872Y297933D01*
X323850Y298123D01*
X323847Y298132D01*
X323846Y298141D01*
X323785Y298323D01*
X323725Y298506D01*
X323721Y298514D01*
X323718Y298522D01*
X323622Y298690D01*
X323527Y298857D01*
X323521Y298864D01*
X323517Y298871D01*
X323302Y299124D01*
X322663Y299764D01*
X321309Y303031D01*
X321309Y306569D01*
X322663Y309836D01*
X323302Y310476D01*
X323308Y310483D01*
X323315Y310488D01*
X323435Y310637D01*
X323557Y310787D01*
X323562Y310795D01*
X323567Y310802D01*
X323655Y310972D01*
X323746Y311143D01*
X323749Y311152D01*
X323753Y311159D01*
X323806Y311344D01*
X323861Y311529D01*
X323862Y311538D01*
X323864Y311546D01*
X323880Y311737D01*
X323897Y311930D01*
X323896Y311939D01*
X323897Y311948D01*
X323875Y312137D01*
X323854Y312330D01*
X323851Y312339D01*
X323850Y312347D01*
X323790Y312530D01*
X323732Y312714D01*
X323728Y312722D01*
X323725Y312730D01*
X323631Y312898D01*
X323537Y313066D01*
X323532Y313073D01*
X323527Y313081D01*
X323401Y313227D01*
X323277Y313373D01*
X323270Y313379D01*
X323264Y313386D01*
X323111Y313504D01*
X322961Y313623D01*
X322953Y313627D01*
X322946Y313632D01*
X322773Y313719D01*
X322602Y313805D01*
X322594Y313808D01*
X322586Y313812D01*
X322398Y313862D01*
X322214Y313913D01*
X322205Y313914D01*
X322197Y313916D01*
X321866Y313943D01*
X290627Y313943D01*
X287948Y316622D01*
X283608Y320962D01*
X283590Y320977D01*
X283576Y320994D01*
X283435Y321104D01*
X283296Y321217D01*
X283276Y321228D01*
X283259Y321242D01*
X283099Y321322D01*
X282940Y321406D01*
X282919Y321412D01*
X282899Y321422D01*
X282726Y321470D01*
X282555Y321521D01*
X282532Y321523D01*
X282511Y321529D01*
X282333Y321541D01*
X282154Y321557D01*
X282131Y321555D01*
X282109Y321556D01*
X281932Y321533D01*
X281753Y321514D01*
X281732Y321507D01*
X281710Y321504D01*
X281394Y321403D01*
X281168Y321309D01*
X277631Y321309D01*
X274364Y322663D01*
X271863Y325164D01*
X270509Y328431D01*
X270509Y331969D01*
X271863Y335236D01*
X274364Y337737D01*
X277631Y339091D01*
X281169Y339091D01*
X284436Y337737D01*
X286937Y335236D01*
X288291Y331969D01*
X288291Y328432D01*
X288197Y328206D01*
X288191Y328185D01*
X288181Y328165D01*
X288132Y327991D01*
X288081Y327821D01*
X288079Y327798D01*
X288073Y327777D01*
X288060Y327597D01*
X288043Y327420D01*
X288045Y327398D01*
X288043Y327375D01*
X288066Y327197D01*
X288084Y327019D01*
X288091Y326998D01*
X288094Y326976D01*
X288151Y326806D01*
X288204Y326635D01*
X288215Y326615D01*
X288222Y326594D01*
X288311Y326439D01*
X288397Y326282D01*
X288412Y326265D01*
X288423Y326245D01*
X288638Y325992D01*
X292978Y321652D01*
X292999Y321635D01*
X293017Y321614D01*
X293154Y321508D01*
X293290Y321397D01*
X293314Y321384D01*
X293335Y321368D01*
X293491Y321290D01*
X293646Y321208D01*
X293671Y321200D01*
X293695Y321188D01*
X293864Y321143D01*
X294031Y321093D01*
X294058Y321091D01*
X294084Y321084D01*
X294415Y321057D01*
X321866Y321057D01*
X321875Y321058D01*
X321884Y321057D01*
X322076Y321078D01*
X322267Y321097D01*
X322275Y321099D01*
X322284Y321100D01*
X322466Y321158D01*
X322652Y321215D01*
X322659Y321219D01*
X322668Y321222D01*
X322836Y321315D01*
X323006Y321407D01*
X323012Y321412D01*
X323020Y321417D01*
X323168Y321542D01*
X323315Y321664D01*
X323320Y321671D01*
X323327Y321677D01*
X323447Y321829D01*
X323567Y321978D01*
X323571Y321986D01*
X323577Y321993D01*
X323665Y322166D01*
X323753Y322335D01*
X323755Y322344D01*
X323759Y322352D01*
X323811Y322537D01*
X323864Y322722D01*
X323865Y322731D01*
X323867Y322740D01*
X323881Y322930D01*
X323897Y323124D01*
X323896Y323132D01*
X323897Y323141D01*
X323872Y323333D01*
X323850Y323523D01*
X323847Y323532D01*
X323846Y323541D01*
X323785Y323723D01*
X323725Y323906D01*
X323721Y323914D01*
X323718Y323922D01*
X323622Y324090D01*
X323527Y324257D01*
X323521Y324264D01*
X323517Y324271D01*
X323302Y324524D01*
X322663Y325164D01*
X321309Y328431D01*
X321309Y331969D01*
X322663Y335236D01*
X325164Y337737D01*
X328431Y339091D01*
X331969Y339091D01*
X335236Y337737D01*
X337737Y335236D01*
X339091Y331969D01*
X339091Y328431D01*
X337737Y325164D01*
X337098Y324524D01*
X337092Y324517D01*
X337085Y324512D01*
X336965Y324363D01*
X336843Y324213D01*
X336838Y324205D01*
X336833Y324198D01*
X336745Y324028D01*
X336654Y323857D01*
X336651Y323848D01*
X336647Y323841D01*
X336594Y323656D01*
X336539Y323471D01*
X336538Y323462D01*
X336536Y323454D01*
X336520Y323263D01*
X336503Y323070D01*
X336504Y323061D01*
X336503Y323052D01*
X336525Y322863D01*
X336546Y322670D01*
X336549Y322661D01*
X336550Y322653D01*
X336610Y322470D01*
X336668Y322286D01*
X336672Y322278D01*
X336675Y322270D01*
X336770Y322101D01*
X336863Y321934D01*
X336868Y321927D01*
X336873Y321919D01*
X336999Y321773D01*
X337123Y321627D01*
X337130Y321621D01*
X337136Y321614D01*
X337289Y321496D01*
X337439Y321377D01*
X337447Y321373D01*
X337454Y321368D01*
X337627Y321281D01*
X337798Y321195D01*
X337806Y321192D01*
X337814Y321188D01*
X338002Y321138D01*
X338186Y321087D01*
X338195Y321086D01*
X338203Y321084D01*
X338534Y321057D01*
X467585Y321057D01*
X467612Y321059D01*
X467639Y321057D01*
X467813Y321079D01*
X467986Y321097D01*
X468011Y321104D01*
X468038Y321108D01*
X468204Y321163D01*
X468371Y321215D01*
X468395Y321228D01*
X468420Y321236D01*
X468571Y321323D01*
X468725Y321407D01*
X468745Y321424D01*
X468769Y321437D01*
X469022Y321652D01*
X473362Y325992D01*
X473377Y326010D01*
X473394Y326024D01*
X473504Y326165D01*
X473617Y326304D01*
X473628Y326324D01*
X473642Y326341D01*
X473722Y326501D01*
X473806Y326660D01*
X473812Y326681D01*
X473822Y326701D01*
X473870Y326874D01*
X473921Y327045D01*
X473923Y327068D01*
X473929Y327089D01*
X473941Y327267D01*
X473957Y327446D01*
X473955Y327469D01*
X473956Y327491D01*
X473933Y327668D01*
X473914Y327847D01*
X473907Y327868D01*
X473904Y327890D01*
X473803Y328206D01*
X473709Y328432D01*
X473709Y331969D01*
X475063Y335236D01*
X477564Y337737D01*
X480831Y339091D01*
X484369Y339091D01*
X487636Y337737D01*
X490137Y335236D01*
X491491Y331969D01*
X491491Y328431D01*
X490137Y325164D01*
X487636Y322663D01*
X484369Y321309D01*
X480832Y321309D01*
X480606Y321403D01*
X480585Y321409D01*
X480565Y321419D01*
X480392Y321467D01*
X480221Y321519D01*
X480198Y321521D01*
X480177Y321527D01*
X479997Y321540D01*
X479820Y321557D01*
X479798Y321555D01*
X479775Y321557D01*
X479597Y321534D01*
X479419Y321516D01*
X479398Y321509D01*
X479376Y321506D01*
X479206Y321449D01*
X479035Y321396D01*
X479015Y321385D01*
X478994Y321378D01*
X478839Y321289D01*
X478682Y321203D01*
X478665Y321188D01*
X478645Y321177D01*
X478392Y320962D01*
X471373Y313943D01*
X338534Y313943D01*
X338525Y313942D01*
X338516Y313943D01*
X338324Y313922D01*
X338133Y313903D01*
X338125Y313901D01*
X338116Y313900D01*
X337934Y313842D01*
X337748Y313785D01*
X337741Y313781D01*
X337732Y313778D01*
X337564Y313685D01*
X337394Y313593D01*
X337388Y313588D01*
X337380Y313583D01*
X337232Y313458D01*
X337085Y313336D01*
X337080Y313329D01*
X337073Y313323D01*
X336953Y313171D01*
X336833Y313022D01*
X336829Y313014D01*
X336823Y313007D01*
X336735Y312834D01*
X336647Y312665D01*
X336645Y312656D01*
X336641Y312648D01*
X336589Y312463D01*
X336536Y312278D01*
X336535Y312269D01*
X336533Y312260D01*
X336519Y312068D01*
X336503Y311876D01*
X336504Y311868D01*
X336503Y311859D01*
X336528Y311667D01*
X336550Y311477D01*
X336553Y311468D01*
X336554Y311459D01*
X336615Y311277D01*
X336675Y311094D01*
X336679Y311086D01*
X336682Y311078D01*
X336778Y310910D01*
X336873Y310743D01*
X336879Y310736D01*
X336883Y310729D01*
X337098Y310476D01*
X337737Y309836D01*
X339091Y306569D01*
X339091Y303031D01*
X337737Y299764D01*
X337098Y299124D01*
X337092Y299117D01*
X337085Y299112D01*
X336965Y298963D01*
X336843Y298813D01*
X336838Y298805D01*
X336833Y298798D01*
X336745Y298628D01*
X336654Y298457D01*
X336651Y298448D01*
X336647Y298441D01*
X336594Y298256D01*
X336539Y298071D01*
X336538Y298062D01*
X336536Y298054D01*
X336520Y297863D01*
X336503Y297670D01*
X336504Y297661D01*
X336503Y297652D01*
X336525Y297463D01*
X336546Y297270D01*
X336549Y297261D01*
X336550Y297253D01*
X336610Y297070D01*
X336668Y296886D01*
X336672Y296878D01*
X336675Y296870D01*
X336770Y296701D01*
X336863Y296534D01*
X336868Y296527D01*
X336873Y296519D01*
X336999Y296373D01*
X337123Y296227D01*
X337130Y296221D01*
X337136Y296214D01*
X337289Y296096D01*
X337439Y295977D01*
X337447Y295973D01*
X337454Y295968D01*
X337627Y295881D01*
X337798Y295795D01*
X337806Y295792D01*
X337814Y295788D01*
X338002Y295738D01*
X338186Y295687D01*
X338195Y295686D01*
X338203Y295684D01*
X338534Y295657D01*
X467585Y295657D01*
X467612Y295659D01*
X467639Y295657D01*
X467813Y295679D01*
X467986Y295697D01*
X468011Y295704D01*
X468038Y295708D01*
X468204Y295763D01*
X468371Y295815D01*
X468395Y295828D01*
X468420Y295836D01*
X468571Y295923D01*
X468725Y296007D01*
X468745Y296024D01*
X468769Y296037D01*
X469022Y296252D01*
X473362Y300592D01*
X473377Y300610D01*
X473394Y300624D01*
X473504Y300765D01*
X473617Y300904D01*
X473628Y300924D01*
X473642Y300941D01*
X473722Y301101D01*
X473806Y301260D01*
X473812Y301281D01*
X473822Y301301D01*
X473870Y301474D01*
X473921Y301645D01*
X473923Y301668D01*
X473929Y301689D01*
X473941Y301867D01*
X473957Y302046D01*
X473955Y302069D01*
X473956Y302091D01*
X473933Y302268D01*
X473914Y302447D01*
X473907Y302468D01*
X473904Y302490D01*
X473803Y302806D01*
X473709Y303032D01*
X473709Y306569D01*
X475063Y309836D01*
X477564Y312337D01*
X477974Y312507D01*
X480831Y313691D01*
X484369Y313691D01*
X487636Y312337D01*
X490137Y309836D01*
X491491Y306569D01*
X491491Y303031D01*
X490137Y299764D01*
X487636Y297263D01*
X484445Y295941D01*
X484369Y295909D01*
X480832Y295909D01*
X480606Y296003D01*
X480585Y296009D01*
X480565Y296019D01*
X480392Y296067D01*
X480221Y296119D01*
X480198Y296121D01*
X480177Y296127D01*
X479997Y296140D01*
X479820Y296157D01*
X479798Y296155D01*
X479775Y296157D01*
X479597Y296134D01*
X479419Y296116D01*
X479398Y296109D01*
X479376Y296106D01*
X479206Y296049D01*
X479035Y295996D01*
X479015Y295985D01*
X478994Y295978D01*
X478839Y295889D01*
X478682Y295803D01*
X478665Y295788D01*
X478645Y295777D01*
X478392Y295562D01*
X474052Y291222D01*
X471373Y288543D01*
X338534Y288543D01*
X338525Y288542D01*
X338516Y288543D01*
X338324Y288522D01*
X338133Y288503D01*
X338125Y288501D01*
X338116Y288500D01*
X337934Y288442D01*
X337748Y288385D01*
X337741Y288381D01*
X337732Y288378D01*
X337564Y288285D01*
X337394Y288193D01*
X337388Y288188D01*
X337380Y288183D01*
X337232Y288058D01*
X337085Y287936D01*
X337080Y287929D01*
X337073Y287923D01*
X336953Y287771D01*
X336833Y287622D01*
X336829Y287614D01*
X336823Y287607D01*
X336735Y287434D01*
X336647Y287265D01*
X336645Y287256D01*
X336641Y287248D01*
X336589Y287063D01*
X336536Y286878D01*
X336535Y286869D01*
X336533Y286860D01*
X336519Y286668D01*
X336503Y286476D01*
X336504Y286468D01*
X336503Y286459D01*
X336528Y286267D01*
X336550Y286077D01*
X336553Y286068D01*
X336554Y286059D01*
X336615Y285877D01*
X336675Y285694D01*
X336679Y285686D01*
X336682Y285678D01*
X336778Y285510D01*
X336873Y285343D01*
X336879Y285336D01*
X336883Y285329D01*
X337098Y285076D01*
X337737Y284436D01*
X339091Y281169D01*
X339091Y277631D01*
X337737Y274364D01*
X337098Y273724D01*
X337092Y273717D01*
X337085Y273712D01*
X336965Y273563D01*
X336843Y273413D01*
X336838Y273405D01*
X336833Y273398D01*
X336745Y273228D01*
X336654Y273057D01*
X336651Y273048D01*
X336647Y273041D01*
X336594Y272856D01*
X336539Y272671D01*
X336538Y272662D01*
X336536Y272654D01*
X336520Y272463D01*
X336503Y272270D01*
X336504Y272261D01*
X336503Y272252D01*
X336525Y272063D01*
X336546Y271870D01*
X336549Y271861D01*
X336550Y271853D01*
X336610Y271670D01*
X336668Y271486D01*
X336672Y271478D01*
X336675Y271470D01*
X336770Y271301D01*
X336863Y271134D01*
X336868Y271127D01*
X336873Y271119D01*
X337000Y270971D01*
X337123Y270827D01*
X337130Y270821D01*
X337136Y270814D01*
X337289Y270696D01*
X337439Y270577D01*
X337447Y270573D01*
X337454Y270568D01*
X337627Y270481D01*
X337798Y270395D01*
X337806Y270392D01*
X337814Y270388D01*
X338002Y270338D01*
X338186Y270287D01*
X338195Y270286D01*
X338203Y270284D01*
X338534Y270257D01*
X467585Y270257D01*
X467612Y270259D01*
X467639Y270257D01*
X467813Y270279D01*
X467986Y270297D01*
X468011Y270304D01*
X468038Y270308D01*
X468204Y270363D01*
X468371Y270415D01*
X468395Y270428D01*
X468420Y270436D01*
X468571Y270523D01*
X468725Y270607D01*
X468745Y270624D01*
X468769Y270637D01*
X469022Y270852D01*
X473362Y275192D01*
X473377Y275210D01*
X473394Y275224D01*
X473504Y275365D01*
X473617Y275504D01*
X473628Y275524D01*
X473642Y275541D01*
X473722Y275701D01*
X473806Y275860D01*
X473812Y275881D01*
X473822Y275901D01*
X473870Y276074D01*
X473921Y276245D01*
X473923Y276268D01*
X473929Y276289D01*
X473941Y276467D01*
X473957Y276646D01*
X473955Y276669D01*
X473956Y276691D01*
X473933Y276868D01*
X473914Y277047D01*
X473907Y277068D01*
X473904Y277090D01*
X473803Y277406D01*
X473709Y277632D01*
X473709Y281169D01*
X475063Y284436D01*
X477564Y286937D01*
X480831Y288291D01*
X484369Y288291D01*
X487636Y286937D01*
X490137Y284436D01*
X491491Y281169D01*
X491491Y277631D01*
X490137Y274364D01*
X487636Y271863D01*
X486920Y271566D01*
X486919Y271566D01*
X484369Y270509D01*
X480832Y270509D01*
X480606Y270603D01*
X480585Y270609D01*
X480565Y270619D01*
X480392Y270667D01*
X480221Y270719D01*
X480198Y270721D01*
X480177Y270727D01*
X479997Y270740D01*
X479820Y270757D01*
X479798Y270755D01*
X479775Y270757D01*
X479597Y270734D01*
X479419Y270716D01*
X479398Y270709D01*
X479376Y270706D01*
X479206Y270649D01*
X479035Y270596D01*
X479015Y270585D01*
X478994Y270578D01*
X478839Y270489D01*
X478682Y270403D01*
X478665Y270388D01*
X478645Y270377D01*
X478392Y270162D01*
X471373Y263143D01*
X338534Y263143D01*
X338525Y263142D01*
X338516Y263143D01*
X338324Y263122D01*
X338133Y263103D01*
X338125Y263101D01*
X338116Y263100D01*
X337934Y263042D01*
X337748Y262985D01*
X337741Y262981D01*
X337732Y262978D01*
X337564Y262885D01*
X337394Y262793D01*
X337388Y262788D01*
X337380Y262783D01*
X337232Y262658D01*
X337085Y262536D01*
X337080Y262529D01*
X337073Y262523D01*
X336953Y262371D01*
X336833Y262222D01*
X336829Y262214D01*
X336823Y262207D01*
X336735Y262034D01*
X336647Y261865D01*
X336645Y261856D01*
X336641Y261848D01*
X336588Y261660D01*
X336536Y261478D01*
X336535Y261469D01*
X336533Y261460D01*
X336519Y261268D01*
X336503Y261076D01*
X336504Y261068D01*
X336503Y261059D01*
X336528Y260867D01*
X336550Y260677D01*
X336553Y260668D01*
X336554Y260659D01*
X336615Y260477D01*
X336675Y260294D01*
X336679Y260286D01*
X336682Y260278D01*
X336778Y260110D01*
X336873Y259943D01*
X336879Y259936D01*
X336883Y259929D01*
X337098Y259676D01*
X337737Y259036D01*
X339091Y255769D01*
X339091Y252231D01*
X337737Y248964D01*
X335236Y246463D01*
X331969Y245109D01*
X328431Y245109D01*
G37*
%LPD*%
%LPC*%
G36*
X328431Y372109D02*
X328431Y372109D01*
X325164Y373463D01*
X322663Y375964D01*
X321309Y379231D01*
X321309Y382769D01*
X322663Y386036D01*
X323302Y386676D01*
X323308Y386683D01*
X323315Y386688D01*
X323435Y386837D01*
X323557Y386987D01*
X323562Y386995D01*
X323567Y387002D01*
X323655Y387172D01*
X323746Y387343D01*
X323749Y387352D01*
X323753Y387359D01*
X323806Y387544D01*
X323861Y387729D01*
X323862Y387738D01*
X323864Y387746D01*
X323880Y387937D01*
X323897Y388130D01*
X323896Y388139D01*
X323897Y388148D01*
X323875Y388337D01*
X323854Y388530D01*
X323851Y388539D01*
X323850Y388547D01*
X323790Y388730D01*
X323732Y388914D01*
X323728Y388922D01*
X323725Y388930D01*
X323631Y389098D01*
X323537Y389266D01*
X323532Y389273D01*
X323527Y389281D01*
X323401Y389427D01*
X323277Y389573D01*
X323270Y389579D01*
X323264Y389586D01*
X323111Y389704D01*
X322961Y389823D01*
X322953Y389827D01*
X322946Y389832D01*
X322773Y389919D01*
X322602Y390005D01*
X322594Y390008D01*
X322586Y390012D01*
X322398Y390062D01*
X322214Y390113D01*
X322205Y390114D01*
X322197Y390116D01*
X321866Y390143D01*
X316027Y390143D01*
X313348Y392822D01*
X283608Y422562D01*
X283590Y422577D01*
X283576Y422594D01*
X283435Y422704D01*
X283296Y422817D01*
X283276Y422828D01*
X283259Y422842D01*
X283098Y422922D01*
X282940Y423006D01*
X282919Y423012D01*
X282899Y423022D01*
X282726Y423070D01*
X282555Y423121D01*
X282532Y423123D01*
X282511Y423129D01*
X282333Y423141D01*
X282154Y423157D01*
X282131Y423155D01*
X282109Y423156D01*
X281932Y423133D01*
X281753Y423114D01*
X281732Y423107D01*
X281710Y423104D01*
X281394Y423003D01*
X281168Y422909D01*
X277631Y422909D01*
X274364Y424263D01*
X271863Y426764D01*
X270509Y430031D01*
X270509Y433569D01*
X271863Y436836D01*
X274364Y439337D01*
X277631Y440691D01*
X281169Y440691D01*
X284436Y439337D01*
X286937Y436836D01*
X288291Y433569D01*
X288291Y430032D01*
X288197Y429806D01*
X288191Y429785D01*
X288181Y429765D01*
X288133Y429592D01*
X288081Y429421D01*
X288079Y429398D01*
X288073Y429377D01*
X288060Y429197D01*
X288043Y429020D01*
X288045Y428998D01*
X288043Y428975D01*
X288066Y428797D01*
X288084Y428619D01*
X288091Y428598D01*
X288094Y428576D01*
X288151Y428406D01*
X288204Y428235D01*
X288215Y428215D01*
X288222Y428194D01*
X288311Y428039D01*
X288397Y427882D01*
X288412Y427865D01*
X288423Y427845D01*
X288638Y427592D01*
X318378Y397852D01*
X318399Y397835D01*
X318417Y397814D01*
X318554Y397707D01*
X318690Y397597D01*
X318713Y397584D01*
X318735Y397568D01*
X318892Y397490D01*
X319046Y397408D01*
X319071Y397400D01*
X319095Y397388D01*
X319265Y397343D01*
X319431Y397293D01*
X319458Y397291D01*
X319484Y397284D01*
X319815Y397257D01*
X321866Y397257D01*
X321875Y397258D01*
X321884Y397257D01*
X322076Y397278D01*
X322267Y397297D01*
X322275Y397299D01*
X322284Y397300D01*
X322466Y397358D01*
X322652Y397415D01*
X322659Y397419D01*
X322668Y397422D01*
X322836Y397515D01*
X323006Y397607D01*
X323012Y397612D01*
X323020Y397617D01*
X323168Y397742D01*
X323315Y397864D01*
X323320Y397871D01*
X323327Y397877D01*
X323447Y398029D01*
X323567Y398178D01*
X323571Y398186D01*
X323577Y398193D01*
X323665Y398366D01*
X323753Y398535D01*
X323755Y398544D01*
X323759Y398552D01*
X323811Y398737D01*
X323864Y398922D01*
X323865Y398931D01*
X323867Y398940D01*
X323881Y399130D01*
X323897Y399324D01*
X323896Y399332D01*
X323897Y399341D01*
X323872Y399533D01*
X323850Y399723D01*
X323847Y399732D01*
X323846Y399741D01*
X323785Y399923D01*
X323725Y400106D01*
X323721Y400114D01*
X323718Y400122D01*
X323622Y400289D01*
X323527Y400457D01*
X323521Y400464D01*
X323517Y400471D01*
X323302Y400724D01*
X322663Y401364D01*
X321309Y404631D01*
X321309Y408169D01*
X322663Y411436D01*
X323302Y412076D01*
X323308Y412083D01*
X323315Y412088D01*
X323435Y412237D01*
X323557Y412387D01*
X323562Y412395D01*
X323567Y412402D01*
X323655Y412572D01*
X323746Y412743D01*
X323749Y412751D01*
X323753Y412759D01*
X323806Y412944D01*
X323861Y413129D01*
X323862Y413138D01*
X323864Y413146D01*
X323880Y413337D01*
X323897Y413530D01*
X323896Y413539D01*
X323897Y413548D01*
X323875Y413737D01*
X323854Y413930D01*
X323851Y413939D01*
X323850Y413947D01*
X323790Y414130D01*
X323732Y414314D01*
X323728Y414322D01*
X323725Y414330D01*
X323631Y414498D01*
X323537Y414666D01*
X323532Y414673D01*
X323527Y414681D01*
X323401Y414827D01*
X323277Y414973D01*
X323270Y414979D01*
X323264Y414986D01*
X323111Y415104D01*
X322961Y415223D01*
X322953Y415227D01*
X322946Y415232D01*
X322773Y415319D01*
X322602Y415405D01*
X322594Y415408D01*
X322586Y415412D01*
X322398Y415462D01*
X322214Y415513D01*
X322205Y415514D01*
X322197Y415516D01*
X321866Y415543D01*
X316027Y415543D01*
X313348Y418222D01*
X283608Y447962D01*
X283590Y447977D01*
X283576Y447994D01*
X283435Y448104D01*
X283296Y448217D01*
X283276Y448228D01*
X283259Y448242D01*
X283098Y448322D01*
X282940Y448406D01*
X282919Y448412D01*
X282899Y448422D01*
X282726Y448470D01*
X282555Y448521D01*
X282532Y448523D01*
X282511Y448529D01*
X282333Y448541D01*
X282154Y448557D01*
X282131Y448555D01*
X282109Y448556D01*
X281932Y448533D01*
X281753Y448514D01*
X281732Y448507D01*
X281710Y448504D01*
X281394Y448403D01*
X281168Y448309D01*
X277631Y448309D01*
X274364Y449663D01*
X271863Y452164D01*
X270509Y455431D01*
X270509Y458969D01*
X271863Y462236D01*
X274364Y464737D01*
X277631Y466091D01*
X281169Y466091D01*
X284436Y464737D01*
X286937Y462236D01*
X288291Y458969D01*
X288291Y455432D01*
X288197Y455206D01*
X288191Y455185D01*
X288181Y455165D01*
X288133Y454992D01*
X288081Y454821D01*
X288079Y454798D01*
X288073Y454777D01*
X288060Y454597D01*
X288043Y454420D01*
X288045Y454398D01*
X288043Y454375D01*
X288066Y454197D01*
X288084Y454019D01*
X288091Y453998D01*
X288094Y453976D01*
X288151Y453806D01*
X288204Y453635D01*
X288215Y453615D01*
X288222Y453594D01*
X288311Y453439D01*
X288397Y453282D01*
X288412Y453265D01*
X288423Y453245D01*
X288638Y452992D01*
X318378Y423252D01*
X318399Y423235D01*
X318417Y423214D01*
X318554Y423107D01*
X318690Y422997D01*
X318713Y422984D01*
X318735Y422968D01*
X318892Y422890D01*
X319046Y422808D01*
X319071Y422800D01*
X319095Y422788D01*
X319265Y422743D01*
X319431Y422693D01*
X319458Y422691D01*
X319484Y422684D01*
X319815Y422657D01*
X321866Y422657D01*
X321875Y422658D01*
X321884Y422657D01*
X322076Y422678D01*
X322267Y422697D01*
X322275Y422699D01*
X322284Y422700D01*
X322466Y422758D01*
X322652Y422815D01*
X322659Y422819D01*
X322668Y422822D01*
X322836Y422915D01*
X323006Y423007D01*
X323012Y423012D01*
X323020Y423017D01*
X323168Y423142D01*
X323315Y423264D01*
X323320Y423271D01*
X323327Y423277D01*
X323447Y423429D01*
X323567Y423578D01*
X323571Y423586D01*
X323577Y423593D01*
X323665Y423766D01*
X323753Y423935D01*
X323755Y423944D01*
X323759Y423952D01*
X323811Y424137D01*
X323864Y424322D01*
X323865Y424331D01*
X323867Y424340D01*
X323881Y424532D01*
X323897Y424724D01*
X323896Y424732D01*
X323897Y424741D01*
X323872Y424933D01*
X323850Y425123D01*
X323847Y425132D01*
X323846Y425141D01*
X323785Y425323D01*
X323725Y425506D01*
X323721Y425514D01*
X323718Y425522D01*
X323622Y425690D01*
X323527Y425857D01*
X323521Y425864D01*
X323517Y425871D01*
X323302Y426124D01*
X322663Y426764D01*
X321309Y430031D01*
X321309Y433569D01*
X322663Y436836D01*
X325164Y439337D01*
X328431Y440691D01*
X331969Y440691D01*
X335236Y439337D01*
X337737Y436836D01*
X339091Y433569D01*
X339091Y430031D01*
X337737Y426764D01*
X337098Y426124D01*
X337092Y426117D01*
X337085Y426112D01*
X336965Y425963D01*
X336843Y425813D01*
X336838Y425805D01*
X336833Y425798D01*
X336745Y425628D01*
X336654Y425457D01*
X336651Y425448D01*
X336647Y425441D01*
X336594Y425256D01*
X336539Y425071D01*
X336538Y425062D01*
X336536Y425054D01*
X336520Y424863D01*
X336503Y424670D01*
X336504Y424661D01*
X336503Y424652D01*
X336525Y424463D01*
X336546Y424270D01*
X336549Y424261D01*
X336550Y424253D01*
X336610Y424068D01*
X336668Y423886D01*
X336672Y423878D01*
X336675Y423870D01*
X336770Y423701D01*
X336863Y423534D01*
X336868Y423527D01*
X336873Y423519D01*
X336999Y423373D01*
X337123Y423227D01*
X337130Y423221D01*
X337136Y423214D01*
X337289Y423096D01*
X337439Y422977D01*
X337447Y422973D01*
X337454Y422968D01*
X337627Y422881D01*
X337798Y422795D01*
X337806Y422792D01*
X337814Y422788D01*
X338002Y422738D01*
X338186Y422687D01*
X338195Y422686D01*
X338203Y422684D01*
X338534Y422657D01*
X442185Y422657D01*
X442212Y422659D01*
X442239Y422657D01*
X442413Y422679D01*
X442586Y422697D01*
X442611Y422704D01*
X442638Y422708D01*
X442804Y422763D01*
X442971Y422815D01*
X442994Y422828D01*
X443020Y422836D01*
X443171Y422923D01*
X443325Y423007D01*
X443345Y423024D01*
X443369Y423037D01*
X443622Y423252D01*
X473362Y452992D01*
X473377Y453010D01*
X473394Y453024D01*
X473504Y453165D01*
X473617Y453304D01*
X473628Y453324D01*
X473642Y453341D01*
X473722Y453502D01*
X473806Y453660D01*
X473812Y453681D01*
X473822Y453701D01*
X473870Y453874D01*
X473921Y454045D01*
X473923Y454068D01*
X473929Y454089D01*
X473941Y454267D01*
X473957Y454446D01*
X473955Y454469D01*
X473956Y454491D01*
X473933Y454668D01*
X473914Y454847D01*
X473907Y454868D01*
X473904Y454890D01*
X473803Y455206D01*
X473709Y455432D01*
X473709Y458969D01*
X475063Y462236D01*
X477564Y464737D01*
X480831Y466091D01*
X484369Y466091D01*
X487636Y464737D01*
X490137Y462236D01*
X491491Y458969D01*
X491491Y455431D01*
X490137Y452164D01*
X487636Y449663D01*
X484369Y448309D01*
X480832Y448309D01*
X480606Y448403D01*
X480585Y448409D01*
X480565Y448419D01*
X480392Y448467D01*
X480221Y448519D01*
X480198Y448521D01*
X480177Y448527D01*
X479997Y448540D01*
X479820Y448557D01*
X479798Y448555D01*
X479775Y448557D01*
X479597Y448534D01*
X479419Y448516D01*
X479398Y448509D01*
X479376Y448506D01*
X479206Y448449D01*
X479035Y448396D01*
X479015Y448385D01*
X478994Y448378D01*
X478839Y448289D01*
X478682Y448203D01*
X478665Y448188D01*
X478645Y448177D01*
X478392Y447962D01*
X445973Y415543D01*
X338534Y415543D01*
X338525Y415542D01*
X338516Y415543D01*
X338324Y415522D01*
X338133Y415503D01*
X338125Y415501D01*
X338116Y415500D01*
X337934Y415442D01*
X337748Y415385D01*
X337741Y415381D01*
X337732Y415378D01*
X337564Y415285D01*
X337394Y415193D01*
X337388Y415188D01*
X337380Y415183D01*
X337232Y415058D01*
X337085Y414936D01*
X337080Y414929D01*
X337073Y414923D01*
X336953Y414771D01*
X336833Y414622D01*
X336829Y414614D01*
X336823Y414607D01*
X336735Y414434D01*
X336647Y414265D01*
X336645Y414256D01*
X336641Y414248D01*
X336589Y414063D01*
X336536Y413878D01*
X336535Y413869D01*
X336533Y413860D01*
X336519Y413668D01*
X336503Y413476D01*
X336504Y413468D01*
X336503Y413459D01*
X336528Y413267D01*
X336550Y413077D01*
X336553Y413068D01*
X336554Y413059D01*
X336615Y412877D01*
X336675Y412694D01*
X336679Y412686D01*
X336682Y412678D01*
X336778Y412510D01*
X336873Y412343D01*
X336879Y412336D01*
X336883Y412329D01*
X337098Y412076D01*
X337737Y411436D01*
X339091Y408169D01*
X339091Y404631D01*
X337737Y401364D01*
X337098Y400724D01*
X337092Y400717D01*
X337085Y400712D01*
X336965Y400563D01*
X336843Y400413D01*
X336838Y400405D01*
X336833Y400398D01*
X336745Y400228D01*
X336654Y400057D01*
X336651Y400048D01*
X336647Y400041D01*
X336594Y399856D01*
X336539Y399671D01*
X336538Y399662D01*
X336536Y399654D01*
X336520Y399463D01*
X336503Y399270D01*
X336504Y399261D01*
X336503Y399252D01*
X336525Y399063D01*
X336546Y398870D01*
X336549Y398861D01*
X336550Y398853D01*
X336610Y398670D01*
X336668Y398486D01*
X336672Y398478D01*
X336675Y398470D01*
X336770Y398301D01*
X336863Y398134D01*
X336868Y398127D01*
X336873Y398119D01*
X336999Y397972D01*
X337123Y397827D01*
X337130Y397821D01*
X337136Y397814D01*
X337289Y397696D01*
X337439Y397577D01*
X337447Y397573D01*
X337454Y397568D01*
X337627Y397481D01*
X337798Y397395D01*
X337806Y397392D01*
X337814Y397388D01*
X338002Y397338D01*
X338186Y397287D01*
X338195Y397286D01*
X338203Y397284D01*
X338534Y397257D01*
X442185Y397257D01*
X442212Y397259D01*
X442239Y397257D01*
X442413Y397279D01*
X442586Y397297D01*
X442611Y397304D01*
X442638Y397308D01*
X442804Y397363D01*
X442971Y397415D01*
X442994Y397428D01*
X443020Y397436D01*
X443171Y397523D01*
X443325Y397607D01*
X443345Y397624D01*
X443369Y397637D01*
X443622Y397852D01*
X473362Y427592D01*
X473377Y427610D01*
X473394Y427624D01*
X473504Y427765D01*
X473617Y427904D01*
X473628Y427924D01*
X473642Y427941D01*
X473722Y428102D01*
X473806Y428260D01*
X473812Y428281D01*
X473822Y428301D01*
X473870Y428474D01*
X473921Y428645D01*
X473923Y428668D01*
X473929Y428689D01*
X473941Y428867D01*
X473957Y429046D01*
X473955Y429069D01*
X473956Y429091D01*
X473933Y429268D01*
X473914Y429447D01*
X473907Y429468D01*
X473904Y429490D01*
X473803Y429806D01*
X473709Y430032D01*
X473709Y433569D01*
X475063Y436836D01*
X477564Y439337D01*
X480831Y440691D01*
X484369Y440691D01*
X487636Y439337D01*
X490137Y436836D01*
X491491Y433569D01*
X491491Y430031D01*
X490137Y426764D01*
X487636Y424263D01*
X484369Y422909D01*
X480832Y422909D01*
X480606Y423003D01*
X480585Y423009D01*
X480565Y423019D01*
X480392Y423067D01*
X480221Y423119D01*
X480198Y423121D01*
X480177Y423127D01*
X479997Y423140D01*
X479820Y423157D01*
X479798Y423155D01*
X479775Y423157D01*
X479597Y423134D01*
X479419Y423116D01*
X479398Y423109D01*
X479376Y423106D01*
X479206Y423049D01*
X479035Y422996D01*
X479015Y422985D01*
X478994Y422978D01*
X478839Y422889D01*
X478682Y422803D01*
X478665Y422788D01*
X478645Y422777D01*
X478392Y422562D01*
X445973Y390143D01*
X338534Y390143D01*
X338525Y390142D01*
X338516Y390143D01*
X338324Y390122D01*
X338133Y390103D01*
X338125Y390101D01*
X338116Y390100D01*
X337934Y390042D01*
X337748Y389985D01*
X337741Y389981D01*
X337732Y389978D01*
X337564Y389885D01*
X337394Y389793D01*
X337388Y389788D01*
X337380Y389783D01*
X337232Y389658D01*
X337085Y389536D01*
X337080Y389529D01*
X337073Y389523D01*
X336953Y389371D01*
X336833Y389222D01*
X336829Y389214D01*
X336823Y389207D01*
X336735Y389034D01*
X336647Y388865D01*
X336645Y388856D01*
X336641Y388848D01*
X336588Y388660D01*
X336536Y388478D01*
X336535Y388469D01*
X336533Y388460D01*
X336519Y388268D01*
X336503Y388076D01*
X336504Y388068D01*
X336503Y388059D01*
X336528Y387867D01*
X336550Y387677D01*
X336553Y387668D01*
X336554Y387659D01*
X336615Y387477D01*
X336675Y387294D01*
X336679Y387286D01*
X336682Y387278D01*
X336778Y387110D01*
X336873Y386943D01*
X336879Y386936D01*
X336883Y386929D01*
X337098Y386676D01*
X337737Y386036D01*
X339091Y382769D01*
X339091Y379231D01*
X337737Y375964D01*
X335236Y373463D01*
X334429Y373128D01*
X331969Y372109D01*
X328431Y372109D01*
G37*
%LPD*%
%LPC*%
G36*
X125231Y143509D02*
X125231Y143509D01*
X121964Y144863D01*
X119463Y147364D01*
X118109Y150631D01*
X118109Y154169D01*
X119463Y157436D01*
X121964Y159937D01*
X125231Y161291D01*
X128768Y161291D01*
X128994Y161197D01*
X129015Y161191D01*
X129035Y161181D01*
X129208Y161133D01*
X129379Y161081D01*
X129402Y161079D01*
X129423Y161073D01*
X129603Y161060D01*
X129780Y161043D01*
X129802Y161045D01*
X129825Y161043D01*
X130003Y161066D01*
X130181Y161084D01*
X130202Y161091D01*
X130224Y161094D01*
X130394Y161151D01*
X130565Y161204D01*
X130585Y161215D01*
X130606Y161222D01*
X130761Y161311D01*
X130918Y161397D01*
X130935Y161412D01*
X130955Y161423D01*
X131208Y161638D01*
X135548Y165978D01*
X138227Y168657D01*
X271066Y168657D01*
X271075Y168658D01*
X271084Y168657D01*
X271276Y168678D01*
X271467Y168697D01*
X271475Y168699D01*
X271484Y168700D01*
X271666Y168758D01*
X271852Y168815D01*
X271859Y168819D01*
X271868Y168822D01*
X272036Y168915D01*
X272206Y169007D01*
X272212Y169012D01*
X272220Y169017D01*
X272368Y169142D01*
X272515Y169264D01*
X272520Y169271D01*
X272527Y169277D01*
X272647Y169429D01*
X272767Y169578D01*
X272771Y169586D01*
X272777Y169593D01*
X272865Y169766D01*
X272953Y169935D01*
X272955Y169944D01*
X272959Y169952D01*
X273011Y170137D01*
X273064Y170322D01*
X273065Y170331D01*
X273067Y170340D01*
X273081Y170530D01*
X273097Y170724D01*
X273096Y170732D01*
X273097Y170741D01*
X273072Y170933D01*
X273050Y171123D01*
X273047Y171132D01*
X273046Y171141D01*
X272985Y171323D01*
X272925Y171506D01*
X272921Y171514D01*
X272918Y171522D01*
X272822Y171690D01*
X272727Y171857D01*
X272721Y171864D01*
X272717Y171871D01*
X272502Y172124D01*
X271863Y172764D01*
X270509Y176031D01*
X270509Y179569D01*
X271863Y182836D01*
X272502Y183476D01*
X272508Y183483D01*
X272515Y183488D01*
X272635Y183637D01*
X272757Y183787D01*
X272762Y183795D01*
X272767Y183802D01*
X272855Y183972D01*
X272946Y184143D01*
X272949Y184152D01*
X272953Y184159D01*
X273006Y184344D01*
X273061Y184529D01*
X273062Y184538D01*
X273064Y184546D01*
X273080Y184737D01*
X273097Y184930D01*
X273096Y184939D01*
X273097Y184948D01*
X273075Y185137D01*
X273054Y185330D01*
X273051Y185339D01*
X273050Y185347D01*
X272990Y185530D01*
X272932Y185714D01*
X272928Y185722D01*
X272925Y185730D01*
X272831Y185898D01*
X272737Y186066D01*
X272732Y186073D01*
X272727Y186081D01*
X272601Y186227D01*
X272477Y186373D01*
X272470Y186379D01*
X272464Y186386D01*
X272311Y186504D01*
X272161Y186623D01*
X272153Y186627D01*
X272146Y186632D01*
X271973Y186719D01*
X271802Y186805D01*
X271794Y186808D01*
X271786Y186812D01*
X271598Y186862D01*
X271414Y186913D01*
X271405Y186914D01*
X271397Y186916D01*
X271066Y186943D01*
X142015Y186943D01*
X141988Y186941D01*
X141961Y186943D01*
X141787Y186921D01*
X141614Y186903D01*
X141589Y186896D01*
X141562Y186892D01*
X141396Y186837D01*
X141229Y186785D01*
X141205Y186772D01*
X141180Y186764D01*
X141029Y186677D01*
X140875Y186593D01*
X140855Y186576D01*
X140831Y186563D01*
X140578Y186348D01*
X136238Y182008D01*
X136223Y181990D01*
X136206Y181976D01*
X136096Y181835D01*
X135983Y181696D01*
X135972Y181676D01*
X135958Y181659D01*
X135878Y181499D01*
X135794Y181340D01*
X135788Y181319D01*
X135778Y181299D01*
X135730Y181126D01*
X135679Y180955D01*
X135677Y180932D01*
X135671Y180911D01*
X135659Y180733D01*
X135643Y180554D01*
X135645Y180531D01*
X135644Y180509D01*
X135667Y180332D01*
X135686Y180153D01*
X135693Y180132D01*
X135696Y180110D01*
X135797Y179794D01*
X135891Y179568D01*
X135891Y176031D01*
X134537Y172764D01*
X132036Y170263D01*
X128769Y168909D01*
X125231Y168909D01*
X121964Y170263D01*
X119463Y172764D01*
X118109Y176031D01*
X118109Y179569D01*
X119463Y182836D01*
X121964Y185337D01*
X125231Y186691D01*
X128768Y186691D01*
X128994Y186597D01*
X129015Y186591D01*
X129035Y186581D01*
X129208Y186533D01*
X129379Y186481D01*
X129402Y186479D01*
X129423Y186473D01*
X129603Y186460D01*
X129780Y186443D01*
X129802Y186445D01*
X129825Y186443D01*
X130003Y186466D01*
X130181Y186484D01*
X130202Y186491D01*
X130224Y186494D01*
X130394Y186551D01*
X130565Y186604D01*
X130585Y186615D01*
X130606Y186622D01*
X130761Y186711D01*
X130918Y186797D01*
X130935Y186812D01*
X130955Y186823D01*
X131208Y187038D01*
X135548Y191378D01*
X138227Y194057D01*
X271066Y194057D01*
X271075Y194058D01*
X271084Y194057D01*
X271276Y194078D01*
X271467Y194097D01*
X271475Y194099D01*
X271484Y194100D01*
X271666Y194158D01*
X271852Y194215D01*
X271859Y194219D01*
X271868Y194222D01*
X272036Y194315D01*
X272206Y194407D01*
X272212Y194412D01*
X272220Y194417D01*
X272368Y194542D01*
X272515Y194664D01*
X272520Y194671D01*
X272527Y194677D01*
X272647Y194829D01*
X272767Y194978D01*
X272771Y194986D01*
X272777Y194993D01*
X272865Y195166D01*
X272953Y195335D01*
X272955Y195344D01*
X272959Y195352D01*
X273011Y195537D01*
X273064Y195722D01*
X273065Y195731D01*
X273067Y195740D01*
X273081Y195930D01*
X273097Y196124D01*
X273096Y196132D01*
X273097Y196141D01*
X273072Y196333D01*
X273050Y196523D01*
X273047Y196532D01*
X273046Y196541D01*
X272985Y196723D01*
X272925Y196906D01*
X272921Y196914D01*
X272918Y196922D01*
X272822Y197090D01*
X272727Y197257D01*
X272721Y197264D01*
X272717Y197271D01*
X272502Y197524D01*
X271863Y198164D01*
X270509Y201431D01*
X270509Y204969D01*
X271863Y208236D01*
X274364Y210737D01*
X274864Y210944D01*
X274864Y210945D01*
X277631Y212091D01*
X281169Y212091D01*
X284436Y210737D01*
X286937Y208236D01*
X288291Y204969D01*
X288291Y201431D01*
X286937Y198164D01*
X286298Y197524D01*
X286292Y197517D01*
X286285Y197512D01*
X286165Y197363D01*
X286043Y197213D01*
X286038Y197205D01*
X286033Y197198D01*
X285945Y197028D01*
X285854Y196857D01*
X285851Y196848D01*
X285847Y196841D01*
X285794Y196656D01*
X285739Y196471D01*
X285738Y196462D01*
X285736Y196454D01*
X285720Y196263D01*
X285703Y196070D01*
X285704Y196061D01*
X285703Y196052D01*
X285725Y195863D01*
X285746Y195670D01*
X285749Y195661D01*
X285750Y195653D01*
X285810Y195470D01*
X285868Y195286D01*
X285872Y195278D01*
X285875Y195270D01*
X285970Y195101D01*
X286063Y194934D01*
X286068Y194927D01*
X286073Y194919D01*
X286199Y194773D01*
X286323Y194627D01*
X286330Y194621D01*
X286336Y194614D01*
X286489Y194496D01*
X286639Y194377D01*
X286647Y194373D01*
X286654Y194368D01*
X286827Y194281D01*
X286998Y194195D01*
X287006Y194192D01*
X287014Y194188D01*
X287202Y194138D01*
X287386Y194087D01*
X287395Y194086D01*
X287403Y194084D01*
X287734Y194057D01*
X318973Y194057D01*
X325992Y187038D01*
X326010Y187023D01*
X326024Y187006D01*
X326165Y186896D01*
X326304Y186783D01*
X326324Y186772D01*
X326341Y186758D01*
X326501Y186678D01*
X326660Y186594D01*
X326681Y186588D01*
X326701Y186578D01*
X326874Y186530D01*
X327045Y186479D01*
X327068Y186477D01*
X327089Y186471D01*
X327267Y186459D01*
X327446Y186443D01*
X327469Y186445D01*
X327491Y186444D01*
X327668Y186467D01*
X327847Y186486D01*
X327868Y186493D01*
X327890Y186496D01*
X328206Y186597D01*
X328432Y186691D01*
X331969Y186691D01*
X335236Y185337D01*
X337737Y182836D01*
X339091Y179569D01*
X339091Y176031D01*
X337737Y172764D01*
X335236Y170263D01*
X331969Y168909D01*
X328431Y168909D01*
X325164Y170263D01*
X322663Y172764D01*
X321309Y176031D01*
X321309Y179568D01*
X321403Y179794D01*
X321409Y179815D01*
X321419Y179835D01*
X321467Y180008D01*
X321519Y180179D01*
X321521Y180202D01*
X321527Y180223D01*
X321540Y180403D01*
X321557Y180580D01*
X321555Y180602D01*
X321557Y180625D01*
X321534Y180803D01*
X321516Y180981D01*
X321509Y181002D01*
X321506Y181024D01*
X321449Y181194D01*
X321396Y181365D01*
X321385Y181385D01*
X321378Y181406D01*
X321289Y181561D01*
X321203Y181718D01*
X321188Y181735D01*
X321177Y181755D01*
X320962Y182008D01*
X316622Y186348D01*
X316601Y186365D01*
X316583Y186386D01*
X316446Y186492D01*
X316310Y186603D01*
X316286Y186616D01*
X316265Y186632D01*
X316109Y186710D01*
X315954Y186792D01*
X315929Y186800D01*
X315905Y186812D01*
X315736Y186857D01*
X315569Y186907D01*
X315542Y186909D01*
X315516Y186916D01*
X315185Y186943D01*
X287734Y186943D01*
X287725Y186942D01*
X287716Y186943D01*
X287524Y186922D01*
X287333Y186903D01*
X287325Y186901D01*
X287316Y186900D01*
X287134Y186842D01*
X286948Y186785D01*
X286941Y186781D01*
X286932Y186778D01*
X286764Y186685D01*
X286594Y186593D01*
X286588Y186588D01*
X286580Y186583D01*
X286432Y186458D01*
X286285Y186336D01*
X286280Y186329D01*
X286273Y186323D01*
X286153Y186171D01*
X286033Y186022D01*
X286029Y186014D01*
X286023Y186007D01*
X285935Y185834D01*
X285847Y185665D01*
X285845Y185656D01*
X285841Y185648D01*
X285789Y185463D01*
X285736Y185278D01*
X285735Y185269D01*
X285733Y185260D01*
X285719Y185068D01*
X285703Y184876D01*
X285704Y184868D01*
X285703Y184859D01*
X285728Y184667D01*
X285750Y184477D01*
X285753Y184468D01*
X285754Y184459D01*
X285815Y184277D01*
X285875Y184094D01*
X285879Y184086D01*
X285882Y184078D01*
X285978Y183910D01*
X286073Y183743D01*
X286079Y183736D01*
X286083Y183729D01*
X286298Y183476D01*
X286937Y182836D01*
X288291Y179569D01*
X288291Y176031D01*
X286937Y172764D01*
X286298Y172124D01*
X286292Y172117D01*
X286285Y172112D01*
X286165Y171963D01*
X286043Y171813D01*
X286038Y171805D01*
X286033Y171798D01*
X285945Y171628D01*
X285854Y171457D01*
X285851Y171448D01*
X285847Y171441D01*
X285794Y171256D01*
X285739Y171071D01*
X285738Y171062D01*
X285736Y171054D01*
X285720Y170863D01*
X285703Y170670D01*
X285704Y170661D01*
X285703Y170652D01*
X285725Y170463D01*
X285746Y170270D01*
X285749Y170261D01*
X285750Y170253D01*
X285810Y170070D01*
X285868Y169886D01*
X285872Y169878D01*
X285875Y169870D01*
X285970Y169701D01*
X286063Y169534D01*
X286068Y169527D01*
X286073Y169519D01*
X286199Y169373D01*
X286323Y169227D01*
X286330Y169221D01*
X286336Y169214D01*
X286489Y169096D01*
X286639Y168977D01*
X286647Y168973D01*
X286654Y168968D01*
X286827Y168881D01*
X286998Y168795D01*
X287006Y168792D01*
X287014Y168788D01*
X287202Y168738D01*
X287386Y168687D01*
X287395Y168686D01*
X287403Y168684D01*
X287734Y168657D01*
X318973Y168657D01*
X321652Y165978D01*
X325992Y161638D01*
X326010Y161623D01*
X326024Y161606D01*
X326165Y161496D01*
X326304Y161383D01*
X326324Y161372D01*
X326341Y161358D01*
X326501Y161278D01*
X326660Y161194D01*
X326681Y161188D01*
X326701Y161178D01*
X326874Y161130D01*
X327045Y161079D01*
X327068Y161077D01*
X327089Y161071D01*
X327267Y161059D01*
X327446Y161043D01*
X327469Y161045D01*
X327491Y161044D01*
X327668Y161067D01*
X327847Y161086D01*
X327868Y161093D01*
X327890Y161096D01*
X328206Y161197D01*
X328432Y161291D01*
X331969Y161291D01*
X335236Y159937D01*
X337737Y157436D01*
X339091Y154169D01*
X339091Y150631D01*
X337737Y147364D01*
X335236Y144863D01*
X331969Y143509D01*
X328431Y143509D01*
X325164Y144863D01*
X322663Y147364D01*
X321309Y150631D01*
X321309Y154168D01*
X321403Y154394D01*
X321409Y154415D01*
X321419Y154435D01*
X321467Y154608D01*
X321519Y154779D01*
X321521Y154802D01*
X321527Y154823D01*
X321540Y155003D01*
X321557Y155180D01*
X321555Y155202D01*
X321557Y155225D01*
X321534Y155403D01*
X321516Y155581D01*
X321509Y155602D01*
X321506Y155624D01*
X321449Y155794D01*
X321396Y155965D01*
X321385Y155985D01*
X321378Y156006D01*
X321289Y156161D01*
X321203Y156318D01*
X321188Y156335D01*
X321177Y156355D01*
X320962Y156608D01*
X316622Y160948D01*
X316601Y160965D01*
X316583Y160986D01*
X316446Y161092D01*
X316310Y161203D01*
X316286Y161216D01*
X316265Y161232D01*
X316109Y161310D01*
X315954Y161392D01*
X315929Y161400D01*
X315905Y161412D01*
X315736Y161457D01*
X315569Y161507D01*
X315542Y161509D01*
X315516Y161516D01*
X315185Y161543D01*
X287734Y161543D01*
X287725Y161542D01*
X287716Y161543D01*
X287524Y161522D01*
X287333Y161503D01*
X287325Y161501D01*
X287316Y161500D01*
X287134Y161442D01*
X286948Y161385D01*
X286941Y161381D01*
X286932Y161378D01*
X286764Y161285D01*
X286594Y161193D01*
X286588Y161188D01*
X286580Y161183D01*
X286432Y161058D01*
X286285Y160936D01*
X286280Y160929D01*
X286273Y160923D01*
X286153Y160771D01*
X286033Y160622D01*
X286029Y160614D01*
X286023Y160607D01*
X285935Y160434D01*
X285847Y160265D01*
X285845Y160256D01*
X285841Y160248D01*
X285789Y160063D01*
X285736Y159878D01*
X285735Y159869D01*
X285733Y159860D01*
X285719Y159668D01*
X285703Y159476D01*
X285704Y159468D01*
X285703Y159459D01*
X285728Y159267D01*
X285750Y159077D01*
X285753Y159068D01*
X285754Y159059D01*
X285815Y158877D01*
X285875Y158694D01*
X285879Y158686D01*
X285882Y158678D01*
X285978Y158510D01*
X286073Y158343D01*
X286079Y158336D01*
X286083Y158329D01*
X286298Y158076D01*
X286937Y157436D01*
X288291Y154169D01*
X288291Y150631D01*
X286937Y147364D01*
X284436Y144863D01*
X281169Y143509D01*
X277631Y143509D01*
X274364Y144863D01*
X271863Y147364D01*
X270509Y150631D01*
X270509Y154169D01*
X271863Y157436D01*
X272502Y158076D01*
X272508Y158083D01*
X272515Y158088D01*
X272635Y158237D01*
X272757Y158387D01*
X272762Y158395D01*
X272767Y158402D01*
X272855Y158572D01*
X272946Y158743D01*
X272949Y158752D01*
X272953Y158759D01*
X273006Y158944D01*
X273061Y159129D01*
X273062Y159138D01*
X273064Y159146D01*
X273080Y159335D01*
X273097Y159530D01*
X273096Y159539D01*
X273097Y159548D01*
X273075Y159737D01*
X273054Y159930D01*
X273051Y159939D01*
X273050Y159947D01*
X272990Y160130D01*
X272932Y160314D01*
X272928Y160322D01*
X272925Y160330D01*
X272831Y160498D01*
X272737Y160666D01*
X272732Y160673D01*
X272727Y160681D01*
X272601Y160827D01*
X272477Y160973D01*
X272470Y160979D01*
X272464Y160986D01*
X272311Y161104D01*
X272161Y161223D01*
X272153Y161227D01*
X272146Y161232D01*
X271973Y161319D01*
X271802Y161405D01*
X271794Y161408D01*
X271786Y161412D01*
X271598Y161462D01*
X271414Y161513D01*
X271405Y161514D01*
X271397Y161516D01*
X271066Y161543D01*
X142015Y161543D01*
X141988Y161541D01*
X141961Y161543D01*
X141787Y161521D01*
X141614Y161503D01*
X141589Y161496D01*
X141562Y161492D01*
X141396Y161437D01*
X141229Y161385D01*
X141205Y161372D01*
X141180Y161364D01*
X141029Y161277D01*
X140875Y161193D01*
X140855Y161176D01*
X140831Y161163D01*
X140578Y160948D01*
X136238Y156608D01*
X136223Y156590D01*
X136206Y156576D01*
X136096Y156435D01*
X135983Y156296D01*
X135972Y156276D01*
X135958Y156259D01*
X135878Y156099D01*
X135794Y155940D01*
X135788Y155919D01*
X135778Y155899D01*
X135730Y155726D01*
X135679Y155555D01*
X135677Y155532D01*
X135671Y155511D01*
X135659Y155333D01*
X135643Y155154D01*
X135645Y155131D01*
X135644Y155109D01*
X135667Y154932D01*
X135686Y154753D01*
X135693Y154732D01*
X135696Y154710D01*
X135797Y154394D01*
X135891Y154168D01*
X135891Y150631D01*
X134537Y147364D01*
X132036Y144863D01*
X128769Y143509D01*
X125231Y143509D01*
G37*
%LPD*%
%LPC*%
G36*
X143879Y75871D02*
X143879Y75871D01*
X140891Y77109D01*
X138605Y79395D01*
X137367Y82383D01*
X137367Y85617D01*
X138605Y88605D01*
X140891Y90891D01*
X143879Y92129D01*
X144788Y92129D01*
X144811Y92131D01*
X144833Y92129D01*
X145010Y92151D01*
X145189Y92169D01*
X145210Y92175D01*
X145232Y92178D01*
X145402Y92234D01*
X145574Y92287D01*
X145594Y92297D01*
X145615Y92304D01*
X145770Y92393D01*
X145928Y92479D01*
X145945Y92493D01*
X145964Y92504D01*
X146100Y92622D01*
X146237Y92736D01*
X146251Y92754D01*
X146268Y92768D01*
X146377Y92910D01*
X146489Y93050D01*
X146500Y93070D01*
X146513Y93088D01*
X146665Y93383D01*
X147362Y95066D01*
X152760Y100464D01*
X152771Y100478D01*
X152785Y100489D01*
X152899Y100633D01*
X153015Y100775D01*
X153023Y100791D01*
X153035Y100805D01*
X153118Y100969D01*
X153204Y101131D01*
X153209Y101148D01*
X153217Y101164D01*
X153266Y101341D01*
X153318Y101517D01*
X153320Y101535D01*
X153325Y101552D01*
X153338Y101735D01*
X153355Y101918D01*
X153353Y101936D01*
X153354Y101953D01*
X153331Y102135D01*
X153311Y102318D01*
X153306Y102335D01*
X153304Y102353D01*
X153246Y102526D01*
X153190Y102702D01*
X153181Y102718D01*
X153176Y102734D01*
X153084Y102894D01*
X152995Y103054D01*
X152984Y103068D01*
X152975Y103083D01*
X152760Y103336D01*
X135771Y120325D01*
X135757Y120336D01*
X135746Y120350D01*
X135602Y120464D01*
X135460Y120580D01*
X135444Y120589D01*
X135430Y120600D01*
X135266Y120683D01*
X135104Y120769D01*
X135087Y120774D01*
X135071Y120782D01*
X134894Y120831D01*
X134718Y120884D01*
X134700Y120885D01*
X134683Y120890D01*
X134500Y120903D01*
X134317Y120920D01*
X134299Y120918D01*
X134282Y120919D01*
X134100Y120897D01*
X133917Y120877D01*
X133900Y120871D01*
X133882Y120869D01*
X133709Y120811D01*
X133533Y120755D01*
X133517Y120746D01*
X133500Y120741D01*
X133342Y120649D01*
X133181Y120560D01*
X133167Y120549D01*
X133152Y120540D01*
X132899Y120325D01*
X132036Y119463D01*
X128769Y118109D01*
X125231Y118109D01*
X121964Y119463D01*
X119463Y121964D01*
X118109Y125231D01*
X118109Y128769D01*
X119463Y132036D01*
X121964Y134537D01*
X124984Y135788D01*
X125231Y135891D01*
X128769Y135891D01*
X132036Y134537D01*
X133390Y133184D01*
X133410Y133167D01*
X133428Y133146D01*
X133566Y133039D01*
X133701Y132929D01*
X133725Y132916D01*
X133746Y132900D01*
X133903Y132822D01*
X134057Y132740D01*
X134082Y132732D01*
X134107Y132720D01*
X134276Y132675D01*
X134443Y132625D01*
X134469Y132623D01*
X134495Y132616D01*
X134826Y132589D01*
X138112Y132589D01*
X140166Y131738D01*
X142024Y129880D01*
X163820Y108084D01*
X163841Y108067D01*
X163858Y108046D01*
X163996Y107939D01*
X164131Y107829D01*
X164155Y107816D01*
X164176Y107800D01*
X164333Y107722D01*
X164487Y107640D01*
X164513Y107632D01*
X164537Y107620D01*
X164706Y107575D01*
X164873Y107525D01*
X164900Y107523D01*
X164926Y107516D01*
X165256Y107489D01*
X301944Y107489D01*
X301970Y107491D01*
X301997Y107489D01*
X302171Y107511D01*
X302344Y107529D01*
X302370Y107536D01*
X302396Y107540D01*
X302562Y107595D01*
X302729Y107647D01*
X302753Y107660D01*
X302778Y107668D01*
X302930Y107755D01*
X303083Y107839D01*
X303104Y107856D01*
X303127Y107869D01*
X303380Y108084D01*
X320714Y125418D01*
X320731Y125439D01*
X320752Y125456D01*
X320859Y125594D01*
X320969Y125729D01*
X320982Y125753D01*
X320998Y125774D01*
X321076Y125931D01*
X321158Y126085D01*
X321166Y126111D01*
X321178Y126135D01*
X321223Y126304D01*
X321273Y126471D01*
X321275Y126498D01*
X321282Y126524D01*
X321309Y126854D01*
X321309Y128769D01*
X322663Y132036D01*
X325164Y134537D01*
X328184Y135788D01*
X328431Y135891D01*
X331969Y135891D01*
X335236Y134537D01*
X337737Y132036D01*
X339091Y128769D01*
X339091Y125231D01*
X337737Y121964D01*
X335236Y119463D01*
X331969Y118109D01*
X330054Y118109D01*
X330028Y118107D01*
X330001Y118109D01*
X329827Y118087D01*
X329654Y118069D01*
X329628Y118062D01*
X329602Y118058D01*
X329436Y118002D01*
X329269Y117951D01*
X329245Y117938D01*
X329220Y117930D01*
X329068Y117843D01*
X328915Y117759D01*
X328894Y117742D01*
X328871Y117729D01*
X328618Y117514D01*
X308266Y97162D01*
X306212Y96311D01*
X165256Y96311D01*
X165230Y96309D01*
X165203Y96311D01*
X165029Y96289D01*
X164856Y96271D01*
X164830Y96264D01*
X164804Y96260D01*
X164638Y96205D01*
X164471Y96153D01*
X164447Y96140D01*
X164422Y96132D01*
X164270Y96045D01*
X164117Y95961D01*
X164096Y95944D01*
X164073Y95931D01*
X163820Y95716D01*
X162408Y94304D01*
X162399Y94294D01*
X162389Y94285D01*
X162272Y94138D01*
X162153Y93993D01*
X162147Y93981D01*
X162138Y93970D01*
X162052Y93802D01*
X161964Y93637D01*
X161960Y93624D01*
X161954Y93612D01*
X161903Y93431D01*
X161849Y93251D01*
X161848Y93238D01*
X161845Y93225D01*
X161830Y93038D01*
X161813Y92850D01*
X161815Y92837D01*
X161813Y92823D01*
X161836Y92638D01*
X161856Y92450D01*
X161861Y92437D01*
X161862Y92424D01*
X161921Y92245D01*
X161978Y92066D01*
X161984Y92054D01*
X161989Y92042D01*
X162082Y91878D01*
X162173Y91714D01*
X162181Y91703D01*
X162188Y91692D01*
X162312Y91550D01*
X162433Y91407D01*
X162444Y91398D01*
X162453Y91388D01*
X162602Y91273D01*
X162749Y91157D01*
X162761Y91151D01*
X162772Y91143D01*
X163067Y90991D01*
X163309Y90891D01*
X165595Y88605D01*
X166833Y85617D01*
X166833Y82383D01*
X165595Y79395D01*
X163309Y77109D01*
X160321Y75871D01*
X143879Y75871D01*
G37*
%LPD*%
%LPC*%
G36*
X239582Y504951D02*
X239582Y504951D01*
X236408Y506266D01*
X233978Y508696D01*
X232663Y511870D01*
X232663Y529530D01*
X233978Y532704D01*
X235116Y533843D01*
X235133Y533863D01*
X235154Y533881D01*
X235261Y534019D01*
X235371Y534154D01*
X235384Y534178D01*
X235400Y534199D01*
X235478Y534356D01*
X235560Y534510D01*
X235568Y534535D01*
X235580Y534559D01*
X235625Y534729D01*
X235675Y534896D01*
X235677Y534922D01*
X235684Y534948D01*
X235711Y535279D01*
X235711Y538512D01*
X236562Y540566D01*
X244976Y548980D01*
X244977Y548980D01*
X246834Y550838D01*
X248888Y551689D01*
X436912Y551689D01*
X438966Y550838D01*
X449238Y540566D01*
X450089Y538512D01*
X450089Y525944D01*
X450091Y525917D01*
X450089Y525890D01*
X450111Y525716D01*
X450129Y525543D01*
X450136Y525518D01*
X450140Y525491D01*
X450195Y525325D01*
X450247Y525158D01*
X450260Y525135D01*
X450268Y525109D01*
X450355Y524958D01*
X450439Y524804D01*
X450455Y524784D01*
X451565Y522105D01*
X451565Y519295D01*
X450489Y516698D01*
X448502Y514711D01*
X445905Y513635D01*
X443095Y513635D01*
X440498Y514711D01*
X438511Y516698D01*
X437435Y519295D01*
X437435Y522105D01*
X438547Y524789D01*
X438571Y524819D01*
X438584Y524843D01*
X438600Y524864D01*
X438678Y525021D01*
X438760Y525175D01*
X438768Y525200D01*
X438780Y525224D01*
X438825Y525394D01*
X438875Y525560D01*
X438877Y525587D01*
X438884Y525613D01*
X438911Y525944D01*
X438911Y534244D01*
X438909Y534270D01*
X438911Y534297D01*
X438889Y534471D01*
X438871Y534644D01*
X438864Y534670D01*
X438860Y534696D01*
X438805Y534862D01*
X438753Y535029D01*
X438740Y535053D01*
X438732Y535078D01*
X438645Y535230D01*
X438561Y535383D01*
X438544Y535404D01*
X438531Y535427D01*
X438316Y535680D01*
X434080Y539916D01*
X434059Y539933D01*
X434042Y539954D01*
X433904Y540061D01*
X433768Y540171D01*
X433745Y540184D01*
X433724Y540200D01*
X433567Y540278D01*
X433413Y540360D01*
X433387Y540368D01*
X433363Y540380D01*
X433194Y540425D01*
X433027Y540475D01*
X433000Y540477D01*
X432974Y540484D01*
X432644Y540511D01*
X253156Y540511D01*
X253130Y540509D01*
X253103Y540511D01*
X252929Y540489D01*
X252756Y540471D01*
X252730Y540464D01*
X252704Y540460D01*
X252538Y540405D01*
X252371Y540353D01*
X252347Y540340D01*
X252322Y540332D01*
X252170Y540245D01*
X252017Y540161D01*
X251996Y540144D01*
X251973Y540131D01*
X251720Y539916D01*
X248001Y536198D01*
X247990Y536184D01*
X247976Y536172D01*
X247862Y536028D01*
X247746Y535886D01*
X247738Y535870D01*
X247727Y535856D01*
X247643Y535692D01*
X247558Y535530D01*
X247552Y535513D01*
X247544Y535497D01*
X247495Y535319D01*
X247443Y535144D01*
X247441Y535127D01*
X247436Y535109D01*
X247423Y534926D01*
X247406Y534743D01*
X247408Y534726D01*
X247407Y534708D01*
X247430Y534526D01*
X247450Y534343D01*
X247455Y534326D01*
X247457Y534309D01*
X247516Y534135D01*
X247571Y533959D01*
X247580Y533944D01*
X247586Y533927D01*
X247677Y533767D01*
X247766Y533607D01*
X247778Y533594D01*
X247787Y533578D01*
X248001Y533325D01*
X248622Y532704D01*
X249937Y529530D01*
X249937Y511870D01*
X248622Y508696D01*
X246192Y506266D01*
X243018Y504951D01*
X239582Y504951D01*
G37*
%LPD*%
%LPC*%
G36*
X125231Y397509D02*
X125231Y397509D01*
X121964Y398863D01*
X119463Y401364D01*
X118109Y404631D01*
X118109Y408168D01*
X119545Y411635D01*
X119549Y411648D01*
X119555Y411659D01*
X119607Y411839D01*
X119662Y412020D01*
X119663Y412033D01*
X119666Y412046D01*
X119682Y412234D01*
X119700Y412421D01*
X119698Y412434D01*
X119699Y412448D01*
X119678Y412633D01*
X119658Y412821D01*
X119654Y412834D01*
X119652Y412847D01*
X119594Y413027D01*
X119538Y413206D01*
X119532Y413217D01*
X119528Y413230D01*
X119435Y413394D01*
X119345Y413559D01*
X119336Y413569D01*
X119330Y413581D01*
X119207Y413723D01*
X119086Y413867D01*
X119075Y413875D01*
X119067Y413886D01*
X118919Y414000D01*
X118771Y414118D01*
X118759Y414124D01*
X118748Y414132D01*
X118580Y414216D01*
X118413Y414302D01*
X118400Y414306D01*
X118388Y414312D01*
X118205Y414361D01*
X118025Y414412D01*
X118012Y414413D01*
X117999Y414416D01*
X117668Y414443D01*
X112527Y414443D01*
X99322Y427648D01*
X99301Y427665D01*
X99283Y427686D01*
X99146Y427793D01*
X99010Y427903D01*
X98987Y427916D01*
X98965Y427932D01*
X98808Y428010D01*
X98654Y428092D01*
X98629Y428100D01*
X98605Y428112D01*
X98435Y428157D01*
X98269Y428207D01*
X98242Y428209D01*
X98216Y428216D01*
X97885Y428243D01*
X92544Y428243D01*
X92522Y428241D01*
X92500Y428243D01*
X92322Y428221D01*
X92144Y428203D01*
X92122Y428197D01*
X92100Y428194D01*
X91931Y428138D01*
X91759Y428085D01*
X91739Y428075D01*
X91718Y428068D01*
X91562Y427979D01*
X91405Y427893D01*
X91388Y427879D01*
X91368Y427868D01*
X91232Y427750D01*
X91096Y427636D01*
X91082Y427618D01*
X91065Y427604D01*
X90955Y427462D01*
X90843Y427322D01*
X90833Y427302D01*
X90819Y427284D01*
X90668Y426989D01*
X90634Y426908D01*
X88204Y424478D01*
X85030Y423163D01*
X67370Y423163D01*
X64196Y424478D01*
X61766Y426908D01*
X60451Y430082D01*
X60451Y433518D01*
X61766Y436692D01*
X64196Y439122D01*
X67370Y440437D01*
X85030Y440437D01*
X88204Y439122D01*
X90634Y436692D01*
X90668Y436611D01*
X90678Y436591D01*
X90685Y436570D01*
X90773Y436413D01*
X90858Y436256D01*
X90872Y436239D01*
X90883Y436219D01*
X91000Y436084D01*
X91114Y435945D01*
X91132Y435931D01*
X91146Y435914D01*
X91288Y435805D01*
X91427Y435692D01*
X91447Y435681D01*
X91464Y435668D01*
X91625Y435588D01*
X91783Y435505D01*
X91805Y435498D01*
X91825Y435488D01*
X91999Y435442D01*
X92170Y435392D01*
X92192Y435390D01*
X92214Y435384D01*
X92544Y435357D01*
X101673Y435357D01*
X114878Y422152D01*
X114899Y422135D01*
X114917Y422114D01*
X115054Y422007D01*
X115190Y421897D01*
X115213Y421884D01*
X115235Y421868D01*
X115392Y421790D01*
X115546Y421708D01*
X115571Y421700D01*
X115595Y421688D01*
X115765Y421643D01*
X115931Y421593D01*
X115958Y421591D01*
X115984Y421584D01*
X116315Y421557D01*
X119766Y421557D01*
X119775Y421558D01*
X119784Y421557D01*
X119976Y421578D01*
X120167Y421597D01*
X120175Y421599D01*
X120184Y421600D01*
X120366Y421658D01*
X120552Y421715D01*
X120559Y421719D01*
X120568Y421722D01*
X120736Y421815D01*
X120906Y421907D01*
X120912Y421912D01*
X120920Y421917D01*
X121068Y422042D01*
X121215Y422164D01*
X121220Y422171D01*
X121227Y422177D01*
X121347Y422329D01*
X121467Y422478D01*
X121471Y422486D01*
X121477Y422493D01*
X121564Y422665D01*
X121653Y422835D01*
X121655Y422844D01*
X121659Y422852D01*
X121711Y423037D01*
X121764Y423222D01*
X121765Y423231D01*
X121767Y423240D01*
X121781Y423432D01*
X121797Y423624D01*
X121796Y423632D01*
X121797Y423641D01*
X121772Y423834D01*
X121750Y424023D01*
X121747Y424032D01*
X121746Y424041D01*
X121685Y424223D01*
X121625Y424406D01*
X121621Y424414D01*
X121618Y424422D01*
X121523Y424588D01*
X121427Y424757D01*
X121421Y424764D01*
X121417Y424771D01*
X121202Y425024D01*
X119463Y426764D01*
X118109Y430031D01*
X118109Y433569D01*
X119463Y436836D01*
X121964Y439337D01*
X125231Y440691D01*
X128769Y440691D01*
X132036Y439337D01*
X134537Y436836D01*
X135891Y433569D01*
X135891Y430031D01*
X134537Y426764D01*
X132798Y425024D01*
X132792Y425017D01*
X132785Y425012D01*
X132665Y424862D01*
X132543Y424713D01*
X132538Y424705D01*
X132533Y424698D01*
X132444Y424528D01*
X132354Y424357D01*
X132351Y424348D01*
X132347Y424341D01*
X132294Y424156D01*
X132239Y423971D01*
X132238Y423962D01*
X132236Y423954D01*
X132220Y423763D01*
X132203Y423570D01*
X132204Y423561D01*
X132203Y423552D01*
X132225Y423363D01*
X132246Y423170D01*
X132249Y423161D01*
X132250Y423153D01*
X132309Y422971D01*
X132368Y422786D01*
X132372Y422778D01*
X132375Y422770D01*
X132469Y422603D01*
X132563Y422434D01*
X132568Y422427D01*
X132573Y422419D01*
X132698Y422274D01*
X132823Y422127D01*
X132830Y422121D01*
X132836Y422114D01*
X132986Y421998D01*
X133139Y421877D01*
X133147Y421873D01*
X133154Y421868D01*
X133325Y421782D01*
X133498Y421695D01*
X133506Y421692D01*
X133514Y421688D01*
X133700Y421638D01*
X133886Y421587D01*
X133895Y421586D01*
X133903Y421584D01*
X134234Y421557D01*
X269273Y421557D01*
X271952Y418878D01*
X275192Y415638D01*
X275210Y415623D01*
X275224Y415606D01*
X275365Y415496D01*
X275504Y415383D01*
X275524Y415372D01*
X275541Y415358D01*
X275701Y415278D01*
X275860Y415194D01*
X275881Y415188D01*
X275901Y415178D01*
X276073Y415130D01*
X276245Y415079D01*
X276268Y415077D01*
X276289Y415071D01*
X276467Y415059D01*
X276646Y415043D01*
X276669Y415045D01*
X276691Y415044D01*
X276868Y415067D01*
X277047Y415086D01*
X277068Y415093D01*
X277090Y415096D01*
X277406Y415197D01*
X277632Y415291D01*
X281169Y415291D01*
X284436Y413937D01*
X286937Y411436D01*
X288291Y408169D01*
X288291Y404631D01*
X286937Y401364D01*
X284436Y398863D01*
X281169Y397509D01*
X277631Y397509D01*
X274364Y398863D01*
X271863Y401364D01*
X270509Y404631D01*
X270509Y408168D01*
X270603Y408394D01*
X270609Y408415D01*
X270619Y408435D01*
X270667Y408608D01*
X270719Y408779D01*
X270721Y408802D01*
X270727Y408823D01*
X270740Y409003D01*
X270757Y409180D01*
X270755Y409202D01*
X270757Y409225D01*
X270734Y409403D01*
X270716Y409581D01*
X270709Y409602D01*
X270706Y409624D01*
X270649Y409794D01*
X270596Y409965D01*
X270585Y409985D01*
X270578Y410006D01*
X270489Y410161D01*
X270403Y410318D01*
X270388Y410335D01*
X270377Y410355D01*
X270162Y410608D01*
X266922Y413848D01*
X266901Y413865D01*
X266883Y413886D01*
X266746Y413992D01*
X266610Y414103D01*
X266586Y414116D01*
X266565Y414132D01*
X266409Y414210D01*
X266254Y414292D01*
X266229Y414300D01*
X266205Y414312D01*
X266036Y414357D01*
X265869Y414407D01*
X265842Y414409D01*
X265816Y414416D01*
X265485Y414443D01*
X136332Y414443D01*
X136318Y414442D01*
X136305Y414443D01*
X136119Y414422D01*
X135931Y414403D01*
X135918Y414399D01*
X135905Y414398D01*
X135727Y414341D01*
X135546Y414285D01*
X135534Y414279D01*
X135522Y414275D01*
X135358Y414183D01*
X135192Y414093D01*
X135182Y414085D01*
X135170Y414078D01*
X135027Y413956D01*
X134883Y413836D01*
X134874Y413825D01*
X134864Y413817D01*
X134748Y413668D01*
X134630Y413522D01*
X134624Y413510D01*
X134616Y413500D01*
X134531Y413330D01*
X134445Y413165D01*
X134441Y413152D01*
X134435Y413140D01*
X134385Y412957D01*
X134334Y412778D01*
X134332Y412764D01*
X134329Y412751D01*
X134316Y412563D01*
X134301Y412376D01*
X134302Y412363D01*
X134301Y412350D01*
X134326Y412162D01*
X134348Y411977D01*
X134352Y411964D01*
X134353Y411951D01*
X134455Y411635D01*
X135891Y408168D01*
X135891Y404631D01*
X134537Y401364D01*
X132036Y398863D01*
X128769Y397509D01*
X125231Y397509D01*
G37*
%LPD*%
%LPC*%
G36*
X221440Y491331D02*
X221440Y491331D01*
X212343Y500428D01*
X212343Y504356D01*
X212341Y504378D01*
X212343Y504400D01*
X212321Y504578D01*
X212303Y504756D01*
X212297Y504778D01*
X212294Y504800D01*
X212238Y504969D01*
X212185Y505141D01*
X212175Y505161D01*
X212168Y505182D01*
X212079Y505338D01*
X211993Y505495D01*
X211979Y505512D01*
X211968Y505532D01*
X211850Y505668D01*
X211736Y505804D01*
X211718Y505818D01*
X211704Y505835D01*
X211562Y505945D01*
X211422Y506057D01*
X211402Y506067D01*
X211384Y506081D01*
X211089Y506232D01*
X211008Y506266D01*
X208578Y508696D01*
X207263Y511870D01*
X207263Y529530D01*
X208578Y532704D01*
X211008Y535134D01*
X212965Y535944D01*
X212965Y535945D01*
X214182Y536449D01*
X217618Y536449D01*
X220792Y535134D01*
X223222Y532704D01*
X224537Y529530D01*
X224537Y511870D01*
X223222Y508696D01*
X220792Y506266D01*
X220711Y506232D01*
X220691Y506222D01*
X220670Y506215D01*
X220514Y506127D01*
X220356Y506042D01*
X220339Y506028D01*
X220319Y506017D01*
X220184Y505900D01*
X220045Y505786D01*
X220031Y505768D01*
X220014Y505754D01*
X219905Y505612D01*
X219792Y505473D01*
X219781Y505453D01*
X219768Y505436D01*
X219688Y505275D01*
X219605Y505117D01*
X219598Y505095D01*
X219588Y505075D01*
X219542Y504901D01*
X219492Y504730D01*
X219490Y504708D01*
X219484Y504686D01*
X219457Y504356D01*
X219457Y504216D01*
X219459Y504189D01*
X219457Y504162D01*
X219479Y503989D01*
X219497Y503815D01*
X219504Y503790D01*
X219508Y503763D01*
X219563Y503597D01*
X219615Y503430D01*
X219628Y503407D01*
X219636Y503381D01*
X219723Y503230D01*
X219807Y503076D01*
X219824Y503056D01*
X219837Y503032D01*
X220052Y502779D01*
X223791Y499040D01*
X223812Y499023D01*
X223830Y499002D01*
X223968Y498895D01*
X224103Y498785D01*
X224127Y498772D01*
X224148Y498756D01*
X224305Y498678D01*
X224459Y498596D01*
X224484Y498588D01*
X224508Y498576D01*
X224678Y498531D01*
X224845Y498481D01*
X224871Y498479D01*
X224897Y498472D01*
X225228Y498445D01*
X408973Y498445D01*
X409000Y498447D01*
X409027Y498445D01*
X409201Y498467D01*
X409374Y498485D01*
X409399Y498492D01*
X409426Y498496D01*
X409592Y498551D01*
X409759Y498603D01*
X409782Y498616D01*
X409808Y498624D01*
X409959Y498711D01*
X410113Y498795D01*
X410133Y498812D01*
X410157Y498825D01*
X410410Y499040D01*
X414948Y503578D01*
X414965Y503599D01*
X414986Y503617D01*
X415093Y503754D01*
X415203Y503890D01*
X415216Y503913D01*
X415232Y503935D01*
X415310Y504091D01*
X415392Y504246D01*
X415400Y504271D01*
X415412Y504295D01*
X415457Y504465D01*
X415507Y504631D01*
X415509Y504658D01*
X415516Y504684D01*
X415543Y505015D01*
X415543Y513424D01*
X415541Y513451D01*
X415543Y513478D01*
X415521Y513652D01*
X415503Y513825D01*
X415496Y513850D01*
X415492Y513877D01*
X415437Y514043D01*
X415385Y514210D01*
X415372Y514233D01*
X415364Y514259D01*
X415277Y514410D01*
X415193Y514564D01*
X415176Y514584D01*
X415163Y514608D01*
X414948Y514861D01*
X413111Y516698D01*
X412035Y519295D01*
X412035Y522105D01*
X413111Y524702D01*
X415098Y526689D01*
X417695Y527765D01*
X420505Y527765D01*
X423102Y526689D01*
X425089Y524702D01*
X426165Y522105D01*
X426165Y519295D01*
X425089Y516698D01*
X423252Y514861D01*
X423235Y514840D01*
X423214Y514822D01*
X423107Y514685D01*
X422997Y514549D01*
X422984Y514525D01*
X422968Y514504D01*
X422890Y514347D01*
X422808Y514193D01*
X422800Y514168D01*
X422788Y514144D01*
X422743Y513974D01*
X422693Y513808D01*
X422691Y513781D01*
X422684Y513755D01*
X422657Y513424D01*
X422657Y501227D01*
X412761Y491331D01*
X221440Y491331D01*
G37*
%LPD*%
%LPC*%
G36*
X226831Y448309D02*
X226831Y448309D01*
X223564Y449663D01*
X221063Y452164D01*
X219709Y455431D01*
X219709Y458969D01*
X221063Y462236D01*
X223564Y464737D01*
X223789Y464831D01*
X223809Y464841D01*
X223830Y464848D01*
X223986Y464936D01*
X224144Y465021D01*
X224161Y465035D01*
X224181Y465046D01*
X224316Y465163D01*
X224455Y465277D01*
X224469Y465295D01*
X224486Y465309D01*
X224595Y465451D01*
X224708Y465590D01*
X224719Y465610D01*
X224732Y465627D01*
X224812Y465788D01*
X224895Y465946D01*
X224902Y465968D01*
X224912Y465988D01*
X224958Y466160D01*
X225008Y466333D01*
X225010Y466355D01*
X225016Y466377D01*
X225043Y466707D01*
X225043Y474673D01*
X237227Y486857D01*
X421173Y486857D01*
X435357Y472673D01*
X435357Y466707D01*
X435358Y466697D01*
X435357Y466688D01*
X435358Y466677D01*
X435357Y466663D01*
X435379Y466485D01*
X435397Y466307D01*
X435403Y466285D01*
X435406Y466263D01*
X435462Y466093D01*
X435515Y465922D01*
X435525Y465902D01*
X435532Y465881D01*
X435621Y465725D01*
X435707Y465568D01*
X435721Y465551D01*
X435732Y465531D01*
X435850Y465395D01*
X435964Y465258D01*
X435982Y465244D01*
X435996Y465228D01*
X436139Y465118D01*
X436278Y465006D01*
X436298Y464996D01*
X436316Y464982D01*
X436611Y464831D01*
X436836Y464737D01*
X439337Y462236D01*
X440691Y458969D01*
X440691Y455431D01*
X439337Y452164D01*
X436836Y449663D01*
X433569Y448309D01*
X430031Y448309D01*
X426764Y449663D01*
X424263Y452164D01*
X422909Y455431D01*
X422909Y458969D01*
X424263Y462236D01*
X426764Y464737D01*
X426989Y464831D01*
X427009Y464841D01*
X427030Y464848D01*
X427186Y464936D01*
X427344Y465021D01*
X427361Y465035D01*
X427381Y465046D01*
X427516Y465163D01*
X427655Y465277D01*
X427669Y465295D01*
X427686Y465309D01*
X427795Y465451D01*
X427908Y465590D01*
X427919Y465610D01*
X427932Y465627D01*
X428012Y465788D01*
X428095Y465946D01*
X428102Y465968D01*
X428112Y465988D01*
X428158Y466160D01*
X428208Y466333D01*
X428210Y466355D01*
X428216Y466377D01*
X428243Y466707D01*
X428243Y468885D01*
X428241Y468912D01*
X428243Y468939D01*
X428221Y469113D01*
X428203Y469286D01*
X428196Y469311D01*
X428192Y469338D01*
X428137Y469504D01*
X428085Y469671D01*
X428072Y469694D01*
X428064Y469720D01*
X427977Y469871D01*
X427893Y470025D01*
X427876Y470045D01*
X427863Y470069D01*
X427648Y470322D01*
X418822Y479148D01*
X418801Y479165D01*
X418783Y479186D01*
X418646Y479293D01*
X418510Y479403D01*
X418487Y479416D01*
X418465Y479432D01*
X418308Y479510D01*
X418154Y479592D01*
X418129Y479600D01*
X418105Y479612D01*
X417935Y479657D01*
X417769Y479707D01*
X417742Y479709D01*
X417716Y479716D01*
X417385Y479743D01*
X241015Y479743D01*
X240988Y479741D01*
X240961Y479743D01*
X240787Y479721D01*
X240614Y479703D01*
X240589Y479696D01*
X240562Y479692D01*
X240396Y479637D01*
X240229Y479585D01*
X240206Y479572D01*
X240180Y479564D01*
X240029Y479477D01*
X239875Y479393D01*
X239855Y479376D01*
X239831Y479363D01*
X239578Y479148D01*
X232752Y472322D01*
X232735Y472301D01*
X232714Y472283D01*
X232607Y472146D01*
X232497Y472010D01*
X232484Y471987D01*
X232468Y471965D01*
X232390Y471808D01*
X232308Y471654D01*
X232300Y471629D01*
X232288Y471605D01*
X232243Y471435D01*
X232193Y471269D01*
X232191Y471242D01*
X232184Y471216D01*
X232157Y470885D01*
X232157Y466707D01*
X232158Y466697D01*
X232157Y466688D01*
X232158Y466677D01*
X232157Y466663D01*
X232179Y466485D01*
X232197Y466307D01*
X232203Y466285D01*
X232206Y466263D01*
X232262Y466093D01*
X232315Y465922D01*
X232325Y465902D01*
X232332Y465881D01*
X232421Y465725D01*
X232507Y465568D01*
X232521Y465551D01*
X232532Y465531D01*
X232650Y465395D01*
X232764Y465258D01*
X232782Y465244D01*
X232796Y465228D01*
X232939Y465118D01*
X233078Y465006D01*
X233098Y464996D01*
X233116Y464982D01*
X233411Y464831D01*
X233636Y464737D01*
X236137Y462236D01*
X237491Y458969D01*
X237491Y455431D01*
X236137Y452164D01*
X233636Y449663D01*
X230369Y448309D01*
X226831Y448309D01*
G37*
%LPD*%
%LPC*%
G36*
X67679Y75871D02*
X67679Y75871D01*
X64691Y77109D01*
X62405Y79395D01*
X61167Y82383D01*
X61167Y85617D01*
X62405Y88605D01*
X64691Y90891D01*
X67679Y92129D01*
X68580Y92129D01*
X68598Y92131D01*
X68616Y92129D01*
X68798Y92150D01*
X68981Y92169D01*
X68998Y92174D01*
X69015Y92176D01*
X69190Y92233D01*
X69366Y92287D01*
X69381Y92295D01*
X69398Y92301D01*
X69558Y92391D01*
X69720Y92479D01*
X69733Y92490D01*
X69749Y92499D01*
X69888Y92619D01*
X70029Y92736D01*
X70040Y92750D01*
X70054Y92762D01*
X70166Y92907D01*
X70281Y93050D01*
X70289Y93066D01*
X70300Y93080D01*
X70382Y93245D01*
X70467Y93407D01*
X70472Y93424D01*
X70480Y93440D01*
X70527Y93619D01*
X70578Y93794D01*
X70580Y93812D01*
X70584Y93829D01*
X70611Y94160D01*
X70611Y116332D01*
X70609Y116350D01*
X70611Y116368D01*
X70590Y116550D01*
X70571Y116733D01*
X70566Y116750D01*
X70564Y116767D01*
X70507Y116942D01*
X70453Y117118D01*
X70445Y117133D01*
X70439Y117150D01*
X70349Y117310D01*
X70261Y117472D01*
X70250Y117485D01*
X70241Y117501D01*
X70121Y117640D01*
X70004Y117781D01*
X69990Y117792D01*
X69978Y117806D01*
X69833Y117918D01*
X69690Y118033D01*
X69674Y118041D01*
X69660Y118052D01*
X69495Y118134D01*
X69333Y118219D01*
X69316Y118224D01*
X69300Y118232D01*
X69121Y118279D01*
X68946Y118330D01*
X68928Y118332D01*
X68911Y118336D01*
X68580Y118363D01*
X67370Y118363D01*
X64196Y119678D01*
X61766Y122108D01*
X60451Y125282D01*
X60451Y128718D01*
X61766Y131892D01*
X64196Y134322D01*
X67370Y135637D01*
X85030Y135637D01*
X88204Y134322D01*
X90634Y131892D01*
X91949Y128718D01*
X91949Y125282D01*
X90634Y122108D01*
X88204Y119678D01*
X87104Y119222D01*
X85030Y118363D01*
X83820Y118363D01*
X83802Y118361D01*
X83784Y118363D01*
X83602Y118342D01*
X83419Y118323D01*
X83402Y118318D01*
X83385Y118316D01*
X83210Y118259D01*
X83034Y118205D01*
X83019Y118197D01*
X83002Y118191D01*
X82842Y118101D01*
X82680Y118013D01*
X82667Y118002D01*
X82651Y117993D01*
X82512Y117873D01*
X82371Y117756D01*
X82360Y117742D01*
X82346Y117730D01*
X82234Y117585D01*
X82119Y117442D01*
X82111Y117426D01*
X82100Y117412D01*
X82018Y117247D01*
X81933Y117085D01*
X81928Y117068D01*
X81920Y117052D01*
X81873Y116873D01*
X81822Y116698D01*
X81820Y116680D01*
X81816Y116663D01*
X81789Y116332D01*
X81789Y94160D01*
X81791Y94142D01*
X81789Y94124D01*
X81810Y93942D01*
X81829Y93759D01*
X81834Y93742D01*
X81836Y93725D01*
X81893Y93550D01*
X81947Y93374D01*
X81955Y93359D01*
X81961Y93342D01*
X82051Y93182D01*
X82139Y93020D01*
X82150Y93007D01*
X82159Y92991D01*
X82279Y92852D01*
X82396Y92711D01*
X82410Y92700D01*
X82422Y92686D01*
X82567Y92574D01*
X82710Y92459D01*
X82726Y92451D01*
X82740Y92440D01*
X82905Y92358D01*
X83067Y92273D01*
X83084Y92268D01*
X83100Y92260D01*
X83279Y92213D01*
X83454Y92162D01*
X83472Y92160D01*
X83489Y92156D01*
X83820Y92129D01*
X84121Y92129D01*
X87109Y90891D01*
X89395Y88605D01*
X90633Y85617D01*
X90633Y82383D01*
X89395Y79395D01*
X87109Y77109D01*
X84121Y75871D01*
X67679Y75871D01*
G37*
%LPD*%
%LPC*%
G36*
X125231Y245109D02*
X125231Y245109D01*
X121964Y246463D01*
X119463Y248964D01*
X119369Y249189D01*
X119359Y249209D01*
X119352Y249230D01*
X119264Y249386D01*
X119179Y249544D01*
X119165Y249561D01*
X119154Y249581D01*
X119037Y249716D01*
X118923Y249855D01*
X118905Y249869D01*
X118891Y249886D01*
X118749Y249995D01*
X118610Y250108D01*
X118590Y250119D01*
X118573Y250132D01*
X118412Y250212D01*
X118254Y250295D01*
X118232Y250302D01*
X118212Y250312D01*
X118039Y250358D01*
X117867Y250408D01*
X117845Y250410D01*
X117823Y250416D01*
X117530Y250440D01*
X106443Y261527D01*
X106443Y290685D01*
X106441Y290712D01*
X106443Y290739D01*
X106421Y290913D01*
X106403Y291086D01*
X106396Y291111D01*
X106392Y291138D01*
X106337Y291304D01*
X106285Y291471D01*
X106272Y291494D01*
X106264Y291520D01*
X106177Y291671D01*
X106093Y291825D01*
X106076Y291845D01*
X106063Y291869D01*
X105848Y292122D01*
X97322Y300648D01*
X97301Y300665D01*
X97283Y300686D01*
X97146Y300793D01*
X97010Y300903D01*
X96987Y300916D01*
X96965Y300932D01*
X96808Y301010D01*
X96654Y301092D01*
X96629Y301100D01*
X96605Y301112D01*
X96435Y301157D01*
X96269Y301207D01*
X96242Y301209D01*
X96216Y301216D01*
X95885Y301243D01*
X92544Y301243D01*
X92522Y301241D01*
X92500Y301243D01*
X92322Y301221D01*
X92144Y301203D01*
X92122Y301197D01*
X92100Y301194D01*
X91931Y301138D01*
X91759Y301085D01*
X91739Y301075D01*
X91718Y301068D01*
X91562Y300979D01*
X91405Y300893D01*
X91388Y300879D01*
X91368Y300868D01*
X91232Y300750D01*
X91096Y300636D01*
X91082Y300618D01*
X91065Y300604D01*
X90955Y300462D01*
X90843Y300322D01*
X90833Y300302D01*
X90819Y300284D01*
X90668Y299989D01*
X90634Y299908D01*
X88204Y297478D01*
X85030Y296163D01*
X67370Y296163D01*
X64196Y297478D01*
X61766Y299908D01*
X60451Y303082D01*
X60451Y306518D01*
X61766Y309692D01*
X64196Y312122D01*
X65125Y312507D01*
X65126Y312507D01*
X67370Y313437D01*
X85030Y313437D01*
X88204Y312122D01*
X90634Y309692D01*
X90668Y309611D01*
X90678Y309591D01*
X90685Y309570D01*
X90773Y309414D01*
X90858Y309256D01*
X90872Y309239D01*
X90883Y309219D01*
X91000Y309084D01*
X91114Y308945D01*
X91132Y308931D01*
X91146Y308914D01*
X91288Y308805D01*
X91427Y308692D01*
X91447Y308681D01*
X91464Y308668D01*
X91625Y308588D01*
X91783Y308505D01*
X91805Y308498D01*
X91825Y308488D01*
X91999Y308442D01*
X92170Y308392D01*
X92192Y308390D01*
X92214Y308384D01*
X92544Y308357D01*
X99673Y308357D01*
X113557Y294473D01*
X113557Y265315D01*
X113559Y265288D01*
X113557Y265261D01*
X113579Y265087D01*
X113597Y264914D01*
X113604Y264889D01*
X113608Y264862D01*
X113663Y264696D01*
X113715Y264529D01*
X113728Y264505D01*
X113736Y264480D01*
X113823Y264329D01*
X113907Y264175D01*
X113924Y264155D01*
X113937Y264131D01*
X114152Y263878D01*
X117792Y260238D01*
X117806Y260227D01*
X117817Y260213D01*
X117962Y260099D01*
X118103Y259983D01*
X118119Y259975D01*
X118133Y259963D01*
X118297Y259880D01*
X118459Y259794D01*
X118476Y259789D01*
X118492Y259781D01*
X118669Y259732D01*
X118845Y259680D01*
X118863Y259678D01*
X118880Y259673D01*
X119063Y259660D01*
X119246Y259643D01*
X119264Y259645D01*
X119282Y259644D01*
X119464Y259667D01*
X119646Y259687D01*
X119663Y259692D01*
X119681Y259694D01*
X119855Y259753D01*
X120030Y259808D01*
X120046Y259817D01*
X120063Y259822D01*
X120222Y259914D01*
X120383Y260003D01*
X120396Y260014D01*
X120412Y260023D01*
X120665Y260238D01*
X121964Y261537D01*
X125231Y262891D01*
X128769Y262891D01*
X132036Y261537D01*
X134537Y259036D01*
X135891Y255769D01*
X135891Y252231D01*
X134537Y248964D01*
X132036Y246463D01*
X128769Y245109D01*
X125231Y245109D01*
G37*
%LPD*%
%LPC*%
G36*
X125231Y219709D02*
X125231Y219709D01*
X121964Y221063D01*
X119463Y223564D01*
X119369Y223789D01*
X119359Y223809D01*
X119352Y223830D01*
X119264Y223986D01*
X119179Y224144D01*
X119165Y224161D01*
X119154Y224181D01*
X119037Y224316D01*
X118923Y224455D01*
X118905Y224469D01*
X118891Y224486D01*
X118749Y224595D01*
X118610Y224708D01*
X118590Y224719D01*
X118573Y224732D01*
X118412Y224812D01*
X118254Y224895D01*
X118232Y224902D01*
X118212Y224912D01*
X118039Y224958D01*
X117867Y225008D01*
X117845Y225010D01*
X117823Y225016D01*
X117493Y225043D01*
X108927Y225043D01*
X96822Y237148D01*
X96801Y237165D01*
X96783Y237186D01*
X96646Y237293D01*
X96510Y237403D01*
X96487Y237416D01*
X96465Y237432D01*
X96308Y237510D01*
X96154Y237592D01*
X96129Y237600D01*
X96105Y237612D01*
X95935Y237657D01*
X95769Y237707D01*
X95742Y237709D01*
X95716Y237716D01*
X95385Y237743D01*
X92544Y237743D01*
X92522Y237741D01*
X92500Y237743D01*
X92322Y237721D01*
X92144Y237703D01*
X92122Y237697D01*
X92100Y237694D01*
X91931Y237638D01*
X91759Y237585D01*
X91739Y237575D01*
X91718Y237568D01*
X91562Y237479D01*
X91405Y237393D01*
X91388Y237379D01*
X91368Y237368D01*
X91232Y237250D01*
X91096Y237136D01*
X91082Y237118D01*
X91065Y237104D01*
X90955Y236962D01*
X90843Y236822D01*
X90833Y236802D01*
X90819Y236784D01*
X90668Y236489D01*
X90634Y236408D01*
X88204Y233978D01*
X85030Y232663D01*
X67370Y232663D01*
X64196Y233978D01*
X61766Y236408D01*
X60451Y239582D01*
X60451Y243018D01*
X61766Y246192D01*
X64196Y248622D01*
X67370Y249937D01*
X85030Y249937D01*
X88204Y248622D01*
X90634Y246192D01*
X90668Y246111D01*
X90678Y246091D01*
X90685Y246070D01*
X90773Y245914D01*
X90858Y245756D01*
X90872Y245739D01*
X90883Y245719D01*
X91000Y245584D01*
X91114Y245445D01*
X91132Y245431D01*
X91146Y245414D01*
X91288Y245305D01*
X91427Y245192D01*
X91447Y245181D01*
X91464Y245168D01*
X91625Y245088D01*
X91783Y245005D01*
X91805Y244998D01*
X91825Y244988D01*
X91999Y244942D01*
X92170Y244892D01*
X92192Y244890D01*
X92214Y244884D01*
X92544Y244857D01*
X99173Y244857D01*
X111278Y232752D01*
X111299Y232735D01*
X111317Y232714D01*
X111454Y232607D01*
X111590Y232497D01*
X111613Y232484D01*
X111635Y232468D01*
X111792Y232390D01*
X111946Y232308D01*
X111971Y232300D01*
X111995Y232288D01*
X112165Y232243D01*
X112331Y232193D01*
X112358Y232191D01*
X112384Y232184D01*
X112715Y232157D01*
X117493Y232157D01*
X117515Y232159D01*
X117537Y232157D01*
X117715Y232179D01*
X117893Y232197D01*
X117915Y232203D01*
X117937Y232206D01*
X118107Y232262D01*
X118278Y232315D01*
X118298Y232325D01*
X118319Y232332D01*
X118475Y232421D01*
X118632Y232507D01*
X118649Y232521D01*
X118669Y232532D01*
X118805Y232650D01*
X118942Y232764D01*
X118956Y232782D01*
X118972Y232796D01*
X119082Y232939D01*
X119194Y233078D01*
X119204Y233098D01*
X119218Y233116D01*
X119369Y233411D01*
X119463Y233636D01*
X121964Y236137D01*
X124894Y237351D01*
X125231Y237491D01*
X128769Y237491D01*
X132036Y236137D01*
X134537Y233636D01*
X135891Y230369D01*
X135891Y226831D01*
X134537Y223564D01*
X132036Y221063D01*
X128769Y219709D01*
X125231Y219709D01*
G37*
%LPD*%
%LPC*%
G36*
X67370Y359663D02*
X67370Y359663D01*
X64196Y360978D01*
X61766Y363408D01*
X60451Y366582D01*
X60451Y370018D01*
X61766Y373192D01*
X64196Y375622D01*
X67370Y376937D01*
X85030Y376937D01*
X88204Y375622D01*
X90634Y373192D01*
X90668Y373111D01*
X90678Y373091D01*
X90685Y373070D01*
X90773Y372914D01*
X90858Y372756D01*
X90872Y372739D01*
X90883Y372719D01*
X91000Y372584D01*
X91114Y372445D01*
X91132Y372431D01*
X91146Y372414D01*
X91288Y372305D01*
X91427Y372192D01*
X91447Y372181D01*
X91464Y372168D01*
X91625Y372088D01*
X91783Y372005D01*
X91805Y371998D01*
X91825Y371988D01*
X91999Y371942D01*
X92170Y371892D01*
X92192Y371890D01*
X92214Y371884D01*
X92544Y371857D01*
X111985Y371857D01*
X112012Y371859D01*
X112039Y371857D01*
X112213Y371879D01*
X112386Y371897D01*
X112411Y371904D01*
X112438Y371908D01*
X112604Y371963D01*
X112771Y372015D01*
X112795Y372028D01*
X112820Y372036D01*
X112971Y372123D01*
X113125Y372207D01*
X113145Y372224D01*
X113169Y372237D01*
X113422Y372452D01*
X117762Y376792D01*
X117777Y376810D01*
X117794Y376824D01*
X117904Y376965D01*
X118017Y377104D01*
X118028Y377124D01*
X118042Y377141D01*
X118122Y377301D01*
X118206Y377460D01*
X118212Y377481D01*
X118222Y377501D01*
X118270Y377674D01*
X118321Y377845D01*
X118323Y377868D01*
X118329Y377889D01*
X118341Y378067D01*
X118357Y378246D01*
X118355Y378269D01*
X118356Y378291D01*
X118333Y378468D01*
X118314Y378647D01*
X118307Y378668D01*
X118304Y378690D01*
X118203Y379006D01*
X118109Y379232D01*
X118109Y382769D01*
X119463Y386036D01*
X121964Y388537D01*
X125231Y389891D01*
X128769Y389891D01*
X132036Y388537D01*
X134537Y386036D01*
X135891Y382769D01*
X135891Y379231D01*
X134537Y375964D01*
X132036Y373463D01*
X131229Y373128D01*
X128769Y372109D01*
X125232Y372109D01*
X125006Y372203D01*
X124985Y372209D01*
X124965Y372219D01*
X124792Y372267D01*
X124621Y372319D01*
X124598Y372321D01*
X124577Y372327D01*
X124397Y372340D01*
X124220Y372357D01*
X124198Y372355D01*
X124175Y372357D01*
X123997Y372334D01*
X123819Y372316D01*
X123798Y372309D01*
X123776Y372306D01*
X123606Y372249D01*
X123435Y372196D01*
X123415Y372185D01*
X123394Y372178D01*
X123239Y372089D01*
X123082Y372003D01*
X123065Y371988D01*
X123045Y371977D01*
X122792Y371762D01*
X115773Y364743D01*
X92544Y364743D01*
X92522Y364741D01*
X92500Y364743D01*
X92322Y364721D01*
X92144Y364703D01*
X92122Y364697D01*
X92100Y364694D01*
X91931Y364638D01*
X91759Y364585D01*
X91739Y364575D01*
X91718Y364568D01*
X91562Y364479D01*
X91405Y364393D01*
X91388Y364379D01*
X91368Y364368D01*
X91232Y364250D01*
X91096Y364136D01*
X91082Y364118D01*
X91065Y364104D01*
X90955Y363962D01*
X90843Y363822D01*
X90833Y363802D01*
X90819Y363784D01*
X90668Y363489D01*
X90634Y363408D01*
X88204Y360978D01*
X85030Y359663D01*
X67370Y359663D01*
G37*
%LPD*%
%LPC*%
G36*
X480831Y397509D02*
X480831Y397509D01*
X477564Y398863D01*
X475063Y401364D01*
X473709Y404631D01*
X473709Y408169D01*
X475063Y411436D01*
X477564Y413937D01*
X477883Y414069D01*
X477883Y414070D01*
X480831Y415291D01*
X484369Y415291D01*
X487636Y413937D01*
X490137Y411436D01*
X491491Y408169D01*
X491491Y404631D01*
X490137Y401364D01*
X487636Y398863D01*
X484369Y397509D01*
X480831Y397509D01*
G37*
%LPD*%
%LPC*%
G36*
X277631Y346709D02*
X277631Y346709D01*
X274364Y348063D01*
X271863Y350564D01*
X270509Y353831D01*
X270509Y357369D01*
X271863Y360636D01*
X274364Y363137D01*
X277631Y364491D01*
X281169Y364491D01*
X284436Y363137D01*
X286937Y360636D01*
X288291Y357369D01*
X288291Y353831D01*
X286937Y350564D01*
X284436Y348063D01*
X281169Y346709D01*
X277631Y346709D01*
G37*
%LPD*%
%LPC*%
G36*
X379231Y448309D02*
X379231Y448309D01*
X375964Y449663D01*
X373463Y452164D01*
X372109Y455431D01*
X372109Y458969D01*
X373463Y462236D01*
X375964Y464737D01*
X379231Y466091D01*
X382769Y466091D01*
X386036Y464737D01*
X388537Y462236D01*
X389891Y458969D01*
X389891Y455431D01*
X388537Y452164D01*
X386036Y449663D01*
X382769Y448309D01*
X379231Y448309D01*
G37*
%LPD*%
%LPC*%
G36*
X455431Y448309D02*
X455431Y448309D01*
X452164Y449663D01*
X449663Y452164D01*
X448309Y455431D01*
X448309Y458969D01*
X449663Y462236D01*
X452164Y464737D01*
X455431Y466091D01*
X458969Y466091D01*
X462236Y464737D01*
X464737Y462236D01*
X466091Y458969D01*
X466091Y455431D01*
X464737Y452164D01*
X462236Y449663D01*
X458969Y448309D01*
X455431Y448309D01*
G37*
%LPD*%
%LPC*%
G36*
X328431Y448309D02*
X328431Y448309D01*
X325164Y449663D01*
X322663Y452164D01*
X321309Y455431D01*
X321309Y458969D01*
X322663Y462236D01*
X325164Y464737D01*
X328431Y466091D01*
X331969Y466091D01*
X335236Y464737D01*
X337737Y462236D01*
X339091Y458969D01*
X339091Y455431D01*
X337737Y452164D01*
X335236Y449663D01*
X331969Y448309D01*
X328431Y448309D01*
G37*
%LPD*%
%LPC*%
G36*
X125231Y448309D02*
X125231Y448309D01*
X121964Y449663D01*
X119463Y452164D01*
X118109Y455431D01*
X118109Y458969D01*
X119463Y462236D01*
X121964Y464737D01*
X125231Y466091D01*
X128769Y466091D01*
X132036Y464737D01*
X134537Y462236D01*
X135891Y458969D01*
X135891Y455431D01*
X134537Y452164D01*
X132036Y449663D01*
X128769Y448309D01*
X125231Y448309D01*
G37*
%LPD*%
%LPC*%
G36*
X150631Y448309D02*
X150631Y448309D01*
X147364Y449663D01*
X144863Y452164D01*
X143509Y455431D01*
X143509Y458969D01*
X144863Y462236D01*
X147364Y464737D01*
X150631Y466091D01*
X154169Y466091D01*
X157436Y464737D01*
X159937Y462236D01*
X161291Y458969D01*
X161291Y455431D01*
X159937Y452164D01*
X157436Y449663D01*
X154169Y448309D01*
X150631Y448309D01*
G37*
%LPD*%
%LPC*%
G36*
X125231Y346709D02*
X125231Y346709D01*
X121964Y348063D01*
X119463Y350564D01*
X118109Y353831D01*
X118109Y357369D01*
X119463Y360636D01*
X121964Y363137D01*
X125231Y364491D01*
X128769Y364491D01*
X132036Y363137D01*
X134537Y360636D01*
X135891Y357369D01*
X135891Y353831D01*
X134537Y350564D01*
X132036Y348063D01*
X128769Y346709D01*
X125231Y346709D01*
G37*
%LPD*%
%LPC*%
G36*
X125231Y321309D02*
X125231Y321309D01*
X121964Y322663D01*
X119463Y325164D01*
X118109Y328431D01*
X118109Y331969D01*
X119463Y335236D01*
X121964Y337737D01*
X125231Y339091D01*
X128769Y339091D01*
X132036Y337737D01*
X134537Y335236D01*
X135891Y331969D01*
X135891Y328431D01*
X134537Y325164D01*
X132036Y322663D01*
X128769Y321309D01*
X125231Y321309D01*
G37*
%LPD*%
%LPC*%
G36*
X353831Y448309D02*
X353831Y448309D01*
X350564Y449663D01*
X348063Y452164D01*
X346709Y455431D01*
X346709Y458969D01*
X348063Y462236D01*
X350564Y464737D01*
X353831Y466091D01*
X357369Y466091D01*
X360636Y464737D01*
X363137Y462236D01*
X364491Y458969D01*
X364491Y455431D01*
X363137Y452164D01*
X360636Y449663D01*
X357369Y448309D01*
X353831Y448309D01*
G37*
%LPD*%
%LPC*%
G36*
X480831Y245109D02*
X480831Y245109D01*
X477564Y246463D01*
X475063Y248964D01*
X473709Y252231D01*
X473709Y255769D01*
X475063Y259036D01*
X477564Y261537D01*
X480831Y262891D01*
X484369Y262891D01*
X487636Y261537D01*
X490137Y259036D01*
X491491Y255769D01*
X491491Y252231D01*
X490137Y248964D01*
X487636Y246463D01*
X484369Y245109D01*
X480831Y245109D01*
G37*
%LPD*%
%LPC*%
G36*
X277631Y245109D02*
X277631Y245109D01*
X274364Y246463D01*
X271863Y248964D01*
X270509Y252231D01*
X270509Y255769D01*
X271863Y259036D01*
X274364Y261537D01*
X277631Y262891D01*
X281169Y262891D01*
X284436Y261537D01*
X286937Y259036D01*
X288291Y255769D01*
X288291Y252231D01*
X286937Y248964D01*
X284436Y246463D01*
X281169Y245109D01*
X277631Y245109D01*
G37*
%LPD*%
%LPC*%
G36*
X480831Y168909D02*
X480831Y168909D01*
X477564Y170263D01*
X475063Y172764D01*
X473709Y176031D01*
X473709Y179569D01*
X475063Y182836D01*
X477564Y185337D01*
X480831Y186691D01*
X484369Y186691D01*
X487636Y185337D01*
X490137Y182836D01*
X491491Y179569D01*
X491491Y176031D01*
X490137Y172764D01*
X487636Y170263D01*
X484369Y168909D01*
X480831Y168909D01*
G37*
%LPD*%
%LPC*%
G36*
X480831Y143509D02*
X480831Y143509D01*
X477564Y144863D01*
X475063Y147364D01*
X473709Y150631D01*
X473709Y154169D01*
X475063Y157436D01*
X477564Y159937D01*
X480831Y161291D01*
X484369Y161291D01*
X487636Y159937D01*
X490137Y157436D01*
X491491Y154169D01*
X491491Y150631D01*
X490137Y147364D01*
X487636Y144863D01*
X484369Y143509D01*
X480831Y143509D01*
G37*
%LPD*%
%LPC*%
G36*
X480831Y346709D02*
X480831Y346709D01*
X477564Y348063D01*
X475063Y350564D01*
X473709Y353831D01*
X473709Y357369D01*
X475063Y360636D01*
X477564Y363137D01*
X480831Y364491D01*
X484369Y364491D01*
X487636Y363137D01*
X490137Y360636D01*
X491491Y357369D01*
X491491Y353831D01*
X490137Y350564D01*
X487636Y348063D01*
X484369Y346709D01*
X480831Y346709D01*
G37*
%LPD*%
%LPC*%
G36*
X328431Y346709D02*
X328431Y346709D01*
X325164Y348063D01*
X322663Y350564D01*
X321309Y353831D01*
X321309Y357369D01*
X322663Y360636D01*
X325164Y363137D01*
X328431Y364491D01*
X331969Y364491D01*
X335236Y363137D01*
X337737Y360636D01*
X339091Y357369D01*
X339091Y353831D01*
X337737Y350564D01*
X335236Y348063D01*
X331969Y346709D01*
X328431Y346709D01*
G37*
%LPD*%
%LPC*%
G36*
X252231Y448309D02*
X252231Y448309D01*
X248964Y449663D01*
X246463Y452164D01*
X245109Y455431D01*
X245109Y458969D01*
X246463Y462236D01*
X248964Y464737D01*
X252231Y466091D01*
X255769Y466091D01*
X259036Y464737D01*
X261537Y462236D01*
X262891Y458969D01*
X262891Y455431D01*
X261537Y452164D01*
X259036Y449663D01*
X255769Y448309D01*
X252231Y448309D01*
G37*
%LPD*%
%LPC*%
G36*
X176031Y448309D02*
X176031Y448309D01*
X172764Y449663D01*
X170263Y452164D01*
X168909Y455431D01*
X168909Y458969D01*
X170263Y462236D01*
X172764Y464737D01*
X176031Y466091D01*
X179569Y466091D01*
X182836Y464737D01*
X185337Y462236D01*
X186691Y458969D01*
X186691Y455431D01*
X185337Y452164D01*
X182836Y449663D01*
X179569Y448309D01*
X176031Y448309D01*
G37*
%LPD*%
%LPC*%
G36*
X480831Y372109D02*
X480831Y372109D01*
X477564Y373463D01*
X475063Y375964D01*
X473709Y379231D01*
X473709Y382769D01*
X475063Y386036D01*
X477564Y388537D01*
X480831Y389891D01*
X484369Y389891D01*
X487636Y388537D01*
X490137Y386036D01*
X491491Y382769D01*
X491491Y379231D01*
X490137Y375964D01*
X487636Y373463D01*
X486829Y373128D01*
X484369Y372109D01*
X480831Y372109D01*
G37*
%LPD*%
%LPC*%
G36*
X277631Y372109D02*
X277631Y372109D01*
X274364Y373463D01*
X271863Y375964D01*
X270509Y379231D01*
X270509Y382769D01*
X271863Y386036D01*
X274364Y388537D01*
X277631Y389891D01*
X281169Y389891D01*
X284436Y388537D01*
X286937Y386036D01*
X288291Y382769D01*
X288291Y379231D01*
X286937Y375964D01*
X284436Y373463D01*
X283629Y373128D01*
X281169Y372109D01*
X277631Y372109D01*
G37*
%LPD*%
%LPC*%
G36*
X277631Y219709D02*
X277631Y219709D01*
X274364Y221063D01*
X271863Y223564D01*
X270509Y226831D01*
X270509Y230369D01*
X271863Y233636D01*
X274364Y236137D01*
X277294Y237351D01*
X277631Y237491D01*
X281169Y237491D01*
X284436Y236137D01*
X286937Y233636D01*
X288291Y230369D01*
X288291Y226831D01*
X286937Y223564D01*
X284436Y221063D01*
X281169Y219709D01*
X277631Y219709D01*
G37*
%LPD*%
%LPC*%
G36*
X328431Y219709D02*
X328431Y219709D01*
X325164Y221063D01*
X322663Y223564D01*
X321309Y226831D01*
X321309Y230369D01*
X322663Y233636D01*
X325164Y236137D01*
X328094Y237351D01*
X328431Y237491D01*
X331969Y237491D01*
X335236Y236137D01*
X337737Y233636D01*
X339091Y230369D01*
X339091Y226831D01*
X337737Y223564D01*
X335236Y221063D01*
X331969Y219709D01*
X328431Y219709D01*
G37*
%LPD*%
%LPC*%
G36*
X480831Y219709D02*
X480831Y219709D01*
X477564Y221063D01*
X475063Y223564D01*
X473709Y226831D01*
X473709Y230369D01*
X475063Y233636D01*
X477564Y236137D01*
X480494Y237351D01*
X480831Y237491D01*
X484369Y237491D01*
X487636Y236137D01*
X490137Y233636D01*
X491491Y230369D01*
X491491Y226831D01*
X490137Y223564D01*
X487636Y221063D01*
X484369Y219709D01*
X480831Y219709D01*
G37*
%LPD*%
%LPC*%
G36*
X125231Y270509D02*
X125231Y270509D01*
X121964Y271863D01*
X119463Y274364D01*
X118109Y277631D01*
X118109Y281169D01*
X119463Y284436D01*
X121964Y286937D01*
X125231Y288291D01*
X128769Y288291D01*
X132036Y286937D01*
X134537Y284436D01*
X135891Y281169D01*
X135891Y277631D01*
X134537Y274364D01*
X132036Y271863D01*
X131320Y271566D01*
X131319Y271566D01*
X128769Y270509D01*
X125231Y270509D01*
G37*
%LPD*%
%LPC*%
G36*
X328431Y194309D02*
X328431Y194309D01*
X325164Y195663D01*
X322663Y198164D01*
X321309Y201431D01*
X321309Y204969D01*
X322663Y208236D01*
X325164Y210737D01*
X325664Y210944D01*
X325664Y210945D01*
X328431Y212091D01*
X331969Y212091D01*
X335236Y210737D01*
X337737Y208236D01*
X339091Y204969D01*
X339091Y201431D01*
X337737Y198164D01*
X335236Y195663D01*
X332136Y194378D01*
X332135Y194378D01*
X331969Y194309D01*
X328431Y194309D01*
G37*
%LPD*%
%LPC*%
G36*
X125231Y194309D02*
X125231Y194309D01*
X121964Y195663D01*
X119463Y198164D01*
X118109Y201431D01*
X118109Y204969D01*
X119463Y208236D01*
X121964Y210737D01*
X122464Y210944D01*
X122464Y210945D01*
X125231Y212091D01*
X128769Y212091D01*
X132036Y210737D01*
X134537Y208236D01*
X135891Y204969D01*
X135891Y201431D01*
X134537Y198164D01*
X132036Y195663D01*
X128936Y194378D01*
X128935Y194378D01*
X128769Y194309D01*
X125231Y194309D01*
G37*
%LPD*%
%LPC*%
G36*
X480831Y194309D02*
X480831Y194309D01*
X477564Y195663D01*
X475063Y198164D01*
X473709Y201431D01*
X473709Y204969D01*
X475063Y208236D01*
X477564Y210737D01*
X478064Y210944D01*
X478064Y210945D01*
X480831Y212091D01*
X484369Y212091D01*
X487636Y210737D01*
X490137Y208236D01*
X491491Y204969D01*
X491491Y201431D01*
X490137Y198164D01*
X487636Y195663D01*
X484536Y194378D01*
X484535Y194378D01*
X484369Y194309D01*
X480831Y194309D01*
G37*
%LPD*%
%LPC*%
G36*
X125231Y295909D02*
X125231Y295909D01*
X121964Y297263D01*
X119463Y299764D01*
X118109Y303031D01*
X118109Y306569D01*
X119463Y309836D01*
X121964Y312337D01*
X122374Y312507D01*
X125231Y313691D01*
X128769Y313691D01*
X132036Y312337D01*
X134537Y309836D01*
X135891Y306569D01*
X135891Y303031D01*
X134537Y299764D01*
X132036Y297263D01*
X128845Y295941D01*
X128769Y295909D01*
X125231Y295909D01*
G37*
%LPD*%
%LPC*%
G36*
X392295Y513635D02*
X392295Y513635D01*
X389698Y514711D01*
X387711Y516698D01*
X386635Y519295D01*
X386635Y522105D01*
X387711Y524702D01*
X389698Y526689D01*
X392295Y527765D01*
X395105Y527765D01*
X397702Y526689D01*
X399689Y524702D01*
X400765Y522105D01*
X400765Y519295D01*
X399689Y516698D01*
X397702Y514711D01*
X395105Y513635D01*
X392295Y513635D01*
G37*
%LPD*%
%LPC*%
G36*
X192785Y522985D02*
X192785Y522985D01*
X192785Y537219D01*
X194205Y536758D01*
X195559Y536068D01*
X196788Y535175D01*
X197863Y534100D01*
X198756Y532871D01*
X199446Y531517D01*
X199915Y530072D01*
X200153Y528572D01*
X200153Y522985D01*
X192785Y522985D01*
G37*
%LPD*%
%LPC*%
G36*
X78485Y268985D02*
X78485Y268985D01*
X78485Y276353D01*
X84072Y276353D01*
X85572Y276115D01*
X87017Y275646D01*
X88371Y274956D01*
X89600Y274063D01*
X90675Y272988D01*
X91568Y271759D01*
X92258Y270405D01*
X92719Y268985D01*
X78485Y268985D01*
G37*
%LPD*%
%LPC*%
G36*
X78485Y459485D02*
X78485Y459485D01*
X78485Y466853D01*
X84072Y466853D01*
X85572Y466615D01*
X87017Y466146D01*
X88371Y465456D01*
X89600Y464563D01*
X90675Y463488D01*
X91568Y462259D01*
X92258Y460905D01*
X92719Y459485D01*
X78485Y459485D01*
G37*
%LPD*%
%LPC*%
G36*
X78485Y395985D02*
X78485Y395985D01*
X78485Y403353D01*
X84072Y403353D01*
X85572Y403115D01*
X87017Y402646D01*
X88371Y401956D01*
X89600Y401063D01*
X90675Y399988D01*
X91568Y398759D01*
X92258Y397405D01*
X92719Y395985D01*
X78485Y395985D01*
G37*
%LPD*%
%LPC*%
G36*
X78485Y154685D02*
X78485Y154685D01*
X78485Y162053D01*
X84072Y162053D01*
X85572Y161815D01*
X87017Y161346D01*
X88371Y160656D01*
X89600Y159763D01*
X90675Y158688D01*
X91568Y157459D01*
X92258Y156105D01*
X92719Y154685D01*
X78485Y154685D01*
G37*
%LPD*%
%LPC*%
G36*
X78485Y332485D02*
X78485Y332485D01*
X78485Y339853D01*
X84072Y339853D01*
X85572Y339615D01*
X87017Y339146D01*
X88371Y338456D01*
X89600Y337563D01*
X90675Y336488D01*
X91568Y335259D01*
X92258Y333905D01*
X92719Y332485D01*
X78485Y332485D01*
G37*
%LPD*%
%LPC*%
G36*
X192785Y518415D02*
X192785Y518415D01*
X200153Y518415D01*
X200153Y512828D01*
X199915Y511328D01*
X199446Y509883D01*
X198756Y508529D01*
X197863Y507300D01*
X196788Y506225D01*
X195559Y505332D01*
X194205Y504642D01*
X192785Y504181D01*
X192785Y518415D01*
G37*
%LPD*%
%LPC*%
G36*
X59681Y268985D02*
X59681Y268985D01*
X60142Y270405D01*
X60832Y271759D01*
X61725Y272988D01*
X62800Y274063D01*
X64029Y274956D01*
X65383Y275646D01*
X66828Y276115D01*
X68328Y276353D01*
X73915Y276353D01*
X73915Y268985D01*
X59681Y268985D01*
G37*
%LPD*%
%LPC*%
G36*
X59681Y459485D02*
X59681Y459485D01*
X60142Y460905D01*
X60832Y462259D01*
X61725Y463488D01*
X62800Y464563D01*
X64029Y465456D01*
X65383Y466146D01*
X66828Y466615D01*
X68328Y466853D01*
X73915Y466853D01*
X73915Y459485D01*
X59681Y459485D01*
G37*
%LPD*%
%LPC*%
G36*
X59681Y395985D02*
X59681Y395985D01*
X60142Y397405D01*
X60832Y398759D01*
X61725Y399988D01*
X62800Y401063D01*
X64029Y401956D01*
X65383Y402646D01*
X66828Y403115D01*
X68328Y403353D01*
X73915Y403353D01*
X73915Y395985D01*
X59681Y395985D01*
G37*
%LPD*%
%LPC*%
G36*
X59681Y154685D02*
X59681Y154685D01*
X60142Y156105D01*
X60832Y157459D01*
X61725Y158688D01*
X62800Y159763D01*
X64029Y160656D01*
X65383Y161346D01*
X66828Y161815D01*
X68328Y162053D01*
X73915Y162053D01*
X73915Y154685D01*
X59681Y154685D01*
G37*
%LPD*%
%LPC*%
G36*
X59681Y332485D02*
X59681Y332485D01*
X60142Y333905D01*
X60832Y335259D01*
X61725Y336488D01*
X62800Y337563D01*
X64029Y338456D01*
X65383Y339146D01*
X66828Y339615D01*
X68328Y339853D01*
X73915Y339853D01*
X73915Y332485D01*
X59681Y332485D01*
G37*
%LPD*%
%LPC*%
G36*
X180847Y522985D02*
X180847Y522985D01*
X180847Y528572D01*
X181085Y530072D01*
X181554Y531517D01*
X182244Y532871D01*
X183137Y534100D01*
X184212Y535175D01*
X185441Y536068D01*
X186795Y536758D01*
X188215Y537219D01*
X188215Y522985D01*
X180847Y522985D01*
G37*
%LPD*%
%LPC*%
G36*
X78485Y384047D02*
X78485Y384047D01*
X78485Y391415D01*
X92719Y391415D01*
X92258Y389995D01*
X91568Y388641D01*
X90675Y387412D01*
X89600Y386337D01*
X88371Y385444D01*
X87017Y384754D01*
X85572Y384285D01*
X84072Y384047D01*
X78485Y384047D01*
G37*
%LPD*%
%LPC*%
G36*
X78485Y320547D02*
X78485Y320547D01*
X78485Y327915D01*
X92719Y327915D01*
X92258Y326495D01*
X91568Y325141D01*
X90675Y323912D01*
X89600Y322837D01*
X88371Y321944D01*
X87017Y321254D01*
X85572Y320785D01*
X84072Y320547D01*
X78485Y320547D01*
G37*
%LPD*%
%LPC*%
G36*
X78485Y142747D02*
X78485Y142747D01*
X78485Y150115D01*
X92719Y150115D01*
X92258Y148695D01*
X91568Y147341D01*
X90675Y146112D01*
X89600Y145037D01*
X88371Y144144D01*
X87017Y143454D01*
X85572Y142985D01*
X84072Y142747D01*
X78485Y142747D01*
G37*
%LPD*%
%LPC*%
G36*
X78485Y447547D02*
X78485Y447547D01*
X78485Y454915D01*
X92719Y454915D01*
X92258Y453495D01*
X91568Y452141D01*
X90675Y450912D01*
X89600Y449837D01*
X88371Y448944D01*
X87017Y448254D01*
X85572Y447785D01*
X84072Y447547D01*
X78485Y447547D01*
G37*
%LPD*%
%LPC*%
G36*
X78485Y257047D02*
X78485Y257047D01*
X78485Y264415D01*
X92719Y264415D01*
X92258Y262995D01*
X91568Y261641D01*
X90675Y260412D01*
X89600Y259337D01*
X88371Y258444D01*
X87017Y257754D01*
X85572Y257285D01*
X84072Y257047D01*
X78485Y257047D01*
G37*
%LPD*%
%LPC*%
G36*
X68328Y447547D02*
X68328Y447547D01*
X66828Y447785D01*
X65383Y448254D01*
X64029Y448944D01*
X62800Y449837D01*
X61725Y450912D01*
X60832Y452141D01*
X60142Y453495D01*
X59681Y454915D01*
X73915Y454915D01*
X73915Y447547D01*
X68328Y447547D01*
G37*
%LPD*%
%LPC*%
G36*
X68328Y384047D02*
X68328Y384047D01*
X66828Y384285D01*
X65383Y384754D01*
X64029Y385444D01*
X62800Y386337D01*
X61725Y387412D01*
X60832Y388641D01*
X60142Y389995D01*
X59681Y391415D01*
X73915Y391415D01*
X73915Y384047D01*
X68328Y384047D01*
G37*
%LPD*%
%LPC*%
G36*
X186795Y504642D02*
X186795Y504642D01*
X185441Y505332D01*
X184212Y506225D01*
X183137Y507300D01*
X182244Y508529D01*
X181554Y509883D01*
X181085Y511328D01*
X180847Y512828D01*
X180847Y518415D01*
X188215Y518415D01*
X188215Y504181D01*
X186795Y504642D01*
G37*
%LPD*%
%LPC*%
G36*
X68328Y257047D02*
X68328Y257047D01*
X66828Y257285D01*
X65383Y257754D01*
X64029Y258444D01*
X62800Y259337D01*
X61725Y260412D01*
X60832Y261641D01*
X60142Y262995D01*
X59681Y264415D01*
X73915Y264415D01*
X73915Y257047D01*
X68328Y257047D01*
G37*
%LPD*%
%LPC*%
G36*
X68328Y142747D02*
X68328Y142747D01*
X66828Y142985D01*
X65383Y143454D01*
X64029Y144144D01*
X62800Y145037D01*
X61725Y146112D01*
X60832Y147341D01*
X60142Y148695D01*
X59681Y150115D01*
X73915Y150115D01*
X73915Y142747D01*
X68328Y142747D01*
G37*
%LPD*%
%LPC*%
G36*
X68328Y320547D02*
X68328Y320547D01*
X66828Y320785D01*
X65383Y321254D01*
X64029Y321944D01*
X62800Y322837D01*
X61725Y323912D01*
X60832Y325141D01*
X60142Y326495D01*
X59681Y327915D01*
X73915Y327915D01*
X73915Y320547D01*
X68328Y320547D01*
G37*
%LPD*%
%LPC*%
G36*
X485012Y129412D02*
X485012Y129412D01*
X485012Y136633D01*
X486403Y136181D01*
X487792Y135473D01*
X489054Y134556D01*
X490156Y133454D01*
X491073Y132192D01*
X491781Y130803D01*
X492233Y129412D01*
X485012Y129412D01*
G37*
%LPD*%
%LPC*%
G36*
X281812Y129412D02*
X281812Y129412D01*
X281812Y136633D01*
X283203Y136181D01*
X284592Y135473D01*
X285854Y134556D01*
X286956Y133454D01*
X287873Y132192D01*
X288581Y130803D01*
X289033Y129412D01*
X281812Y129412D01*
G37*
%LPD*%
%LPC*%
G36*
X205612Y459612D02*
X205612Y459612D01*
X205612Y466833D01*
X207003Y466381D01*
X208392Y465673D01*
X209654Y464756D01*
X210756Y463654D01*
X211673Y462392D01*
X212381Y461003D01*
X212833Y459612D01*
X205612Y459612D01*
G37*
%LPD*%
%LPC*%
G36*
X408812Y459612D02*
X408812Y459612D01*
X408812Y466833D01*
X410203Y466381D01*
X411592Y465673D01*
X412854Y464756D01*
X413956Y463654D01*
X414873Y462392D01*
X415581Y461003D01*
X416033Y459612D01*
X408812Y459612D01*
G37*
%LPD*%
%LPC*%
G36*
X408812Y454788D02*
X408812Y454788D01*
X416033Y454788D01*
X415581Y453397D01*
X414873Y452008D01*
X413956Y450746D01*
X412854Y449644D01*
X411592Y448727D01*
X410203Y448019D01*
X408812Y447567D01*
X408812Y454788D01*
G37*
%LPD*%
%LPC*%
G36*
X205612Y454788D02*
X205612Y454788D01*
X212833Y454788D01*
X212381Y453397D01*
X211673Y452008D01*
X210756Y450746D01*
X209654Y449644D01*
X208392Y448727D01*
X207003Y448019D01*
X205612Y447567D01*
X205612Y454788D01*
G37*
%LPD*%
%LPC*%
G36*
X396767Y459612D02*
X396767Y459612D01*
X397219Y461003D01*
X397927Y462392D01*
X398844Y463654D01*
X399946Y464756D01*
X401208Y465673D01*
X402597Y466381D01*
X403988Y466833D01*
X403988Y459612D01*
X396767Y459612D01*
G37*
%LPD*%
%LPC*%
G36*
X193567Y459612D02*
X193567Y459612D01*
X194019Y461003D01*
X194727Y462392D01*
X195644Y463654D01*
X196746Y464756D01*
X198008Y465673D01*
X199397Y466381D01*
X200788Y466833D01*
X200788Y459612D01*
X193567Y459612D01*
G37*
%LPD*%
%LPC*%
G36*
X472967Y129412D02*
X472967Y129412D01*
X473419Y130803D01*
X474127Y132192D01*
X475044Y133454D01*
X476146Y134556D01*
X477408Y135473D01*
X478797Y136181D01*
X480188Y136633D01*
X480188Y129412D01*
X472967Y129412D01*
G37*
%LPD*%
%LPC*%
G36*
X269767Y129412D02*
X269767Y129412D01*
X270219Y130803D01*
X270927Y132192D01*
X271844Y133454D01*
X272946Y134556D01*
X274208Y135473D01*
X275597Y136181D01*
X276988Y136633D01*
X276988Y129412D01*
X269767Y129412D01*
G37*
%LPD*%
%LPC*%
G36*
X485012Y124588D02*
X485012Y124588D01*
X492233Y124588D01*
X491781Y123197D01*
X491073Y121808D01*
X490156Y120546D01*
X489054Y119444D01*
X487792Y118527D01*
X486403Y117819D01*
X485012Y117367D01*
X485012Y124588D01*
G37*
%LPD*%
%LPC*%
G36*
X281812Y124588D02*
X281812Y124588D01*
X289033Y124588D01*
X288581Y123197D01*
X287873Y121808D01*
X286956Y120546D01*
X285854Y119444D01*
X284592Y118527D01*
X283203Y117819D01*
X281812Y117367D01*
X281812Y124588D01*
G37*
%LPD*%
%LPC*%
G36*
X199397Y448019D02*
X199397Y448019D01*
X198008Y448727D01*
X196746Y449644D01*
X195644Y450746D01*
X194727Y452008D01*
X194019Y453397D01*
X193567Y454788D01*
X200788Y454788D01*
X200788Y447567D01*
X199397Y448019D01*
G37*
%LPD*%
%LPC*%
G36*
X402597Y448019D02*
X402597Y448019D01*
X401208Y448727D01*
X399946Y449644D01*
X398844Y450746D01*
X397927Y452008D01*
X397219Y453397D01*
X396767Y454788D01*
X403988Y454788D01*
X403988Y447567D01*
X402597Y448019D01*
G37*
%LPD*%
%LPC*%
G36*
X275597Y117819D02*
X275597Y117819D01*
X274208Y118527D01*
X272946Y119444D01*
X271844Y120546D01*
X270927Y121808D01*
X270219Y123197D01*
X269767Y124588D01*
X276988Y124588D01*
X276988Y117367D01*
X275597Y117819D01*
G37*
%LPD*%
%LPC*%
G36*
X478797Y117819D02*
X478797Y117819D01*
X477408Y118527D01*
X476146Y119444D01*
X475044Y120546D01*
X474127Y121808D01*
X473419Y123197D01*
X472967Y124588D01*
X480188Y124588D01*
X480188Y117367D01*
X478797Y117819D01*
G37*
%LPD*%
%LPC*%
G36*
X370331Y522731D02*
X370331Y522731D01*
X370331Y528535D01*
X370657Y528470D01*
X372128Y527861D01*
X373451Y526977D01*
X374577Y525851D01*
X375461Y524528D01*
X376070Y523057D01*
X376135Y522731D01*
X370331Y522731D01*
G37*
%LPD*%
%LPC*%
G36*
X446531Y65531D02*
X446531Y65531D01*
X446531Y71335D01*
X446857Y71270D01*
X448328Y70661D01*
X449651Y69777D01*
X450777Y68651D01*
X451661Y67328D01*
X452270Y65857D01*
X452335Y65531D01*
X446531Y65531D01*
G37*
%LPD*%
%LPC*%
G36*
X360465Y522731D02*
X360465Y522731D01*
X360530Y523057D01*
X361139Y524528D01*
X362023Y525851D01*
X363149Y526977D01*
X364472Y527861D01*
X365943Y528470D01*
X366269Y528535D01*
X366269Y522731D01*
X360465Y522731D01*
G37*
%LPD*%
%LPC*%
G36*
X370331Y518669D02*
X370331Y518669D01*
X376135Y518669D01*
X376070Y518343D01*
X375461Y516872D01*
X374577Y515549D01*
X373451Y514423D01*
X372128Y513539D01*
X370657Y512930D01*
X370331Y512865D01*
X370331Y518669D01*
G37*
%LPD*%
%LPC*%
G36*
X436665Y65531D02*
X436665Y65531D01*
X436730Y65857D01*
X437339Y67328D01*
X438223Y68651D01*
X439349Y69777D01*
X440672Y70661D01*
X442143Y71270D01*
X442469Y71335D01*
X442469Y65531D01*
X436665Y65531D01*
G37*
%LPD*%
%LPC*%
G36*
X446531Y61469D02*
X446531Y61469D01*
X452335Y61469D01*
X452270Y61143D01*
X451661Y59672D01*
X450777Y58349D01*
X449651Y57223D01*
X448328Y56339D01*
X446857Y55730D01*
X446531Y55665D01*
X446531Y61469D01*
G37*
%LPD*%
%LPC*%
G36*
X365943Y512930D02*
X365943Y512930D01*
X364472Y513539D01*
X363149Y514423D01*
X362023Y515549D01*
X361139Y516872D01*
X360530Y518343D01*
X360465Y518669D01*
X366269Y518669D01*
X366269Y512865D01*
X365943Y512930D01*
G37*
%LPD*%
%LPC*%
G36*
X442143Y55730D02*
X442143Y55730D01*
X440672Y56339D01*
X439349Y57223D01*
X438223Y58349D01*
X437339Y59672D01*
X436730Y61143D01*
X436665Y61469D01*
X442469Y61469D01*
X442469Y55665D01*
X442143Y55730D01*
G37*
%LPD*%
D10*
X69088Y127000D02*
X83312Y127000D01*
X83312Y152400D02*
X69088Y152400D01*
X69088Y431800D02*
X83312Y431800D01*
X83312Y457200D02*
X69088Y457200D01*
X69088Y368300D02*
X83312Y368300D01*
X83312Y393700D02*
X69088Y393700D01*
X69088Y304800D02*
X83312Y304800D01*
X83312Y330200D02*
X69088Y330200D01*
X69088Y241300D02*
X83312Y241300D01*
X83312Y266700D02*
X69088Y266700D01*
X241300Y83312D02*
X241300Y69088D01*
X215900Y69088D02*
X215900Y83312D01*
X190500Y513588D02*
X190500Y527812D01*
X215900Y527812D02*
X215900Y513588D01*
X241300Y513588D02*
X241300Y527812D01*
D11*
X279400Y127000D03*
X279400Y152400D03*
X279400Y177800D03*
X279400Y203200D03*
X279400Y228600D03*
X279400Y254000D03*
X279400Y279400D03*
X279400Y304800D03*
X279400Y330200D03*
X279400Y355600D03*
X279400Y381000D03*
X279400Y406400D03*
X279400Y431800D03*
X279400Y457200D03*
X254000Y457200D03*
X228600Y457200D03*
X203200Y457200D03*
X177800Y457200D03*
X152400Y457200D03*
X127000Y457200D03*
X127000Y431800D03*
X127000Y406400D03*
X127000Y381000D03*
X127000Y355600D03*
X127000Y330200D03*
X127000Y304800D03*
X127000Y279400D03*
X127000Y254000D03*
X127000Y228600D03*
X127000Y203200D03*
X127000Y177800D03*
X127000Y152400D03*
X127000Y127000D03*
X482600Y127000D03*
X482600Y152400D03*
X482600Y177800D03*
X482600Y203200D03*
X482600Y228600D03*
X482600Y254000D03*
X482600Y279400D03*
X482600Y304800D03*
X482600Y330200D03*
X482600Y355600D03*
X482600Y381000D03*
X482600Y406400D03*
X482600Y431800D03*
X482600Y457200D03*
X457200Y457200D03*
X431800Y457200D03*
X406400Y457200D03*
X381000Y457200D03*
X355600Y457200D03*
X330200Y457200D03*
X330200Y431800D03*
X330200Y406400D03*
X330200Y381000D03*
X330200Y355600D03*
X330200Y330200D03*
X330200Y304800D03*
X330200Y279400D03*
X330200Y254000D03*
X330200Y228600D03*
X330200Y203200D03*
X330200Y177800D03*
X330200Y152400D03*
X330200Y127000D03*
D12*
X444500Y63500D03*
X419100Y63500D03*
X393700Y63500D03*
X368300Y63500D03*
X419100Y520700D03*
X393700Y520700D03*
X368300Y520700D03*
X444500Y520700D03*
D13*
X158704Y84000D02*
X145496Y84000D01*
X82504Y84000D02*
X69296Y84000D01*
D14*
X137000Y127000D02*
X162100Y101900D01*
X137000Y127000D02*
X127000Y127000D01*
X152100Y91900D02*
X152100Y84000D01*
X152100Y91900D02*
X162100Y101900D01*
X305100Y101900D01*
X330200Y127000D01*
D15*
X100200Y431800D02*
X76200Y431800D01*
X100200Y431800D02*
X114000Y418000D01*
X267800Y418000D02*
X279400Y406400D01*
X267800Y418000D02*
X114000Y418000D01*
X114300Y368300D02*
X76200Y368300D01*
X114300Y368300D02*
X127000Y381000D01*
X98200Y304800D02*
X76200Y304800D01*
X110000Y293000D02*
X110000Y263000D01*
X119000Y254000D01*
X127000Y254000D01*
X110000Y293000D02*
X98200Y304800D01*
X97700Y241300D02*
X76200Y241300D01*
X110400Y228600D02*
X127000Y228600D01*
X110400Y228600D02*
X97700Y241300D01*
D16*
X63500Y63500D03*
X88900Y63500D03*
X457200Y63500D03*
X482600Y63500D03*
X482600Y88900D03*
X401400Y160100D03*
X406400Y254000D03*
X406400Y342900D03*
X406400Y431800D03*
X457200Y546100D03*
X482600Y546100D03*
X482600Y520700D03*
X88900Y546100D03*
X63500Y546100D03*
X63500Y520700D03*
X203200Y431800D03*
X203200Y342900D03*
X203200Y254000D03*
X203200Y132400D03*
X327500Y520700D03*
X287500Y520700D03*
X357500Y405700D03*
X442500Y405700D03*
X361400Y302900D03*
X441400Y302900D03*
X441400Y277900D03*
X361400Y277900D03*
X163200Y174000D03*
X203200Y174000D03*
X243200Y174000D03*
X436400Y491800D03*
X471400Y491800D03*
X138200Y506800D03*
X103200Y486800D03*
X78200Y194000D03*
X168200Y342900D03*
X243200Y342900D03*
X163200Y252900D03*
X243200Y254000D03*
X203200Y219000D03*
X163200Y219000D03*
X243200Y219000D03*
X163200Y294000D03*
X243200Y294000D03*
X168200Y397900D03*
X203200Y397900D03*
X243200Y397900D03*
X357500Y360700D03*
X442500Y360700D03*
X361400Y232900D03*
X361400Y192900D03*
X361400Y157900D03*
X361400Y117900D03*
X441400Y232900D03*
X441400Y192900D03*
X441400Y157900D03*
X441400Y117900D03*
X163200Y134000D03*
X243200Y129000D03*
X183900Y73500D03*
X138900Y53500D03*
X421400Y92900D03*
X108200Y521800D03*
X153200Y551800D03*
X218200Y556800D03*
X317500Y510700D03*
X337500Y530700D03*
X297500Y530700D03*
X277500Y510700D03*
X402500Y405700D03*
X401400Y302900D03*
X401400Y277900D03*
X336400Y62900D03*
X296400Y62900D03*
X261400Y62900D03*
X63200Y179000D03*
X93200Y209000D03*
X93200Y179000D03*
X63200Y209000D03*
X123900Y73500D03*
X198900Y53500D03*
X310000Y470700D03*
D14*
X259785Y80200D02*
X250128Y76200D01*
X241300Y76200D01*
X259785Y80200D02*
X385000Y80200D01*
X393700Y71500D02*
X393700Y63500D01*
X393700Y71500D02*
X385000Y80200D01*
X225776Y50324D02*
X215900Y60200D01*
X215900Y76200D01*
X409924Y50324D02*
X419100Y59500D01*
X419100Y63500D01*
X409924Y50324D02*
X225776Y50324D01*
X241300Y520700D02*
X241300Y537400D01*
X250000Y546100D01*
X435800Y546100D01*
X444500Y537400D01*
X444500Y520700D01*
D15*
X139700Y190500D02*
X127000Y177800D01*
X139700Y190500D02*
X317500Y190500D01*
X330200Y177800D01*
X228600Y473200D02*
X238700Y483300D01*
X228600Y473200D02*
X228600Y457200D01*
X238700Y483300D02*
X419700Y483300D01*
X431800Y471200D02*
X431800Y457200D01*
X431800Y471200D02*
X419700Y483300D01*
X317500Y393700D02*
X279400Y431800D01*
X317500Y393700D02*
X444500Y393700D01*
X482600Y431800D01*
X317500Y165100D02*
X330200Y152400D01*
X139700Y165100D02*
X127000Y152400D01*
X139700Y165100D02*
X317500Y165100D01*
X292100Y266700D02*
X279400Y279400D01*
X292100Y266700D02*
X469900Y266700D01*
X482600Y279400D01*
X469900Y292100D02*
X482600Y304800D01*
X469900Y292100D02*
X292100Y292100D01*
X279400Y304800D01*
X317500Y419100D02*
X279400Y457200D01*
X317500Y419100D02*
X444500Y419100D01*
X482600Y457200D01*
X292100Y317500D02*
X279400Y330200D01*
X292100Y317500D02*
X469900Y317500D01*
X482600Y330200D01*
X419100Y502700D02*
X419100Y520700D01*
X419100Y502700D02*
X411288Y494888D01*
X222913Y494888D02*
X215900Y501901D01*
X215900Y520700D01*
X222913Y494888D02*
X411288Y494888D01*
D14*
X76200Y127000D02*
X76200Y84300D01*
X75900Y84000D01*
M02*
