G04 EAGLE Gerber RS-274X export*
G75*
%MOMM*%
%FSLAX34Y34*%
%LPD*%
%INSilkscreen Top*%
%IPPOS*%
%AMOC8*
5,1,8,0,0,1.08239X$1,22.5*%
G01*
%ADD10C,0.101600*%
%ADD11C,0.152400*%
%ADD12C,0.127000*%
%ADD13C,0.203200*%
%ADD14R,0.508000X2.032000*%
%ADD15R,0.635000X0.508000*%

G36*
X250095Y506014D02*
X250095Y506014D01*
X250191Y506019D01*
X250234Y506034D01*
X250279Y506041D01*
X250367Y506080D01*
X250458Y506112D01*
X250492Y506137D01*
X250536Y506157D01*
X250634Y506240D01*
X250707Y506293D01*
X253707Y509293D01*
X253725Y509318D01*
X253748Y509338D01*
X253783Y509391D01*
X253829Y509442D01*
X253849Y509483D01*
X253876Y509519D01*
X253888Y509552D01*
X253903Y509574D01*
X253919Y509629D01*
X253952Y509695D01*
X253958Y509737D01*
X253975Y509783D01*
X253978Y509822D01*
X253985Y509844D01*
X253986Y509915D01*
X253999Y510000D01*
X253999Y566000D01*
X253991Y566060D01*
X253991Y566084D01*
X253990Y566086D01*
X253991Y566128D01*
X253970Y566203D01*
X253959Y566279D01*
X253933Y566338D01*
X253916Y566400D01*
X253875Y566466D01*
X253843Y566536D01*
X253801Y566585D01*
X253768Y566640D01*
X253710Y566692D01*
X253660Y566750D01*
X253606Y566786D01*
X253558Y566829D01*
X253489Y566862D01*
X253424Y566905D01*
X253362Y566924D01*
X253305Y566952D01*
X253235Y566963D01*
X253154Y566987D01*
X253069Y566988D01*
X253000Y566999D01*
X230000Y566999D01*
X229936Y566990D01*
X229872Y566991D01*
X229797Y566970D01*
X229721Y566959D01*
X229662Y566933D01*
X229600Y566916D01*
X229534Y566875D01*
X229464Y566843D01*
X229415Y566801D01*
X229360Y566768D01*
X229308Y566710D01*
X229250Y566660D01*
X229214Y566606D01*
X229171Y566558D01*
X229138Y566489D01*
X229095Y566424D01*
X229076Y566362D01*
X229048Y566305D01*
X229037Y566235D01*
X229013Y566154D01*
X229012Y566069D01*
X229001Y566000D01*
X229001Y510000D01*
X229012Y509922D01*
X229011Y509870D01*
X229017Y509848D01*
X229019Y509809D01*
X229034Y509766D01*
X229041Y509721D01*
X229071Y509653D01*
X229086Y509598D01*
X229100Y509576D01*
X229112Y509542D01*
X229137Y509508D01*
X229157Y509464D01*
X229202Y509411D01*
X229235Y509358D01*
X229269Y509327D01*
X229293Y509293D01*
X232293Y506293D01*
X232370Y506236D01*
X232442Y506171D01*
X232483Y506151D01*
X232519Y506124D01*
X232609Y506090D01*
X232695Y506048D01*
X232737Y506042D01*
X232783Y506025D01*
X232911Y506015D01*
X233000Y506001D01*
X250000Y506001D01*
X250095Y506014D01*
G37*
G36*
X87518Y113271D02*
X87518Y113271D01*
X87536Y113269D01*
X87718Y113290D01*
X87901Y113309D01*
X87918Y113314D01*
X87935Y113316D01*
X88110Y113373D01*
X88286Y113427D01*
X88301Y113435D01*
X88318Y113441D01*
X88478Y113531D01*
X88640Y113619D01*
X88653Y113630D01*
X88669Y113639D01*
X88808Y113759D01*
X88949Y113876D01*
X88960Y113890D01*
X88974Y113902D01*
X89086Y114047D01*
X89201Y114190D01*
X89209Y114206D01*
X89220Y114220D01*
X89302Y114385D01*
X89387Y114547D01*
X89392Y114564D01*
X89400Y114581D01*
X89447Y114759D01*
X89498Y114934D01*
X89500Y114952D01*
X89504Y114969D01*
X89531Y115300D01*
X89531Y137700D01*
X89529Y137718D01*
X89531Y137736D01*
X89510Y137918D01*
X89491Y138101D01*
X89486Y138118D01*
X89484Y138135D01*
X89427Y138310D01*
X89373Y138486D01*
X89365Y138501D01*
X89359Y138518D01*
X89269Y138678D01*
X89181Y138840D01*
X89170Y138853D01*
X89161Y138869D01*
X89041Y139008D01*
X88924Y139149D01*
X88910Y139160D01*
X88898Y139174D01*
X88753Y139286D01*
X88610Y139401D01*
X88594Y139409D01*
X88580Y139420D01*
X88415Y139502D01*
X88253Y139587D01*
X88236Y139592D01*
X88220Y139600D01*
X88041Y139647D01*
X87866Y139698D01*
X87848Y139700D01*
X87831Y139704D01*
X87500Y139731D01*
X42800Y139731D01*
X42782Y139729D01*
X42764Y139731D01*
X42582Y139710D01*
X42399Y139691D01*
X42382Y139686D01*
X42365Y139684D01*
X42190Y139627D01*
X42014Y139573D01*
X41999Y139565D01*
X41982Y139559D01*
X41822Y139469D01*
X41660Y139381D01*
X41647Y139370D01*
X41631Y139361D01*
X41492Y139241D01*
X41351Y139124D01*
X41340Y139110D01*
X41327Y139098D01*
X41214Y138953D01*
X41099Y138810D01*
X41091Y138794D01*
X41080Y138780D01*
X40998Y138615D01*
X40913Y138453D01*
X40908Y138436D01*
X40900Y138420D01*
X40853Y138241D01*
X40802Y138066D01*
X40800Y138048D01*
X40796Y138031D01*
X40769Y137700D01*
X40769Y115300D01*
X40771Y115282D01*
X40769Y115264D01*
X40790Y115082D01*
X40809Y114899D01*
X40814Y114882D01*
X40816Y114865D01*
X40873Y114690D01*
X40927Y114514D01*
X40935Y114499D01*
X40941Y114482D01*
X41031Y114322D01*
X41119Y114160D01*
X41130Y114147D01*
X41139Y114131D01*
X41259Y113992D01*
X41376Y113851D01*
X41390Y113840D01*
X41402Y113827D01*
X41547Y113714D01*
X41690Y113599D01*
X41706Y113591D01*
X41720Y113580D01*
X41885Y113498D01*
X42047Y113413D01*
X42064Y113408D01*
X42081Y113400D01*
X42259Y113353D01*
X42434Y113302D01*
X42452Y113300D01*
X42469Y113296D01*
X42800Y113269D01*
X87500Y113269D01*
X87518Y113271D01*
G37*
G36*
X226618Y62171D02*
X226618Y62171D01*
X226636Y62169D01*
X226818Y62190D01*
X227001Y62209D01*
X227018Y62214D01*
X227035Y62216D01*
X227210Y62273D01*
X227386Y62327D01*
X227401Y62335D01*
X227418Y62341D01*
X227578Y62431D01*
X227740Y62519D01*
X227753Y62530D01*
X227769Y62539D01*
X227908Y62659D01*
X228049Y62776D01*
X228060Y62790D01*
X228074Y62802D01*
X228186Y62947D01*
X228301Y63090D01*
X228309Y63106D01*
X228320Y63120D01*
X228402Y63285D01*
X228487Y63447D01*
X228492Y63464D01*
X228500Y63481D01*
X228547Y63659D01*
X228598Y63834D01*
X228600Y63852D01*
X228604Y63869D01*
X228631Y64200D01*
X228631Y101600D01*
X228629Y101618D01*
X228631Y101636D01*
X228610Y101818D01*
X228591Y102001D01*
X228586Y102018D01*
X228584Y102035D01*
X228527Y102210D01*
X228473Y102386D01*
X228465Y102401D01*
X228459Y102418D01*
X228369Y102578D01*
X228281Y102740D01*
X228270Y102753D01*
X228261Y102769D01*
X228141Y102908D01*
X228024Y103049D01*
X228010Y103060D01*
X227998Y103074D01*
X227853Y103186D01*
X227710Y103301D01*
X227694Y103309D01*
X227680Y103320D01*
X227515Y103402D01*
X227353Y103487D01*
X227336Y103492D01*
X227320Y103500D01*
X227141Y103547D01*
X226966Y103598D01*
X226948Y103600D01*
X226931Y103604D01*
X226600Y103631D01*
X203200Y103631D01*
X203182Y103629D01*
X203164Y103631D01*
X202982Y103610D01*
X202799Y103591D01*
X202782Y103586D01*
X202765Y103584D01*
X202590Y103527D01*
X202414Y103473D01*
X202399Y103465D01*
X202382Y103459D01*
X202222Y103369D01*
X202060Y103281D01*
X202047Y103270D01*
X202031Y103261D01*
X201892Y103141D01*
X201751Y103024D01*
X201740Y103010D01*
X201727Y102998D01*
X201614Y102853D01*
X201499Y102710D01*
X201491Y102694D01*
X201480Y102680D01*
X201398Y102515D01*
X201313Y102353D01*
X201308Y102336D01*
X201300Y102320D01*
X201253Y102141D01*
X201202Y101966D01*
X201200Y101948D01*
X201196Y101931D01*
X201169Y101600D01*
X201169Y64200D01*
X201171Y64182D01*
X201169Y64164D01*
X201190Y63982D01*
X201209Y63799D01*
X201214Y63782D01*
X201216Y63765D01*
X201273Y63590D01*
X201327Y63414D01*
X201335Y63399D01*
X201341Y63382D01*
X201431Y63222D01*
X201519Y63060D01*
X201530Y63047D01*
X201539Y63031D01*
X201659Y62892D01*
X201776Y62751D01*
X201790Y62740D01*
X201802Y62727D01*
X201947Y62614D01*
X202090Y62499D01*
X202106Y62491D01*
X202120Y62480D01*
X202285Y62398D01*
X202447Y62313D01*
X202464Y62308D01*
X202481Y62300D01*
X202659Y62253D01*
X202834Y62202D01*
X202852Y62200D01*
X202869Y62196D01*
X203200Y62169D01*
X226600Y62169D01*
X226618Y62171D01*
G37*
G36*
X87095Y228014D02*
X87095Y228014D01*
X87191Y228019D01*
X87234Y228034D01*
X87279Y228041D01*
X87367Y228080D01*
X87458Y228112D01*
X87492Y228137D01*
X87536Y228157D01*
X87634Y228240D01*
X87707Y228293D01*
X89707Y230293D01*
X89725Y230319D01*
X89749Y230339D01*
X89784Y230392D01*
X89829Y230442D01*
X89849Y230483D01*
X89876Y230519D01*
X89888Y230551D01*
X89903Y230575D01*
X89921Y230632D01*
X89952Y230695D01*
X89958Y230737D01*
X89975Y230783D01*
X89978Y230820D01*
X89986Y230844D01*
X89987Y230920D01*
X89999Y231000D01*
X89999Y252000D01*
X89990Y252062D01*
X89991Y252111D01*
X89984Y252138D01*
X89981Y252191D01*
X89966Y252234D01*
X89959Y252279D01*
X89921Y252365D01*
X89916Y252382D01*
X89913Y252388D01*
X89888Y252458D01*
X89863Y252492D01*
X89843Y252536D01*
X89760Y252634D01*
X89707Y252707D01*
X87707Y254707D01*
X87630Y254764D01*
X87558Y254829D01*
X87517Y254849D01*
X87481Y254876D01*
X87391Y254910D01*
X87305Y254952D01*
X87263Y254958D01*
X87217Y254975D01*
X87090Y254985D01*
X87000Y254999D01*
X55000Y254999D01*
X54936Y254990D01*
X54872Y254991D01*
X54797Y254970D01*
X54721Y254959D01*
X54662Y254933D01*
X54600Y254916D01*
X54534Y254875D01*
X54464Y254843D01*
X54415Y254801D01*
X54360Y254768D01*
X54308Y254710D01*
X54250Y254660D01*
X54214Y254606D01*
X54171Y254558D01*
X54138Y254489D01*
X54095Y254424D01*
X54076Y254362D01*
X54048Y254305D01*
X54037Y254235D01*
X54013Y254154D01*
X54012Y254069D01*
X54001Y254000D01*
X54001Y229000D01*
X54010Y228936D01*
X54009Y228872D01*
X54030Y228797D01*
X54041Y228721D01*
X54067Y228662D01*
X54084Y228600D01*
X54125Y228534D01*
X54157Y228464D01*
X54199Y228415D01*
X54232Y228360D01*
X54290Y228308D01*
X54340Y228250D01*
X54394Y228214D01*
X54442Y228171D01*
X54511Y228138D01*
X54576Y228095D01*
X54638Y228076D01*
X54695Y228048D01*
X54765Y228037D01*
X54846Y228013D01*
X54931Y228012D01*
X55000Y228001D01*
X87000Y228001D01*
X87095Y228014D01*
G37*
G36*
X87095Y355014D02*
X87095Y355014D01*
X87191Y355019D01*
X87234Y355034D01*
X87279Y355041D01*
X87367Y355080D01*
X87458Y355112D01*
X87492Y355137D01*
X87536Y355157D01*
X87634Y355240D01*
X87707Y355293D01*
X89707Y357293D01*
X89725Y357319D01*
X89749Y357339D01*
X89784Y357392D01*
X89829Y357442D01*
X89849Y357483D01*
X89876Y357519D01*
X89888Y357551D01*
X89903Y357575D01*
X89921Y357632D01*
X89952Y357695D01*
X89958Y357737D01*
X89975Y357783D01*
X89978Y357820D01*
X89986Y357844D01*
X89987Y357920D01*
X89999Y358000D01*
X89999Y378000D01*
X89990Y378062D01*
X89991Y378111D01*
X89984Y378139D01*
X89981Y378191D01*
X89966Y378234D01*
X89959Y378279D01*
X89921Y378364D01*
X89916Y378383D01*
X89912Y378389D01*
X89888Y378458D01*
X89863Y378492D01*
X89843Y378536D01*
X89760Y378634D01*
X89707Y378707D01*
X86707Y381707D01*
X86630Y381764D01*
X86558Y381829D01*
X86517Y381849D01*
X86481Y381876D01*
X86391Y381910D01*
X86305Y381952D01*
X86263Y381958D01*
X86217Y381975D01*
X86090Y381985D01*
X86000Y381999D01*
X55000Y381999D01*
X54936Y381990D01*
X54872Y381991D01*
X54797Y381970D01*
X54721Y381959D01*
X54662Y381933D01*
X54600Y381916D01*
X54534Y381875D01*
X54464Y381843D01*
X54415Y381801D01*
X54360Y381768D01*
X54308Y381710D01*
X54250Y381660D01*
X54214Y381606D01*
X54171Y381558D01*
X54138Y381489D01*
X54095Y381424D01*
X54076Y381362D01*
X54048Y381305D01*
X54037Y381235D01*
X54013Y381154D01*
X54012Y381069D01*
X54001Y381000D01*
X54001Y356000D01*
X54010Y355936D01*
X54009Y355872D01*
X54030Y355797D01*
X54041Y355721D01*
X54067Y355662D01*
X54084Y355600D01*
X54125Y355534D01*
X54157Y355464D01*
X54199Y355415D01*
X54232Y355360D01*
X54290Y355308D01*
X54340Y355250D01*
X54394Y355214D01*
X54442Y355171D01*
X54511Y355138D01*
X54576Y355095D01*
X54638Y355076D01*
X54695Y355048D01*
X54765Y355037D01*
X54846Y355013D01*
X54931Y355012D01*
X55000Y355001D01*
X87000Y355001D01*
X87095Y355014D01*
G37*
G36*
X86095Y292014D02*
X86095Y292014D01*
X86191Y292019D01*
X86234Y292034D01*
X86279Y292041D01*
X86367Y292080D01*
X86458Y292112D01*
X86492Y292137D01*
X86536Y292157D01*
X86634Y292240D01*
X86707Y292293D01*
X88707Y294293D01*
X88725Y294319D01*
X88749Y294339D01*
X88784Y294392D01*
X88829Y294442D01*
X88849Y294483D01*
X88876Y294519D01*
X88888Y294551D01*
X88903Y294575D01*
X88921Y294632D01*
X88952Y294695D01*
X88958Y294737D01*
X88975Y294783D01*
X88978Y294820D01*
X88986Y294844D01*
X88987Y294920D01*
X88999Y295000D01*
X88999Y315000D01*
X88990Y315062D01*
X88991Y315111D01*
X88984Y315139D01*
X88981Y315191D01*
X88966Y315234D01*
X88959Y315279D01*
X88921Y315364D01*
X88916Y315383D01*
X88912Y315389D01*
X88888Y315458D01*
X88863Y315492D01*
X88843Y315536D01*
X88760Y315634D01*
X88707Y315707D01*
X86707Y317707D01*
X86630Y317764D01*
X86558Y317829D01*
X86517Y317849D01*
X86481Y317876D01*
X86391Y317910D01*
X86305Y317952D01*
X86263Y317958D01*
X86217Y317975D01*
X86090Y317985D01*
X86000Y317999D01*
X55000Y317999D01*
X54936Y317990D01*
X54872Y317991D01*
X54797Y317970D01*
X54721Y317959D01*
X54662Y317933D01*
X54600Y317916D01*
X54534Y317875D01*
X54464Y317843D01*
X54415Y317801D01*
X54360Y317768D01*
X54308Y317710D01*
X54250Y317660D01*
X54214Y317606D01*
X54171Y317558D01*
X54138Y317489D01*
X54095Y317424D01*
X54076Y317362D01*
X54048Y317305D01*
X54037Y317235D01*
X54013Y317154D01*
X54012Y317069D01*
X54001Y317000D01*
X54001Y293000D01*
X54010Y292936D01*
X54009Y292872D01*
X54030Y292797D01*
X54041Y292721D01*
X54067Y292662D01*
X54084Y292600D01*
X54125Y292534D01*
X54157Y292464D01*
X54199Y292415D01*
X54232Y292360D01*
X54290Y292308D01*
X54340Y292250D01*
X54394Y292214D01*
X54442Y292171D01*
X54511Y292138D01*
X54576Y292095D01*
X54638Y292076D01*
X54695Y292048D01*
X54765Y292037D01*
X54846Y292013D01*
X54931Y292012D01*
X55000Y292001D01*
X86000Y292001D01*
X86095Y292014D01*
G37*
G36*
X86095Y419014D02*
X86095Y419014D01*
X86191Y419019D01*
X86234Y419034D01*
X86279Y419041D01*
X86367Y419080D01*
X86458Y419112D01*
X86492Y419137D01*
X86536Y419157D01*
X86634Y419240D01*
X86707Y419293D01*
X88707Y421293D01*
X88725Y421319D01*
X88749Y421339D01*
X88784Y421392D01*
X88829Y421442D01*
X88849Y421483D01*
X88876Y421519D01*
X88888Y421551D01*
X88903Y421575D01*
X88921Y421632D01*
X88952Y421695D01*
X88958Y421737D01*
X88975Y421783D01*
X88978Y421820D01*
X88986Y421844D01*
X88987Y421920D01*
X88999Y422000D01*
X88999Y441000D01*
X88990Y441062D01*
X88991Y441112D01*
X88983Y441140D01*
X88981Y441191D01*
X88966Y441234D01*
X88959Y441279D01*
X88922Y441362D01*
X88916Y441384D01*
X88911Y441391D01*
X88888Y441458D01*
X88863Y441492D01*
X88843Y441536D01*
X88760Y441634D01*
X88707Y441707D01*
X85707Y444707D01*
X85630Y444764D01*
X85558Y444829D01*
X85517Y444849D01*
X85481Y444876D01*
X85391Y444910D01*
X85305Y444952D01*
X85263Y444958D01*
X85217Y444975D01*
X85090Y444985D01*
X85000Y444999D01*
X55000Y444999D01*
X54936Y444990D01*
X54872Y444991D01*
X54797Y444970D01*
X54721Y444959D01*
X54662Y444933D01*
X54600Y444916D01*
X54534Y444875D01*
X54464Y444843D01*
X54415Y444801D01*
X54360Y444768D01*
X54308Y444710D01*
X54250Y444660D01*
X54214Y444606D01*
X54171Y444558D01*
X54138Y444489D01*
X54095Y444424D01*
X54076Y444362D01*
X54048Y444305D01*
X54037Y444235D01*
X54013Y444154D01*
X54012Y444069D01*
X54001Y444000D01*
X54001Y420000D01*
X54010Y419936D01*
X54009Y419872D01*
X54030Y419797D01*
X54041Y419721D01*
X54067Y419662D01*
X54084Y419600D01*
X54125Y419534D01*
X54157Y419464D01*
X54199Y419415D01*
X54232Y419360D01*
X54290Y419308D01*
X54340Y419250D01*
X54394Y419214D01*
X54442Y419171D01*
X54511Y419138D01*
X54576Y419095D01*
X54638Y419076D01*
X54695Y419048D01*
X54765Y419037D01*
X54846Y419013D01*
X54931Y419012D01*
X55000Y419001D01*
X86000Y419001D01*
X86095Y419014D01*
G37*
D10*
X92808Y228306D02*
X104492Y228306D01*
X104492Y227008D02*
X104492Y229604D01*
X92808Y229604D02*
X92808Y227008D01*
X96703Y234473D02*
X104492Y234473D01*
X96703Y234473D02*
X96703Y237718D01*
X96705Y237805D01*
X96711Y237893D01*
X96721Y237979D01*
X96734Y238066D01*
X96752Y238151D01*
X96773Y238236D01*
X96798Y238320D01*
X96827Y238402D01*
X96860Y238483D01*
X96896Y238563D01*
X96935Y238641D01*
X96979Y238717D01*
X97025Y238791D01*
X97075Y238862D01*
X97128Y238932D01*
X97184Y238999D01*
X97243Y239063D01*
X97304Y239125D01*
X97369Y239184D01*
X97436Y239240D01*
X97506Y239293D01*
X97577Y239343D01*
X97651Y239389D01*
X97727Y239433D01*
X97805Y239472D01*
X97885Y239508D01*
X97966Y239541D01*
X98048Y239570D01*
X98132Y239595D01*
X98217Y239616D01*
X98302Y239634D01*
X98389Y239647D01*
X98475Y239657D01*
X98563Y239663D01*
X98650Y239665D01*
X98650Y239666D02*
X104492Y239666D01*
X108387Y245200D02*
X96703Y245200D01*
X96703Y248445D01*
X96705Y248532D01*
X96711Y248620D01*
X96721Y248706D01*
X96734Y248793D01*
X96752Y248878D01*
X96773Y248963D01*
X96798Y249047D01*
X96827Y249129D01*
X96860Y249210D01*
X96896Y249290D01*
X96935Y249368D01*
X96979Y249444D01*
X97025Y249518D01*
X97075Y249589D01*
X97128Y249659D01*
X97184Y249726D01*
X97243Y249790D01*
X97304Y249852D01*
X97369Y249911D01*
X97436Y249967D01*
X97506Y250020D01*
X97577Y250070D01*
X97651Y250116D01*
X97727Y250160D01*
X97805Y250199D01*
X97885Y250235D01*
X97966Y250268D01*
X98048Y250297D01*
X98132Y250322D01*
X98217Y250343D01*
X98302Y250361D01*
X98389Y250374D01*
X98475Y250384D01*
X98563Y250390D01*
X98650Y250392D01*
X98650Y250393D02*
X102545Y250393D01*
X102545Y250392D02*
X102632Y250390D01*
X102720Y250384D01*
X102806Y250374D01*
X102893Y250361D01*
X102978Y250343D01*
X103063Y250322D01*
X103147Y250297D01*
X103229Y250268D01*
X103310Y250235D01*
X103390Y250199D01*
X103468Y250160D01*
X103544Y250116D01*
X103618Y250070D01*
X103689Y250020D01*
X103759Y249967D01*
X103826Y249911D01*
X103890Y249852D01*
X103952Y249790D01*
X104011Y249726D01*
X104067Y249659D01*
X104120Y249589D01*
X104170Y249518D01*
X104216Y249444D01*
X104260Y249368D01*
X104299Y249290D01*
X104335Y249210D01*
X104368Y249129D01*
X104397Y249047D01*
X104422Y248963D01*
X104443Y248878D01*
X104461Y248793D01*
X104474Y248706D01*
X104484Y248620D01*
X104490Y248532D01*
X104492Y248445D01*
X104492Y245200D01*
X102545Y255428D02*
X96703Y255428D01*
X102545Y255428D02*
X102632Y255430D01*
X102720Y255436D01*
X102806Y255446D01*
X102893Y255459D01*
X102978Y255477D01*
X103063Y255498D01*
X103147Y255523D01*
X103229Y255552D01*
X103310Y255585D01*
X103390Y255621D01*
X103468Y255660D01*
X103544Y255704D01*
X103618Y255750D01*
X103689Y255800D01*
X103759Y255853D01*
X103826Y255909D01*
X103890Y255968D01*
X103952Y256030D01*
X104011Y256094D01*
X104067Y256161D01*
X104120Y256231D01*
X104170Y256302D01*
X104216Y256376D01*
X104260Y256452D01*
X104299Y256530D01*
X104335Y256610D01*
X104368Y256691D01*
X104397Y256773D01*
X104422Y256857D01*
X104443Y256942D01*
X104461Y257027D01*
X104474Y257114D01*
X104484Y257200D01*
X104490Y257288D01*
X104492Y257375D01*
X104492Y260621D01*
X96703Y260621D01*
X96703Y264747D02*
X96703Y268642D01*
X92808Y266046D02*
X102545Y266046D01*
X102632Y266048D01*
X102720Y266054D01*
X102806Y266064D01*
X102893Y266077D01*
X102978Y266095D01*
X103063Y266116D01*
X103147Y266141D01*
X103229Y266170D01*
X103310Y266203D01*
X103390Y266239D01*
X103468Y266278D01*
X103544Y266322D01*
X103618Y266368D01*
X103689Y266418D01*
X103759Y266471D01*
X103826Y266527D01*
X103890Y266586D01*
X103952Y266648D01*
X104011Y266712D01*
X104067Y266779D01*
X104120Y266849D01*
X104170Y266920D01*
X104216Y266994D01*
X104260Y267070D01*
X104299Y267148D01*
X104335Y267228D01*
X104368Y267309D01*
X104397Y267391D01*
X104422Y267475D01*
X104443Y267560D01*
X104461Y267645D01*
X104474Y267732D01*
X104484Y267818D01*
X104490Y267906D01*
X104492Y267993D01*
X104492Y268642D01*
X98001Y279713D02*
X98001Y282958D01*
X98000Y282958D02*
X98002Y283071D01*
X98008Y283184D01*
X98018Y283297D01*
X98032Y283410D01*
X98049Y283522D01*
X98071Y283633D01*
X98096Y283743D01*
X98126Y283853D01*
X98159Y283961D01*
X98196Y284068D01*
X98236Y284174D01*
X98281Y284278D01*
X98329Y284381D01*
X98380Y284482D01*
X98435Y284581D01*
X98493Y284678D01*
X98555Y284773D01*
X98620Y284866D01*
X98688Y284956D01*
X98759Y285044D01*
X98834Y285130D01*
X98911Y285213D01*
X98991Y285293D01*
X99074Y285370D01*
X99160Y285445D01*
X99248Y285516D01*
X99338Y285584D01*
X99431Y285649D01*
X99526Y285711D01*
X99623Y285769D01*
X99722Y285824D01*
X99823Y285875D01*
X99926Y285923D01*
X100030Y285968D01*
X100136Y286008D01*
X100243Y286045D01*
X100351Y286078D01*
X100461Y286108D01*
X100571Y286133D01*
X100682Y286155D01*
X100794Y286172D01*
X100907Y286186D01*
X101020Y286196D01*
X101133Y286202D01*
X101246Y286204D01*
X101359Y286202D01*
X101472Y286196D01*
X101585Y286186D01*
X101698Y286172D01*
X101810Y286155D01*
X101921Y286133D01*
X102031Y286108D01*
X102141Y286078D01*
X102249Y286045D01*
X102356Y286008D01*
X102462Y285968D01*
X102566Y285923D01*
X102669Y285875D01*
X102770Y285824D01*
X102869Y285769D01*
X102966Y285711D01*
X103061Y285649D01*
X103154Y285584D01*
X103244Y285516D01*
X103332Y285445D01*
X103418Y285370D01*
X103501Y285293D01*
X103581Y285213D01*
X103658Y285130D01*
X103733Y285044D01*
X103804Y284956D01*
X103872Y284866D01*
X103937Y284773D01*
X103999Y284678D01*
X104057Y284581D01*
X104112Y284482D01*
X104163Y284381D01*
X104211Y284278D01*
X104256Y284174D01*
X104296Y284068D01*
X104333Y283961D01*
X104366Y283853D01*
X104396Y283743D01*
X104421Y283633D01*
X104443Y283522D01*
X104460Y283410D01*
X104474Y283297D01*
X104484Y283184D01*
X104490Y283071D01*
X104492Y282958D01*
X104492Y279713D01*
X92808Y279713D01*
X92808Y282958D01*
X92810Y283059D01*
X92816Y283159D01*
X92826Y283259D01*
X92839Y283359D01*
X92857Y283458D01*
X92878Y283557D01*
X92903Y283654D01*
X92932Y283751D01*
X92965Y283846D01*
X93001Y283940D01*
X93041Y284032D01*
X93084Y284123D01*
X93131Y284212D01*
X93181Y284299D01*
X93235Y284385D01*
X93292Y284468D01*
X93352Y284548D01*
X93415Y284627D01*
X93482Y284703D01*
X93551Y284776D01*
X93623Y284846D01*
X93697Y284914D01*
X93774Y284979D01*
X93854Y285040D01*
X93936Y285099D01*
X94020Y285154D01*
X94106Y285206D01*
X94194Y285255D01*
X94284Y285300D01*
X94376Y285342D01*
X94469Y285380D01*
X94564Y285414D01*
X94659Y285445D01*
X94756Y285472D01*
X94854Y285495D01*
X94953Y285515D01*
X95053Y285530D01*
X95153Y285542D01*
X95253Y285550D01*
X95354Y285554D01*
X95454Y285554D01*
X95555Y285550D01*
X95655Y285542D01*
X95755Y285530D01*
X95855Y285515D01*
X95954Y285495D01*
X96052Y285472D01*
X96149Y285445D01*
X96244Y285414D01*
X96339Y285380D01*
X96432Y285342D01*
X96524Y285300D01*
X96614Y285255D01*
X96702Y285206D01*
X96788Y285154D01*
X96872Y285099D01*
X96954Y285040D01*
X97034Y284979D01*
X97111Y284914D01*
X97185Y284846D01*
X97257Y284776D01*
X97326Y284703D01*
X97393Y284627D01*
X97456Y284548D01*
X97516Y284468D01*
X97573Y284385D01*
X97627Y284299D01*
X97677Y284212D01*
X97724Y284123D01*
X97767Y284032D01*
X97807Y283940D01*
X97843Y283846D01*
X97876Y283751D01*
X97905Y283654D01*
X97930Y283557D01*
X97951Y283458D01*
X97969Y283359D01*
X97982Y283259D01*
X97992Y283159D01*
X97998Y283059D01*
X98000Y282958D01*
X96703Y290861D02*
X102545Y290861D01*
X102632Y290863D01*
X102720Y290869D01*
X102806Y290879D01*
X102893Y290892D01*
X102978Y290910D01*
X103063Y290931D01*
X103147Y290956D01*
X103229Y290985D01*
X103310Y291018D01*
X103390Y291054D01*
X103468Y291093D01*
X103544Y291137D01*
X103618Y291183D01*
X103689Y291233D01*
X103759Y291286D01*
X103826Y291342D01*
X103890Y291401D01*
X103952Y291463D01*
X104011Y291527D01*
X104067Y291594D01*
X104120Y291664D01*
X104170Y291735D01*
X104216Y291809D01*
X104260Y291885D01*
X104299Y291963D01*
X104335Y292043D01*
X104368Y292124D01*
X104397Y292206D01*
X104422Y292290D01*
X104443Y292375D01*
X104461Y292460D01*
X104474Y292547D01*
X104484Y292633D01*
X104490Y292721D01*
X104492Y292808D01*
X104492Y296054D01*
X96703Y296054D01*
X96703Y300180D02*
X96703Y304075D01*
X92808Y301479D02*
X102545Y301479D01*
X102632Y301481D01*
X102720Y301487D01*
X102806Y301497D01*
X102893Y301510D01*
X102978Y301528D01*
X103063Y301549D01*
X103147Y301574D01*
X103229Y301603D01*
X103310Y301636D01*
X103390Y301672D01*
X103468Y301711D01*
X103544Y301755D01*
X103618Y301801D01*
X103689Y301851D01*
X103759Y301904D01*
X103826Y301960D01*
X103890Y302019D01*
X103952Y302081D01*
X104011Y302145D01*
X104067Y302212D01*
X104120Y302282D01*
X104170Y302353D01*
X104216Y302427D01*
X104260Y302503D01*
X104299Y302581D01*
X104335Y302661D01*
X104368Y302742D01*
X104397Y302824D01*
X104422Y302908D01*
X104443Y302993D01*
X104461Y303078D01*
X104474Y303165D01*
X104484Y303251D01*
X104490Y303339D01*
X104492Y303426D01*
X104492Y304075D01*
X96703Y307419D02*
X96703Y311314D01*
X92808Y308718D02*
X102545Y308718D01*
X102632Y308720D01*
X102720Y308726D01*
X102806Y308736D01*
X102893Y308749D01*
X102978Y308767D01*
X103063Y308788D01*
X103147Y308813D01*
X103229Y308842D01*
X103310Y308875D01*
X103390Y308911D01*
X103468Y308950D01*
X103544Y308994D01*
X103618Y309040D01*
X103689Y309090D01*
X103759Y309143D01*
X103826Y309199D01*
X103890Y309258D01*
X103952Y309320D01*
X104011Y309384D01*
X104067Y309451D01*
X104120Y309521D01*
X104170Y309592D01*
X104216Y309666D01*
X104260Y309742D01*
X104299Y309820D01*
X104335Y309900D01*
X104368Y309981D01*
X104397Y310063D01*
X104422Y310147D01*
X104443Y310232D01*
X104461Y310317D01*
X104474Y310404D01*
X104484Y310490D01*
X104490Y310578D01*
X104492Y310665D01*
X104492Y311314D01*
X101896Y315626D02*
X99299Y315626D01*
X99198Y315628D01*
X99098Y315634D01*
X98998Y315644D01*
X98898Y315657D01*
X98799Y315675D01*
X98700Y315696D01*
X98603Y315721D01*
X98506Y315750D01*
X98411Y315783D01*
X98317Y315819D01*
X98225Y315859D01*
X98134Y315902D01*
X98045Y315949D01*
X97958Y315999D01*
X97872Y316053D01*
X97789Y316110D01*
X97709Y316170D01*
X97630Y316233D01*
X97554Y316300D01*
X97481Y316369D01*
X97411Y316441D01*
X97343Y316515D01*
X97278Y316592D01*
X97217Y316672D01*
X97158Y316754D01*
X97103Y316838D01*
X97051Y316924D01*
X97002Y317012D01*
X96957Y317102D01*
X96915Y317194D01*
X96877Y317287D01*
X96843Y317382D01*
X96812Y317477D01*
X96785Y317574D01*
X96762Y317672D01*
X96742Y317771D01*
X96727Y317871D01*
X96715Y317971D01*
X96707Y318071D01*
X96703Y318172D01*
X96703Y318272D01*
X96707Y318373D01*
X96715Y318473D01*
X96727Y318573D01*
X96742Y318673D01*
X96762Y318772D01*
X96785Y318870D01*
X96812Y318967D01*
X96843Y319062D01*
X96877Y319157D01*
X96915Y319250D01*
X96957Y319342D01*
X97002Y319432D01*
X97051Y319520D01*
X97103Y319606D01*
X97158Y319690D01*
X97217Y319772D01*
X97278Y319852D01*
X97343Y319929D01*
X97411Y320003D01*
X97481Y320075D01*
X97554Y320144D01*
X97630Y320211D01*
X97709Y320274D01*
X97789Y320334D01*
X97872Y320391D01*
X97958Y320445D01*
X98045Y320495D01*
X98134Y320542D01*
X98225Y320585D01*
X98317Y320625D01*
X98411Y320661D01*
X98506Y320694D01*
X98603Y320723D01*
X98700Y320748D01*
X98799Y320769D01*
X98898Y320787D01*
X98998Y320800D01*
X99098Y320810D01*
X99198Y320816D01*
X99299Y320818D01*
X99299Y320819D02*
X101896Y320819D01*
X101896Y320818D02*
X101997Y320816D01*
X102097Y320810D01*
X102197Y320800D01*
X102297Y320787D01*
X102396Y320769D01*
X102495Y320748D01*
X102592Y320723D01*
X102689Y320694D01*
X102784Y320661D01*
X102878Y320625D01*
X102970Y320585D01*
X103061Y320542D01*
X103150Y320495D01*
X103237Y320445D01*
X103323Y320391D01*
X103406Y320334D01*
X103486Y320274D01*
X103565Y320211D01*
X103641Y320144D01*
X103714Y320075D01*
X103784Y320003D01*
X103852Y319929D01*
X103917Y319852D01*
X103978Y319772D01*
X104037Y319690D01*
X104092Y319606D01*
X104144Y319520D01*
X104193Y319432D01*
X104238Y319342D01*
X104280Y319250D01*
X104318Y319157D01*
X104352Y319062D01*
X104383Y318967D01*
X104410Y318870D01*
X104433Y318772D01*
X104453Y318673D01*
X104468Y318573D01*
X104480Y318473D01*
X104488Y318373D01*
X104492Y318272D01*
X104492Y318172D01*
X104488Y318071D01*
X104480Y317971D01*
X104468Y317871D01*
X104453Y317771D01*
X104433Y317672D01*
X104410Y317574D01*
X104383Y317477D01*
X104352Y317382D01*
X104318Y317287D01*
X104280Y317194D01*
X104238Y317102D01*
X104193Y317012D01*
X104144Y316924D01*
X104092Y316838D01*
X104037Y316754D01*
X103978Y316672D01*
X103917Y316592D01*
X103852Y316515D01*
X103784Y316441D01*
X103714Y316369D01*
X103641Y316300D01*
X103565Y316233D01*
X103486Y316170D01*
X103406Y316110D01*
X103323Y316053D01*
X103237Y315999D01*
X103150Y315949D01*
X103061Y315902D01*
X102970Y315859D01*
X102878Y315819D01*
X102784Y315783D01*
X102689Y315750D01*
X102592Y315721D01*
X102495Y315696D01*
X102396Y315675D01*
X102297Y315657D01*
X102197Y315644D01*
X102097Y315634D01*
X101997Y315628D01*
X101896Y315626D01*
X104492Y325913D02*
X96703Y325913D01*
X96703Y329158D01*
X96705Y329245D01*
X96711Y329333D01*
X96721Y329419D01*
X96734Y329506D01*
X96752Y329591D01*
X96773Y329676D01*
X96798Y329760D01*
X96827Y329842D01*
X96860Y329923D01*
X96896Y330003D01*
X96935Y330081D01*
X96979Y330157D01*
X97025Y330231D01*
X97075Y330302D01*
X97128Y330372D01*
X97184Y330439D01*
X97243Y330503D01*
X97304Y330565D01*
X97369Y330624D01*
X97436Y330680D01*
X97506Y330733D01*
X97577Y330783D01*
X97651Y330829D01*
X97727Y330873D01*
X97805Y330912D01*
X97885Y330948D01*
X97966Y330981D01*
X98048Y331010D01*
X98132Y331035D01*
X98217Y331056D01*
X98302Y331074D01*
X98389Y331087D01*
X98475Y331097D01*
X98563Y331103D01*
X98650Y331105D01*
X98650Y331106D02*
X104492Y331106D01*
X99948Y337173D02*
X101246Y340419D01*
X99949Y337173D02*
X99916Y337098D01*
X99880Y337024D01*
X99841Y336952D01*
X99798Y336882D01*
X99752Y336815D01*
X99702Y336749D01*
X99650Y336687D01*
X99594Y336626D01*
X99536Y336569D01*
X99475Y336514D01*
X99411Y336463D01*
X99345Y336415D01*
X99276Y336370D01*
X99206Y336328D01*
X99133Y336290D01*
X99059Y336255D01*
X98983Y336224D01*
X98906Y336197D01*
X98827Y336174D01*
X98748Y336154D01*
X98667Y336139D01*
X98586Y336127D01*
X98504Y336119D01*
X98423Y336115D01*
X98341Y336116D01*
X98259Y336120D01*
X98177Y336128D01*
X98096Y336140D01*
X98016Y336156D01*
X97936Y336176D01*
X97858Y336200D01*
X97781Y336228D01*
X97705Y336259D01*
X97631Y336294D01*
X97559Y336332D01*
X97488Y336374D01*
X97420Y336420D01*
X97354Y336468D01*
X97291Y336520D01*
X97230Y336575D01*
X97172Y336633D01*
X97116Y336693D01*
X97064Y336756D01*
X97015Y336822D01*
X96969Y336890D01*
X96927Y336960D01*
X96887Y337032D01*
X96852Y337106D01*
X96820Y337181D01*
X96792Y337258D01*
X96768Y337336D01*
X96747Y337416D01*
X96730Y337496D01*
X96718Y337577D01*
X96709Y337658D01*
X96704Y337740D01*
X96703Y337822D01*
X96707Y337999D01*
X96716Y338176D01*
X96730Y338353D01*
X96747Y338530D01*
X96769Y338705D01*
X96794Y338881D01*
X96825Y339055D01*
X96859Y339229D01*
X96897Y339402D01*
X96940Y339574D01*
X96987Y339745D01*
X97037Y339915D01*
X97092Y340084D01*
X97151Y340251D01*
X97214Y340417D01*
X97281Y340581D01*
X97352Y340743D01*
X101246Y340419D02*
X101279Y340494D01*
X101315Y340568D01*
X101354Y340640D01*
X101397Y340710D01*
X101443Y340777D01*
X101493Y340843D01*
X101545Y340905D01*
X101601Y340966D01*
X101659Y341023D01*
X101720Y341078D01*
X101784Y341129D01*
X101850Y341177D01*
X101919Y341222D01*
X101989Y341264D01*
X102062Y341302D01*
X102136Y341337D01*
X102212Y341368D01*
X102289Y341395D01*
X102368Y341418D01*
X102448Y341438D01*
X102528Y341453D01*
X102609Y341465D01*
X102691Y341473D01*
X102772Y341477D01*
X102854Y341476D01*
X102936Y341472D01*
X103018Y341464D01*
X103099Y341452D01*
X103179Y341436D01*
X103259Y341416D01*
X103337Y341392D01*
X103414Y341364D01*
X103490Y341333D01*
X103564Y341298D01*
X103636Y341260D01*
X103707Y341218D01*
X103775Y341172D01*
X103841Y341124D01*
X103904Y341072D01*
X103965Y341017D01*
X104023Y340959D01*
X104079Y340899D01*
X104131Y340836D01*
X104180Y340770D01*
X104226Y340702D01*
X104268Y340632D01*
X104308Y340560D01*
X104343Y340486D01*
X104375Y340411D01*
X104403Y340334D01*
X104427Y340256D01*
X104448Y340176D01*
X104465Y340096D01*
X104477Y340015D01*
X104486Y339934D01*
X104491Y339852D01*
X104492Y339770D01*
X104485Y339510D01*
X104472Y339250D01*
X104453Y338990D01*
X104428Y338731D01*
X104396Y338472D01*
X104359Y338215D01*
X104315Y337958D01*
X104266Y337702D01*
X104210Y337448D01*
X104149Y337195D01*
X104081Y336944D01*
X104007Y336694D01*
X103928Y336446D01*
X103843Y336200D01*
D11*
X112000Y220000D02*
X112000Y455000D01*
X93000Y476000D01*
D10*
X178212Y537808D02*
X178212Y549492D01*
X178212Y537808D02*
X183404Y537808D01*
X188118Y537808D02*
X193310Y537808D01*
X188118Y537808D02*
X188118Y549492D01*
X193310Y549492D01*
X192012Y544299D02*
X188118Y544299D01*
X198001Y549492D02*
X198001Y537808D01*
X198001Y549492D02*
X201246Y549492D01*
X201359Y549490D01*
X201472Y549484D01*
X201585Y549474D01*
X201698Y549460D01*
X201810Y549443D01*
X201921Y549421D01*
X202031Y549396D01*
X202141Y549366D01*
X202249Y549333D01*
X202356Y549296D01*
X202462Y549256D01*
X202566Y549211D01*
X202669Y549163D01*
X202770Y549112D01*
X202869Y549057D01*
X202966Y548999D01*
X203061Y548937D01*
X203154Y548872D01*
X203244Y548804D01*
X203332Y548733D01*
X203418Y548658D01*
X203501Y548581D01*
X203581Y548501D01*
X203658Y548418D01*
X203733Y548332D01*
X203804Y548244D01*
X203872Y548154D01*
X203937Y548061D01*
X203999Y547966D01*
X204057Y547869D01*
X204112Y547770D01*
X204163Y547669D01*
X204211Y547566D01*
X204256Y547462D01*
X204296Y547356D01*
X204333Y547249D01*
X204366Y547141D01*
X204396Y547031D01*
X204421Y546921D01*
X204443Y546810D01*
X204460Y546698D01*
X204474Y546585D01*
X204484Y546472D01*
X204490Y546359D01*
X204492Y546246D01*
X204492Y541054D01*
X204490Y540941D01*
X204484Y540828D01*
X204474Y540715D01*
X204460Y540602D01*
X204443Y540490D01*
X204421Y540379D01*
X204396Y540269D01*
X204366Y540159D01*
X204333Y540051D01*
X204296Y539944D01*
X204256Y539838D01*
X204211Y539734D01*
X204163Y539631D01*
X204112Y539530D01*
X204057Y539431D01*
X203999Y539334D01*
X203937Y539239D01*
X203872Y539146D01*
X203804Y539056D01*
X203733Y538968D01*
X203658Y538882D01*
X203581Y538799D01*
X203501Y538719D01*
X203418Y538642D01*
X203332Y538567D01*
X203244Y538496D01*
X203154Y538428D01*
X203061Y538363D01*
X202966Y538301D01*
X202869Y538243D01*
X202770Y538188D01*
X202669Y538137D01*
X202566Y538089D01*
X202462Y538044D01*
X202356Y538004D01*
X202249Y537967D01*
X202141Y537934D01*
X202031Y537904D01*
X201921Y537879D01*
X201810Y537857D01*
X201698Y537840D01*
X201585Y537826D01*
X201472Y537816D01*
X201359Y537810D01*
X201246Y537808D01*
X198001Y537808D01*
X108492Y112508D02*
X96808Y112508D01*
X96808Y115754D01*
X96810Y115867D01*
X96816Y115980D01*
X96826Y116093D01*
X96840Y116206D01*
X96857Y116318D01*
X96879Y116429D01*
X96904Y116539D01*
X96934Y116649D01*
X96967Y116757D01*
X97004Y116864D01*
X97044Y116970D01*
X97089Y117074D01*
X97137Y117177D01*
X97188Y117278D01*
X97243Y117377D01*
X97301Y117474D01*
X97363Y117569D01*
X97428Y117662D01*
X97496Y117752D01*
X97567Y117840D01*
X97642Y117926D01*
X97719Y118009D01*
X97799Y118089D01*
X97882Y118166D01*
X97968Y118241D01*
X98056Y118312D01*
X98146Y118380D01*
X98239Y118445D01*
X98334Y118507D01*
X98431Y118565D01*
X98530Y118620D01*
X98631Y118671D01*
X98734Y118719D01*
X98838Y118764D01*
X98944Y118804D01*
X99051Y118841D01*
X99159Y118874D01*
X99269Y118904D01*
X99379Y118929D01*
X99490Y118951D01*
X99602Y118968D01*
X99715Y118982D01*
X99828Y118992D01*
X99941Y118998D01*
X100054Y119000D01*
X100167Y118998D01*
X100280Y118992D01*
X100393Y118982D01*
X100506Y118968D01*
X100618Y118951D01*
X100729Y118929D01*
X100839Y118904D01*
X100949Y118874D01*
X101057Y118841D01*
X101164Y118804D01*
X101270Y118764D01*
X101374Y118719D01*
X101477Y118671D01*
X101578Y118620D01*
X101677Y118565D01*
X101774Y118507D01*
X101869Y118445D01*
X101962Y118380D01*
X102052Y118312D01*
X102140Y118241D01*
X102226Y118166D01*
X102309Y118089D01*
X102389Y118009D01*
X102466Y117926D01*
X102541Y117840D01*
X102612Y117752D01*
X102680Y117662D01*
X102745Y117569D01*
X102807Y117474D01*
X102865Y117377D01*
X102920Y117278D01*
X102971Y117177D01*
X103019Y117074D01*
X103064Y116970D01*
X103104Y116864D01*
X103141Y116757D01*
X103174Y116649D01*
X103204Y116539D01*
X103229Y116429D01*
X103251Y116318D01*
X103268Y116206D01*
X103282Y116093D01*
X103292Y115980D01*
X103298Y115867D01*
X103300Y115754D01*
X103299Y115754D02*
X103299Y112508D01*
X103299Y123275D02*
X105896Y123275D01*
X103299Y123275D02*
X103198Y123277D01*
X103098Y123283D01*
X102998Y123293D01*
X102898Y123306D01*
X102799Y123324D01*
X102700Y123345D01*
X102603Y123370D01*
X102506Y123399D01*
X102411Y123432D01*
X102317Y123468D01*
X102225Y123508D01*
X102134Y123551D01*
X102045Y123598D01*
X101958Y123648D01*
X101872Y123702D01*
X101789Y123759D01*
X101709Y123819D01*
X101630Y123882D01*
X101554Y123949D01*
X101481Y124018D01*
X101411Y124090D01*
X101343Y124164D01*
X101278Y124241D01*
X101217Y124321D01*
X101158Y124403D01*
X101103Y124487D01*
X101051Y124573D01*
X101002Y124661D01*
X100957Y124751D01*
X100915Y124843D01*
X100877Y124936D01*
X100843Y125031D01*
X100812Y125126D01*
X100785Y125223D01*
X100762Y125321D01*
X100742Y125420D01*
X100727Y125520D01*
X100715Y125620D01*
X100707Y125720D01*
X100703Y125821D01*
X100703Y125921D01*
X100707Y126022D01*
X100715Y126122D01*
X100727Y126222D01*
X100742Y126322D01*
X100762Y126421D01*
X100785Y126519D01*
X100812Y126616D01*
X100843Y126711D01*
X100877Y126806D01*
X100915Y126899D01*
X100957Y126991D01*
X101002Y127081D01*
X101051Y127169D01*
X101103Y127255D01*
X101158Y127339D01*
X101217Y127421D01*
X101278Y127501D01*
X101343Y127578D01*
X101411Y127652D01*
X101481Y127724D01*
X101554Y127793D01*
X101630Y127860D01*
X101709Y127923D01*
X101789Y127983D01*
X101872Y128040D01*
X101958Y128094D01*
X102045Y128144D01*
X102134Y128191D01*
X102225Y128234D01*
X102317Y128274D01*
X102411Y128310D01*
X102506Y128343D01*
X102603Y128372D01*
X102700Y128397D01*
X102799Y128418D01*
X102898Y128436D01*
X102998Y128449D01*
X103098Y128459D01*
X103198Y128465D01*
X103299Y128467D01*
X103299Y128468D02*
X105896Y128468D01*
X105896Y128467D02*
X105997Y128465D01*
X106097Y128459D01*
X106197Y128449D01*
X106297Y128436D01*
X106396Y128418D01*
X106495Y128397D01*
X106592Y128372D01*
X106689Y128343D01*
X106784Y128310D01*
X106878Y128274D01*
X106970Y128234D01*
X107061Y128191D01*
X107150Y128144D01*
X107237Y128094D01*
X107323Y128040D01*
X107406Y127983D01*
X107486Y127923D01*
X107565Y127860D01*
X107641Y127793D01*
X107714Y127724D01*
X107784Y127652D01*
X107852Y127578D01*
X107917Y127501D01*
X107978Y127421D01*
X108037Y127339D01*
X108092Y127255D01*
X108144Y127169D01*
X108193Y127081D01*
X108238Y126991D01*
X108280Y126899D01*
X108318Y126806D01*
X108352Y126711D01*
X108383Y126616D01*
X108410Y126519D01*
X108433Y126421D01*
X108453Y126322D01*
X108468Y126222D01*
X108480Y126122D01*
X108488Y126022D01*
X108492Y125921D01*
X108492Y125821D01*
X108488Y125720D01*
X108480Y125620D01*
X108468Y125520D01*
X108453Y125420D01*
X108433Y125321D01*
X108410Y125223D01*
X108383Y125126D01*
X108352Y125031D01*
X108318Y124936D01*
X108280Y124843D01*
X108238Y124751D01*
X108193Y124661D01*
X108144Y124573D01*
X108092Y124487D01*
X108037Y124403D01*
X107978Y124321D01*
X107917Y124241D01*
X107852Y124164D01*
X107784Y124090D01*
X107714Y124018D01*
X107641Y123949D01*
X107565Y123882D01*
X107486Y123819D01*
X107406Y123759D01*
X107323Y123702D01*
X107237Y123648D01*
X107150Y123598D01*
X107061Y123551D01*
X106970Y123508D01*
X106878Y123468D01*
X106784Y123432D01*
X106689Y123399D01*
X106592Y123370D01*
X106495Y123345D01*
X106396Y123324D01*
X106297Y123306D01*
X106197Y123293D01*
X106097Y123283D01*
X105997Y123277D01*
X105896Y123275D01*
X100703Y133026D02*
X108492Y134973D01*
X103299Y136920D01*
X108492Y138868D01*
X100703Y140815D01*
X108492Y147320D02*
X108492Y150566D01*
X108492Y147320D02*
X108490Y147233D01*
X108484Y147145D01*
X108474Y147059D01*
X108461Y146972D01*
X108443Y146887D01*
X108422Y146802D01*
X108397Y146718D01*
X108368Y146636D01*
X108335Y146555D01*
X108299Y146475D01*
X108260Y146397D01*
X108216Y146321D01*
X108170Y146247D01*
X108120Y146176D01*
X108067Y146106D01*
X108011Y146039D01*
X107952Y145975D01*
X107890Y145913D01*
X107826Y145854D01*
X107759Y145798D01*
X107689Y145745D01*
X107618Y145695D01*
X107544Y145649D01*
X107468Y145605D01*
X107390Y145566D01*
X107310Y145530D01*
X107229Y145497D01*
X107147Y145468D01*
X107063Y145443D01*
X106978Y145422D01*
X106893Y145404D01*
X106806Y145391D01*
X106720Y145381D01*
X106632Y145375D01*
X106545Y145373D01*
X103299Y145373D01*
X103198Y145375D01*
X103098Y145381D01*
X102998Y145391D01*
X102898Y145404D01*
X102799Y145422D01*
X102700Y145443D01*
X102603Y145468D01*
X102506Y145497D01*
X102411Y145530D01*
X102317Y145566D01*
X102225Y145606D01*
X102134Y145649D01*
X102045Y145696D01*
X101958Y145746D01*
X101872Y145800D01*
X101789Y145857D01*
X101709Y145917D01*
X101630Y145980D01*
X101554Y146047D01*
X101481Y146116D01*
X101411Y146188D01*
X101343Y146262D01*
X101278Y146339D01*
X101217Y146419D01*
X101158Y146501D01*
X101103Y146585D01*
X101051Y146671D01*
X101002Y146759D01*
X100957Y146849D01*
X100915Y146941D01*
X100877Y147034D01*
X100843Y147129D01*
X100812Y147224D01*
X100785Y147321D01*
X100762Y147419D01*
X100742Y147518D01*
X100727Y147618D01*
X100715Y147718D01*
X100707Y147818D01*
X100703Y147919D01*
X100703Y148019D01*
X100707Y148120D01*
X100715Y148220D01*
X100727Y148320D01*
X100742Y148420D01*
X100762Y148519D01*
X100785Y148617D01*
X100812Y148714D01*
X100843Y148809D01*
X100877Y148904D01*
X100915Y148997D01*
X100957Y149089D01*
X101002Y149179D01*
X101051Y149267D01*
X101103Y149353D01*
X101158Y149437D01*
X101217Y149519D01*
X101278Y149599D01*
X101343Y149676D01*
X101411Y149750D01*
X101481Y149822D01*
X101554Y149891D01*
X101630Y149958D01*
X101709Y150021D01*
X101789Y150081D01*
X101872Y150138D01*
X101958Y150192D01*
X102045Y150242D01*
X102134Y150289D01*
X102225Y150332D01*
X102317Y150372D01*
X102411Y150408D01*
X102506Y150441D01*
X102603Y150470D01*
X102700Y150495D01*
X102799Y150516D01*
X102898Y150534D01*
X102998Y150547D01*
X103098Y150557D01*
X103198Y150563D01*
X103299Y150565D01*
X103299Y150566D02*
X104597Y150566D01*
X104597Y145373D01*
X108492Y155726D02*
X100703Y155726D01*
X100703Y159621D01*
X102001Y159621D01*
X96808Y170448D02*
X108492Y170448D01*
X108492Y169150D02*
X108492Y171746D01*
X96808Y171746D02*
X96808Y169150D01*
X96808Y176728D02*
X108492Y176728D01*
X108492Y183219D02*
X96808Y176728D01*
X96808Y183219D02*
X108492Y183219D01*
X179236Y47404D02*
X179234Y47305D01*
X179228Y47205D01*
X179219Y47106D01*
X179206Y47008D01*
X179189Y46910D01*
X179168Y46812D01*
X179143Y46716D01*
X179115Y46621D01*
X179083Y46527D01*
X179048Y46434D01*
X179009Y46342D01*
X178966Y46252D01*
X178921Y46164D01*
X178871Y46077D01*
X178819Y45993D01*
X178763Y45910D01*
X178705Y45830D01*
X178643Y45752D01*
X178578Y45677D01*
X178510Y45604D01*
X178440Y45534D01*
X178367Y45466D01*
X178292Y45401D01*
X178214Y45339D01*
X178134Y45281D01*
X178051Y45225D01*
X177967Y45173D01*
X177880Y45123D01*
X177792Y45078D01*
X177702Y45035D01*
X177610Y44996D01*
X177517Y44961D01*
X177423Y44929D01*
X177328Y44901D01*
X177232Y44876D01*
X177134Y44855D01*
X177036Y44838D01*
X176938Y44825D01*
X176839Y44816D01*
X176739Y44810D01*
X176640Y44808D01*
X176496Y44810D01*
X176351Y44816D01*
X176207Y44825D01*
X176064Y44838D01*
X175920Y44855D01*
X175777Y44876D01*
X175635Y44901D01*
X175494Y44929D01*
X175353Y44961D01*
X175213Y44997D01*
X175074Y45036D01*
X174936Y45079D01*
X174800Y45126D01*
X174664Y45176D01*
X174530Y45230D01*
X174398Y45287D01*
X174267Y45348D01*
X174138Y45412D01*
X174010Y45480D01*
X173884Y45550D01*
X173760Y45625D01*
X173639Y45702D01*
X173519Y45783D01*
X173401Y45866D01*
X173286Y45953D01*
X173173Y46043D01*
X173062Y46136D01*
X172954Y46231D01*
X172848Y46330D01*
X172745Y46431D01*
X173071Y53896D02*
X173073Y53995D01*
X173079Y54095D01*
X173088Y54194D01*
X173101Y54292D01*
X173118Y54390D01*
X173139Y54488D01*
X173164Y54584D01*
X173192Y54679D01*
X173224Y54773D01*
X173259Y54866D01*
X173298Y54958D01*
X173341Y55048D01*
X173386Y55136D01*
X173436Y55223D01*
X173488Y55307D01*
X173544Y55390D01*
X173602Y55470D01*
X173664Y55548D01*
X173729Y55623D01*
X173797Y55696D01*
X173867Y55766D01*
X173940Y55834D01*
X174015Y55899D01*
X174093Y55961D01*
X174173Y56019D01*
X174256Y56075D01*
X174340Y56127D01*
X174427Y56177D01*
X174515Y56222D01*
X174605Y56265D01*
X174697Y56304D01*
X174790Y56339D01*
X174884Y56371D01*
X174979Y56399D01*
X175076Y56424D01*
X175173Y56445D01*
X175271Y56462D01*
X175369Y56475D01*
X175468Y56484D01*
X175568Y56490D01*
X175667Y56492D01*
X175666Y56492D02*
X175802Y56490D01*
X175938Y56484D01*
X176074Y56475D01*
X176210Y56462D01*
X176345Y56444D01*
X176479Y56424D01*
X176613Y56399D01*
X176747Y56371D01*
X176879Y56338D01*
X177010Y56303D01*
X177141Y56263D01*
X177270Y56220D01*
X177398Y56174D01*
X177524Y56123D01*
X177650Y56070D01*
X177773Y56012D01*
X177895Y55952D01*
X178015Y55888D01*
X178134Y55820D01*
X178250Y55750D01*
X178364Y55676D01*
X178477Y55599D01*
X178587Y55518D01*
X174368Y51624D02*
X174282Y51677D01*
X174198Y51734D01*
X174116Y51793D01*
X174036Y51856D01*
X173959Y51922D01*
X173884Y51990D01*
X173812Y52062D01*
X173743Y52136D01*
X173677Y52213D01*
X173614Y52292D01*
X173554Y52374D01*
X173497Y52458D01*
X173443Y52544D01*
X173393Y52632D01*
X173346Y52722D01*
X173302Y52813D01*
X173263Y52907D01*
X173226Y53001D01*
X173194Y53097D01*
X173165Y53195D01*
X173140Y53293D01*
X173119Y53392D01*
X173101Y53492D01*
X173088Y53592D01*
X173078Y53693D01*
X173072Y53795D01*
X173070Y53896D01*
X177939Y49676D02*
X178025Y49623D01*
X178109Y49566D01*
X178191Y49507D01*
X178271Y49444D01*
X178348Y49378D01*
X178423Y49310D01*
X178495Y49238D01*
X178564Y49164D01*
X178630Y49087D01*
X178693Y49008D01*
X178753Y48926D01*
X178810Y48842D01*
X178864Y48756D01*
X178914Y48668D01*
X178961Y48578D01*
X179005Y48487D01*
X179044Y48393D01*
X179081Y48299D01*
X179113Y48203D01*
X179142Y48105D01*
X179167Y48007D01*
X179188Y47908D01*
X179206Y47808D01*
X179219Y47708D01*
X179229Y47607D01*
X179235Y47505D01*
X179237Y47404D01*
X177938Y49676D02*
X174368Y51624D01*
X184122Y52597D02*
X184122Y40913D01*
X184122Y52597D02*
X187367Y52597D01*
X187454Y52595D01*
X187542Y52589D01*
X187628Y52579D01*
X187715Y52566D01*
X187800Y52548D01*
X187885Y52527D01*
X187969Y52502D01*
X188051Y52473D01*
X188132Y52440D01*
X188212Y52404D01*
X188290Y52365D01*
X188366Y52321D01*
X188440Y52275D01*
X188511Y52225D01*
X188581Y52172D01*
X188648Y52116D01*
X188712Y52057D01*
X188774Y51996D01*
X188833Y51931D01*
X188889Y51864D01*
X188942Y51794D01*
X188992Y51723D01*
X189038Y51649D01*
X189082Y51573D01*
X189121Y51495D01*
X189157Y51415D01*
X189190Y51334D01*
X189219Y51252D01*
X189244Y51168D01*
X189265Y51083D01*
X189283Y50998D01*
X189296Y50911D01*
X189306Y50825D01*
X189312Y50737D01*
X189314Y50650D01*
X189314Y46755D01*
X189312Y46668D01*
X189306Y46580D01*
X189296Y46494D01*
X189283Y46407D01*
X189265Y46322D01*
X189244Y46237D01*
X189219Y46153D01*
X189190Y46071D01*
X189157Y45990D01*
X189121Y45910D01*
X189082Y45832D01*
X189038Y45756D01*
X188992Y45682D01*
X188942Y45611D01*
X188889Y45541D01*
X188833Y45474D01*
X188774Y45410D01*
X188712Y45348D01*
X188648Y45289D01*
X188581Y45233D01*
X188511Y45180D01*
X188440Y45130D01*
X188366Y45084D01*
X188290Y45040D01*
X188212Y45001D01*
X188132Y44965D01*
X188051Y44932D01*
X187969Y44903D01*
X187885Y44878D01*
X187800Y44857D01*
X187715Y44839D01*
X187628Y44826D01*
X187542Y44816D01*
X187454Y44810D01*
X187367Y44808D01*
X184122Y44808D01*
X195916Y44808D02*
X199161Y44808D01*
X195916Y44808D02*
X195829Y44810D01*
X195741Y44816D01*
X195655Y44826D01*
X195568Y44839D01*
X195483Y44857D01*
X195398Y44878D01*
X195314Y44903D01*
X195232Y44932D01*
X195151Y44965D01*
X195071Y45001D01*
X194993Y45040D01*
X194917Y45084D01*
X194843Y45130D01*
X194772Y45180D01*
X194702Y45233D01*
X194635Y45289D01*
X194571Y45348D01*
X194509Y45410D01*
X194450Y45474D01*
X194394Y45541D01*
X194341Y45611D01*
X194291Y45682D01*
X194245Y45756D01*
X194201Y45832D01*
X194162Y45910D01*
X194126Y45990D01*
X194093Y46071D01*
X194064Y46153D01*
X194039Y46237D01*
X194018Y46322D01*
X194000Y46407D01*
X193987Y46494D01*
X193977Y46580D01*
X193971Y46668D01*
X193969Y46755D01*
X193969Y50001D01*
X193971Y50102D01*
X193977Y50202D01*
X193987Y50302D01*
X194000Y50402D01*
X194018Y50501D01*
X194039Y50600D01*
X194064Y50697D01*
X194093Y50794D01*
X194126Y50889D01*
X194162Y50983D01*
X194202Y51075D01*
X194245Y51166D01*
X194292Y51255D01*
X194342Y51342D01*
X194396Y51428D01*
X194453Y51511D01*
X194513Y51591D01*
X194576Y51670D01*
X194643Y51746D01*
X194712Y51819D01*
X194784Y51889D01*
X194858Y51957D01*
X194935Y52022D01*
X195015Y52083D01*
X195097Y52142D01*
X195181Y52197D01*
X195267Y52249D01*
X195355Y52298D01*
X195445Y52343D01*
X195537Y52385D01*
X195630Y52423D01*
X195725Y52457D01*
X195820Y52488D01*
X195917Y52515D01*
X196015Y52538D01*
X196114Y52558D01*
X196214Y52573D01*
X196314Y52585D01*
X196414Y52593D01*
X196515Y52597D01*
X196615Y52597D01*
X196716Y52593D01*
X196816Y52585D01*
X196916Y52573D01*
X197016Y52558D01*
X197115Y52538D01*
X197213Y52515D01*
X197310Y52488D01*
X197405Y52457D01*
X197500Y52423D01*
X197593Y52385D01*
X197685Y52343D01*
X197775Y52298D01*
X197863Y52249D01*
X197949Y52197D01*
X198033Y52142D01*
X198115Y52083D01*
X198195Y52022D01*
X198272Y51957D01*
X198346Y51889D01*
X198418Y51819D01*
X198487Y51746D01*
X198554Y51670D01*
X198617Y51591D01*
X198677Y51511D01*
X198734Y51428D01*
X198788Y51342D01*
X198838Y51255D01*
X198885Y51166D01*
X198928Y51075D01*
X198968Y50983D01*
X199004Y50889D01*
X199037Y50794D01*
X199066Y50697D01*
X199091Y50600D01*
X199112Y50501D01*
X199130Y50402D01*
X199143Y50302D01*
X199153Y50202D01*
X199159Y50102D01*
X199161Y50001D01*
X199161Y48703D01*
X193969Y48703D01*
X206088Y49352D02*
X209009Y49352D01*
X206088Y49352D02*
X205994Y49350D01*
X205900Y49344D01*
X205807Y49335D01*
X205714Y49321D01*
X205622Y49304D01*
X205530Y49282D01*
X205440Y49258D01*
X205350Y49229D01*
X205262Y49197D01*
X205175Y49161D01*
X205090Y49121D01*
X205007Y49078D01*
X204925Y49032D01*
X204845Y48982D01*
X204768Y48929D01*
X204693Y48873D01*
X204620Y48814D01*
X204549Y48752D01*
X204481Y48687D01*
X204416Y48619D01*
X204354Y48548D01*
X204295Y48475D01*
X204239Y48400D01*
X204186Y48323D01*
X204136Y48243D01*
X204090Y48161D01*
X204047Y48078D01*
X204007Y47993D01*
X203971Y47906D01*
X203939Y47818D01*
X203910Y47728D01*
X203886Y47638D01*
X203864Y47546D01*
X203847Y47454D01*
X203833Y47361D01*
X203824Y47268D01*
X203818Y47174D01*
X203816Y47080D01*
X203818Y46986D01*
X203824Y46892D01*
X203833Y46799D01*
X203847Y46706D01*
X203864Y46614D01*
X203886Y46522D01*
X203910Y46432D01*
X203939Y46342D01*
X203971Y46254D01*
X204007Y46167D01*
X204047Y46082D01*
X204090Y45999D01*
X204136Y45917D01*
X204186Y45837D01*
X204239Y45760D01*
X204295Y45685D01*
X204354Y45612D01*
X204416Y45541D01*
X204481Y45473D01*
X204549Y45408D01*
X204620Y45346D01*
X204693Y45287D01*
X204768Y45231D01*
X204845Y45178D01*
X204925Y45128D01*
X205007Y45082D01*
X205090Y45039D01*
X205175Y44999D01*
X205262Y44963D01*
X205350Y44931D01*
X205440Y44902D01*
X205530Y44878D01*
X205622Y44856D01*
X205714Y44839D01*
X205807Y44825D01*
X205900Y44816D01*
X205994Y44810D01*
X206088Y44808D01*
X209009Y44808D01*
X209009Y50650D01*
X209008Y50650D02*
X209006Y50737D01*
X209000Y50825D01*
X208990Y50911D01*
X208977Y50998D01*
X208959Y51083D01*
X208938Y51168D01*
X208913Y51252D01*
X208884Y51334D01*
X208851Y51415D01*
X208815Y51495D01*
X208776Y51573D01*
X208732Y51649D01*
X208686Y51723D01*
X208636Y51794D01*
X208583Y51864D01*
X208527Y51931D01*
X208468Y51995D01*
X208406Y52057D01*
X208342Y52116D01*
X208275Y52172D01*
X208205Y52225D01*
X208134Y52275D01*
X208060Y52321D01*
X207984Y52365D01*
X207906Y52404D01*
X207826Y52440D01*
X207745Y52473D01*
X207663Y52502D01*
X207579Y52527D01*
X207494Y52548D01*
X207409Y52566D01*
X207322Y52579D01*
X207236Y52589D01*
X207148Y52595D01*
X207061Y52597D01*
X204465Y52597D01*
X214678Y56492D02*
X214678Y44808D01*
X214678Y48703D02*
X219871Y52597D01*
X216950Y50325D02*
X219871Y44808D01*
X226015Y44808D02*
X229260Y44808D01*
X226015Y44808D02*
X225928Y44810D01*
X225840Y44816D01*
X225754Y44826D01*
X225667Y44839D01*
X225582Y44857D01*
X225497Y44878D01*
X225413Y44903D01*
X225331Y44932D01*
X225250Y44965D01*
X225170Y45001D01*
X225092Y45040D01*
X225016Y45084D01*
X224942Y45130D01*
X224871Y45180D01*
X224801Y45233D01*
X224734Y45289D01*
X224670Y45348D01*
X224608Y45410D01*
X224549Y45474D01*
X224493Y45541D01*
X224440Y45611D01*
X224390Y45682D01*
X224344Y45756D01*
X224300Y45832D01*
X224261Y45910D01*
X224225Y45990D01*
X224192Y46071D01*
X224163Y46153D01*
X224138Y46237D01*
X224117Y46322D01*
X224099Y46407D01*
X224086Y46494D01*
X224076Y46580D01*
X224070Y46668D01*
X224068Y46755D01*
X224068Y50001D01*
X224070Y50102D01*
X224076Y50202D01*
X224086Y50302D01*
X224099Y50402D01*
X224117Y50501D01*
X224138Y50600D01*
X224163Y50697D01*
X224192Y50794D01*
X224225Y50889D01*
X224261Y50983D01*
X224301Y51075D01*
X224344Y51166D01*
X224391Y51255D01*
X224441Y51342D01*
X224495Y51428D01*
X224552Y51511D01*
X224612Y51591D01*
X224675Y51670D01*
X224742Y51746D01*
X224811Y51819D01*
X224883Y51889D01*
X224957Y51957D01*
X225034Y52022D01*
X225114Y52083D01*
X225196Y52142D01*
X225280Y52197D01*
X225366Y52249D01*
X225454Y52298D01*
X225544Y52343D01*
X225636Y52385D01*
X225729Y52423D01*
X225824Y52457D01*
X225919Y52488D01*
X226016Y52515D01*
X226114Y52538D01*
X226213Y52558D01*
X226313Y52573D01*
X226413Y52585D01*
X226513Y52593D01*
X226614Y52597D01*
X226714Y52597D01*
X226815Y52593D01*
X226915Y52585D01*
X227015Y52573D01*
X227115Y52558D01*
X227214Y52538D01*
X227312Y52515D01*
X227409Y52488D01*
X227504Y52457D01*
X227599Y52423D01*
X227692Y52385D01*
X227784Y52343D01*
X227874Y52298D01*
X227962Y52249D01*
X228048Y52197D01*
X228132Y52142D01*
X228214Y52083D01*
X228294Y52022D01*
X228371Y51957D01*
X228445Y51889D01*
X228517Y51819D01*
X228586Y51746D01*
X228653Y51670D01*
X228716Y51591D01*
X228776Y51511D01*
X228833Y51428D01*
X228887Y51342D01*
X228937Y51255D01*
X228984Y51166D01*
X229027Y51075D01*
X229067Y50983D01*
X229103Y50889D01*
X229136Y50794D01*
X229165Y50697D01*
X229190Y50600D01*
X229211Y50501D01*
X229229Y50402D01*
X229242Y50302D01*
X229252Y50202D01*
X229258Y50102D01*
X229260Y50001D01*
X229260Y48703D01*
X224068Y48703D01*
X234421Y44808D02*
X234421Y52597D01*
X238316Y52597D01*
X238316Y51299D01*
X242948Y49352D02*
X246194Y48054D01*
X242948Y49351D02*
X242873Y49384D01*
X242799Y49420D01*
X242727Y49459D01*
X242657Y49502D01*
X242590Y49548D01*
X242524Y49598D01*
X242462Y49650D01*
X242401Y49706D01*
X242344Y49764D01*
X242289Y49825D01*
X242238Y49889D01*
X242190Y49955D01*
X242145Y50024D01*
X242103Y50094D01*
X242065Y50167D01*
X242030Y50241D01*
X241999Y50317D01*
X241972Y50394D01*
X241949Y50473D01*
X241929Y50552D01*
X241914Y50633D01*
X241902Y50714D01*
X241894Y50796D01*
X241890Y50877D01*
X241891Y50959D01*
X241895Y51041D01*
X241903Y51123D01*
X241915Y51204D01*
X241931Y51284D01*
X241951Y51364D01*
X241975Y51442D01*
X242003Y51519D01*
X242034Y51595D01*
X242069Y51669D01*
X242107Y51741D01*
X242149Y51812D01*
X242195Y51880D01*
X242243Y51946D01*
X242295Y52009D01*
X242350Y52070D01*
X242408Y52128D01*
X242468Y52184D01*
X242531Y52236D01*
X242597Y52285D01*
X242665Y52331D01*
X242735Y52373D01*
X242807Y52413D01*
X242881Y52448D01*
X242956Y52480D01*
X243033Y52508D01*
X243111Y52532D01*
X243191Y52553D01*
X243271Y52570D01*
X243352Y52582D01*
X243433Y52591D01*
X243515Y52596D01*
X243597Y52597D01*
X243774Y52593D01*
X243951Y52584D01*
X244128Y52570D01*
X244305Y52553D01*
X244480Y52531D01*
X244656Y52506D01*
X244830Y52475D01*
X245004Y52441D01*
X245177Y52403D01*
X245349Y52360D01*
X245520Y52313D01*
X245690Y52263D01*
X245859Y52208D01*
X246026Y52149D01*
X246191Y52086D01*
X246356Y52019D01*
X246518Y51948D01*
X246194Y48054D02*
X246269Y48021D01*
X246343Y47985D01*
X246415Y47946D01*
X246485Y47903D01*
X246552Y47857D01*
X246618Y47807D01*
X246680Y47755D01*
X246741Y47699D01*
X246798Y47641D01*
X246853Y47580D01*
X246904Y47516D01*
X246952Y47450D01*
X246997Y47381D01*
X247039Y47311D01*
X247077Y47238D01*
X247112Y47164D01*
X247143Y47088D01*
X247170Y47011D01*
X247193Y46932D01*
X247213Y46853D01*
X247228Y46772D01*
X247240Y46691D01*
X247248Y46609D01*
X247252Y46528D01*
X247251Y46446D01*
X247247Y46364D01*
X247239Y46282D01*
X247227Y46201D01*
X247211Y46121D01*
X247191Y46041D01*
X247167Y45963D01*
X247139Y45886D01*
X247108Y45810D01*
X247073Y45736D01*
X247035Y45664D01*
X246993Y45593D01*
X246947Y45525D01*
X246899Y45459D01*
X246847Y45396D01*
X246792Y45335D01*
X246734Y45277D01*
X246674Y45221D01*
X246611Y45169D01*
X246545Y45120D01*
X246477Y45074D01*
X246407Y45032D01*
X246335Y44992D01*
X246261Y44957D01*
X246186Y44925D01*
X246109Y44897D01*
X246031Y44873D01*
X245951Y44852D01*
X245871Y44835D01*
X245790Y44823D01*
X245709Y44814D01*
X245627Y44809D01*
X245545Y44808D01*
X245285Y44815D01*
X245025Y44828D01*
X244765Y44847D01*
X244506Y44872D01*
X244247Y44904D01*
X243990Y44941D01*
X243733Y44985D01*
X243477Y45034D01*
X243223Y45090D01*
X242970Y45151D01*
X242719Y45219D01*
X242469Y45293D01*
X242221Y45372D01*
X241975Y45457D01*
D11*
X66040Y139700D02*
X63500Y142240D01*
X66040Y139700D02*
X63500Y137160D01*
X86360Y139700D02*
X88900Y142240D01*
X86360Y139700D02*
X88900Y137160D01*
X88900Y116840D01*
X86360Y114300D01*
X88900Y162560D02*
X86360Y165100D01*
X88900Y162560D02*
X88900Y142240D01*
X86360Y165100D02*
X66040Y165100D01*
X63500Y162560D01*
X63500Y142240D01*
X63500Y137160D02*
X63500Y116840D01*
X66040Y114300D01*
X86360Y114300D01*
X66040Y444500D02*
X63500Y447040D01*
X66040Y444500D02*
X63500Y441960D01*
X86360Y444500D02*
X88900Y447040D01*
X86360Y444500D02*
X88900Y441960D01*
X88900Y421640D01*
X86360Y419100D01*
X88900Y467360D02*
X86360Y469900D01*
X88900Y467360D02*
X88900Y447040D01*
X86360Y469900D02*
X66040Y469900D01*
X63500Y467360D01*
X63500Y447040D01*
X63500Y441960D02*
X63500Y421640D01*
X66040Y419100D01*
X86360Y419100D01*
X63500Y383540D02*
X66040Y381000D01*
X63500Y378460D01*
X86360Y381000D02*
X88900Y383540D01*
X86360Y381000D02*
X88900Y378460D01*
X88900Y358140D01*
X86360Y355600D01*
X88900Y403860D02*
X86360Y406400D01*
X88900Y403860D02*
X88900Y383540D01*
X86360Y406400D02*
X66040Y406400D01*
X63500Y403860D01*
X63500Y383540D01*
X63500Y378460D02*
X63500Y358140D01*
X66040Y355600D01*
X86360Y355600D01*
X63500Y320040D02*
X66040Y317500D01*
X63500Y314960D01*
X86360Y317500D02*
X88900Y320040D01*
X86360Y317500D02*
X88900Y314960D01*
X88900Y294640D01*
X86360Y292100D01*
X88900Y340360D02*
X86360Y342900D01*
X88900Y340360D02*
X88900Y320040D01*
X86360Y342900D02*
X66040Y342900D01*
X63500Y340360D01*
X63500Y320040D01*
X63500Y314960D02*
X63500Y294640D01*
X66040Y292100D01*
X86360Y292100D01*
X63500Y256540D02*
X66040Y254000D01*
X63500Y251460D01*
X86360Y254000D02*
X88900Y256540D01*
X86360Y254000D02*
X88900Y251460D01*
X88900Y231140D01*
X86360Y228600D01*
X88900Y276860D02*
X86360Y279400D01*
X88900Y276860D02*
X88900Y256540D01*
X86360Y279400D02*
X66040Y279400D01*
X63500Y276860D01*
X63500Y256540D01*
X63500Y251460D02*
X63500Y231140D01*
X66040Y228600D01*
X86360Y228600D01*
X228600Y66040D02*
X226060Y63500D01*
X228600Y66040D02*
X231140Y63500D01*
X228600Y86360D02*
X226060Y88900D01*
X228600Y86360D02*
X231140Y88900D01*
X251460Y88900D01*
X254000Y86360D01*
X205740Y88900D02*
X203200Y86360D01*
X205740Y88900D02*
X226060Y88900D01*
X203200Y86360D02*
X203200Y66040D01*
X205740Y63500D01*
X226060Y63500D01*
X231140Y63500D02*
X251460Y63500D01*
X254000Y66040D01*
X254000Y86360D01*
X177800Y510540D02*
X177800Y530860D01*
X231140Y533400D02*
X251460Y533400D01*
X231140Y533400D02*
X228600Y530860D01*
X231140Y508000D02*
X251460Y508000D01*
X231140Y508000D02*
X228600Y510540D01*
X251460Y508000D02*
X254000Y510540D01*
X254000Y530860D02*
X251460Y533400D01*
X254000Y530860D02*
X254000Y510540D01*
X228600Y530860D02*
X226060Y533400D01*
X205740Y533400D01*
X203200Y530860D01*
X200660Y533400D01*
X180340Y533400D02*
X177800Y530860D01*
X180340Y533400D02*
X200660Y533400D01*
X226060Y508000D02*
X228600Y510540D01*
X205740Y508000D02*
X203200Y510540D01*
X200660Y508000D01*
X180340Y508000D02*
X177800Y510540D01*
X205740Y508000D02*
X226060Y508000D01*
X200660Y508000D02*
X180340Y508000D01*
D12*
X191135Y501382D02*
X193534Y503301D01*
X193534Y494665D01*
X191135Y494665D02*
X195933Y494665D01*
X219174Y503301D02*
X219266Y503299D01*
X219357Y503293D01*
X219448Y503284D01*
X219539Y503270D01*
X219629Y503253D01*
X219718Y503231D01*
X219806Y503206D01*
X219893Y503178D01*
X219979Y503145D01*
X220063Y503109D01*
X220146Y503070D01*
X220227Y503027D01*
X220306Y502980D01*
X220383Y502931D01*
X220458Y502878D01*
X220530Y502822D01*
X220600Y502763D01*
X220668Y502701D01*
X220733Y502636D01*
X220795Y502568D01*
X220854Y502498D01*
X220910Y502426D01*
X220963Y502351D01*
X221012Y502274D01*
X221059Y502195D01*
X221102Y502114D01*
X221141Y502031D01*
X221177Y501947D01*
X221210Y501861D01*
X221238Y501774D01*
X221263Y501686D01*
X221285Y501597D01*
X221302Y501507D01*
X221316Y501416D01*
X221325Y501325D01*
X221331Y501234D01*
X221333Y501142D01*
X219174Y503301D02*
X219071Y503299D01*
X218969Y503293D01*
X218867Y503284D01*
X218765Y503271D01*
X218664Y503254D01*
X218563Y503233D01*
X218464Y503209D01*
X218365Y503180D01*
X218268Y503149D01*
X218171Y503113D01*
X218076Y503075D01*
X217983Y503032D01*
X217891Y502986D01*
X217801Y502937D01*
X217713Y502885D01*
X217626Y502829D01*
X217542Y502770D01*
X217461Y502709D01*
X217381Y502644D01*
X217304Y502576D01*
X217229Y502505D01*
X217158Y502432D01*
X217089Y502356D01*
X217022Y502278D01*
X216959Y502197D01*
X216899Y502114D01*
X216842Y502029D01*
X216788Y501942D01*
X216737Y501852D01*
X216690Y501761D01*
X216646Y501669D01*
X216605Y501574D01*
X216568Y501479D01*
X216535Y501382D01*
X220613Y499463D02*
X220680Y499529D01*
X220744Y499598D01*
X220805Y499669D01*
X220863Y499743D01*
X220918Y499819D01*
X220970Y499897D01*
X221019Y499977D01*
X221065Y500059D01*
X221107Y500143D01*
X221146Y500229D01*
X221181Y500316D01*
X221212Y500404D01*
X221240Y500494D01*
X221265Y500584D01*
X221286Y500676D01*
X221303Y500768D01*
X221316Y500861D01*
X221325Y500954D01*
X221331Y501048D01*
X221333Y501142D01*
X220613Y499463D02*
X216535Y494665D01*
X221333Y494665D01*
X241935Y494665D02*
X244334Y494665D01*
X244431Y494667D01*
X244527Y494673D01*
X244623Y494682D01*
X244719Y494696D01*
X244814Y494713D01*
X244908Y494735D01*
X245001Y494760D01*
X245094Y494788D01*
X245185Y494821D01*
X245274Y494857D01*
X245362Y494897D01*
X245449Y494940D01*
X245534Y494986D01*
X245616Y495036D01*
X245697Y495090D01*
X245775Y495146D01*
X245851Y495206D01*
X245925Y495268D01*
X245996Y495334D01*
X246064Y495402D01*
X246130Y495473D01*
X246192Y495547D01*
X246252Y495623D01*
X246308Y495701D01*
X246362Y495782D01*
X246412Y495865D01*
X246458Y495949D01*
X246501Y496036D01*
X246541Y496124D01*
X246577Y496213D01*
X246610Y496304D01*
X246638Y496397D01*
X246663Y496490D01*
X246685Y496584D01*
X246702Y496679D01*
X246716Y496775D01*
X246725Y496871D01*
X246731Y496967D01*
X246733Y497064D01*
X246731Y497161D01*
X246725Y497257D01*
X246716Y497353D01*
X246702Y497449D01*
X246685Y497544D01*
X246663Y497638D01*
X246638Y497731D01*
X246610Y497824D01*
X246577Y497915D01*
X246541Y498004D01*
X246501Y498092D01*
X246458Y498179D01*
X246412Y498264D01*
X246362Y498346D01*
X246308Y498427D01*
X246252Y498505D01*
X246192Y498581D01*
X246130Y498655D01*
X246064Y498726D01*
X245996Y498794D01*
X245925Y498860D01*
X245851Y498922D01*
X245775Y498982D01*
X245697Y499038D01*
X245616Y499092D01*
X245534Y499142D01*
X245449Y499188D01*
X245362Y499231D01*
X245274Y499271D01*
X245185Y499307D01*
X245094Y499340D01*
X245001Y499368D01*
X244908Y499393D01*
X244814Y499415D01*
X244719Y499432D01*
X244623Y499446D01*
X244527Y499455D01*
X244431Y499461D01*
X244334Y499463D01*
X244814Y503301D02*
X241935Y503301D01*
X244814Y503301D02*
X244900Y503299D01*
X244986Y503293D01*
X245072Y503284D01*
X245157Y503270D01*
X245241Y503253D01*
X245325Y503232D01*
X245407Y503207D01*
X245488Y503179D01*
X245568Y503147D01*
X245647Y503111D01*
X245723Y503072D01*
X245798Y503029D01*
X245871Y502984D01*
X245942Y502935D01*
X246010Y502882D01*
X246077Y502827D01*
X246140Y502769D01*
X246201Y502708D01*
X246259Y502645D01*
X246314Y502578D01*
X246367Y502510D01*
X246416Y502439D01*
X246461Y502366D01*
X246504Y502291D01*
X246543Y502215D01*
X246579Y502136D01*
X246611Y502056D01*
X246639Y501975D01*
X246664Y501893D01*
X246685Y501809D01*
X246702Y501725D01*
X246716Y501640D01*
X246725Y501554D01*
X246731Y501468D01*
X246733Y501382D01*
X246731Y501296D01*
X246725Y501210D01*
X246716Y501124D01*
X246702Y501039D01*
X246685Y500955D01*
X246664Y500871D01*
X246639Y500789D01*
X246611Y500708D01*
X246579Y500628D01*
X246543Y500549D01*
X246504Y500473D01*
X246461Y500398D01*
X246416Y500325D01*
X246367Y500254D01*
X246314Y500186D01*
X246259Y500119D01*
X246201Y500056D01*
X246140Y499995D01*
X246077Y499937D01*
X246010Y499882D01*
X245942Y499829D01*
X245871Y499780D01*
X245798Y499735D01*
X245723Y499692D01*
X245647Y499653D01*
X245568Y499617D01*
X245488Y499585D01*
X245407Y499557D01*
X245325Y499532D01*
X245241Y499511D01*
X245157Y499494D01*
X245072Y499480D01*
X244986Y499471D01*
X244900Y499465D01*
X244814Y499463D01*
X242895Y499463D01*
D13*
X215900Y127000D02*
X190500Y127000D01*
X190500Y114300D01*
X114300Y114300D01*
X114300Y469900D01*
X292100Y469900D01*
X292100Y114300D01*
X215900Y114300D01*
X215900Y127000D01*
D12*
X317500Y50800D02*
X495300Y50800D01*
X317500Y50800D02*
X317500Y533400D01*
X495300Y533400D01*
X495300Y50800D01*
D11*
X120350Y84000D02*
X114000Y84000D01*
X103840Y77650D02*
X103840Y90350D01*
X114000Y84000D01*
X98760Y84000D01*
X103840Y77650D02*
X114000Y84000D01*
X114000Y77650D01*
X114000Y84000D02*
X114000Y90350D01*
X93680Y73840D02*
X93580Y73842D01*
X93481Y73848D01*
X93381Y73858D01*
X93283Y73871D01*
X93184Y73889D01*
X93087Y73910D01*
X92991Y73935D01*
X92895Y73964D01*
X92801Y73997D01*
X92708Y74033D01*
X92617Y74073D01*
X92527Y74117D01*
X92439Y74164D01*
X92353Y74214D01*
X92269Y74268D01*
X92187Y74325D01*
X92108Y74385D01*
X92030Y74449D01*
X91956Y74515D01*
X91884Y74584D01*
X91815Y74656D01*
X91749Y74730D01*
X91685Y74808D01*
X91625Y74887D01*
X91568Y74969D01*
X91514Y75053D01*
X91464Y75139D01*
X91417Y75227D01*
X91373Y75317D01*
X91333Y75408D01*
X91297Y75501D01*
X91264Y75595D01*
X91235Y75691D01*
X91210Y75787D01*
X91189Y75884D01*
X91171Y75983D01*
X91158Y76081D01*
X91148Y76181D01*
X91142Y76280D01*
X91140Y76380D01*
X91140Y91620D01*
X91142Y91720D01*
X91148Y91819D01*
X91158Y91919D01*
X91171Y92017D01*
X91189Y92116D01*
X91210Y92213D01*
X91235Y92309D01*
X91264Y92405D01*
X91297Y92499D01*
X91333Y92592D01*
X91373Y92683D01*
X91417Y92773D01*
X91464Y92861D01*
X91514Y92947D01*
X91568Y93031D01*
X91625Y93113D01*
X91685Y93192D01*
X91749Y93270D01*
X91815Y93344D01*
X91884Y93416D01*
X91956Y93485D01*
X92030Y93551D01*
X92108Y93615D01*
X92187Y93675D01*
X92269Y93732D01*
X92353Y93786D01*
X92439Y93836D01*
X92527Y93883D01*
X92617Y93927D01*
X92708Y93967D01*
X92801Y94003D01*
X92895Y94036D01*
X92991Y94065D01*
X93087Y94090D01*
X93184Y94111D01*
X93283Y94129D01*
X93381Y94142D01*
X93481Y94152D01*
X93580Y94158D01*
X93680Y94160D01*
X134320Y73840D02*
X134420Y73842D01*
X134519Y73848D01*
X134619Y73858D01*
X134717Y73871D01*
X134816Y73889D01*
X134913Y73910D01*
X135009Y73935D01*
X135105Y73964D01*
X135199Y73997D01*
X135292Y74033D01*
X135383Y74073D01*
X135473Y74117D01*
X135561Y74164D01*
X135647Y74214D01*
X135731Y74268D01*
X135813Y74325D01*
X135892Y74385D01*
X135970Y74449D01*
X136044Y74515D01*
X136116Y74584D01*
X136185Y74656D01*
X136251Y74730D01*
X136315Y74808D01*
X136375Y74887D01*
X136432Y74969D01*
X136486Y75053D01*
X136536Y75139D01*
X136583Y75227D01*
X136627Y75317D01*
X136667Y75408D01*
X136703Y75501D01*
X136736Y75595D01*
X136765Y75691D01*
X136790Y75787D01*
X136811Y75884D01*
X136829Y75983D01*
X136842Y76081D01*
X136852Y76181D01*
X136858Y76280D01*
X136860Y76380D01*
X136860Y91620D02*
X136858Y91720D01*
X136852Y91819D01*
X136842Y91919D01*
X136829Y92017D01*
X136811Y92116D01*
X136790Y92213D01*
X136765Y92309D01*
X136736Y92405D01*
X136703Y92499D01*
X136667Y92592D01*
X136627Y92683D01*
X136583Y92773D01*
X136536Y92861D01*
X136486Y92947D01*
X136432Y93031D01*
X136375Y93113D01*
X136315Y93192D01*
X136251Y93270D01*
X136185Y93344D01*
X136116Y93416D01*
X136044Y93485D01*
X135970Y93551D01*
X135892Y93615D01*
X135813Y93675D01*
X135731Y93732D01*
X135647Y93786D01*
X135561Y93836D01*
X135473Y93883D01*
X135383Y93927D01*
X135292Y93967D01*
X135199Y94003D01*
X135105Y94036D01*
X135009Y94065D01*
X134913Y94090D01*
X134816Y94111D01*
X134717Y94129D01*
X134619Y94142D01*
X134519Y94152D01*
X134420Y94158D01*
X134320Y94160D01*
X93680Y94160D01*
X136860Y91620D02*
X136860Y76380D01*
X134320Y73840D02*
X93680Y73840D01*
D14*
X130510Y84000D03*
D15*
X87965Y84000D03*
X140035Y84000D03*
M02*
