G04 EAGLE Gerber RS-274X export*
G75*
%MOMM*%
%FSLAX34Y34*%
%LPD*%
%INSilkscreen Bottom*%
%IPPOS*%
%AMOC8*
5,1,8,0,0,1.08239X$1,22.5*%
G01*
%ADD10C,0.101600*%
%ADD11C,0.200000*%
%ADD12C,0.150000*%
%ADD13C,0.406400*%
%ADD14C,0.127000*%

G36*
X251095Y507014D02*
X251095Y507014D01*
X251191Y507019D01*
X251234Y507034D01*
X251279Y507041D01*
X251367Y507080D01*
X251458Y507112D01*
X251492Y507137D01*
X251536Y507157D01*
X251634Y507240D01*
X251707Y507293D01*
X254707Y510293D01*
X254725Y510318D01*
X254748Y510338D01*
X254783Y510391D01*
X254829Y510442D01*
X254849Y510483D01*
X254876Y510519D01*
X254888Y510552D01*
X254903Y510574D01*
X254919Y510629D01*
X254952Y510695D01*
X254958Y510737D01*
X254975Y510783D01*
X254978Y510822D01*
X254985Y510844D01*
X254986Y510915D01*
X254999Y511000D01*
X254999Y567000D01*
X254991Y567060D01*
X254991Y567084D01*
X254990Y567086D01*
X254991Y567128D01*
X254970Y567203D01*
X254959Y567279D01*
X254933Y567338D01*
X254916Y567400D01*
X254875Y567466D01*
X254843Y567536D01*
X254801Y567585D01*
X254768Y567640D01*
X254710Y567692D01*
X254660Y567750D01*
X254606Y567786D01*
X254558Y567829D01*
X254489Y567862D01*
X254424Y567905D01*
X254362Y567924D01*
X254305Y567952D01*
X254235Y567963D01*
X254154Y567987D01*
X254069Y567988D01*
X254000Y567999D01*
X229000Y567999D01*
X228936Y567990D01*
X228872Y567991D01*
X228797Y567970D01*
X228721Y567959D01*
X228662Y567933D01*
X228600Y567916D01*
X228534Y567875D01*
X228464Y567843D01*
X228415Y567801D01*
X228360Y567768D01*
X228308Y567710D01*
X228250Y567660D01*
X228214Y567606D01*
X228171Y567558D01*
X228138Y567489D01*
X228095Y567424D01*
X228076Y567362D01*
X228048Y567305D01*
X228037Y567235D01*
X228013Y567154D01*
X228012Y567069D01*
X228001Y567000D01*
X228001Y511000D01*
X228012Y510922D01*
X228011Y510870D01*
X228017Y510848D01*
X228019Y510809D01*
X228034Y510766D01*
X228041Y510721D01*
X228071Y510653D01*
X228086Y510598D01*
X228100Y510576D01*
X228112Y510542D01*
X228137Y510508D01*
X228157Y510464D01*
X228202Y510411D01*
X228235Y510358D01*
X228269Y510327D01*
X228293Y510293D01*
X231293Y507293D01*
X231370Y507236D01*
X231442Y507171D01*
X231483Y507151D01*
X231519Y507124D01*
X231609Y507090D01*
X231695Y507048D01*
X231737Y507042D01*
X231783Y507025D01*
X231911Y507015D01*
X232000Y507001D01*
X251000Y507001D01*
X251095Y507014D01*
G37*
G36*
X87518Y113271D02*
X87518Y113271D01*
X87536Y113269D01*
X87718Y113290D01*
X87901Y113309D01*
X87918Y113314D01*
X87935Y113316D01*
X88110Y113373D01*
X88286Y113427D01*
X88301Y113435D01*
X88318Y113441D01*
X88478Y113531D01*
X88640Y113619D01*
X88653Y113630D01*
X88669Y113639D01*
X88808Y113759D01*
X88949Y113876D01*
X88960Y113890D01*
X88974Y113902D01*
X89086Y114047D01*
X89201Y114190D01*
X89209Y114206D01*
X89220Y114220D01*
X89302Y114385D01*
X89387Y114547D01*
X89392Y114564D01*
X89400Y114581D01*
X89447Y114759D01*
X89498Y114934D01*
X89500Y114952D01*
X89504Y114969D01*
X89531Y115300D01*
X89531Y137700D01*
X89529Y137718D01*
X89531Y137736D01*
X89510Y137918D01*
X89491Y138101D01*
X89486Y138118D01*
X89484Y138135D01*
X89427Y138310D01*
X89373Y138486D01*
X89365Y138501D01*
X89359Y138518D01*
X89269Y138678D01*
X89181Y138840D01*
X89170Y138853D01*
X89161Y138869D01*
X89041Y139008D01*
X88924Y139149D01*
X88910Y139160D01*
X88898Y139174D01*
X88753Y139286D01*
X88610Y139401D01*
X88594Y139409D01*
X88580Y139420D01*
X88415Y139502D01*
X88253Y139587D01*
X88236Y139592D01*
X88220Y139600D01*
X88041Y139647D01*
X87866Y139698D01*
X87848Y139700D01*
X87831Y139704D01*
X87500Y139731D01*
X43100Y139731D01*
X43082Y139729D01*
X43064Y139731D01*
X42882Y139710D01*
X42699Y139691D01*
X42682Y139686D01*
X42665Y139684D01*
X42490Y139627D01*
X42314Y139573D01*
X42299Y139565D01*
X42282Y139559D01*
X42122Y139469D01*
X41960Y139381D01*
X41947Y139370D01*
X41931Y139361D01*
X41792Y139241D01*
X41651Y139124D01*
X41640Y139110D01*
X41627Y139098D01*
X41514Y138953D01*
X41399Y138810D01*
X41391Y138794D01*
X41380Y138780D01*
X41298Y138615D01*
X41213Y138453D01*
X41208Y138436D01*
X41200Y138420D01*
X41153Y138241D01*
X41102Y138066D01*
X41100Y138048D01*
X41096Y138031D01*
X41069Y137700D01*
X41069Y115300D01*
X41071Y115282D01*
X41069Y115264D01*
X41090Y115082D01*
X41109Y114899D01*
X41114Y114882D01*
X41116Y114865D01*
X41173Y114690D01*
X41227Y114514D01*
X41235Y114499D01*
X41241Y114482D01*
X41331Y114322D01*
X41419Y114160D01*
X41430Y114147D01*
X41439Y114131D01*
X41559Y113992D01*
X41676Y113851D01*
X41690Y113840D01*
X41702Y113827D01*
X41847Y113714D01*
X41990Y113599D01*
X42006Y113591D01*
X42020Y113580D01*
X42185Y113498D01*
X42347Y113413D01*
X42364Y113408D01*
X42381Y113400D01*
X42559Y113353D01*
X42734Y113302D01*
X42752Y113300D01*
X42769Y113296D01*
X43100Y113269D01*
X87500Y113269D01*
X87518Y113271D01*
G37*
G36*
X226618Y62471D02*
X226618Y62471D01*
X226636Y62469D01*
X226818Y62490D01*
X227001Y62509D01*
X227018Y62514D01*
X227035Y62516D01*
X227210Y62573D01*
X227386Y62627D01*
X227401Y62635D01*
X227418Y62641D01*
X227578Y62731D01*
X227740Y62819D01*
X227753Y62830D01*
X227769Y62839D01*
X227908Y62959D01*
X228049Y63076D01*
X228060Y63090D01*
X228074Y63102D01*
X228186Y63247D01*
X228301Y63390D01*
X228309Y63406D01*
X228320Y63420D01*
X228402Y63585D01*
X228487Y63747D01*
X228492Y63764D01*
X228500Y63781D01*
X228547Y63959D01*
X228598Y64134D01*
X228600Y64152D01*
X228604Y64169D01*
X228631Y64500D01*
X228631Y101600D01*
X228629Y101618D01*
X228631Y101636D01*
X228610Y101818D01*
X228591Y102001D01*
X228586Y102018D01*
X228584Y102035D01*
X228527Y102210D01*
X228473Y102386D01*
X228465Y102401D01*
X228459Y102418D01*
X228369Y102578D01*
X228281Y102740D01*
X228270Y102753D01*
X228261Y102769D01*
X228141Y102908D01*
X228024Y103049D01*
X228010Y103060D01*
X227998Y103074D01*
X227853Y103186D01*
X227710Y103301D01*
X227694Y103309D01*
X227680Y103320D01*
X227515Y103402D01*
X227353Y103487D01*
X227336Y103492D01*
X227320Y103500D01*
X227141Y103547D01*
X226966Y103598D01*
X226948Y103600D01*
X226931Y103604D01*
X226600Y103631D01*
X203200Y103631D01*
X203182Y103629D01*
X203164Y103631D01*
X202982Y103610D01*
X202799Y103591D01*
X202782Y103586D01*
X202765Y103584D01*
X202590Y103527D01*
X202414Y103473D01*
X202399Y103465D01*
X202382Y103459D01*
X202222Y103369D01*
X202060Y103281D01*
X202047Y103270D01*
X202031Y103261D01*
X201892Y103141D01*
X201751Y103024D01*
X201740Y103010D01*
X201727Y102998D01*
X201614Y102853D01*
X201499Y102710D01*
X201491Y102694D01*
X201480Y102680D01*
X201398Y102515D01*
X201313Y102353D01*
X201308Y102336D01*
X201300Y102320D01*
X201253Y102141D01*
X201202Y101966D01*
X201200Y101948D01*
X201196Y101931D01*
X201169Y101600D01*
X201169Y64500D01*
X201171Y64482D01*
X201169Y64464D01*
X201190Y64282D01*
X201209Y64099D01*
X201214Y64082D01*
X201216Y64065D01*
X201273Y63890D01*
X201327Y63714D01*
X201335Y63699D01*
X201341Y63682D01*
X201431Y63522D01*
X201519Y63360D01*
X201530Y63347D01*
X201539Y63331D01*
X201659Y63192D01*
X201776Y63051D01*
X201790Y63040D01*
X201802Y63027D01*
X201947Y62914D01*
X202090Y62799D01*
X202106Y62791D01*
X202120Y62780D01*
X202285Y62698D01*
X202447Y62613D01*
X202464Y62608D01*
X202481Y62600D01*
X202659Y62553D01*
X202834Y62502D01*
X202852Y62500D01*
X202869Y62496D01*
X203200Y62469D01*
X226600Y62469D01*
X226618Y62471D01*
G37*
G36*
X87095Y228014D02*
X87095Y228014D01*
X87191Y228019D01*
X87234Y228034D01*
X87279Y228041D01*
X87367Y228080D01*
X87458Y228112D01*
X87492Y228137D01*
X87536Y228157D01*
X87634Y228240D01*
X87707Y228293D01*
X89707Y230293D01*
X89725Y230319D01*
X89749Y230339D01*
X89784Y230392D01*
X89829Y230442D01*
X89849Y230483D01*
X89876Y230519D01*
X89888Y230551D01*
X89903Y230575D01*
X89921Y230632D01*
X89952Y230695D01*
X89958Y230737D01*
X89975Y230783D01*
X89978Y230820D01*
X89986Y230844D01*
X89987Y230920D01*
X89999Y231000D01*
X89999Y252000D01*
X89990Y252062D01*
X89991Y252111D01*
X89984Y252138D01*
X89981Y252191D01*
X89966Y252234D01*
X89959Y252279D01*
X89921Y252365D01*
X89916Y252382D01*
X89913Y252388D01*
X89888Y252458D01*
X89863Y252492D01*
X89843Y252536D01*
X89760Y252634D01*
X89707Y252707D01*
X87707Y254707D01*
X87630Y254764D01*
X87558Y254829D01*
X87517Y254849D01*
X87481Y254876D01*
X87391Y254910D01*
X87305Y254952D01*
X87263Y254958D01*
X87217Y254975D01*
X87090Y254985D01*
X87000Y254999D01*
X55000Y254999D01*
X54936Y254990D01*
X54872Y254991D01*
X54797Y254970D01*
X54721Y254959D01*
X54662Y254933D01*
X54600Y254916D01*
X54534Y254875D01*
X54464Y254843D01*
X54415Y254801D01*
X54360Y254768D01*
X54308Y254710D01*
X54250Y254660D01*
X54214Y254606D01*
X54171Y254558D01*
X54138Y254489D01*
X54095Y254424D01*
X54076Y254362D01*
X54048Y254305D01*
X54037Y254235D01*
X54013Y254154D01*
X54012Y254069D01*
X54001Y254000D01*
X54001Y229000D01*
X54010Y228936D01*
X54009Y228872D01*
X54030Y228797D01*
X54041Y228721D01*
X54067Y228662D01*
X54084Y228600D01*
X54125Y228534D01*
X54157Y228464D01*
X54199Y228415D01*
X54232Y228360D01*
X54290Y228308D01*
X54340Y228250D01*
X54394Y228214D01*
X54442Y228171D01*
X54511Y228138D01*
X54576Y228095D01*
X54638Y228076D01*
X54695Y228048D01*
X54765Y228037D01*
X54846Y228013D01*
X54931Y228012D01*
X55000Y228001D01*
X87000Y228001D01*
X87095Y228014D01*
G37*
G36*
X87095Y355014D02*
X87095Y355014D01*
X87191Y355019D01*
X87234Y355034D01*
X87279Y355041D01*
X87367Y355080D01*
X87458Y355112D01*
X87492Y355137D01*
X87536Y355157D01*
X87634Y355240D01*
X87707Y355293D01*
X89707Y357293D01*
X89725Y357319D01*
X89749Y357339D01*
X89784Y357392D01*
X89829Y357442D01*
X89849Y357483D01*
X89876Y357519D01*
X89888Y357551D01*
X89903Y357575D01*
X89921Y357632D01*
X89952Y357695D01*
X89958Y357737D01*
X89975Y357783D01*
X89978Y357820D01*
X89986Y357844D01*
X89987Y357920D01*
X89999Y358000D01*
X89999Y378000D01*
X89990Y378062D01*
X89991Y378111D01*
X89984Y378139D01*
X89981Y378191D01*
X89966Y378234D01*
X89959Y378279D01*
X89921Y378364D01*
X89916Y378383D01*
X89912Y378389D01*
X89888Y378458D01*
X89863Y378492D01*
X89843Y378536D01*
X89760Y378634D01*
X89707Y378707D01*
X86707Y381707D01*
X86630Y381764D01*
X86558Y381829D01*
X86517Y381849D01*
X86481Y381876D01*
X86391Y381910D01*
X86305Y381952D01*
X86263Y381958D01*
X86217Y381975D01*
X86090Y381985D01*
X86000Y381999D01*
X55000Y381999D01*
X54936Y381990D01*
X54872Y381991D01*
X54797Y381970D01*
X54721Y381959D01*
X54662Y381933D01*
X54600Y381916D01*
X54534Y381875D01*
X54464Y381843D01*
X54415Y381801D01*
X54360Y381768D01*
X54308Y381710D01*
X54250Y381660D01*
X54214Y381606D01*
X54171Y381558D01*
X54138Y381489D01*
X54095Y381424D01*
X54076Y381362D01*
X54048Y381305D01*
X54037Y381235D01*
X54013Y381154D01*
X54012Y381069D01*
X54001Y381000D01*
X54001Y356000D01*
X54010Y355936D01*
X54009Y355872D01*
X54030Y355797D01*
X54041Y355721D01*
X54067Y355662D01*
X54084Y355600D01*
X54125Y355534D01*
X54157Y355464D01*
X54199Y355415D01*
X54232Y355360D01*
X54290Y355308D01*
X54340Y355250D01*
X54394Y355214D01*
X54442Y355171D01*
X54511Y355138D01*
X54576Y355095D01*
X54638Y355076D01*
X54695Y355048D01*
X54765Y355037D01*
X54846Y355013D01*
X54931Y355012D01*
X55000Y355001D01*
X87000Y355001D01*
X87095Y355014D01*
G37*
G36*
X86095Y292014D02*
X86095Y292014D01*
X86191Y292019D01*
X86234Y292034D01*
X86279Y292041D01*
X86367Y292080D01*
X86458Y292112D01*
X86492Y292137D01*
X86536Y292157D01*
X86634Y292240D01*
X86707Y292293D01*
X88707Y294293D01*
X88725Y294319D01*
X88749Y294339D01*
X88784Y294392D01*
X88829Y294442D01*
X88849Y294483D01*
X88876Y294519D01*
X88888Y294551D01*
X88903Y294575D01*
X88921Y294632D01*
X88952Y294695D01*
X88958Y294737D01*
X88975Y294783D01*
X88978Y294820D01*
X88986Y294844D01*
X88987Y294920D01*
X88999Y295000D01*
X88999Y315000D01*
X88990Y315062D01*
X88991Y315111D01*
X88984Y315139D01*
X88981Y315191D01*
X88966Y315234D01*
X88959Y315279D01*
X88921Y315364D01*
X88916Y315383D01*
X88912Y315389D01*
X88888Y315458D01*
X88863Y315492D01*
X88843Y315536D01*
X88760Y315634D01*
X88707Y315707D01*
X86707Y317707D01*
X86630Y317764D01*
X86558Y317829D01*
X86517Y317849D01*
X86481Y317876D01*
X86391Y317910D01*
X86305Y317952D01*
X86263Y317958D01*
X86217Y317975D01*
X86090Y317985D01*
X86000Y317999D01*
X55000Y317999D01*
X54936Y317990D01*
X54872Y317991D01*
X54797Y317970D01*
X54721Y317959D01*
X54662Y317933D01*
X54600Y317916D01*
X54534Y317875D01*
X54464Y317843D01*
X54415Y317801D01*
X54360Y317768D01*
X54308Y317710D01*
X54250Y317660D01*
X54214Y317606D01*
X54171Y317558D01*
X54138Y317489D01*
X54095Y317424D01*
X54076Y317362D01*
X54048Y317305D01*
X54037Y317235D01*
X54013Y317154D01*
X54012Y317069D01*
X54001Y317000D01*
X54001Y293000D01*
X54010Y292936D01*
X54009Y292872D01*
X54030Y292797D01*
X54041Y292721D01*
X54067Y292662D01*
X54084Y292600D01*
X54125Y292534D01*
X54157Y292464D01*
X54199Y292415D01*
X54232Y292360D01*
X54290Y292308D01*
X54340Y292250D01*
X54394Y292214D01*
X54442Y292171D01*
X54511Y292138D01*
X54576Y292095D01*
X54638Y292076D01*
X54695Y292048D01*
X54765Y292037D01*
X54846Y292013D01*
X54931Y292012D01*
X55000Y292001D01*
X86000Y292001D01*
X86095Y292014D01*
G37*
G36*
X86095Y419014D02*
X86095Y419014D01*
X86191Y419019D01*
X86234Y419034D01*
X86279Y419041D01*
X86367Y419080D01*
X86458Y419112D01*
X86492Y419137D01*
X86536Y419157D01*
X86634Y419240D01*
X86707Y419293D01*
X88707Y421293D01*
X88725Y421319D01*
X88749Y421339D01*
X88784Y421392D01*
X88829Y421442D01*
X88849Y421483D01*
X88876Y421519D01*
X88888Y421551D01*
X88903Y421575D01*
X88921Y421632D01*
X88952Y421695D01*
X88958Y421737D01*
X88975Y421783D01*
X88978Y421820D01*
X88986Y421844D01*
X88987Y421920D01*
X88999Y422000D01*
X88999Y441000D01*
X88990Y441062D01*
X88991Y441112D01*
X88983Y441140D01*
X88981Y441191D01*
X88966Y441234D01*
X88959Y441279D01*
X88922Y441362D01*
X88916Y441384D01*
X88911Y441391D01*
X88888Y441458D01*
X88863Y441492D01*
X88843Y441536D01*
X88760Y441634D01*
X88707Y441707D01*
X85707Y444707D01*
X85630Y444764D01*
X85558Y444829D01*
X85517Y444849D01*
X85481Y444876D01*
X85391Y444910D01*
X85305Y444952D01*
X85263Y444958D01*
X85217Y444975D01*
X85090Y444985D01*
X85000Y444999D01*
X55000Y444999D01*
X54936Y444990D01*
X54872Y444991D01*
X54797Y444970D01*
X54721Y444959D01*
X54662Y444933D01*
X54600Y444916D01*
X54534Y444875D01*
X54464Y444843D01*
X54415Y444801D01*
X54360Y444768D01*
X54308Y444710D01*
X54250Y444660D01*
X54214Y444606D01*
X54171Y444558D01*
X54138Y444489D01*
X54095Y444424D01*
X54076Y444362D01*
X54048Y444305D01*
X54037Y444235D01*
X54013Y444154D01*
X54012Y444069D01*
X54001Y444000D01*
X54001Y420000D01*
X54010Y419936D01*
X54009Y419872D01*
X54030Y419797D01*
X54041Y419721D01*
X54067Y419662D01*
X54084Y419600D01*
X54125Y419534D01*
X54157Y419464D01*
X54199Y419415D01*
X54232Y419360D01*
X54290Y419308D01*
X54340Y419250D01*
X54394Y419214D01*
X54442Y419171D01*
X54511Y419138D01*
X54576Y419095D01*
X54638Y419076D01*
X54695Y419048D01*
X54765Y419037D01*
X54846Y419013D01*
X54931Y419012D01*
X55000Y419001D01*
X86000Y419001D01*
X86095Y419014D01*
G37*
D10*
X155709Y493122D02*
X155709Y504806D01*
X152464Y504806D01*
X152464Y504807D02*
X152351Y504805D01*
X152238Y504799D01*
X152125Y504789D01*
X152012Y504775D01*
X151900Y504758D01*
X151789Y504736D01*
X151679Y504711D01*
X151569Y504681D01*
X151461Y504648D01*
X151354Y504611D01*
X151248Y504571D01*
X151144Y504526D01*
X151041Y504478D01*
X150940Y504427D01*
X150841Y504372D01*
X150744Y504314D01*
X150649Y504252D01*
X150556Y504187D01*
X150466Y504119D01*
X150378Y504048D01*
X150292Y503973D01*
X150209Y503896D01*
X150129Y503816D01*
X150052Y503733D01*
X149977Y503647D01*
X149906Y503559D01*
X149838Y503469D01*
X149773Y503376D01*
X149711Y503281D01*
X149653Y503184D01*
X149598Y503085D01*
X149547Y502984D01*
X149499Y502881D01*
X149454Y502777D01*
X149414Y502671D01*
X149377Y502564D01*
X149344Y502456D01*
X149314Y502346D01*
X149289Y502236D01*
X149267Y502125D01*
X149250Y502013D01*
X149236Y501900D01*
X149226Y501787D01*
X149220Y501674D01*
X149218Y501561D01*
X149218Y496368D01*
X149220Y496255D01*
X149226Y496142D01*
X149236Y496029D01*
X149250Y495916D01*
X149267Y495804D01*
X149289Y495693D01*
X149314Y495583D01*
X149344Y495473D01*
X149377Y495365D01*
X149414Y495258D01*
X149454Y495152D01*
X149499Y495048D01*
X149547Y494945D01*
X149598Y494844D01*
X149653Y494745D01*
X149711Y494648D01*
X149773Y494553D01*
X149838Y494460D01*
X149906Y494370D01*
X149977Y494282D01*
X150052Y494196D01*
X150129Y494113D01*
X150209Y494033D01*
X150292Y493956D01*
X150378Y493881D01*
X150466Y493810D01*
X150556Y493742D01*
X150649Y493677D01*
X150744Y493615D01*
X150841Y493557D01*
X150940Y493502D01*
X151041Y493451D01*
X151144Y493403D01*
X151248Y493358D01*
X151354Y493318D01*
X151461Y493281D01*
X151569Y493248D01*
X151679Y493218D01*
X151789Y493193D01*
X151900Y493171D01*
X152012Y493154D01*
X152125Y493140D01*
X152238Y493130D01*
X152351Y493124D01*
X152464Y493122D01*
X155709Y493122D01*
X144547Y493122D02*
X140653Y504806D01*
X136758Y493122D01*
X137732Y496043D02*
X143574Y496043D01*
X129985Y493122D02*
X129985Y504806D01*
X133230Y504806D02*
X126739Y504806D01*
X148678Y515618D02*
X150625Y515618D01*
X148678Y515618D02*
X148678Y509127D01*
X152572Y509127D01*
X152572Y509128D02*
X152671Y509130D01*
X152771Y509136D01*
X152870Y509145D01*
X152968Y509158D01*
X153066Y509175D01*
X153164Y509196D01*
X153260Y509221D01*
X153355Y509249D01*
X153449Y509281D01*
X153542Y509316D01*
X153634Y509355D01*
X153724Y509398D01*
X153812Y509443D01*
X153899Y509493D01*
X153983Y509545D01*
X154066Y509601D01*
X154146Y509659D01*
X154224Y509721D01*
X154299Y509786D01*
X154372Y509854D01*
X154442Y509924D01*
X154510Y509997D01*
X154575Y510072D01*
X154637Y510150D01*
X154695Y510230D01*
X154751Y510313D01*
X154803Y510397D01*
X154853Y510484D01*
X154898Y510572D01*
X154941Y510662D01*
X154980Y510754D01*
X155015Y510847D01*
X155047Y510941D01*
X155075Y511036D01*
X155100Y511132D01*
X155121Y511230D01*
X155138Y511328D01*
X155151Y511426D01*
X155160Y511525D01*
X155166Y511625D01*
X155168Y511724D01*
X155169Y511724D02*
X155169Y518215D01*
X155168Y518215D02*
X155166Y518314D01*
X155160Y518414D01*
X155151Y518513D01*
X155138Y518611D01*
X155121Y518709D01*
X155100Y518807D01*
X155075Y518903D01*
X155047Y518998D01*
X155015Y519092D01*
X154980Y519185D01*
X154941Y519277D01*
X154898Y519367D01*
X154853Y519455D01*
X154803Y519542D01*
X154751Y519626D01*
X154695Y519709D01*
X154637Y519789D01*
X154575Y519867D01*
X154510Y519942D01*
X154442Y520015D01*
X154372Y520085D01*
X154299Y520153D01*
X154224Y520218D01*
X154146Y520280D01*
X154066Y520338D01*
X153983Y520394D01*
X153899Y520446D01*
X153812Y520496D01*
X153724Y520541D01*
X153634Y520584D01*
X153542Y520623D01*
X153449Y520658D01*
X153355Y520690D01*
X153260Y520718D01*
X153164Y520743D01*
X153066Y520764D01*
X152968Y520781D01*
X152870Y520794D01*
X152771Y520803D01*
X152671Y520809D01*
X152572Y520811D01*
X148678Y520811D01*
X142977Y520811D02*
X142977Y509127D01*
X136486Y509127D02*
X142977Y520811D01*
X136486Y520811D02*
X136486Y509127D01*
X130785Y509127D02*
X130785Y520811D01*
X127539Y520811D01*
X127539Y520812D02*
X127426Y520810D01*
X127313Y520804D01*
X127200Y520794D01*
X127087Y520780D01*
X126975Y520763D01*
X126864Y520741D01*
X126754Y520716D01*
X126644Y520686D01*
X126536Y520653D01*
X126429Y520616D01*
X126323Y520576D01*
X126219Y520531D01*
X126116Y520483D01*
X126015Y520432D01*
X125916Y520377D01*
X125819Y520319D01*
X125724Y520257D01*
X125631Y520192D01*
X125541Y520124D01*
X125453Y520053D01*
X125367Y519978D01*
X125284Y519901D01*
X125204Y519821D01*
X125127Y519738D01*
X125052Y519652D01*
X124981Y519564D01*
X124913Y519474D01*
X124848Y519381D01*
X124786Y519286D01*
X124728Y519189D01*
X124673Y519090D01*
X124622Y518989D01*
X124574Y518886D01*
X124529Y518782D01*
X124489Y518676D01*
X124452Y518569D01*
X124419Y518461D01*
X124389Y518351D01*
X124364Y518241D01*
X124342Y518130D01*
X124325Y518018D01*
X124311Y517905D01*
X124301Y517792D01*
X124295Y517679D01*
X124293Y517566D01*
X124294Y517566D02*
X124294Y512373D01*
X124293Y512373D02*
X124295Y512260D01*
X124301Y512147D01*
X124311Y512034D01*
X124325Y511921D01*
X124342Y511809D01*
X124364Y511698D01*
X124389Y511588D01*
X124419Y511478D01*
X124452Y511370D01*
X124489Y511263D01*
X124529Y511157D01*
X124574Y511053D01*
X124622Y510950D01*
X124673Y510849D01*
X124728Y510750D01*
X124786Y510653D01*
X124848Y510558D01*
X124913Y510465D01*
X124981Y510375D01*
X125052Y510287D01*
X125127Y510201D01*
X125204Y510118D01*
X125284Y510038D01*
X125367Y509961D01*
X125453Y509886D01*
X125541Y509815D01*
X125631Y509747D01*
X125724Y509682D01*
X125819Y509620D01*
X125916Y509562D01*
X126015Y509507D01*
X126116Y509456D01*
X126219Y509408D01*
X126323Y509363D01*
X126429Y509323D01*
X126536Y509286D01*
X126644Y509253D01*
X126754Y509223D01*
X126864Y509198D01*
X126975Y509176D01*
X127087Y509159D01*
X127200Y509145D01*
X127313Y509135D01*
X127426Y509129D01*
X127539Y509127D01*
X130785Y509127D01*
X205449Y445049D02*
X208695Y445049D01*
X205449Y445050D02*
X205336Y445048D01*
X205223Y445042D01*
X205110Y445032D01*
X204997Y445018D01*
X204885Y445001D01*
X204774Y444979D01*
X204664Y444954D01*
X204554Y444924D01*
X204446Y444891D01*
X204339Y444854D01*
X204233Y444814D01*
X204129Y444769D01*
X204026Y444721D01*
X203925Y444670D01*
X203826Y444615D01*
X203729Y444557D01*
X203634Y444495D01*
X203541Y444430D01*
X203451Y444362D01*
X203363Y444291D01*
X203277Y444216D01*
X203194Y444139D01*
X203114Y444059D01*
X203037Y443976D01*
X202962Y443890D01*
X202891Y443802D01*
X202823Y443712D01*
X202758Y443619D01*
X202696Y443524D01*
X202638Y443427D01*
X202583Y443328D01*
X202532Y443227D01*
X202484Y443124D01*
X202439Y443020D01*
X202399Y442914D01*
X202362Y442807D01*
X202329Y442699D01*
X202299Y442589D01*
X202274Y442479D01*
X202252Y442368D01*
X202235Y442256D01*
X202221Y442143D01*
X202211Y442030D01*
X202205Y441917D01*
X202203Y441804D01*
X202205Y441691D01*
X202211Y441578D01*
X202221Y441465D01*
X202235Y441352D01*
X202252Y441240D01*
X202274Y441129D01*
X202299Y441019D01*
X202329Y440909D01*
X202362Y440801D01*
X202399Y440694D01*
X202439Y440588D01*
X202484Y440484D01*
X202532Y440381D01*
X202583Y440280D01*
X202638Y440181D01*
X202696Y440084D01*
X202758Y439989D01*
X202823Y439896D01*
X202891Y439806D01*
X202962Y439718D01*
X203037Y439632D01*
X203114Y439549D01*
X203194Y439469D01*
X203277Y439392D01*
X203363Y439317D01*
X203451Y439246D01*
X203541Y439178D01*
X203634Y439113D01*
X203729Y439051D01*
X203826Y438993D01*
X203925Y438938D01*
X204026Y438887D01*
X204129Y438839D01*
X204233Y438794D01*
X204339Y438754D01*
X204446Y438717D01*
X204554Y438684D01*
X204664Y438654D01*
X204774Y438629D01*
X204885Y438607D01*
X204997Y438590D01*
X205110Y438576D01*
X205223Y438566D01*
X205336Y438560D01*
X205449Y438558D01*
X208695Y438558D01*
X208695Y450242D01*
X205449Y450242D01*
X205348Y450240D01*
X205248Y450234D01*
X205148Y450224D01*
X205048Y450211D01*
X204949Y450193D01*
X204850Y450172D01*
X204753Y450147D01*
X204656Y450118D01*
X204561Y450085D01*
X204467Y450049D01*
X204375Y450009D01*
X204284Y449966D01*
X204195Y449919D01*
X204108Y449869D01*
X204022Y449815D01*
X203939Y449758D01*
X203859Y449698D01*
X203780Y449635D01*
X203704Y449568D01*
X203631Y449499D01*
X203561Y449427D01*
X203493Y449353D01*
X203428Y449276D01*
X203367Y449196D01*
X203308Y449114D01*
X203253Y449030D01*
X203201Y448944D01*
X203152Y448856D01*
X203107Y448766D01*
X203065Y448674D01*
X203027Y448581D01*
X202993Y448486D01*
X202962Y448391D01*
X202935Y448294D01*
X202912Y448196D01*
X202892Y448097D01*
X202877Y447997D01*
X202865Y447897D01*
X202857Y447797D01*
X202853Y447696D01*
X202853Y447596D01*
X202857Y447495D01*
X202865Y447395D01*
X202877Y447295D01*
X202892Y447195D01*
X202912Y447096D01*
X202935Y446998D01*
X202962Y446901D01*
X202993Y446806D01*
X203027Y446711D01*
X203065Y446618D01*
X203107Y446526D01*
X203152Y446436D01*
X203201Y446348D01*
X203253Y446262D01*
X203308Y446178D01*
X203367Y446096D01*
X203428Y446016D01*
X203493Y445939D01*
X203561Y445865D01*
X203631Y445793D01*
X203704Y445724D01*
X203780Y445657D01*
X203859Y445594D01*
X203939Y445534D01*
X204022Y445477D01*
X204108Y445423D01*
X204195Y445373D01*
X204284Y445326D01*
X204375Y445283D01*
X204467Y445243D01*
X204561Y445207D01*
X204656Y445174D01*
X204753Y445145D01*
X204850Y445120D01*
X204949Y445099D01*
X205048Y445081D01*
X205148Y445068D01*
X205248Y445058D01*
X205348Y445052D01*
X205449Y445050D01*
X197547Y446347D02*
X197547Y440505D01*
X197545Y440418D01*
X197539Y440330D01*
X197529Y440244D01*
X197516Y440157D01*
X197498Y440072D01*
X197477Y439987D01*
X197452Y439903D01*
X197423Y439821D01*
X197390Y439740D01*
X197354Y439660D01*
X197315Y439582D01*
X197271Y439506D01*
X197225Y439432D01*
X197175Y439361D01*
X197122Y439291D01*
X197066Y439224D01*
X197007Y439160D01*
X196945Y439098D01*
X196881Y439039D01*
X196814Y438983D01*
X196744Y438930D01*
X196673Y438880D01*
X196599Y438834D01*
X196523Y438790D01*
X196445Y438751D01*
X196365Y438715D01*
X196284Y438682D01*
X196202Y438653D01*
X196118Y438628D01*
X196033Y438607D01*
X195948Y438589D01*
X195861Y438576D01*
X195775Y438566D01*
X195687Y438560D01*
X195600Y438558D01*
X192354Y438558D01*
X192354Y446347D01*
X188227Y446347D02*
X184333Y446347D01*
X186929Y450242D02*
X186929Y440505D01*
X186927Y440418D01*
X186921Y440330D01*
X186911Y440244D01*
X186898Y440157D01*
X186880Y440072D01*
X186859Y439987D01*
X186834Y439903D01*
X186805Y439821D01*
X186772Y439740D01*
X186736Y439660D01*
X186697Y439582D01*
X186653Y439506D01*
X186607Y439432D01*
X186557Y439361D01*
X186504Y439291D01*
X186448Y439224D01*
X186389Y439160D01*
X186327Y439098D01*
X186263Y439039D01*
X186196Y438983D01*
X186126Y438930D01*
X186055Y438880D01*
X185981Y438834D01*
X185905Y438790D01*
X185827Y438751D01*
X185747Y438715D01*
X185666Y438682D01*
X185584Y438653D01*
X185500Y438628D01*
X185415Y438607D01*
X185330Y438589D01*
X185243Y438576D01*
X185157Y438566D01*
X185069Y438560D01*
X184982Y438558D01*
X184333Y438558D01*
X180988Y446347D02*
X177094Y446347D01*
X179690Y450242D02*
X179690Y440505D01*
X179688Y440418D01*
X179682Y440330D01*
X179672Y440244D01*
X179659Y440157D01*
X179641Y440072D01*
X179620Y439987D01*
X179595Y439903D01*
X179566Y439821D01*
X179533Y439740D01*
X179497Y439660D01*
X179458Y439582D01*
X179414Y439506D01*
X179368Y439432D01*
X179318Y439361D01*
X179265Y439291D01*
X179209Y439224D01*
X179150Y439160D01*
X179088Y439098D01*
X179024Y439039D01*
X178957Y438983D01*
X178887Y438930D01*
X178816Y438880D01*
X178742Y438834D01*
X178666Y438790D01*
X178588Y438751D01*
X178508Y438715D01*
X178427Y438682D01*
X178345Y438653D01*
X178261Y438628D01*
X178176Y438607D01*
X178091Y438589D01*
X178004Y438576D01*
X177918Y438566D01*
X177830Y438560D01*
X177743Y438558D01*
X177094Y438558D01*
X172782Y441154D02*
X172782Y443751D01*
X172780Y443852D01*
X172774Y443952D01*
X172764Y444052D01*
X172751Y444152D01*
X172733Y444251D01*
X172712Y444350D01*
X172687Y444447D01*
X172658Y444544D01*
X172625Y444639D01*
X172589Y444733D01*
X172549Y444825D01*
X172506Y444916D01*
X172459Y445005D01*
X172409Y445092D01*
X172355Y445178D01*
X172298Y445261D01*
X172238Y445341D01*
X172175Y445420D01*
X172108Y445496D01*
X172039Y445569D01*
X171967Y445639D01*
X171893Y445707D01*
X171816Y445772D01*
X171736Y445833D01*
X171654Y445892D01*
X171570Y445947D01*
X171484Y445999D01*
X171396Y446048D01*
X171306Y446093D01*
X171214Y446135D01*
X171121Y446173D01*
X171026Y446207D01*
X170931Y446238D01*
X170834Y446265D01*
X170736Y446288D01*
X170637Y446308D01*
X170537Y446323D01*
X170437Y446335D01*
X170337Y446343D01*
X170236Y446347D01*
X170136Y446347D01*
X170035Y446343D01*
X169935Y446335D01*
X169835Y446323D01*
X169735Y446308D01*
X169636Y446288D01*
X169538Y446265D01*
X169441Y446238D01*
X169346Y446207D01*
X169251Y446173D01*
X169158Y446135D01*
X169066Y446093D01*
X168976Y446048D01*
X168888Y445999D01*
X168802Y445947D01*
X168718Y445892D01*
X168636Y445833D01*
X168556Y445772D01*
X168479Y445707D01*
X168405Y445639D01*
X168333Y445569D01*
X168264Y445496D01*
X168197Y445420D01*
X168134Y445341D01*
X168074Y445261D01*
X168017Y445178D01*
X167963Y445092D01*
X167913Y445005D01*
X167866Y444916D01*
X167823Y444825D01*
X167783Y444733D01*
X167747Y444639D01*
X167714Y444544D01*
X167685Y444447D01*
X167660Y444350D01*
X167639Y444251D01*
X167621Y444152D01*
X167608Y444052D01*
X167598Y443952D01*
X167592Y443852D01*
X167590Y443751D01*
X167589Y443751D02*
X167589Y441154D01*
X167590Y441154D02*
X167592Y441053D01*
X167598Y440953D01*
X167608Y440853D01*
X167621Y440753D01*
X167639Y440654D01*
X167660Y440555D01*
X167685Y440458D01*
X167714Y440361D01*
X167747Y440266D01*
X167783Y440172D01*
X167823Y440080D01*
X167866Y439989D01*
X167913Y439900D01*
X167963Y439813D01*
X168017Y439727D01*
X168074Y439644D01*
X168134Y439564D01*
X168197Y439485D01*
X168264Y439409D01*
X168333Y439336D01*
X168405Y439266D01*
X168479Y439198D01*
X168556Y439133D01*
X168636Y439072D01*
X168718Y439013D01*
X168802Y438958D01*
X168888Y438906D01*
X168976Y438857D01*
X169066Y438812D01*
X169158Y438770D01*
X169251Y438732D01*
X169346Y438698D01*
X169441Y438667D01*
X169538Y438640D01*
X169636Y438617D01*
X169735Y438597D01*
X169835Y438582D01*
X169935Y438570D01*
X170035Y438562D01*
X170136Y438558D01*
X170236Y438558D01*
X170337Y438562D01*
X170437Y438570D01*
X170537Y438582D01*
X170637Y438597D01*
X170736Y438617D01*
X170834Y438640D01*
X170931Y438667D01*
X171026Y438698D01*
X171121Y438732D01*
X171214Y438770D01*
X171306Y438812D01*
X171396Y438857D01*
X171484Y438906D01*
X171570Y438958D01*
X171654Y439013D01*
X171736Y439072D01*
X171816Y439133D01*
X171893Y439198D01*
X171967Y439266D01*
X172039Y439336D01*
X172108Y439409D01*
X172175Y439485D01*
X172238Y439564D01*
X172298Y439644D01*
X172355Y439727D01*
X172409Y439813D01*
X172459Y439900D01*
X172506Y439989D01*
X172549Y440080D01*
X172589Y440172D01*
X172625Y440266D01*
X172658Y440361D01*
X172687Y440458D01*
X172712Y440555D01*
X172733Y440654D01*
X172751Y440753D01*
X172764Y440853D01*
X172774Y440953D01*
X172780Y441053D01*
X172782Y441154D01*
X162495Y438558D02*
X162495Y446347D01*
X159249Y446347D01*
X159162Y446345D01*
X159074Y446339D01*
X158988Y446329D01*
X158901Y446316D01*
X158816Y446298D01*
X158731Y446277D01*
X158647Y446252D01*
X158565Y446223D01*
X158484Y446190D01*
X158404Y446154D01*
X158326Y446115D01*
X158250Y446071D01*
X158176Y446025D01*
X158105Y445975D01*
X158035Y445922D01*
X157968Y445866D01*
X157904Y445807D01*
X157842Y445746D01*
X157783Y445681D01*
X157727Y445614D01*
X157674Y445544D01*
X157624Y445473D01*
X157578Y445399D01*
X157535Y445323D01*
X157495Y445245D01*
X157459Y445165D01*
X157426Y445084D01*
X157397Y445002D01*
X157372Y444918D01*
X157351Y444833D01*
X157333Y444748D01*
X157320Y444661D01*
X157310Y444575D01*
X157304Y444487D01*
X157302Y444400D01*
X157302Y438558D01*
X145999Y447646D02*
X142754Y450242D01*
X142754Y438558D01*
X145999Y438558D02*
X139508Y438558D01*
X264625Y431192D02*
X264625Y419508D01*
X260731Y424701D02*
X264625Y431192D01*
X260731Y424701D02*
X256836Y431192D01*
X256836Y419508D01*
X251135Y421455D02*
X251135Y427297D01*
X251135Y421455D02*
X251133Y421368D01*
X251127Y421280D01*
X251117Y421194D01*
X251104Y421107D01*
X251086Y421022D01*
X251065Y420937D01*
X251040Y420853D01*
X251011Y420771D01*
X250978Y420690D01*
X250942Y420610D01*
X250903Y420532D01*
X250859Y420456D01*
X250813Y420382D01*
X250763Y420311D01*
X250710Y420241D01*
X250654Y420174D01*
X250595Y420110D01*
X250533Y420048D01*
X250469Y419989D01*
X250402Y419933D01*
X250332Y419880D01*
X250261Y419830D01*
X250187Y419784D01*
X250111Y419740D01*
X250033Y419701D01*
X249953Y419665D01*
X249872Y419632D01*
X249790Y419603D01*
X249706Y419578D01*
X249621Y419557D01*
X249536Y419539D01*
X249449Y419526D01*
X249363Y419516D01*
X249275Y419510D01*
X249188Y419508D01*
X245942Y419508D01*
X245942Y427297D01*
X239875Y424052D02*
X236629Y422754D01*
X239874Y424051D02*
X239949Y424084D01*
X240023Y424120D01*
X240095Y424159D01*
X240165Y424202D01*
X240232Y424248D01*
X240298Y424298D01*
X240360Y424350D01*
X240421Y424406D01*
X240478Y424464D01*
X240533Y424525D01*
X240584Y424589D01*
X240632Y424655D01*
X240677Y424724D01*
X240719Y424794D01*
X240757Y424867D01*
X240792Y424941D01*
X240823Y425017D01*
X240850Y425094D01*
X240873Y425173D01*
X240893Y425252D01*
X240908Y425333D01*
X240920Y425414D01*
X240928Y425496D01*
X240932Y425577D01*
X240931Y425659D01*
X240927Y425741D01*
X240919Y425823D01*
X240907Y425904D01*
X240891Y425984D01*
X240871Y426064D01*
X240847Y426142D01*
X240819Y426219D01*
X240788Y426295D01*
X240753Y426369D01*
X240715Y426441D01*
X240673Y426512D01*
X240627Y426580D01*
X240579Y426646D01*
X240527Y426709D01*
X240472Y426770D01*
X240414Y426828D01*
X240354Y426884D01*
X240291Y426936D01*
X240225Y426985D01*
X240157Y427031D01*
X240087Y427073D01*
X240015Y427113D01*
X239941Y427148D01*
X239866Y427180D01*
X239789Y427208D01*
X239711Y427232D01*
X239631Y427253D01*
X239551Y427270D01*
X239470Y427282D01*
X239389Y427291D01*
X239307Y427296D01*
X239225Y427297D01*
X239226Y427297D02*
X239049Y427293D01*
X238872Y427284D01*
X238695Y427270D01*
X238518Y427253D01*
X238343Y427231D01*
X238167Y427206D01*
X237993Y427175D01*
X237819Y427141D01*
X237646Y427103D01*
X237474Y427060D01*
X237303Y427013D01*
X237133Y426963D01*
X236964Y426908D01*
X236797Y426849D01*
X236632Y426786D01*
X236467Y426719D01*
X236305Y426648D01*
X236629Y422754D02*
X236554Y422721D01*
X236480Y422685D01*
X236408Y422646D01*
X236338Y422603D01*
X236271Y422557D01*
X236205Y422507D01*
X236143Y422455D01*
X236082Y422399D01*
X236025Y422341D01*
X235970Y422280D01*
X235919Y422216D01*
X235871Y422150D01*
X235826Y422081D01*
X235784Y422011D01*
X235746Y421938D01*
X235711Y421864D01*
X235680Y421788D01*
X235653Y421711D01*
X235630Y421632D01*
X235610Y421553D01*
X235595Y421472D01*
X235583Y421391D01*
X235575Y421309D01*
X235571Y421228D01*
X235572Y421146D01*
X235576Y421064D01*
X235584Y420982D01*
X235596Y420901D01*
X235612Y420821D01*
X235632Y420741D01*
X235656Y420663D01*
X235684Y420586D01*
X235715Y420510D01*
X235750Y420436D01*
X235788Y420364D01*
X235830Y420293D01*
X235876Y420225D01*
X235924Y420159D01*
X235976Y420096D01*
X236031Y420035D01*
X236089Y419977D01*
X236149Y419921D01*
X236212Y419869D01*
X236278Y419820D01*
X236346Y419774D01*
X236416Y419732D01*
X236488Y419692D01*
X236562Y419657D01*
X236637Y419625D01*
X236714Y419597D01*
X236792Y419573D01*
X236872Y419552D01*
X236952Y419535D01*
X237033Y419523D01*
X237114Y419514D01*
X237196Y419509D01*
X237278Y419508D01*
X237538Y419515D01*
X237798Y419528D01*
X238058Y419547D01*
X238317Y419572D01*
X238576Y419604D01*
X238833Y419641D01*
X239090Y419685D01*
X239346Y419734D01*
X239600Y419790D01*
X239853Y419851D01*
X240104Y419919D01*
X240354Y419993D01*
X240602Y420072D01*
X240848Y420157D01*
X231013Y419508D02*
X231013Y427297D01*
X231337Y430543D02*
X231337Y431192D01*
X230688Y431192D01*
X230688Y430543D01*
X231337Y430543D01*
X224410Y419508D02*
X221813Y419508D01*
X224410Y419508D02*
X224497Y419510D01*
X224585Y419516D01*
X224671Y419526D01*
X224758Y419539D01*
X224843Y419557D01*
X224928Y419578D01*
X225012Y419603D01*
X225094Y419632D01*
X225175Y419665D01*
X225255Y419701D01*
X225333Y419740D01*
X225409Y419784D01*
X225483Y419830D01*
X225554Y419880D01*
X225624Y419933D01*
X225691Y419989D01*
X225755Y420048D01*
X225817Y420110D01*
X225876Y420174D01*
X225932Y420241D01*
X225985Y420311D01*
X226035Y420382D01*
X226081Y420456D01*
X226125Y420532D01*
X226164Y420610D01*
X226200Y420690D01*
X226233Y420771D01*
X226262Y420853D01*
X226287Y420937D01*
X226308Y421022D01*
X226326Y421107D01*
X226339Y421194D01*
X226349Y421280D01*
X226355Y421368D01*
X226357Y421455D01*
X226357Y425350D01*
X226355Y425437D01*
X226349Y425525D01*
X226339Y425611D01*
X226326Y425698D01*
X226308Y425783D01*
X226287Y425868D01*
X226262Y425952D01*
X226233Y426034D01*
X226200Y426115D01*
X226164Y426195D01*
X226125Y426273D01*
X226081Y426349D01*
X226035Y426423D01*
X225985Y426494D01*
X225932Y426564D01*
X225876Y426631D01*
X225817Y426695D01*
X225755Y426757D01*
X225691Y426816D01*
X225624Y426872D01*
X225554Y426925D01*
X225483Y426975D01*
X225409Y427021D01*
X225333Y427065D01*
X225255Y427104D01*
X225175Y427140D01*
X225094Y427173D01*
X225012Y427202D01*
X224928Y427227D01*
X224843Y427248D01*
X224758Y427266D01*
X224671Y427279D01*
X224585Y427289D01*
X224497Y427295D01*
X224410Y427297D01*
X221813Y427297D01*
X211398Y427946D02*
X211398Y422754D01*
X211399Y427946D02*
X211397Y428059D01*
X211391Y428172D01*
X211381Y428285D01*
X211367Y428398D01*
X211350Y428510D01*
X211328Y428621D01*
X211303Y428731D01*
X211273Y428841D01*
X211240Y428949D01*
X211203Y429056D01*
X211163Y429162D01*
X211118Y429266D01*
X211070Y429369D01*
X211019Y429470D01*
X210964Y429569D01*
X210906Y429666D01*
X210844Y429761D01*
X210779Y429854D01*
X210711Y429944D01*
X210640Y430032D01*
X210565Y430118D01*
X210488Y430201D01*
X210408Y430281D01*
X210325Y430358D01*
X210239Y430433D01*
X210151Y430504D01*
X210061Y430572D01*
X209968Y430637D01*
X209873Y430699D01*
X209776Y430757D01*
X209677Y430812D01*
X209576Y430863D01*
X209473Y430911D01*
X209369Y430956D01*
X209263Y430996D01*
X209156Y431033D01*
X209048Y431066D01*
X208938Y431096D01*
X208828Y431121D01*
X208717Y431143D01*
X208605Y431160D01*
X208492Y431174D01*
X208379Y431184D01*
X208266Y431190D01*
X208153Y431192D01*
X208040Y431190D01*
X207927Y431184D01*
X207814Y431174D01*
X207701Y431160D01*
X207589Y431143D01*
X207478Y431121D01*
X207368Y431096D01*
X207258Y431066D01*
X207150Y431033D01*
X207043Y430996D01*
X206937Y430956D01*
X206833Y430911D01*
X206730Y430863D01*
X206629Y430812D01*
X206530Y430757D01*
X206433Y430699D01*
X206338Y430637D01*
X206245Y430572D01*
X206155Y430504D01*
X206067Y430433D01*
X205981Y430358D01*
X205898Y430281D01*
X205818Y430201D01*
X205741Y430118D01*
X205666Y430032D01*
X205595Y429944D01*
X205527Y429854D01*
X205462Y429761D01*
X205400Y429666D01*
X205342Y429569D01*
X205287Y429470D01*
X205236Y429369D01*
X205188Y429266D01*
X205143Y429162D01*
X205103Y429056D01*
X205066Y428949D01*
X205033Y428841D01*
X205003Y428731D01*
X204978Y428621D01*
X204956Y428510D01*
X204939Y428398D01*
X204925Y428285D01*
X204915Y428172D01*
X204909Y428059D01*
X204907Y427946D01*
X204907Y422754D01*
X204909Y422641D01*
X204915Y422528D01*
X204925Y422415D01*
X204939Y422302D01*
X204956Y422190D01*
X204978Y422079D01*
X205003Y421969D01*
X205033Y421859D01*
X205066Y421751D01*
X205103Y421644D01*
X205143Y421538D01*
X205188Y421434D01*
X205236Y421331D01*
X205287Y421230D01*
X205342Y421131D01*
X205400Y421034D01*
X205462Y420939D01*
X205527Y420846D01*
X205595Y420756D01*
X205666Y420668D01*
X205741Y420582D01*
X205818Y420499D01*
X205898Y420419D01*
X205981Y420342D01*
X206067Y420267D01*
X206155Y420196D01*
X206245Y420128D01*
X206338Y420063D01*
X206433Y420001D01*
X206530Y419943D01*
X206629Y419888D01*
X206730Y419837D01*
X206833Y419789D01*
X206937Y419744D01*
X207043Y419704D01*
X207150Y419667D01*
X207258Y419634D01*
X207368Y419604D01*
X207478Y419579D01*
X207589Y419557D01*
X207701Y419540D01*
X207814Y419526D01*
X207927Y419516D01*
X208040Y419510D01*
X208153Y419508D01*
X208266Y419510D01*
X208379Y419516D01*
X208492Y419526D01*
X208605Y419540D01*
X208717Y419557D01*
X208828Y419579D01*
X208938Y419604D01*
X209048Y419634D01*
X209156Y419667D01*
X209263Y419704D01*
X209369Y419744D01*
X209473Y419789D01*
X209576Y419837D01*
X209677Y419888D01*
X209776Y419943D01*
X209873Y420001D01*
X209968Y420063D01*
X210061Y420128D01*
X210151Y420196D01*
X210239Y420267D01*
X210325Y420342D01*
X210408Y420419D01*
X210488Y420499D01*
X210565Y420582D01*
X210640Y420668D01*
X210711Y420756D01*
X210779Y420846D01*
X210844Y420939D01*
X210906Y421034D01*
X210964Y421131D01*
X211019Y421230D01*
X211070Y421331D01*
X211118Y421434D01*
X211163Y421538D01*
X211203Y421644D01*
X211240Y421751D01*
X211273Y421859D01*
X211303Y421969D01*
X211328Y422079D01*
X211350Y422190D01*
X211367Y422302D01*
X211381Y422415D01*
X211391Y422528D01*
X211397Y422641D01*
X211399Y422754D01*
X199587Y419508D02*
X199587Y431192D01*
X193096Y419508D01*
X193096Y431192D01*
X176981Y432490D02*
X182174Y418210D01*
X166440Y422754D02*
X166440Y427946D01*
X166441Y427946D02*
X166439Y428059D01*
X166433Y428172D01*
X166423Y428285D01*
X166409Y428398D01*
X166392Y428510D01*
X166370Y428621D01*
X166345Y428731D01*
X166315Y428841D01*
X166282Y428949D01*
X166245Y429056D01*
X166205Y429162D01*
X166160Y429266D01*
X166112Y429369D01*
X166061Y429470D01*
X166006Y429569D01*
X165948Y429666D01*
X165886Y429761D01*
X165821Y429854D01*
X165753Y429944D01*
X165682Y430032D01*
X165607Y430118D01*
X165530Y430201D01*
X165450Y430281D01*
X165367Y430358D01*
X165281Y430433D01*
X165193Y430504D01*
X165103Y430572D01*
X165010Y430637D01*
X164915Y430699D01*
X164818Y430757D01*
X164719Y430812D01*
X164618Y430863D01*
X164515Y430911D01*
X164411Y430956D01*
X164305Y430996D01*
X164198Y431033D01*
X164090Y431066D01*
X163980Y431096D01*
X163870Y431121D01*
X163759Y431143D01*
X163647Y431160D01*
X163534Y431174D01*
X163421Y431184D01*
X163308Y431190D01*
X163195Y431192D01*
X163082Y431190D01*
X162969Y431184D01*
X162856Y431174D01*
X162743Y431160D01*
X162631Y431143D01*
X162520Y431121D01*
X162410Y431096D01*
X162300Y431066D01*
X162192Y431033D01*
X162085Y430996D01*
X161979Y430956D01*
X161875Y430911D01*
X161772Y430863D01*
X161671Y430812D01*
X161572Y430757D01*
X161475Y430699D01*
X161380Y430637D01*
X161287Y430572D01*
X161197Y430504D01*
X161109Y430433D01*
X161023Y430358D01*
X160940Y430281D01*
X160860Y430201D01*
X160783Y430118D01*
X160708Y430032D01*
X160637Y429944D01*
X160569Y429854D01*
X160504Y429761D01*
X160442Y429666D01*
X160384Y429569D01*
X160329Y429470D01*
X160278Y429369D01*
X160230Y429266D01*
X160185Y429162D01*
X160145Y429056D01*
X160108Y428949D01*
X160075Y428841D01*
X160045Y428731D01*
X160020Y428621D01*
X159998Y428510D01*
X159981Y428398D01*
X159967Y428285D01*
X159957Y428172D01*
X159951Y428059D01*
X159949Y427946D01*
X159949Y422754D01*
X159951Y422641D01*
X159957Y422528D01*
X159967Y422415D01*
X159981Y422302D01*
X159998Y422190D01*
X160020Y422079D01*
X160045Y421969D01*
X160075Y421859D01*
X160108Y421751D01*
X160145Y421644D01*
X160185Y421538D01*
X160230Y421434D01*
X160278Y421331D01*
X160329Y421230D01*
X160384Y421131D01*
X160442Y421034D01*
X160504Y420939D01*
X160569Y420846D01*
X160637Y420756D01*
X160708Y420668D01*
X160783Y420582D01*
X160860Y420499D01*
X160940Y420419D01*
X161023Y420342D01*
X161109Y420267D01*
X161197Y420196D01*
X161287Y420128D01*
X161380Y420063D01*
X161475Y420001D01*
X161572Y419943D01*
X161671Y419888D01*
X161772Y419837D01*
X161875Y419789D01*
X161979Y419744D01*
X162085Y419704D01*
X162192Y419667D01*
X162300Y419634D01*
X162410Y419604D01*
X162520Y419579D01*
X162631Y419557D01*
X162743Y419540D01*
X162856Y419526D01*
X162969Y419516D01*
X163082Y419510D01*
X163195Y419508D01*
X163308Y419510D01*
X163421Y419516D01*
X163534Y419526D01*
X163647Y419540D01*
X163759Y419557D01*
X163870Y419579D01*
X163980Y419604D01*
X164090Y419634D01*
X164198Y419667D01*
X164305Y419704D01*
X164411Y419744D01*
X164515Y419789D01*
X164618Y419837D01*
X164719Y419888D01*
X164818Y419943D01*
X164915Y420001D01*
X165010Y420063D01*
X165103Y420128D01*
X165193Y420196D01*
X165281Y420267D01*
X165367Y420342D01*
X165450Y420419D01*
X165530Y420499D01*
X165607Y420582D01*
X165682Y420668D01*
X165753Y420756D01*
X165821Y420846D01*
X165886Y420939D01*
X165948Y421034D01*
X166006Y421131D01*
X166061Y421230D01*
X166112Y421331D01*
X166160Y421434D01*
X166205Y421538D01*
X166245Y421644D01*
X166282Y421751D01*
X166315Y421859D01*
X166345Y421969D01*
X166370Y422079D01*
X166392Y422190D01*
X166409Y422302D01*
X166423Y422415D01*
X166433Y422528D01*
X166439Y422641D01*
X166441Y422754D01*
X154607Y419508D02*
X154607Y431192D01*
X149414Y431192D01*
X149414Y425999D02*
X154607Y425999D01*
X144701Y431192D02*
X144701Y419508D01*
X144701Y431192D02*
X139508Y431192D01*
X139508Y425999D02*
X144701Y425999D01*
X206449Y379049D02*
X209695Y379049D01*
X206449Y379050D02*
X206336Y379048D01*
X206223Y379042D01*
X206110Y379032D01*
X205997Y379018D01*
X205885Y379001D01*
X205774Y378979D01*
X205664Y378954D01*
X205554Y378924D01*
X205446Y378891D01*
X205339Y378854D01*
X205233Y378814D01*
X205129Y378769D01*
X205026Y378721D01*
X204925Y378670D01*
X204826Y378615D01*
X204729Y378557D01*
X204634Y378495D01*
X204541Y378430D01*
X204451Y378362D01*
X204363Y378291D01*
X204277Y378216D01*
X204194Y378139D01*
X204114Y378059D01*
X204037Y377976D01*
X203962Y377890D01*
X203891Y377802D01*
X203823Y377712D01*
X203758Y377619D01*
X203696Y377524D01*
X203638Y377427D01*
X203583Y377328D01*
X203532Y377227D01*
X203484Y377124D01*
X203439Y377020D01*
X203399Y376914D01*
X203362Y376807D01*
X203329Y376699D01*
X203299Y376589D01*
X203274Y376479D01*
X203252Y376368D01*
X203235Y376256D01*
X203221Y376143D01*
X203211Y376030D01*
X203205Y375917D01*
X203203Y375804D01*
X203205Y375691D01*
X203211Y375578D01*
X203221Y375465D01*
X203235Y375352D01*
X203252Y375240D01*
X203274Y375129D01*
X203299Y375019D01*
X203329Y374909D01*
X203362Y374801D01*
X203399Y374694D01*
X203439Y374588D01*
X203484Y374484D01*
X203532Y374381D01*
X203583Y374280D01*
X203638Y374181D01*
X203696Y374084D01*
X203758Y373989D01*
X203823Y373896D01*
X203891Y373806D01*
X203962Y373718D01*
X204037Y373632D01*
X204114Y373549D01*
X204194Y373469D01*
X204277Y373392D01*
X204363Y373317D01*
X204451Y373246D01*
X204541Y373178D01*
X204634Y373113D01*
X204729Y373051D01*
X204826Y372993D01*
X204925Y372938D01*
X205026Y372887D01*
X205129Y372839D01*
X205233Y372794D01*
X205339Y372754D01*
X205446Y372717D01*
X205554Y372684D01*
X205664Y372654D01*
X205774Y372629D01*
X205885Y372607D01*
X205997Y372590D01*
X206110Y372576D01*
X206223Y372566D01*
X206336Y372560D01*
X206449Y372558D01*
X209695Y372558D01*
X209695Y384242D01*
X206449Y384242D01*
X206348Y384240D01*
X206248Y384234D01*
X206148Y384224D01*
X206048Y384211D01*
X205949Y384193D01*
X205850Y384172D01*
X205753Y384147D01*
X205656Y384118D01*
X205561Y384085D01*
X205467Y384049D01*
X205375Y384009D01*
X205284Y383966D01*
X205195Y383919D01*
X205108Y383869D01*
X205022Y383815D01*
X204939Y383758D01*
X204859Y383698D01*
X204780Y383635D01*
X204704Y383568D01*
X204631Y383499D01*
X204561Y383427D01*
X204493Y383353D01*
X204428Y383276D01*
X204367Y383196D01*
X204308Y383114D01*
X204253Y383030D01*
X204201Y382944D01*
X204152Y382856D01*
X204107Y382766D01*
X204065Y382674D01*
X204027Y382581D01*
X203993Y382486D01*
X203962Y382391D01*
X203935Y382294D01*
X203912Y382196D01*
X203892Y382097D01*
X203877Y381997D01*
X203865Y381897D01*
X203857Y381797D01*
X203853Y381696D01*
X203853Y381596D01*
X203857Y381495D01*
X203865Y381395D01*
X203877Y381295D01*
X203892Y381195D01*
X203912Y381096D01*
X203935Y380998D01*
X203962Y380901D01*
X203993Y380806D01*
X204027Y380711D01*
X204065Y380618D01*
X204107Y380526D01*
X204152Y380436D01*
X204201Y380348D01*
X204253Y380262D01*
X204308Y380178D01*
X204367Y380096D01*
X204428Y380016D01*
X204493Y379939D01*
X204561Y379865D01*
X204631Y379793D01*
X204704Y379724D01*
X204780Y379657D01*
X204859Y379594D01*
X204939Y379534D01*
X205022Y379477D01*
X205108Y379423D01*
X205195Y379373D01*
X205284Y379326D01*
X205375Y379283D01*
X205467Y379243D01*
X205561Y379207D01*
X205656Y379174D01*
X205753Y379145D01*
X205850Y379120D01*
X205949Y379099D01*
X206048Y379081D01*
X206148Y379068D01*
X206248Y379058D01*
X206348Y379052D01*
X206449Y379050D01*
X198547Y380347D02*
X198547Y374505D01*
X198545Y374418D01*
X198539Y374330D01*
X198529Y374244D01*
X198516Y374157D01*
X198498Y374072D01*
X198477Y373987D01*
X198452Y373903D01*
X198423Y373821D01*
X198390Y373740D01*
X198354Y373660D01*
X198315Y373582D01*
X198271Y373506D01*
X198225Y373432D01*
X198175Y373361D01*
X198122Y373291D01*
X198066Y373224D01*
X198007Y373160D01*
X197945Y373098D01*
X197881Y373039D01*
X197814Y372983D01*
X197744Y372930D01*
X197673Y372880D01*
X197599Y372834D01*
X197523Y372790D01*
X197445Y372751D01*
X197365Y372715D01*
X197284Y372682D01*
X197202Y372653D01*
X197118Y372628D01*
X197033Y372607D01*
X196948Y372589D01*
X196861Y372576D01*
X196775Y372566D01*
X196687Y372560D01*
X196600Y372558D01*
X193354Y372558D01*
X193354Y380347D01*
X189227Y380347D02*
X185333Y380347D01*
X187929Y384242D02*
X187929Y374505D01*
X187927Y374418D01*
X187921Y374330D01*
X187911Y374244D01*
X187898Y374157D01*
X187880Y374072D01*
X187859Y373987D01*
X187834Y373903D01*
X187805Y373821D01*
X187772Y373740D01*
X187736Y373660D01*
X187697Y373582D01*
X187653Y373506D01*
X187607Y373432D01*
X187557Y373361D01*
X187504Y373291D01*
X187448Y373224D01*
X187389Y373160D01*
X187327Y373098D01*
X187263Y373039D01*
X187196Y372983D01*
X187126Y372930D01*
X187055Y372880D01*
X186981Y372834D01*
X186905Y372790D01*
X186827Y372751D01*
X186747Y372715D01*
X186666Y372682D01*
X186584Y372653D01*
X186500Y372628D01*
X186415Y372607D01*
X186330Y372589D01*
X186243Y372576D01*
X186157Y372566D01*
X186069Y372560D01*
X185982Y372558D01*
X185333Y372558D01*
X181988Y380347D02*
X178094Y380347D01*
X180690Y384242D02*
X180690Y374505D01*
X180688Y374418D01*
X180682Y374330D01*
X180672Y374244D01*
X180659Y374157D01*
X180641Y374072D01*
X180620Y373987D01*
X180595Y373903D01*
X180566Y373821D01*
X180533Y373740D01*
X180497Y373660D01*
X180458Y373582D01*
X180414Y373506D01*
X180368Y373432D01*
X180318Y373361D01*
X180265Y373291D01*
X180209Y373224D01*
X180150Y373160D01*
X180088Y373098D01*
X180024Y373039D01*
X179957Y372983D01*
X179887Y372930D01*
X179816Y372880D01*
X179742Y372834D01*
X179666Y372790D01*
X179588Y372751D01*
X179508Y372715D01*
X179427Y372682D01*
X179345Y372653D01*
X179261Y372628D01*
X179176Y372607D01*
X179091Y372589D01*
X179004Y372576D01*
X178918Y372566D01*
X178830Y372560D01*
X178743Y372558D01*
X178094Y372558D01*
X173782Y375154D02*
X173782Y377751D01*
X173780Y377852D01*
X173774Y377952D01*
X173764Y378052D01*
X173751Y378152D01*
X173733Y378251D01*
X173712Y378350D01*
X173687Y378447D01*
X173658Y378544D01*
X173625Y378639D01*
X173589Y378733D01*
X173549Y378825D01*
X173506Y378916D01*
X173459Y379005D01*
X173409Y379092D01*
X173355Y379178D01*
X173298Y379261D01*
X173238Y379341D01*
X173175Y379420D01*
X173108Y379496D01*
X173039Y379569D01*
X172967Y379639D01*
X172893Y379707D01*
X172816Y379772D01*
X172736Y379833D01*
X172654Y379892D01*
X172570Y379947D01*
X172484Y379999D01*
X172396Y380048D01*
X172306Y380093D01*
X172214Y380135D01*
X172121Y380173D01*
X172026Y380207D01*
X171931Y380238D01*
X171834Y380265D01*
X171736Y380288D01*
X171637Y380308D01*
X171537Y380323D01*
X171437Y380335D01*
X171337Y380343D01*
X171236Y380347D01*
X171136Y380347D01*
X171035Y380343D01*
X170935Y380335D01*
X170835Y380323D01*
X170735Y380308D01*
X170636Y380288D01*
X170538Y380265D01*
X170441Y380238D01*
X170346Y380207D01*
X170251Y380173D01*
X170158Y380135D01*
X170066Y380093D01*
X169976Y380048D01*
X169888Y379999D01*
X169802Y379947D01*
X169718Y379892D01*
X169636Y379833D01*
X169556Y379772D01*
X169479Y379707D01*
X169405Y379639D01*
X169333Y379569D01*
X169264Y379496D01*
X169197Y379420D01*
X169134Y379341D01*
X169074Y379261D01*
X169017Y379178D01*
X168963Y379092D01*
X168913Y379005D01*
X168866Y378916D01*
X168823Y378825D01*
X168783Y378733D01*
X168747Y378639D01*
X168714Y378544D01*
X168685Y378447D01*
X168660Y378350D01*
X168639Y378251D01*
X168621Y378152D01*
X168608Y378052D01*
X168598Y377952D01*
X168592Y377852D01*
X168590Y377751D01*
X168589Y377751D02*
X168589Y375154D01*
X168590Y375154D02*
X168592Y375053D01*
X168598Y374953D01*
X168608Y374853D01*
X168621Y374753D01*
X168639Y374654D01*
X168660Y374555D01*
X168685Y374458D01*
X168714Y374361D01*
X168747Y374266D01*
X168783Y374172D01*
X168823Y374080D01*
X168866Y373989D01*
X168913Y373900D01*
X168963Y373813D01*
X169017Y373727D01*
X169074Y373644D01*
X169134Y373564D01*
X169197Y373485D01*
X169264Y373409D01*
X169333Y373336D01*
X169405Y373266D01*
X169479Y373198D01*
X169556Y373133D01*
X169636Y373072D01*
X169718Y373013D01*
X169802Y372958D01*
X169888Y372906D01*
X169976Y372857D01*
X170066Y372812D01*
X170158Y372770D01*
X170251Y372732D01*
X170346Y372698D01*
X170441Y372667D01*
X170538Y372640D01*
X170636Y372617D01*
X170735Y372597D01*
X170835Y372582D01*
X170935Y372570D01*
X171035Y372562D01*
X171136Y372558D01*
X171236Y372558D01*
X171337Y372562D01*
X171437Y372570D01*
X171537Y372582D01*
X171637Y372597D01*
X171736Y372617D01*
X171834Y372640D01*
X171931Y372667D01*
X172026Y372698D01*
X172121Y372732D01*
X172214Y372770D01*
X172306Y372812D01*
X172396Y372857D01*
X172484Y372906D01*
X172570Y372958D01*
X172654Y373013D01*
X172736Y373072D01*
X172816Y373133D01*
X172893Y373198D01*
X172967Y373266D01*
X173039Y373336D01*
X173108Y373409D01*
X173175Y373485D01*
X173238Y373564D01*
X173298Y373644D01*
X173355Y373727D01*
X173409Y373813D01*
X173459Y373900D01*
X173506Y373989D01*
X173549Y374080D01*
X173589Y374172D01*
X173625Y374266D01*
X173658Y374361D01*
X173687Y374458D01*
X173712Y374555D01*
X173733Y374654D01*
X173751Y374753D01*
X173764Y374853D01*
X173774Y374953D01*
X173780Y375053D01*
X173782Y375154D01*
X163495Y372558D02*
X163495Y380347D01*
X160249Y380347D01*
X160162Y380345D01*
X160074Y380339D01*
X159988Y380329D01*
X159901Y380316D01*
X159816Y380298D01*
X159731Y380277D01*
X159647Y380252D01*
X159565Y380223D01*
X159484Y380190D01*
X159404Y380154D01*
X159326Y380115D01*
X159250Y380071D01*
X159176Y380025D01*
X159105Y379975D01*
X159035Y379922D01*
X158968Y379866D01*
X158904Y379807D01*
X158842Y379746D01*
X158783Y379681D01*
X158727Y379614D01*
X158674Y379544D01*
X158624Y379473D01*
X158578Y379399D01*
X158535Y379323D01*
X158495Y379245D01*
X158459Y379165D01*
X158426Y379084D01*
X158397Y379002D01*
X158372Y378918D01*
X158351Y378833D01*
X158333Y378748D01*
X158320Y378661D01*
X158310Y378575D01*
X158304Y378487D01*
X158302Y378400D01*
X158302Y372558D01*
X143429Y384242D02*
X143322Y384240D01*
X143216Y384234D01*
X143110Y384224D01*
X143004Y384211D01*
X142898Y384193D01*
X142794Y384172D01*
X142690Y384147D01*
X142587Y384118D01*
X142486Y384086D01*
X142386Y384049D01*
X142287Y384009D01*
X142189Y383966D01*
X142093Y383919D01*
X141999Y383868D01*
X141907Y383814D01*
X141817Y383757D01*
X141729Y383697D01*
X141644Y383633D01*
X141561Y383566D01*
X141480Y383496D01*
X141402Y383424D01*
X141326Y383348D01*
X141254Y383270D01*
X141184Y383189D01*
X141117Y383106D01*
X141053Y383021D01*
X140993Y382933D01*
X140936Y382843D01*
X140882Y382751D01*
X140831Y382657D01*
X140784Y382561D01*
X140741Y382463D01*
X140701Y382364D01*
X140664Y382264D01*
X140632Y382163D01*
X140603Y382060D01*
X140578Y381956D01*
X140557Y381852D01*
X140539Y381746D01*
X140526Y381640D01*
X140516Y381534D01*
X140510Y381428D01*
X140508Y381321D01*
X143429Y384242D02*
X143550Y384240D01*
X143671Y384234D01*
X143791Y384224D01*
X143912Y384211D01*
X144031Y384193D01*
X144151Y384172D01*
X144269Y384147D01*
X144386Y384118D01*
X144503Y384085D01*
X144618Y384049D01*
X144732Y384008D01*
X144845Y383965D01*
X144957Y383917D01*
X145066Y383866D01*
X145174Y383811D01*
X145281Y383753D01*
X145385Y383692D01*
X145487Y383627D01*
X145587Y383559D01*
X145685Y383488D01*
X145781Y383414D01*
X145874Y383337D01*
X145964Y383256D01*
X146052Y383173D01*
X146137Y383087D01*
X146220Y382998D01*
X146299Y382907D01*
X146376Y382813D01*
X146449Y382717D01*
X146519Y382619D01*
X146586Y382518D01*
X146650Y382415D01*
X146711Y382310D01*
X146768Y382203D01*
X146821Y382095D01*
X146871Y381985D01*
X146917Y381873D01*
X146960Y381760D01*
X146999Y381645D01*
X141482Y379049D02*
X141403Y379127D01*
X141327Y379207D01*
X141254Y379290D01*
X141184Y379376D01*
X141117Y379463D01*
X141053Y379554D01*
X140993Y379646D01*
X140935Y379740D01*
X140881Y379837D01*
X140831Y379935D01*
X140784Y380035D01*
X140740Y380136D01*
X140700Y380239D01*
X140664Y380344D01*
X140632Y380449D01*
X140603Y380556D01*
X140578Y380663D01*
X140556Y380772D01*
X140539Y380881D01*
X140525Y380990D01*
X140516Y381100D01*
X140510Y381211D01*
X140508Y381321D01*
X141482Y379049D02*
X146999Y372558D01*
X140508Y372558D01*
X219556Y361297D02*
X219556Y353508D01*
X219556Y361297D02*
X216310Y361297D01*
X216223Y361295D01*
X216135Y361289D01*
X216049Y361279D01*
X215962Y361266D01*
X215877Y361248D01*
X215792Y361227D01*
X215708Y361202D01*
X215626Y361173D01*
X215545Y361140D01*
X215465Y361104D01*
X215387Y361065D01*
X215311Y361021D01*
X215237Y360975D01*
X215166Y360925D01*
X215096Y360872D01*
X215029Y360816D01*
X214965Y360757D01*
X214903Y360696D01*
X214844Y360631D01*
X214788Y360564D01*
X214735Y360494D01*
X214685Y360423D01*
X214639Y360349D01*
X214596Y360273D01*
X214556Y360195D01*
X214520Y360115D01*
X214487Y360034D01*
X214458Y359952D01*
X214433Y359868D01*
X214412Y359783D01*
X214394Y359698D01*
X214381Y359611D01*
X214371Y359525D01*
X214365Y359437D01*
X214363Y359350D01*
X214363Y353508D01*
X207322Y353508D02*
X204076Y353508D01*
X207322Y353508D02*
X207409Y353510D01*
X207497Y353516D01*
X207583Y353526D01*
X207670Y353539D01*
X207755Y353557D01*
X207840Y353578D01*
X207924Y353603D01*
X208006Y353632D01*
X208087Y353665D01*
X208167Y353701D01*
X208245Y353740D01*
X208321Y353784D01*
X208395Y353830D01*
X208466Y353880D01*
X208536Y353933D01*
X208603Y353989D01*
X208667Y354048D01*
X208729Y354110D01*
X208788Y354174D01*
X208844Y354241D01*
X208897Y354311D01*
X208947Y354382D01*
X208993Y354456D01*
X209037Y354532D01*
X209076Y354610D01*
X209112Y354690D01*
X209145Y354771D01*
X209174Y354853D01*
X209199Y354937D01*
X209220Y355022D01*
X209238Y355107D01*
X209251Y355194D01*
X209261Y355280D01*
X209267Y355368D01*
X209269Y355455D01*
X209269Y358701D01*
X209268Y358701D02*
X209266Y358802D01*
X209260Y358902D01*
X209250Y359002D01*
X209237Y359102D01*
X209219Y359201D01*
X209198Y359300D01*
X209173Y359397D01*
X209144Y359494D01*
X209111Y359589D01*
X209075Y359683D01*
X209035Y359775D01*
X208992Y359866D01*
X208945Y359955D01*
X208895Y360042D01*
X208841Y360128D01*
X208784Y360211D01*
X208724Y360291D01*
X208661Y360370D01*
X208594Y360446D01*
X208525Y360519D01*
X208453Y360589D01*
X208379Y360657D01*
X208302Y360722D01*
X208222Y360783D01*
X208140Y360842D01*
X208056Y360897D01*
X207970Y360949D01*
X207882Y360998D01*
X207792Y361043D01*
X207700Y361085D01*
X207607Y361123D01*
X207512Y361157D01*
X207417Y361188D01*
X207320Y361215D01*
X207222Y361238D01*
X207123Y361258D01*
X207023Y361273D01*
X206923Y361285D01*
X206823Y361293D01*
X206722Y361297D01*
X206622Y361297D01*
X206521Y361293D01*
X206421Y361285D01*
X206321Y361273D01*
X206221Y361258D01*
X206122Y361238D01*
X206024Y361215D01*
X205927Y361188D01*
X205832Y361157D01*
X205737Y361123D01*
X205644Y361085D01*
X205552Y361043D01*
X205462Y360998D01*
X205374Y360949D01*
X205288Y360897D01*
X205204Y360842D01*
X205122Y360783D01*
X205042Y360722D01*
X204965Y360657D01*
X204891Y360589D01*
X204819Y360519D01*
X204750Y360446D01*
X204683Y360370D01*
X204620Y360291D01*
X204560Y360211D01*
X204503Y360128D01*
X204449Y360042D01*
X204399Y359955D01*
X204352Y359866D01*
X204309Y359775D01*
X204269Y359683D01*
X204233Y359589D01*
X204200Y359494D01*
X204171Y359397D01*
X204146Y359300D01*
X204125Y359201D01*
X204107Y359102D01*
X204094Y359002D01*
X204084Y358902D01*
X204078Y358802D01*
X204076Y358701D01*
X204076Y357403D01*
X209269Y357403D01*
X199744Y353508D02*
X194551Y361297D01*
X199744Y361297D02*
X194551Y353508D01*
X191186Y361297D02*
X187292Y361297D01*
X189888Y365192D02*
X189888Y355455D01*
X189886Y355368D01*
X189880Y355280D01*
X189870Y355194D01*
X189857Y355107D01*
X189839Y355022D01*
X189818Y354937D01*
X189793Y354853D01*
X189764Y354771D01*
X189731Y354690D01*
X189695Y354610D01*
X189656Y354532D01*
X189612Y354456D01*
X189566Y354382D01*
X189516Y354311D01*
X189463Y354241D01*
X189407Y354174D01*
X189348Y354110D01*
X189286Y354048D01*
X189222Y353989D01*
X189155Y353933D01*
X189085Y353880D01*
X189014Y353830D01*
X188940Y353784D01*
X188864Y353740D01*
X188786Y353701D01*
X188706Y353665D01*
X188625Y353632D01*
X188543Y353603D01*
X188459Y353578D01*
X188374Y353557D01*
X188289Y353539D01*
X188202Y353526D01*
X188116Y353516D01*
X188028Y353510D01*
X187941Y353508D01*
X187292Y353508D01*
X173257Y353508D02*
X173158Y353510D01*
X173058Y353516D01*
X172959Y353525D01*
X172861Y353538D01*
X172763Y353555D01*
X172665Y353576D01*
X172569Y353601D01*
X172474Y353629D01*
X172380Y353661D01*
X172287Y353696D01*
X172195Y353735D01*
X172105Y353778D01*
X172017Y353823D01*
X171930Y353873D01*
X171846Y353925D01*
X171763Y353981D01*
X171683Y354039D01*
X171605Y354101D01*
X171530Y354166D01*
X171457Y354234D01*
X171387Y354304D01*
X171319Y354377D01*
X171254Y354452D01*
X171192Y354530D01*
X171134Y354610D01*
X171078Y354693D01*
X171026Y354777D01*
X170976Y354864D01*
X170931Y354952D01*
X170888Y355042D01*
X170849Y355134D01*
X170814Y355227D01*
X170782Y355321D01*
X170754Y355416D01*
X170729Y355512D01*
X170708Y355610D01*
X170691Y355708D01*
X170678Y355806D01*
X170669Y355905D01*
X170663Y356005D01*
X170661Y356104D01*
X173257Y353508D02*
X173401Y353510D01*
X173546Y353516D01*
X173690Y353525D01*
X173833Y353538D01*
X173977Y353555D01*
X174120Y353576D01*
X174262Y353601D01*
X174403Y353629D01*
X174544Y353661D01*
X174684Y353697D01*
X174823Y353736D01*
X174961Y353779D01*
X175097Y353826D01*
X175233Y353876D01*
X175367Y353930D01*
X175499Y353987D01*
X175630Y354048D01*
X175759Y354112D01*
X175887Y354180D01*
X176013Y354251D01*
X176137Y354325D01*
X176258Y354402D01*
X176378Y354483D01*
X176496Y354566D01*
X176611Y354653D01*
X176724Y354743D01*
X176835Y354836D01*
X176943Y354931D01*
X177049Y355030D01*
X177152Y355131D01*
X176827Y362596D02*
X176825Y362695D01*
X176819Y362795D01*
X176810Y362894D01*
X176797Y362992D01*
X176780Y363090D01*
X176759Y363188D01*
X176734Y363284D01*
X176706Y363379D01*
X176674Y363473D01*
X176639Y363566D01*
X176600Y363658D01*
X176557Y363748D01*
X176512Y363836D01*
X176462Y363923D01*
X176410Y364007D01*
X176354Y364090D01*
X176296Y364170D01*
X176234Y364248D01*
X176169Y364323D01*
X176101Y364396D01*
X176031Y364466D01*
X175958Y364534D01*
X175883Y364599D01*
X175805Y364661D01*
X175725Y364719D01*
X175642Y364775D01*
X175558Y364827D01*
X175471Y364877D01*
X175383Y364922D01*
X175293Y364965D01*
X175201Y365004D01*
X175108Y365039D01*
X175014Y365071D01*
X174919Y365099D01*
X174823Y365124D01*
X174725Y365145D01*
X174627Y365162D01*
X174529Y365175D01*
X174430Y365184D01*
X174330Y365190D01*
X174231Y365192D01*
X174095Y365190D01*
X173959Y365184D01*
X173823Y365175D01*
X173687Y365162D01*
X173552Y365144D01*
X173418Y365124D01*
X173284Y365099D01*
X173150Y365071D01*
X173018Y365038D01*
X172887Y365003D01*
X172756Y364963D01*
X172627Y364920D01*
X172499Y364874D01*
X172373Y364823D01*
X172247Y364770D01*
X172124Y364712D01*
X172002Y364652D01*
X171882Y364588D01*
X171763Y364520D01*
X171647Y364450D01*
X171533Y364376D01*
X171420Y364299D01*
X171310Y364218D01*
X175530Y360324D02*
X175616Y360377D01*
X175700Y360434D01*
X175782Y360493D01*
X175862Y360556D01*
X175939Y360622D01*
X176014Y360690D01*
X176086Y360762D01*
X176155Y360836D01*
X176221Y360913D01*
X176284Y360992D01*
X176344Y361074D01*
X176401Y361158D01*
X176455Y361244D01*
X176505Y361332D01*
X176552Y361422D01*
X176596Y361513D01*
X176635Y361607D01*
X176672Y361701D01*
X176704Y361797D01*
X176733Y361895D01*
X176758Y361993D01*
X176779Y362092D01*
X176797Y362192D01*
X176810Y362292D01*
X176820Y362393D01*
X176826Y362495D01*
X176828Y362596D01*
X171959Y358376D02*
X171873Y358323D01*
X171789Y358266D01*
X171707Y358207D01*
X171627Y358144D01*
X171550Y358078D01*
X171475Y358010D01*
X171403Y357938D01*
X171334Y357864D01*
X171268Y357787D01*
X171205Y357708D01*
X171145Y357626D01*
X171088Y357542D01*
X171034Y357456D01*
X170984Y357368D01*
X170937Y357278D01*
X170893Y357187D01*
X170854Y357093D01*
X170817Y356999D01*
X170785Y356903D01*
X170756Y356805D01*
X170731Y356707D01*
X170710Y356608D01*
X170692Y356508D01*
X170679Y356408D01*
X170669Y356307D01*
X170663Y356205D01*
X170661Y356104D01*
X171959Y358376D02*
X175529Y360324D01*
X166216Y358701D02*
X166216Y356104D01*
X166216Y358701D02*
X166214Y358802D01*
X166208Y358902D01*
X166198Y359002D01*
X166185Y359102D01*
X166167Y359201D01*
X166146Y359300D01*
X166121Y359397D01*
X166092Y359494D01*
X166059Y359589D01*
X166023Y359683D01*
X165983Y359775D01*
X165940Y359866D01*
X165893Y359955D01*
X165843Y360042D01*
X165789Y360128D01*
X165732Y360211D01*
X165672Y360291D01*
X165609Y360370D01*
X165542Y360446D01*
X165473Y360519D01*
X165401Y360589D01*
X165327Y360657D01*
X165250Y360722D01*
X165170Y360783D01*
X165088Y360842D01*
X165004Y360897D01*
X164918Y360949D01*
X164830Y360998D01*
X164740Y361043D01*
X164648Y361085D01*
X164555Y361123D01*
X164460Y361157D01*
X164365Y361188D01*
X164268Y361215D01*
X164170Y361238D01*
X164071Y361258D01*
X163971Y361273D01*
X163871Y361285D01*
X163771Y361293D01*
X163670Y361297D01*
X163570Y361297D01*
X163469Y361293D01*
X163369Y361285D01*
X163269Y361273D01*
X163169Y361258D01*
X163070Y361238D01*
X162972Y361215D01*
X162875Y361188D01*
X162780Y361157D01*
X162685Y361123D01*
X162592Y361085D01*
X162500Y361043D01*
X162410Y360998D01*
X162322Y360949D01*
X162236Y360897D01*
X162152Y360842D01*
X162070Y360783D01*
X161990Y360722D01*
X161913Y360657D01*
X161839Y360589D01*
X161767Y360519D01*
X161698Y360446D01*
X161631Y360370D01*
X161568Y360291D01*
X161508Y360211D01*
X161451Y360128D01*
X161397Y360042D01*
X161347Y359955D01*
X161300Y359866D01*
X161257Y359775D01*
X161217Y359683D01*
X161181Y359589D01*
X161148Y359494D01*
X161119Y359397D01*
X161094Y359300D01*
X161073Y359201D01*
X161055Y359102D01*
X161042Y359002D01*
X161032Y358902D01*
X161026Y358802D01*
X161024Y358701D01*
X161023Y358701D02*
X161023Y356104D01*
X161024Y356104D02*
X161026Y356003D01*
X161032Y355903D01*
X161042Y355803D01*
X161055Y355703D01*
X161073Y355604D01*
X161094Y355505D01*
X161119Y355408D01*
X161148Y355311D01*
X161181Y355216D01*
X161217Y355122D01*
X161257Y355030D01*
X161300Y354939D01*
X161347Y354850D01*
X161397Y354763D01*
X161451Y354677D01*
X161508Y354594D01*
X161568Y354514D01*
X161631Y354435D01*
X161698Y354359D01*
X161767Y354286D01*
X161839Y354216D01*
X161913Y354148D01*
X161990Y354083D01*
X162070Y354022D01*
X162152Y353963D01*
X162236Y353908D01*
X162322Y353856D01*
X162410Y353807D01*
X162500Y353762D01*
X162592Y353720D01*
X162685Y353682D01*
X162780Y353648D01*
X162875Y353617D01*
X162972Y353590D01*
X163070Y353567D01*
X163169Y353547D01*
X163269Y353532D01*
X163369Y353520D01*
X163469Y353512D01*
X163570Y353508D01*
X163670Y353508D01*
X163771Y353512D01*
X163871Y353520D01*
X163971Y353532D01*
X164071Y353547D01*
X164170Y353567D01*
X164268Y353590D01*
X164365Y353617D01*
X164460Y353648D01*
X164555Y353682D01*
X164648Y353720D01*
X164740Y353762D01*
X164830Y353807D01*
X164918Y353856D01*
X165004Y353908D01*
X165088Y353963D01*
X165170Y354022D01*
X165250Y354083D01*
X165327Y354148D01*
X165401Y354216D01*
X165473Y354286D01*
X165542Y354359D01*
X165609Y354435D01*
X165672Y354514D01*
X165732Y354594D01*
X165789Y354677D01*
X165843Y354763D01*
X165893Y354850D01*
X165940Y354939D01*
X165983Y355030D01*
X166023Y355122D01*
X166059Y355216D01*
X166092Y355311D01*
X166121Y355408D01*
X166146Y355505D01*
X166167Y355604D01*
X166185Y355703D01*
X166198Y355803D01*
X166208Y355903D01*
X166214Y356003D01*
X166216Y356104D01*
X155929Y353508D02*
X155929Y361297D01*
X152683Y361297D01*
X152596Y361295D01*
X152508Y361289D01*
X152422Y361279D01*
X152335Y361266D01*
X152250Y361248D01*
X152165Y361227D01*
X152081Y361202D01*
X151999Y361173D01*
X151918Y361140D01*
X151838Y361104D01*
X151760Y361065D01*
X151684Y361021D01*
X151610Y360975D01*
X151539Y360925D01*
X151469Y360872D01*
X151402Y360816D01*
X151338Y360757D01*
X151276Y360696D01*
X151217Y360631D01*
X151161Y360564D01*
X151108Y360494D01*
X151058Y360423D01*
X151012Y360349D01*
X150969Y360273D01*
X150929Y360195D01*
X150893Y360115D01*
X150860Y360034D01*
X150831Y359952D01*
X150806Y359868D01*
X150785Y359783D01*
X150767Y359698D01*
X150754Y359611D01*
X150744Y359525D01*
X150738Y359437D01*
X150736Y359350D01*
X150736Y353508D01*
X143754Y353508D02*
X140508Y353508D01*
X143754Y353508D02*
X143841Y353510D01*
X143929Y353516D01*
X144015Y353526D01*
X144102Y353539D01*
X144187Y353557D01*
X144272Y353578D01*
X144356Y353603D01*
X144438Y353632D01*
X144519Y353665D01*
X144599Y353701D01*
X144677Y353740D01*
X144753Y353784D01*
X144827Y353830D01*
X144898Y353880D01*
X144968Y353933D01*
X145035Y353989D01*
X145099Y354048D01*
X145161Y354110D01*
X145220Y354174D01*
X145276Y354241D01*
X145329Y354311D01*
X145379Y354382D01*
X145425Y354456D01*
X145469Y354532D01*
X145508Y354610D01*
X145544Y354690D01*
X145577Y354771D01*
X145606Y354853D01*
X145631Y354937D01*
X145652Y355022D01*
X145670Y355107D01*
X145683Y355194D01*
X145693Y355280D01*
X145699Y355368D01*
X145701Y355455D01*
X145701Y359350D01*
X145699Y359437D01*
X145693Y359525D01*
X145683Y359611D01*
X145670Y359698D01*
X145652Y359783D01*
X145631Y359868D01*
X145606Y359952D01*
X145577Y360034D01*
X145544Y360115D01*
X145508Y360195D01*
X145469Y360273D01*
X145425Y360349D01*
X145379Y360423D01*
X145329Y360494D01*
X145276Y360564D01*
X145220Y360631D01*
X145161Y360695D01*
X145099Y360757D01*
X145035Y360816D01*
X144968Y360872D01*
X144898Y360925D01*
X144827Y360975D01*
X144753Y361021D01*
X144677Y361065D01*
X144599Y361104D01*
X144519Y361140D01*
X144438Y361173D01*
X144356Y361202D01*
X144272Y361227D01*
X144187Y361248D01*
X144102Y361266D01*
X144015Y361279D01*
X143929Y361289D01*
X143841Y361295D01*
X143754Y361297D01*
X140508Y361297D01*
X140508Y351561D01*
X140510Y351474D01*
X140516Y351386D01*
X140526Y351300D01*
X140539Y351213D01*
X140557Y351128D01*
X140578Y351043D01*
X140603Y350959D01*
X140632Y350877D01*
X140665Y350796D01*
X140701Y350716D01*
X140740Y350638D01*
X140784Y350562D01*
X140830Y350488D01*
X140880Y350417D01*
X140933Y350347D01*
X140989Y350280D01*
X141048Y350216D01*
X141110Y350154D01*
X141174Y350095D01*
X141241Y350039D01*
X141311Y349986D01*
X141382Y349936D01*
X141456Y349890D01*
X141532Y349846D01*
X141610Y349807D01*
X141690Y349771D01*
X141771Y349738D01*
X141853Y349709D01*
X141937Y349684D01*
X142022Y349663D01*
X142107Y349645D01*
X142194Y349632D01*
X142280Y349622D01*
X142368Y349616D01*
X142455Y349614D01*
X142455Y349613D02*
X145052Y349613D01*
X206449Y316049D02*
X209695Y316049D01*
X206449Y316050D02*
X206336Y316048D01*
X206223Y316042D01*
X206110Y316032D01*
X205997Y316018D01*
X205885Y316001D01*
X205774Y315979D01*
X205664Y315954D01*
X205554Y315924D01*
X205446Y315891D01*
X205339Y315854D01*
X205233Y315814D01*
X205129Y315769D01*
X205026Y315721D01*
X204925Y315670D01*
X204826Y315615D01*
X204729Y315557D01*
X204634Y315495D01*
X204541Y315430D01*
X204451Y315362D01*
X204363Y315291D01*
X204277Y315216D01*
X204194Y315139D01*
X204114Y315059D01*
X204037Y314976D01*
X203962Y314890D01*
X203891Y314802D01*
X203823Y314712D01*
X203758Y314619D01*
X203696Y314524D01*
X203638Y314427D01*
X203583Y314328D01*
X203532Y314227D01*
X203484Y314124D01*
X203439Y314020D01*
X203399Y313914D01*
X203362Y313807D01*
X203329Y313699D01*
X203299Y313589D01*
X203274Y313479D01*
X203252Y313368D01*
X203235Y313256D01*
X203221Y313143D01*
X203211Y313030D01*
X203205Y312917D01*
X203203Y312804D01*
X203205Y312691D01*
X203211Y312578D01*
X203221Y312465D01*
X203235Y312352D01*
X203252Y312240D01*
X203274Y312129D01*
X203299Y312019D01*
X203329Y311909D01*
X203362Y311801D01*
X203399Y311694D01*
X203439Y311588D01*
X203484Y311484D01*
X203532Y311381D01*
X203583Y311280D01*
X203638Y311181D01*
X203696Y311084D01*
X203758Y310989D01*
X203823Y310896D01*
X203891Y310806D01*
X203962Y310718D01*
X204037Y310632D01*
X204114Y310549D01*
X204194Y310469D01*
X204277Y310392D01*
X204363Y310317D01*
X204451Y310246D01*
X204541Y310178D01*
X204634Y310113D01*
X204729Y310051D01*
X204826Y309993D01*
X204925Y309938D01*
X205026Y309887D01*
X205129Y309839D01*
X205233Y309794D01*
X205339Y309754D01*
X205446Y309717D01*
X205554Y309684D01*
X205664Y309654D01*
X205774Y309629D01*
X205885Y309607D01*
X205997Y309590D01*
X206110Y309576D01*
X206223Y309566D01*
X206336Y309560D01*
X206449Y309558D01*
X209695Y309558D01*
X209695Y321242D01*
X206449Y321242D01*
X206348Y321240D01*
X206248Y321234D01*
X206148Y321224D01*
X206048Y321211D01*
X205949Y321193D01*
X205850Y321172D01*
X205753Y321147D01*
X205656Y321118D01*
X205561Y321085D01*
X205467Y321049D01*
X205375Y321009D01*
X205284Y320966D01*
X205195Y320919D01*
X205108Y320869D01*
X205022Y320815D01*
X204939Y320758D01*
X204859Y320698D01*
X204780Y320635D01*
X204704Y320568D01*
X204631Y320499D01*
X204561Y320427D01*
X204493Y320353D01*
X204428Y320276D01*
X204367Y320196D01*
X204308Y320114D01*
X204253Y320030D01*
X204201Y319944D01*
X204152Y319856D01*
X204107Y319766D01*
X204065Y319674D01*
X204027Y319581D01*
X203993Y319486D01*
X203962Y319391D01*
X203935Y319294D01*
X203912Y319196D01*
X203892Y319097D01*
X203877Y318997D01*
X203865Y318897D01*
X203857Y318797D01*
X203853Y318696D01*
X203853Y318596D01*
X203857Y318495D01*
X203865Y318395D01*
X203877Y318295D01*
X203892Y318195D01*
X203912Y318096D01*
X203935Y317998D01*
X203962Y317901D01*
X203993Y317806D01*
X204027Y317711D01*
X204065Y317618D01*
X204107Y317526D01*
X204152Y317436D01*
X204201Y317348D01*
X204253Y317262D01*
X204308Y317178D01*
X204367Y317096D01*
X204428Y317016D01*
X204493Y316939D01*
X204561Y316865D01*
X204631Y316793D01*
X204704Y316724D01*
X204780Y316657D01*
X204859Y316594D01*
X204939Y316534D01*
X205022Y316477D01*
X205108Y316423D01*
X205195Y316373D01*
X205284Y316326D01*
X205375Y316283D01*
X205467Y316243D01*
X205561Y316207D01*
X205656Y316174D01*
X205753Y316145D01*
X205850Y316120D01*
X205949Y316099D01*
X206048Y316081D01*
X206148Y316068D01*
X206248Y316058D01*
X206348Y316052D01*
X206449Y316050D01*
X198547Y317347D02*
X198547Y311505D01*
X198545Y311418D01*
X198539Y311330D01*
X198529Y311244D01*
X198516Y311157D01*
X198498Y311072D01*
X198477Y310987D01*
X198452Y310903D01*
X198423Y310821D01*
X198390Y310740D01*
X198354Y310660D01*
X198315Y310582D01*
X198271Y310506D01*
X198225Y310432D01*
X198175Y310361D01*
X198122Y310291D01*
X198066Y310224D01*
X198007Y310160D01*
X197945Y310098D01*
X197881Y310039D01*
X197814Y309983D01*
X197744Y309930D01*
X197673Y309880D01*
X197599Y309834D01*
X197523Y309790D01*
X197445Y309751D01*
X197365Y309715D01*
X197284Y309682D01*
X197202Y309653D01*
X197118Y309628D01*
X197033Y309607D01*
X196948Y309589D01*
X196861Y309576D01*
X196775Y309566D01*
X196687Y309560D01*
X196600Y309558D01*
X193354Y309558D01*
X193354Y317347D01*
X189227Y317347D02*
X185333Y317347D01*
X187929Y321242D02*
X187929Y311505D01*
X187927Y311418D01*
X187921Y311330D01*
X187911Y311244D01*
X187898Y311157D01*
X187880Y311072D01*
X187859Y310987D01*
X187834Y310903D01*
X187805Y310821D01*
X187772Y310740D01*
X187736Y310660D01*
X187697Y310582D01*
X187653Y310506D01*
X187607Y310432D01*
X187557Y310361D01*
X187504Y310291D01*
X187448Y310224D01*
X187389Y310160D01*
X187327Y310098D01*
X187263Y310039D01*
X187196Y309983D01*
X187126Y309930D01*
X187055Y309880D01*
X186981Y309834D01*
X186905Y309790D01*
X186827Y309751D01*
X186747Y309715D01*
X186666Y309682D01*
X186584Y309653D01*
X186500Y309628D01*
X186415Y309607D01*
X186330Y309589D01*
X186243Y309576D01*
X186157Y309566D01*
X186069Y309560D01*
X185982Y309558D01*
X185333Y309558D01*
X181988Y317347D02*
X178094Y317347D01*
X180690Y321242D02*
X180690Y311505D01*
X180688Y311418D01*
X180682Y311330D01*
X180672Y311244D01*
X180659Y311157D01*
X180641Y311072D01*
X180620Y310987D01*
X180595Y310903D01*
X180566Y310821D01*
X180533Y310740D01*
X180497Y310660D01*
X180458Y310582D01*
X180414Y310506D01*
X180368Y310432D01*
X180318Y310361D01*
X180265Y310291D01*
X180209Y310224D01*
X180150Y310160D01*
X180088Y310098D01*
X180024Y310039D01*
X179957Y309983D01*
X179887Y309930D01*
X179816Y309880D01*
X179742Y309834D01*
X179666Y309790D01*
X179588Y309751D01*
X179508Y309715D01*
X179427Y309682D01*
X179345Y309653D01*
X179261Y309628D01*
X179176Y309607D01*
X179091Y309589D01*
X179004Y309576D01*
X178918Y309566D01*
X178830Y309560D01*
X178743Y309558D01*
X178094Y309558D01*
X173782Y312154D02*
X173782Y314751D01*
X173780Y314852D01*
X173774Y314952D01*
X173764Y315052D01*
X173751Y315152D01*
X173733Y315251D01*
X173712Y315350D01*
X173687Y315447D01*
X173658Y315544D01*
X173625Y315639D01*
X173589Y315733D01*
X173549Y315825D01*
X173506Y315916D01*
X173459Y316005D01*
X173409Y316092D01*
X173355Y316178D01*
X173298Y316261D01*
X173238Y316341D01*
X173175Y316420D01*
X173108Y316496D01*
X173039Y316569D01*
X172967Y316639D01*
X172893Y316707D01*
X172816Y316772D01*
X172736Y316833D01*
X172654Y316892D01*
X172570Y316947D01*
X172484Y316999D01*
X172396Y317048D01*
X172306Y317093D01*
X172214Y317135D01*
X172121Y317173D01*
X172026Y317207D01*
X171931Y317238D01*
X171834Y317265D01*
X171736Y317288D01*
X171637Y317308D01*
X171537Y317323D01*
X171437Y317335D01*
X171337Y317343D01*
X171236Y317347D01*
X171136Y317347D01*
X171035Y317343D01*
X170935Y317335D01*
X170835Y317323D01*
X170735Y317308D01*
X170636Y317288D01*
X170538Y317265D01*
X170441Y317238D01*
X170346Y317207D01*
X170251Y317173D01*
X170158Y317135D01*
X170066Y317093D01*
X169976Y317048D01*
X169888Y316999D01*
X169802Y316947D01*
X169718Y316892D01*
X169636Y316833D01*
X169556Y316772D01*
X169479Y316707D01*
X169405Y316639D01*
X169333Y316569D01*
X169264Y316496D01*
X169197Y316420D01*
X169134Y316341D01*
X169074Y316261D01*
X169017Y316178D01*
X168963Y316092D01*
X168913Y316005D01*
X168866Y315916D01*
X168823Y315825D01*
X168783Y315733D01*
X168747Y315639D01*
X168714Y315544D01*
X168685Y315447D01*
X168660Y315350D01*
X168639Y315251D01*
X168621Y315152D01*
X168608Y315052D01*
X168598Y314952D01*
X168592Y314852D01*
X168590Y314751D01*
X168589Y314751D02*
X168589Y312154D01*
X168590Y312154D02*
X168592Y312053D01*
X168598Y311953D01*
X168608Y311853D01*
X168621Y311753D01*
X168639Y311654D01*
X168660Y311555D01*
X168685Y311458D01*
X168714Y311361D01*
X168747Y311266D01*
X168783Y311172D01*
X168823Y311080D01*
X168866Y310989D01*
X168913Y310900D01*
X168963Y310813D01*
X169017Y310727D01*
X169074Y310644D01*
X169134Y310564D01*
X169197Y310485D01*
X169264Y310409D01*
X169333Y310336D01*
X169405Y310266D01*
X169479Y310198D01*
X169556Y310133D01*
X169636Y310072D01*
X169718Y310013D01*
X169802Y309958D01*
X169888Y309906D01*
X169976Y309857D01*
X170066Y309812D01*
X170158Y309770D01*
X170251Y309732D01*
X170346Y309698D01*
X170441Y309667D01*
X170538Y309640D01*
X170636Y309617D01*
X170735Y309597D01*
X170835Y309582D01*
X170935Y309570D01*
X171035Y309562D01*
X171136Y309558D01*
X171236Y309558D01*
X171337Y309562D01*
X171437Y309570D01*
X171537Y309582D01*
X171637Y309597D01*
X171736Y309617D01*
X171834Y309640D01*
X171931Y309667D01*
X172026Y309698D01*
X172121Y309732D01*
X172214Y309770D01*
X172306Y309812D01*
X172396Y309857D01*
X172484Y309906D01*
X172570Y309958D01*
X172654Y310013D01*
X172736Y310072D01*
X172816Y310133D01*
X172893Y310198D01*
X172967Y310266D01*
X173039Y310336D01*
X173108Y310409D01*
X173175Y310485D01*
X173238Y310564D01*
X173298Y310644D01*
X173355Y310727D01*
X173409Y310813D01*
X173459Y310900D01*
X173506Y310989D01*
X173549Y311080D01*
X173589Y311172D01*
X173625Y311266D01*
X173658Y311361D01*
X173687Y311458D01*
X173712Y311555D01*
X173733Y311654D01*
X173751Y311753D01*
X173764Y311853D01*
X173774Y311953D01*
X173780Y312053D01*
X173782Y312154D01*
X163495Y309558D02*
X163495Y317347D01*
X160249Y317347D01*
X160162Y317345D01*
X160074Y317339D01*
X159988Y317329D01*
X159901Y317316D01*
X159816Y317298D01*
X159731Y317277D01*
X159647Y317252D01*
X159565Y317223D01*
X159484Y317190D01*
X159404Y317154D01*
X159326Y317115D01*
X159250Y317071D01*
X159176Y317025D01*
X159105Y316975D01*
X159035Y316922D01*
X158968Y316866D01*
X158904Y316807D01*
X158842Y316746D01*
X158783Y316681D01*
X158727Y316614D01*
X158674Y316544D01*
X158624Y316473D01*
X158578Y316399D01*
X158535Y316323D01*
X158495Y316245D01*
X158459Y316165D01*
X158426Y316084D01*
X158397Y316002D01*
X158372Y315918D01*
X158351Y315833D01*
X158333Y315748D01*
X158320Y315661D01*
X158310Y315575D01*
X158304Y315487D01*
X158302Y315400D01*
X158302Y309558D01*
X146999Y309558D02*
X143754Y309558D01*
X143641Y309560D01*
X143528Y309566D01*
X143415Y309576D01*
X143302Y309590D01*
X143190Y309607D01*
X143079Y309629D01*
X142969Y309654D01*
X142859Y309684D01*
X142751Y309717D01*
X142644Y309754D01*
X142538Y309794D01*
X142434Y309839D01*
X142331Y309887D01*
X142230Y309938D01*
X142131Y309993D01*
X142034Y310051D01*
X141939Y310113D01*
X141846Y310178D01*
X141756Y310246D01*
X141668Y310317D01*
X141582Y310392D01*
X141499Y310469D01*
X141419Y310549D01*
X141342Y310632D01*
X141267Y310718D01*
X141196Y310806D01*
X141128Y310896D01*
X141063Y310989D01*
X141001Y311084D01*
X140943Y311181D01*
X140888Y311280D01*
X140837Y311381D01*
X140789Y311484D01*
X140744Y311588D01*
X140704Y311694D01*
X140667Y311801D01*
X140634Y311909D01*
X140604Y312019D01*
X140579Y312129D01*
X140557Y312240D01*
X140540Y312352D01*
X140526Y312465D01*
X140516Y312578D01*
X140510Y312691D01*
X140508Y312804D01*
X140510Y312917D01*
X140516Y313030D01*
X140526Y313143D01*
X140540Y313256D01*
X140557Y313368D01*
X140579Y313479D01*
X140604Y313589D01*
X140634Y313699D01*
X140667Y313807D01*
X140704Y313914D01*
X140744Y314020D01*
X140789Y314124D01*
X140837Y314227D01*
X140888Y314328D01*
X140943Y314427D01*
X141001Y314524D01*
X141063Y314619D01*
X141128Y314712D01*
X141196Y314802D01*
X141267Y314890D01*
X141342Y314976D01*
X141419Y315059D01*
X141499Y315139D01*
X141582Y315216D01*
X141668Y315291D01*
X141756Y315362D01*
X141846Y315430D01*
X141939Y315495D01*
X142034Y315557D01*
X142131Y315615D01*
X142230Y315670D01*
X142331Y315721D01*
X142434Y315769D01*
X142538Y315814D01*
X142644Y315854D01*
X142751Y315891D01*
X142859Y315924D01*
X142969Y315954D01*
X143079Y315979D01*
X143190Y316001D01*
X143302Y316018D01*
X143415Y316032D01*
X143528Y316042D01*
X143641Y316048D01*
X143754Y316050D01*
X143104Y321242D02*
X146999Y321242D01*
X143104Y321242D02*
X143003Y321240D01*
X142903Y321234D01*
X142803Y321224D01*
X142703Y321211D01*
X142604Y321193D01*
X142505Y321172D01*
X142408Y321147D01*
X142311Y321118D01*
X142216Y321085D01*
X142122Y321049D01*
X142030Y321009D01*
X141939Y320966D01*
X141850Y320919D01*
X141763Y320869D01*
X141677Y320815D01*
X141594Y320758D01*
X141514Y320698D01*
X141435Y320635D01*
X141359Y320568D01*
X141286Y320499D01*
X141216Y320427D01*
X141148Y320353D01*
X141083Y320276D01*
X141022Y320196D01*
X140963Y320114D01*
X140908Y320030D01*
X140856Y319944D01*
X140807Y319856D01*
X140762Y319766D01*
X140720Y319674D01*
X140682Y319581D01*
X140648Y319486D01*
X140617Y319391D01*
X140590Y319294D01*
X140567Y319196D01*
X140547Y319097D01*
X140532Y318997D01*
X140520Y318897D01*
X140512Y318797D01*
X140508Y318696D01*
X140508Y318596D01*
X140512Y318495D01*
X140520Y318395D01*
X140532Y318295D01*
X140547Y318195D01*
X140567Y318096D01*
X140590Y317998D01*
X140617Y317901D01*
X140648Y317806D01*
X140682Y317711D01*
X140720Y317618D01*
X140762Y317526D01*
X140807Y317436D01*
X140856Y317348D01*
X140908Y317262D01*
X140963Y317178D01*
X141022Y317096D01*
X141083Y317016D01*
X141148Y316939D01*
X141216Y316865D01*
X141286Y316793D01*
X141359Y316724D01*
X141435Y316657D01*
X141514Y316594D01*
X141594Y316534D01*
X141677Y316477D01*
X141763Y316423D01*
X141850Y316373D01*
X141939Y316326D01*
X142030Y316283D01*
X142122Y316243D01*
X142216Y316207D01*
X142311Y316174D01*
X142408Y316145D01*
X142505Y316120D01*
X142604Y316099D01*
X142703Y316081D01*
X142803Y316068D01*
X142903Y316058D01*
X143003Y316052D01*
X143104Y316050D01*
X143104Y316049D02*
X145701Y316049D01*
X243054Y293104D02*
X243056Y293005D01*
X243062Y292905D01*
X243071Y292806D01*
X243084Y292708D01*
X243101Y292610D01*
X243122Y292512D01*
X243147Y292416D01*
X243175Y292321D01*
X243207Y292227D01*
X243242Y292134D01*
X243281Y292042D01*
X243324Y291952D01*
X243369Y291864D01*
X243419Y291777D01*
X243471Y291693D01*
X243527Y291610D01*
X243585Y291530D01*
X243647Y291452D01*
X243712Y291377D01*
X243780Y291304D01*
X243850Y291234D01*
X243923Y291166D01*
X243998Y291101D01*
X244076Y291039D01*
X244156Y290981D01*
X244239Y290925D01*
X244323Y290873D01*
X244410Y290823D01*
X244498Y290778D01*
X244588Y290735D01*
X244680Y290696D01*
X244773Y290661D01*
X244867Y290629D01*
X244962Y290601D01*
X245058Y290576D01*
X245156Y290555D01*
X245254Y290538D01*
X245352Y290525D01*
X245451Y290516D01*
X245551Y290510D01*
X245650Y290508D01*
X245794Y290510D01*
X245939Y290516D01*
X246083Y290525D01*
X246226Y290538D01*
X246370Y290555D01*
X246513Y290576D01*
X246655Y290601D01*
X246796Y290629D01*
X246937Y290661D01*
X247077Y290697D01*
X247216Y290736D01*
X247354Y290779D01*
X247490Y290826D01*
X247626Y290876D01*
X247760Y290930D01*
X247892Y290987D01*
X248023Y291048D01*
X248152Y291112D01*
X248280Y291180D01*
X248406Y291251D01*
X248530Y291325D01*
X248651Y291402D01*
X248771Y291483D01*
X248889Y291566D01*
X249004Y291653D01*
X249117Y291743D01*
X249228Y291836D01*
X249336Y291931D01*
X249442Y292030D01*
X249545Y292131D01*
X249219Y299596D02*
X249217Y299695D01*
X249211Y299795D01*
X249202Y299894D01*
X249189Y299992D01*
X249172Y300090D01*
X249151Y300188D01*
X249126Y300284D01*
X249098Y300379D01*
X249066Y300473D01*
X249031Y300566D01*
X248992Y300658D01*
X248949Y300748D01*
X248904Y300836D01*
X248854Y300923D01*
X248802Y301007D01*
X248746Y301090D01*
X248688Y301170D01*
X248626Y301248D01*
X248561Y301323D01*
X248493Y301396D01*
X248423Y301466D01*
X248350Y301534D01*
X248275Y301599D01*
X248197Y301661D01*
X248117Y301719D01*
X248034Y301775D01*
X247950Y301827D01*
X247863Y301877D01*
X247775Y301922D01*
X247685Y301965D01*
X247593Y302004D01*
X247500Y302039D01*
X247406Y302071D01*
X247311Y302099D01*
X247215Y302124D01*
X247117Y302145D01*
X247019Y302162D01*
X246921Y302175D01*
X246822Y302184D01*
X246722Y302190D01*
X246623Y302192D01*
X246487Y302190D01*
X246351Y302184D01*
X246215Y302175D01*
X246079Y302162D01*
X245944Y302144D01*
X245810Y302124D01*
X245676Y302099D01*
X245542Y302071D01*
X245410Y302038D01*
X245279Y302003D01*
X245148Y301963D01*
X245019Y301920D01*
X244891Y301874D01*
X244765Y301823D01*
X244639Y301770D01*
X244516Y301712D01*
X244394Y301652D01*
X244274Y301588D01*
X244155Y301520D01*
X244039Y301450D01*
X243925Y301376D01*
X243812Y301299D01*
X243702Y301218D01*
X247922Y297324D02*
X248008Y297377D01*
X248092Y297434D01*
X248174Y297493D01*
X248254Y297556D01*
X248331Y297622D01*
X248406Y297690D01*
X248478Y297762D01*
X248547Y297836D01*
X248613Y297913D01*
X248676Y297992D01*
X248736Y298074D01*
X248793Y298158D01*
X248847Y298244D01*
X248897Y298332D01*
X248944Y298422D01*
X248988Y298513D01*
X249027Y298607D01*
X249064Y298701D01*
X249096Y298797D01*
X249125Y298895D01*
X249150Y298993D01*
X249171Y299092D01*
X249189Y299192D01*
X249202Y299292D01*
X249212Y299393D01*
X249218Y299495D01*
X249220Y299596D01*
X244351Y295376D02*
X244265Y295323D01*
X244181Y295266D01*
X244099Y295207D01*
X244019Y295144D01*
X243942Y295078D01*
X243867Y295010D01*
X243795Y294938D01*
X243726Y294864D01*
X243660Y294787D01*
X243597Y294708D01*
X243537Y294626D01*
X243480Y294542D01*
X243426Y294456D01*
X243376Y294368D01*
X243329Y294278D01*
X243285Y294187D01*
X243246Y294093D01*
X243209Y293999D01*
X243177Y293903D01*
X243148Y293805D01*
X243123Y293707D01*
X243102Y293608D01*
X243084Y293508D01*
X243071Y293408D01*
X243061Y293307D01*
X243055Y293205D01*
X243053Y293104D01*
X244352Y295376D02*
X247922Y297324D01*
X238608Y295701D02*
X238608Y293104D01*
X238608Y295701D02*
X238606Y295802D01*
X238600Y295902D01*
X238590Y296002D01*
X238577Y296102D01*
X238559Y296201D01*
X238538Y296300D01*
X238513Y296397D01*
X238484Y296494D01*
X238451Y296589D01*
X238415Y296683D01*
X238375Y296775D01*
X238332Y296866D01*
X238285Y296955D01*
X238235Y297042D01*
X238181Y297128D01*
X238124Y297211D01*
X238064Y297291D01*
X238001Y297370D01*
X237934Y297446D01*
X237865Y297519D01*
X237793Y297589D01*
X237719Y297657D01*
X237642Y297722D01*
X237562Y297783D01*
X237480Y297842D01*
X237396Y297897D01*
X237310Y297949D01*
X237222Y297998D01*
X237132Y298043D01*
X237040Y298085D01*
X236947Y298123D01*
X236852Y298157D01*
X236757Y298188D01*
X236660Y298215D01*
X236562Y298238D01*
X236463Y298258D01*
X236363Y298273D01*
X236263Y298285D01*
X236163Y298293D01*
X236062Y298297D01*
X235962Y298297D01*
X235861Y298293D01*
X235761Y298285D01*
X235661Y298273D01*
X235561Y298258D01*
X235462Y298238D01*
X235364Y298215D01*
X235267Y298188D01*
X235172Y298157D01*
X235077Y298123D01*
X234984Y298085D01*
X234892Y298043D01*
X234802Y297998D01*
X234714Y297949D01*
X234628Y297897D01*
X234544Y297842D01*
X234462Y297783D01*
X234382Y297722D01*
X234305Y297657D01*
X234231Y297589D01*
X234159Y297519D01*
X234090Y297446D01*
X234023Y297370D01*
X233960Y297291D01*
X233900Y297211D01*
X233843Y297128D01*
X233789Y297042D01*
X233739Y296955D01*
X233692Y296866D01*
X233649Y296775D01*
X233609Y296683D01*
X233573Y296589D01*
X233540Y296494D01*
X233511Y296397D01*
X233486Y296300D01*
X233465Y296201D01*
X233447Y296102D01*
X233434Y296002D01*
X233424Y295902D01*
X233418Y295802D01*
X233416Y295701D01*
X233416Y293104D01*
X233418Y293003D01*
X233424Y292903D01*
X233434Y292803D01*
X233447Y292703D01*
X233465Y292604D01*
X233486Y292505D01*
X233511Y292408D01*
X233540Y292311D01*
X233573Y292216D01*
X233609Y292122D01*
X233649Y292030D01*
X233692Y291939D01*
X233739Y291850D01*
X233789Y291763D01*
X233843Y291677D01*
X233900Y291594D01*
X233960Y291514D01*
X234023Y291435D01*
X234090Y291359D01*
X234159Y291286D01*
X234231Y291216D01*
X234305Y291148D01*
X234382Y291083D01*
X234462Y291022D01*
X234544Y290963D01*
X234628Y290908D01*
X234714Y290856D01*
X234802Y290807D01*
X234892Y290762D01*
X234984Y290720D01*
X235077Y290682D01*
X235172Y290648D01*
X235267Y290617D01*
X235364Y290590D01*
X235462Y290567D01*
X235561Y290547D01*
X235661Y290532D01*
X235761Y290520D01*
X235861Y290512D01*
X235962Y290508D01*
X236062Y290508D01*
X236163Y290512D01*
X236263Y290520D01*
X236363Y290532D01*
X236463Y290547D01*
X236562Y290567D01*
X236660Y290590D01*
X236757Y290617D01*
X236852Y290648D01*
X236947Y290682D01*
X237040Y290720D01*
X237132Y290762D01*
X237222Y290807D01*
X237310Y290856D01*
X237396Y290908D01*
X237480Y290963D01*
X237562Y291022D01*
X237642Y291083D01*
X237719Y291148D01*
X237793Y291216D01*
X237865Y291286D01*
X237934Y291359D01*
X238001Y291435D01*
X238064Y291514D01*
X238124Y291594D01*
X238181Y291677D01*
X238235Y291763D01*
X238285Y291850D01*
X238332Y291939D01*
X238375Y292030D01*
X238415Y292122D01*
X238451Y292216D01*
X238484Y292311D01*
X238513Y292408D01*
X238538Y292505D01*
X238559Y292604D01*
X238577Y292703D01*
X238590Y292803D01*
X238600Y292903D01*
X238606Y293003D01*
X238608Y293104D01*
X228321Y292455D02*
X228321Y298297D01*
X228321Y292455D02*
X228319Y292368D01*
X228313Y292280D01*
X228303Y292194D01*
X228290Y292107D01*
X228272Y292022D01*
X228251Y291937D01*
X228226Y291853D01*
X228197Y291771D01*
X228164Y291690D01*
X228128Y291610D01*
X228089Y291532D01*
X228045Y291456D01*
X227999Y291382D01*
X227949Y291311D01*
X227896Y291241D01*
X227840Y291174D01*
X227781Y291110D01*
X227719Y291048D01*
X227655Y290989D01*
X227588Y290933D01*
X227518Y290880D01*
X227447Y290830D01*
X227373Y290784D01*
X227297Y290740D01*
X227219Y290701D01*
X227139Y290665D01*
X227058Y290632D01*
X226976Y290603D01*
X226892Y290578D01*
X226807Y290557D01*
X226722Y290539D01*
X226635Y290526D01*
X226549Y290516D01*
X226461Y290510D01*
X226374Y290508D01*
X223129Y290508D01*
X223129Y298297D01*
X217653Y298297D02*
X217653Y290508D01*
X217653Y298297D02*
X214408Y298297D01*
X214321Y298295D01*
X214233Y298289D01*
X214147Y298279D01*
X214060Y298266D01*
X213975Y298248D01*
X213890Y298227D01*
X213806Y298202D01*
X213724Y298173D01*
X213643Y298140D01*
X213563Y298104D01*
X213485Y298065D01*
X213409Y298021D01*
X213335Y297975D01*
X213264Y297925D01*
X213194Y297872D01*
X213127Y297816D01*
X213063Y297757D01*
X213001Y297696D01*
X212942Y297631D01*
X212886Y297564D01*
X212833Y297494D01*
X212783Y297423D01*
X212737Y297349D01*
X212694Y297273D01*
X212654Y297195D01*
X212618Y297115D01*
X212585Y297034D01*
X212556Y296952D01*
X212531Y296868D01*
X212510Y296783D01*
X212492Y296698D01*
X212479Y296611D01*
X212469Y296525D01*
X212463Y296437D01*
X212461Y296350D01*
X212461Y290508D01*
X202232Y290508D02*
X202232Y302192D01*
X202232Y290508D02*
X205478Y290508D01*
X205565Y290510D01*
X205653Y290516D01*
X205739Y290526D01*
X205826Y290539D01*
X205911Y290557D01*
X205996Y290578D01*
X206080Y290603D01*
X206162Y290632D01*
X206243Y290665D01*
X206323Y290701D01*
X206401Y290740D01*
X206477Y290784D01*
X206551Y290830D01*
X206622Y290880D01*
X206692Y290933D01*
X206759Y290989D01*
X206823Y291048D01*
X206885Y291110D01*
X206944Y291174D01*
X207000Y291241D01*
X207053Y291311D01*
X207103Y291382D01*
X207149Y291456D01*
X207193Y291532D01*
X207232Y291610D01*
X207268Y291690D01*
X207301Y291771D01*
X207330Y291853D01*
X207355Y291937D01*
X207376Y292022D01*
X207394Y292107D01*
X207407Y292194D01*
X207417Y292280D01*
X207423Y292368D01*
X207425Y292455D01*
X207425Y296350D01*
X207423Y296437D01*
X207417Y296525D01*
X207407Y296611D01*
X207394Y296698D01*
X207376Y296783D01*
X207355Y296868D01*
X207330Y296952D01*
X207301Y297034D01*
X207268Y297115D01*
X207232Y297195D01*
X207193Y297273D01*
X207149Y297349D01*
X207103Y297423D01*
X207053Y297494D01*
X207000Y297564D01*
X206944Y297631D01*
X206885Y297695D01*
X206823Y297757D01*
X206759Y297816D01*
X206692Y297872D01*
X206622Y297925D01*
X206551Y297975D01*
X206477Y298021D01*
X206401Y298065D01*
X206323Y298104D01*
X206243Y298140D01*
X206162Y298173D01*
X206080Y298202D01*
X205996Y298227D01*
X205911Y298248D01*
X205826Y298266D01*
X205739Y298279D01*
X205653Y298289D01*
X205565Y298295D01*
X205478Y298297D01*
X202232Y298297D01*
X190467Y302192D02*
X190467Y290508D01*
X185274Y290508D01*
X179130Y290508D02*
X175885Y290508D01*
X179130Y290508D02*
X179217Y290510D01*
X179305Y290516D01*
X179391Y290526D01*
X179478Y290539D01*
X179563Y290557D01*
X179648Y290578D01*
X179732Y290603D01*
X179814Y290632D01*
X179895Y290665D01*
X179975Y290701D01*
X180053Y290740D01*
X180129Y290784D01*
X180203Y290830D01*
X180274Y290880D01*
X180344Y290933D01*
X180411Y290989D01*
X180475Y291048D01*
X180537Y291110D01*
X180596Y291174D01*
X180652Y291241D01*
X180705Y291311D01*
X180755Y291382D01*
X180801Y291456D01*
X180845Y291532D01*
X180884Y291610D01*
X180920Y291690D01*
X180953Y291771D01*
X180982Y291853D01*
X181007Y291937D01*
X181028Y292022D01*
X181046Y292107D01*
X181059Y292194D01*
X181069Y292280D01*
X181075Y292368D01*
X181077Y292455D01*
X181077Y295701D01*
X181075Y295802D01*
X181069Y295902D01*
X181059Y296002D01*
X181046Y296102D01*
X181028Y296201D01*
X181007Y296300D01*
X180982Y296397D01*
X180953Y296494D01*
X180920Y296589D01*
X180884Y296683D01*
X180844Y296775D01*
X180801Y296866D01*
X180754Y296955D01*
X180704Y297042D01*
X180650Y297128D01*
X180593Y297211D01*
X180533Y297291D01*
X180470Y297370D01*
X180403Y297446D01*
X180334Y297519D01*
X180262Y297589D01*
X180188Y297657D01*
X180111Y297722D01*
X180031Y297783D01*
X179949Y297842D01*
X179865Y297897D01*
X179779Y297949D01*
X179691Y297998D01*
X179601Y298043D01*
X179509Y298085D01*
X179416Y298123D01*
X179321Y298157D01*
X179226Y298188D01*
X179129Y298215D01*
X179031Y298238D01*
X178932Y298258D01*
X178832Y298273D01*
X178732Y298285D01*
X178632Y298293D01*
X178531Y298297D01*
X178431Y298297D01*
X178330Y298293D01*
X178230Y298285D01*
X178130Y298273D01*
X178030Y298258D01*
X177931Y298238D01*
X177833Y298215D01*
X177736Y298188D01*
X177641Y298157D01*
X177546Y298123D01*
X177453Y298085D01*
X177361Y298043D01*
X177271Y297998D01*
X177183Y297949D01*
X177097Y297897D01*
X177013Y297842D01*
X176931Y297783D01*
X176851Y297722D01*
X176774Y297657D01*
X176700Y297589D01*
X176628Y297519D01*
X176559Y297446D01*
X176492Y297370D01*
X176429Y297291D01*
X176369Y297211D01*
X176312Y297128D01*
X176258Y297042D01*
X176208Y296955D01*
X176161Y296866D01*
X176118Y296775D01*
X176078Y296683D01*
X176042Y296589D01*
X176009Y296494D01*
X175980Y296397D01*
X175955Y296300D01*
X175934Y296201D01*
X175916Y296102D01*
X175903Y296002D01*
X175893Y295902D01*
X175887Y295802D01*
X175885Y295701D01*
X175885Y294403D01*
X181077Y294403D01*
X171552Y298297D02*
X168956Y290508D01*
X166360Y298297D01*
X160080Y290508D02*
X156835Y290508D01*
X160080Y290508D02*
X160167Y290510D01*
X160255Y290516D01*
X160341Y290526D01*
X160428Y290539D01*
X160513Y290557D01*
X160598Y290578D01*
X160682Y290603D01*
X160764Y290632D01*
X160845Y290665D01*
X160925Y290701D01*
X161003Y290740D01*
X161079Y290784D01*
X161153Y290830D01*
X161224Y290880D01*
X161294Y290933D01*
X161361Y290989D01*
X161425Y291048D01*
X161487Y291110D01*
X161546Y291174D01*
X161602Y291241D01*
X161655Y291311D01*
X161705Y291382D01*
X161751Y291456D01*
X161795Y291532D01*
X161834Y291610D01*
X161870Y291690D01*
X161903Y291771D01*
X161932Y291853D01*
X161957Y291937D01*
X161978Y292022D01*
X161996Y292107D01*
X162009Y292194D01*
X162019Y292280D01*
X162025Y292368D01*
X162027Y292455D01*
X162027Y295701D01*
X162025Y295802D01*
X162019Y295902D01*
X162009Y296002D01*
X161996Y296102D01*
X161978Y296201D01*
X161957Y296300D01*
X161932Y296397D01*
X161903Y296494D01*
X161870Y296589D01*
X161834Y296683D01*
X161794Y296775D01*
X161751Y296866D01*
X161704Y296955D01*
X161654Y297042D01*
X161600Y297128D01*
X161543Y297211D01*
X161483Y297291D01*
X161420Y297370D01*
X161353Y297446D01*
X161284Y297519D01*
X161212Y297589D01*
X161138Y297657D01*
X161061Y297722D01*
X160981Y297783D01*
X160899Y297842D01*
X160815Y297897D01*
X160729Y297949D01*
X160641Y297998D01*
X160551Y298043D01*
X160459Y298085D01*
X160366Y298123D01*
X160271Y298157D01*
X160176Y298188D01*
X160079Y298215D01*
X159981Y298238D01*
X159882Y298258D01*
X159782Y298273D01*
X159682Y298285D01*
X159582Y298293D01*
X159481Y298297D01*
X159381Y298297D01*
X159280Y298293D01*
X159180Y298285D01*
X159080Y298273D01*
X158980Y298258D01*
X158881Y298238D01*
X158783Y298215D01*
X158686Y298188D01*
X158591Y298157D01*
X158496Y298123D01*
X158403Y298085D01*
X158311Y298043D01*
X158221Y297998D01*
X158133Y297949D01*
X158047Y297897D01*
X157963Y297842D01*
X157881Y297783D01*
X157801Y297722D01*
X157724Y297657D01*
X157650Y297589D01*
X157578Y297519D01*
X157509Y297446D01*
X157442Y297370D01*
X157379Y297291D01*
X157319Y297211D01*
X157262Y297128D01*
X157208Y297042D01*
X157158Y296955D01*
X157111Y296866D01*
X157068Y296775D01*
X157028Y296683D01*
X156992Y296589D01*
X156959Y296494D01*
X156930Y296397D01*
X156905Y296300D01*
X156884Y296201D01*
X156866Y296102D01*
X156853Y296002D01*
X156843Y295902D01*
X156837Y295802D01*
X156835Y295701D01*
X156835Y294403D01*
X162027Y294403D01*
X151972Y292455D02*
X151972Y302192D01*
X151972Y292455D02*
X151970Y292368D01*
X151964Y292280D01*
X151954Y292194D01*
X151941Y292107D01*
X151923Y292022D01*
X151902Y291937D01*
X151877Y291853D01*
X151848Y291771D01*
X151815Y291690D01*
X151779Y291610D01*
X151740Y291532D01*
X151696Y291456D01*
X151650Y291382D01*
X151600Y291311D01*
X151547Y291241D01*
X151491Y291174D01*
X151432Y291110D01*
X151370Y291048D01*
X151306Y290989D01*
X151239Y290933D01*
X151169Y290880D01*
X151098Y290830D01*
X151024Y290784D01*
X150948Y290740D01*
X150870Y290701D01*
X150790Y290665D01*
X150709Y290632D01*
X150627Y290603D01*
X150543Y290578D01*
X150458Y290557D01*
X150373Y290539D01*
X150286Y290526D01*
X150200Y290516D01*
X150112Y290510D01*
X150025Y290508D01*
X145052Y295052D02*
X141806Y293754D01*
X145052Y295051D02*
X145127Y295084D01*
X145201Y295120D01*
X145273Y295159D01*
X145343Y295202D01*
X145410Y295248D01*
X145476Y295298D01*
X145538Y295350D01*
X145599Y295406D01*
X145656Y295464D01*
X145711Y295525D01*
X145762Y295589D01*
X145810Y295655D01*
X145855Y295724D01*
X145897Y295794D01*
X145935Y295867D01*
X145970Y295941D01*
X146001Y296017D01*
X146028Y296094D01*
X146051Y296173D01*
X146071Y296252D01*
X146086Y296333D01*
X146098Y296414D01*
X146106Y296496D01*
X146110Y296577D01*
X146109Y296659D01*
X146105Y296741D01*
X146097Y296823D01*
X146085Y296904D01*
X146069Y296984D01*
X146049Y297064D01*
X146025Y297142D01*
X145997Y297219D01*
X145966Y297295D01*
X145931Y297369D01*
X145893Y297441D01*
X145851Y297512D01*
X145805Y297580D01*
X145757Y297646D01*
X145705Y297709D01*
X145650Y297770D01*
X145592Y297828D01*
X145532Y297884D01*
X145469Y297936D01*
X145403Y297985D01*
X145335Y298031D01*
X145265Y298073D01*
X145193Y298113D01*
X145119Y298148D01*
X145044Y298180D01*
X144967Y298208D01*
X144889Y298232D01*
X144809Y298253D01*
X144729Y298270D01*
X144648Y298282D01*
X144567Y298291D01*
X144485Y298296D01*
X144403Y298297D01*
X144226Y298293D01*
X144049Y298284D01*
X143872Y298270D01*
X143695Y298253D01*
X143520Y298231D01*
X143344Y298206D01*
X143170Y298175D01*
X142996Y298141D01*
X142823Y298103D01*
X142651Y298060D01*
X142480Y298013D01*
X142310Y297963D01*
X142141Y297908D01*
X141974Y297849D01*
X141809Y297786D01*
X141644Y297719D01*
X141482Y297648D01*
X141806Y293754D02*
X141731Y293721D01*
X141657Y293685D01*
X141585Y293646D01*
X141515Y293603D01*
X141448Y293557D01*
X141382Y293507D01*
X141320Y293455D01*
X141259Y293399D01*
X141202Y293341D01*
X141147Y293280D01*
X141096Y293216D01*
X141048Y293150D01*
X141003Y293081D01*
X140961Y293011D01*
X140923Y292938D01*
X140888Y292864D01*
X140857Y292788D01*
X140830Y292711D01*
X140807Y292632D01*
X140787Y292553D01*
X140772Y292472D01*
X140760Y292391D01*
X140752Y292309D01*
X140748Y292228D01*
X140749Y292146D01*
X140753Y292064D01*
X140761Y291982D01*
X140773Y291901D01*
X140789Y291821D01*
X140809Y291741D01*
X140833Y291663D01*
X140861Y291586D01*
X140892Y291510D01*
X140927Y291436D01*
X140965Y291364D01*
X141007Y291293D01*
X141053Y291225D01*
X141101Y291159D01*
X141153Y291096D01*
X141208Y291035D01*
X141266Y290977D01*
X141326Y290921D01*
X141389Y290869D01*
X141455Y290820D01*
X141523Y290774D01*
X141593Y290732D01*
X141665Y290692D01*
X141739Y290657D01*
X141814Y290625D01*
X141891Y290597D01*
X141969Y290573D01*
X142049Y290552D01*
X142129Y290535D01*
X142210Y290523D01*
X142291Y290514D01*
X142373Y290509D01*
X142455Y290508D01*
X142715Y290515D01*
X142975Y290528D01*
X143235Y290547D01*
X143494Y290572D01*
X143753Y290604D01*
X144010Y290641D01*
X144267Y290685D01*
X144523Y290734D01*
X144777Y290790D01*
X145030Y290851D01*
X145281Y290919D01*
X145531Y290993D01*
X145779Y291072D01*
X146025Y291157D01*
X205449Y254049D02*
X208695Y254049D01*
X205449Y254050D02*
X205336Y254048D01*
X205223Y254042D01*
X205110Y254032D01*
X204997Y254018D01*
X204885Y254001D01*
X204774Y253979D01*
X204664Y253954D01*
X204554Y253924D01*
X204446Y253891D01*
X204339Y253854D01*
X204233Y253814D01*
X204129Y253769D01*
X204026Y253721D01*
X203925Y253670D01*
X203826Y253615D01*
X203729Y253557D01*
X203634Y253495D01*
X203541Y253430D01*
X203451Y253362D01*
X203363Y253291D01*
X203277Y253216D01*
X203194Y253139D01*
X203114Y253059D01*
X203037Y252976D01*
X202962Y252890D01*
X202891Y252802D01*
X202823Y252712D01*
X202758Y252619D01*
X202696Y252524D01*
X202638Y252427D01*
X202583Y252328D01*
X202532Y252227D01*
X202484Y252124D01*
X202439Y252020D01*
X202399Y251914D01*
X202362Y251807D01*
X202329Y251699D01*
X202299Y251589D01*
X202274Y251479D01*
X202252Y251368D01*
X202235Y251256D01*
X202221Y251143D01*
X202211Y251030D01*
X202205Y250917D01*
X202203Y250804D01*
X202205Y250691D01*
X202211Y250578D01*
X202221Y250465D01*
X202235Y250352D01*
X202252Y250240D01*
X202274Y250129D01*
X202299Y250019D01*
X202329Y249909D01*
X202362Y249801D01*
X202399Y249694D01*
X202439Y249588D01*
X202484Y249484D01*
X202532Y249381D01*
X202583Y249280D01*
X202638Y249181D01*
X202696Y249084D01*
X202758Y248989D01*
X202823Y248896D01*
X202891Y248806D01*
X202962Y248718D01*
X203037Y248632D01*
X203114Y248549D01*
X203194Y248469D01*
X203277Y248392D01*
X203363Y248317D01*
X203451Y248246D01*
X203541Y248178D01*
X203634Y248113D01*
X203729Y248051D01*
X203826Y247993D01*
X203925Y247938D01*
X204026Y247887D01*
X204129Y247839D01*
X204233Y247794D01*
X204339Y247754D01*
X204446Y247717D01*
X204554Y247684D01*
X204664Y247654D01*
X204774Y247629D01*
X204885Y247607D01*
X204997Y247590D01*
X205110Y247576D01*
X205223Y247566D01*
X205336Y247560D01*
X205449Y247558D01*
X208695Y247558D01*
X208695Y259242D01*
X205449Y259242D01*
X205348Y259240D01*
X205248Y259234D01*
X205148Y259224D01*
X205048Y259211D01*
X204949Y259193D01*
X204850Y259172D01*
X204753Y259147D01*
X204656Y259118D01*
X204561Y259085D01*
X204467Y259049D01*
X204375Y259009D01*
X204284Y258966D01*
X204195Y258919D01*
X204108Y258869D01*
X204022Y258815D01*
X203939Y258758D01*
X203859Y258698D01*
X203780Y258635D01*
X203704Y258568D01*
X203631Y258499D01*
X203561Y258427D01*
X203493Y258353D01*
X203428Y258276D01*
X203367Y258196D01*
X203308Y258114D01*
X203253Y258030D01*
X203201Y257944D01*
X203152Y257856D01*
X203107Y257766D01*
X203065Y257674D01*
X203027Y257581D01*
X202993Y257486D01*
X202962Y257391D01*
X202935Y257294D01*
X202912Y257196D01*
X202892Y257097D01*
X202877Y256997D01*
X202865Y256897D01*
X202857Y256797D01*
X202853Y256696D01*
X202853Y256596D01*
X202857Y256495D01*
X202865Y256395D01*
X202877Y256295D01*
X202892Y256195D01*
X202912Y256096D01*
X202935Y255998D01*
X202962Y255901D01*
X202993Y255806D01*
X203027Y255711D01*
X203065Y255618D01*
X203107Y255526D01*
X203152Y255436D01*
X203201Y255348D01*
X203253Y255262D01*
X203308Y255178D01*
X203367Y255096D01*
X203428Y255016D01*
X203493Y254939D01*
X203561Y254865D01*
X203631Y254793D01*
X203704Y254724D01*
X203780Y254657D01*
X203859Y254594D01*
X203939Y254534D01*
X204022Y254477D01*
X204108Y254423D01*
X204195Y254373D01*
X204284Y254326D01*
X204375Y254283D01*
X204467Y254243D01*
X204561Y254207D01*
X204656Y254174D01*
X204753Y254145D01*
X204850Y254120D01*
X204949Y254099D01*
X205048Y254081D01*
X205148Y254068D01*
X205248Y254058D01*
X205348Y254052D01*
X205449Y254050D01*
X197547Y255347D02*
X197547Y249505D01*
X197545Y249418D01*
X197539Y249330D01*
X197529Y249244D01*
X197516Y249157D01*
X197498Y249072D01*
X197477Y248987D01*
X197452Y248903D01*
X197423Y248821D01*
X197390Y248740D01*
X197354Y248660D01*
X197315Y248582D01*
X197271Y248506D01*
X197225Y248432D01*
X197175Y248361D01*
X197122Y248291D01*
X197066Y248224D01*
X197007Y248160D01*
X196945Y248098D01*
X196881Y248039D01*
X196814Y247983D01*
X196744Y247930D01*
X196673Y247880D01*
X196599Y247834D01*
X196523Y247790D01*
X196445Y247751D01*
X196365Y247715D01*
X196284Y247682D01*
X196202Y247653D01*
X196118Y247628D01*
X196033Y247607D01*
X195948Y247589D01*
X195861Y247576D01*
X195775Y247566D01*
X195687Y247560D01*
X195600Y247558D01*
X192354Y247558D01*
X192354Y255347D01*
X188227Y255347D02*
X184333Y255347D01*
X186929Y259242D02*
X186929Y249505D01*
X186927Y249418D01*
X186921Y249330D01*
X186911Y249244D01*
X186898Y249157D01*
X186880Y249072D01*
X186859Y248987D01*
X186834Y248903D01*
X186805Y248821D01*
X186772Y248740D01*
X186736Y248660D01*
X186697Y248582D01*
X186653Y248506D01*
X186607Y248432D01*
X186557Y248361D01*
X186504Y248291D01*
X186448Y248224D01*
X186389Y248160D01*
X186327Y248098D01*
X186263Y248039D01*
X186196Y247983D01*
X186126Y247930D01*
X186055Y247880D01*
X185981Y247834D01*
X185905Y247790D01*
X185827Y247751D01*
X185747Y247715D01*
X185666Y247682D01*
X185584Y247653D01*
X185500Y247628D01*
X185415Y247607D01*
X185330Y247589D01*
X185243Y247576D01*
X185157Y247566D01*
X185069Y247560D01*
X184982Y247558D01*
X184333Y247558D01*
X180988Y255347D02*
X177094Y255347D01*
X179690Y259242D02*
X179690Y249505D01*
X179688Y249418D01*
X179682Y249330D01*
X179672Y249244D01*
X179659Y249157D01*
X179641Y249072D01*
X179620Y248987D01*
X179595Y248903D01*
X179566Y248821D01*
X179533Y248740D01*
X179497Y248660D01*
X179458Y248582D01*
X179414Y248506D01*
X179368Y248432D01*
X179318Y248361D01*
X179265Y248291D01*
X179209Y248224D01*
X179150Y248160D01*
X179088Y248098D01*
X179024Y248039D01*
X178957Y247983D01*
X178887Y247930D01*
X178816Y247880D01*
X178742Y247834D01*
X178666Y247790D01*
X178588Y247751D01*
X178508Y247715D01*
X178427Y247682D01*
X178345Y247653D01*
X178261Y247628D01*
X178176Y247607D01*
X178091Y247589D01*
X178004Y247576D01*
X177918Y247566D01*
X177830Y247560D01*
X177743Y247558D01*
X177094Y247558D01*
X172782Y250154D02*
X172782Y252751D01*
X172780Y252852D01*
X172774Y252952D01*
X172764Y253052D01*
X172751Y253152D01*
X172733Y253251D01*
X172712Y253350D01*
X172687Y253447D01*
X172658Y253544D01*
X172625Y253639D01*
X172589Y253733D01*
X172549Y253825D01*
X172506Y253916D01*
X172459Y254005D01*
X172409Y254092D01*
X172355Y254178D01*
X172298Y254261D01*
X172238Y254341D01*
X172175Y254420D01*
X172108Y254496D01*
X172039Y254569D01*
X171967Y254639D01*
X171893Y254707D01*
X171816Y254772D01*
X171736Y254833D01*
X171654Y254892D01*
X171570Y254947D01*
X171484Y254999D01*
X171396Y255048D01*
X171306Y255093D01*
X171214Y255135D01*
X171121Y255173D01*
X171026Y255207D01*
X170931Y255238D01*
X170834Y255265D01*
X170736Y255288D01*
X170637Y255308D01*
X170537Y255323D01*
X170437Y255335D01*
X170337Y255343D01*
X170236Y255347D01*
X170136Y255347D01*
X170035Y255343D01*
X169935Y255335D01*
X169835Y255323D01*
X169735Y255308D01*
X169636Y255288D01*
X169538Y255265D01*
X169441Y255238D01*
X169346Y255207D01*
X169251Y255173D01*
X169158Y255135D01*
X169066Y255093D01*
X168976Y255048D01*
X168888Y254999D01*
X168802Y254947D01*
X168718Y254892D01*
X168636Y254833D01*
X168556Y254772D01*
X168479Y254707D01*
X168405Y254639D01*
X168333Y254569D01*
X168264Y254496D01*
X168197Y254420D01*
X168134Y254341D01*
X168074Y254261D01*
X168017Y254178D01*
X167963Y254092D01*
X167913Y254005D01*
X167866Y253916D01*
X167823Y253825D01*
X167783Y253733D01*
X167747Y253639D01*
X167714Y253544D01*
X167685Y253447D01*
X167660Y253350D01*
X167639Y253251D01*
X167621Y253152D01*
X167608Y253052D01*
X167598Y252952D01*
X167592Y252852D01*
X167590Y252751D01*
X167589Y252751D02*
X167589Y250154D01*
X167590Y250154D02*
X167592Y250053D01*
X167598Y249953D01*
X167608Y249853D01*
X167621Y249753D01*
X167639Y249654D01*
X167660Y249555D01*
X167685Y249458D01*
X167714Y249361D01*
X167747Y249266D01*
X167783Y249172D01*
X167823Y249080D01*
X167866Y248989D01*
X167913Y248900D01*
X167963Y248813D01*
X168017Y248727D01*
X168074Y248644D01*
X168134Y248564D01*
X168197Y248485D01*
X168264Y248409D01*
X168333Y248336D01*
X168405Y248266D01*
X168479Y248198D01*
X168556Y248133D01*
X168636Y248072D01*
X168718Y248013D01*
X168802Y247958D01*
X168888Y247906D01*
X168976Y247857D01*
X169066Y247812D01*
X169158Y247770D01*
X169251Y247732D01*
X169346Y247698D01*
X169441Y247667D01*
X169538Y247640D01*
X169636Y247617D01*
X169735Y247597D01*
X169835Y247582D01*
X169935Y247570D01*
X170035Y247562D01*
X170136Y247558D01*
X170236Y247558D01*
X170337Y247562D01*
X170437Y247570D01*
X170537Y247582D01*
X170637Y247597D01*
X170736Y247617D01*
X170834Y247640D01*
X170931Y247667D01*
X171026Y247698D01*
X171121Y247732D01*
X171214Y247770D01*
X171306Y247812D01*
X171396Y247857D01*
X171484Y247906D01*
X171570Y247958D01*
X171654Y248013D01*
X171736Y248072D01*
X171816Y248133D01*
X171893Y248198D01*
X171967Y248266D01*
X172039Y248336D01*
X172108Y248409D01*
X172175Y248485D01*
X172238Y248564D01*
X172298Y248644D01*
X172355Y248727D01*
X172409Y248813D01*
X172459Y248900D01*
X172506Y248989D01*
X172549Y249080D01*
X172589Y249172D01*
X172625Y249266D01*
X172658Y249361D01*
X172687Y249458D01*
X172712Y249555D01*
X172733Y249654D01*
X172751Y249753D01*
X172764Y249853D01*
X172774Y249953D01*
X172780Y250053D01*
X172782Y250154D01*
X162495Y247558D02*
X162495Y255347D01*
X159249Y255347D01*
X159162Y255345D01*
X159074Y255339D01*
X158988Y255329D01*
X158901Y255316D01*
X158816Y255298D01*
X158731Y255277D01*
X158647Y255252D01*
X158565Y255223D01*
X158484Y255190D01*
X158404Y255154D01*
X158326Y255115D01*
X158250Y255071D01*
X158176Y255025D01*
X158105Y254975D01*
X158035Y254922D01*
X157968Y254866D01*
X157904Y254807D01*
X157842Y254746D01*
X157783Y254681D01*
X157727Y254614D01*
X157674Y254544D01*
X157624Y254473D01*
X157578Y254399D01*
X157535Y254323D01*
X157495Y254245D01*
X157459Y254165D01*
X157426Y254084D01*
X157397Y254002D01*
X157372Y253918D01*
X157351Y253833D01*
X157333Y253748D01*
X157320Y253661D01*
X157310Y253575D01*
X157304Y253487D01*
X157302Y253400D01*
X157302Y247558D01*
X145999Y250154D02*
X143403Y259242D01*
X145999Y250154D02*
X139508Y250154D01*
X141455Y252751D02*
X141455Y247558D01*
X238235Y240192D02*
X238235Y228508D01*
X233042Y228508D01*
X228916Y228508D02*
X228916Y236297D01*
X229240Y239543D02*
X229240Y240192D01*
X228591Y240192D01*
X228591Y239543D01*
X229240Y239543D01*
X222385Y228508D02*
X219139Y228508D01*
X222385Y228508D02*
X222472Y228510D01*
X222560Y228516D01*
X222646Y228526D01*
X222733Y228539D01*
X222818Y228557D01*
X222903Y228578D01*
X222987Y228603D01*
X223069Y228632D01*
X223150Y228665D01*
X223230Y228701D01*
X223308Y228740D01*
X223384Y228784D01*
X223458Y228830D01*
X223529Y228880D01*
X223599Y228933D01*
X223666Y228989D01*
X223730Y229048D01*
X223792Y229110D01*
X223851Y229174D01*
X223907Y229241D01*
X223960Y229311D01*
X224010Y229382D01*
X224056Y229456D01*
X224100Y229532D01*
X224139Y229610D01*
X224175Y229690D01*
X224208Y229771D01*
X224237Y229853D01*
X224262Y229937D01*
X224283Y230022D01*
X224301Y230107D01*
X224314Y230194D01*
X224324Y230280D01*
X224330Y230368D01*
X224332Y230455D01*
X224332Y234350D01*
X224330Y234437D01*
X224324Y234525D01*
X224314Y234611D01*
X224301Y234698D01*
X224283Y234783D01*
X224262Y234868D01*
X224237Y234952D01*
X224208Y235034D01*
X224175Y235115D01*
X224139Y235195D01*
X224100Y235273D01*
X224056Y235349D01*
X224010Y235423D01*
X223960Y235494D01*
X223907Y235564D01*
X223851Y235631D01*
X223792Y235695D01*
X223730Y235757D01*
X223666Y235816D01*
X223599Y235872D01*
X223529Y235925D01*
X223458Y235975D01*
X223384Y236021D01*
X223308Y236065D01*
X223230Y236104D01*
X223150Y236140D01*
X223069Y236173D01*
X222987Y236202D01*
X222903Y236227D01*
X222818Y236248D01*
X222733Y236266D01*
X222646Y236279D01*
X222560Y236289D01*
X222472Y236295D01*
X222385Y236297D01*
X219139Y236297D01*
X219139Y226561D01*
X219140Y226561D02*
X219142Y226474D01*
X219148Y226386D01*
X219158Y226300D01*
X219171Y226213D01*
X219189Y226128D01*
X219210Y226043D01*
X219235Y225959D01*
X219264Y225877D01*
X219297Y225796D01*
X219333Y225716D01*
X219372Y225638D01*
X219416Y225562D01*
X219462Y225488D01*
X219512Y225417D01*
X219565Y225347D01*
X219621Y225280D01*
X219680Y225216D01*
X219742Y225154D01*
X219806Y225095D01*
X219873Y225039D01*
X219943Y224986D01*
X220014Y224936D01*
X220088Y224890D01*
X220164Y224846D01*
X220242Y224807D01*
X220322Y224771D01*
X220403Y224738D01*
X220485Y224709D01*
X220569Y224684D01*
X220654Y224663D01*
X220739Y224645D01*
X220826Y224632D01*
X220912Y224622D01*
X221000Y224616D01*
X221087Y224614D01*
X221087Y224613D02*
X223683Y224613D01*
X213605Y228508D02*
X213605Y240192D01*
X213605Y236297D02*
X210360Y236297D01*
X210273Y236295D01*
X210185Y236289D01*
X210099Y236279D01*
X210012Y236266D01*
X209927Y236248D01*
X209842Y236227D01*
X209758Y236202D01*
X209676Y236173D01*
X209595Y236140D01*
X209515Y236104D01*
X209437Y236065D01*
X209361Y236021D01*
X209287Y235975D01*
X209216Y235925D01*
X209146Y235872D01*
X209079Y235816D01*
X209015Y235757D01*
X208953Y235696D01*
X208894Y235631D01*
X208838Y235564D01*
X208785Y235494D01*
X208735Y235423D01*
X208689Y235349D01*
X208646Y235273D01*
X208606Y235195D01*
X208570Y235115D01*
X208537Y235034D01*
X208508Y234952D01*
X208483Y234868D01*
X208462Y234783D01*
X208444Y234698D01*
X208431Y234611D01*
X208421Y234525D01*
X208415Y234437D01*
X208413Y234350D01*
X208413Y228508D01*
X204286Y236297D02*
X200391Y236297D01*
X202987Y240192D02*
X202987Y230455D01*
X202985Y230368D01*
X202979Y230280D01*
X202969Y230194D01*
X202956Y230107D01*
X202938Y230022D01*
X202917Y229937D01*
X202892Y229853D01*
X202863Y229771D01*
X202830Y229690D01*
X202794Y229610D01*
X202755Y229532D01*
X202711Y229456D01*
X202665Y229382D01*
X202615Y229311D01*
X202562Y229241D01*
X202506Y229174D01*
X202447Y229110D01*
X202385Y229048D01*
X202321Y228989D01*
X202254Y228933D01*
X202184Y228880D01*
X202113Y228830D01*
X202039Y228784D01*
X201963Y228740D01*
X201885Y228701D01*
X201805Y228665D01*
X201724Y228632D01*
X201642Y228603D01*
X201558Y228578D01*
X201473Y228557D01*
X201388Y228539D01*
X201301Y228526D01*
X201215Y228516D01*
X201127Y228510D01*
X201040Y228508D01*
X200391Y228508D01*
X189467Y228508D02*
X189467Y240192D01*
X189467Y228508D02*
X184274Y228508D01*
X178130Y228508D02*
X174885Y228508D01*
X178130Y228508D02*
X178217Y228510D01*
X178305Y228516D01*
X178391Y228526D01*
X178478Y228539D01*
X178563Y228557D01*
X178648Y228578D01*
X178732Y228603D01*
X178814Y228632D01*
X178895Y228665D01*
X178975Y228701D01*
X179053Y228740D01*
X179129Y228784D01*
X179203Y228830D01*
X179274Y228880D01*
X179344Y228933D01*
X179411Y228989D01*
X179475Y229048D01*
X179537Y229110D01*
X179596Y229174D01*
X179652Y229241D01*
X179705Y229311D01*
X179755Y229382D01*
X179801Y229456D01*
X179845Y229532D01*
X179884Y229610D01*
X179920Y229690D01*
X179953Y229771D01*
X179982Y229853D01*
X180007Y229937D01*
X180028Y230022D01*
X180046Y230107D01*
X180059Y230194D01*
X180069Y230280D01*
X180075Y230368D01*
X180077Y230455D01*
X180077Y233701D01*
X180075Y233802D01*
X180069Y233902D01*
X180059Y234002D01*
X180046Y234102D01*
X180028Y234201D01*
X180007Y234300D01*
X179982Y234397D01*
X179953Y234494D01*
X179920Y234589D01*
X179884Y234683D01*
X179844Y234775D01*
X179801Y234866D01*
X179754Y234955D01*
X179704Y235042D01*
X179650Y235128D01*
X179593Y235211D01*
X179533Y235291D01*
X179470Y235370D01*
X179403Y235446D01*
X179334Y235519D01*
X179262Y235589D01*
X179188Y235657D01*
X179111Y235722D01*
X179031Y235783D01*
X178949Y235842D01*
X178865Y235897D01*
X178779Y235949D01*
X178691Y235998D01*
X178601Y236043D01*
X178509Y236085D01*
X178416Y236123D01*
X178321Y236157D01*
X178226Y236188D01*
X178129Y236215D01*
X178031Y236238D01*
X177932Y236258D01*
X177832Y236273D01*
X177732Y236285D01*
X177632Y236293D01*
X177531Y236297D01*
X177431Y236297D01*
X177330Y236293D01*
X177230Y236285D01*
X177130Y236273D01*
X177030Y236258D01*
X176931Y236238D01*
X176833Y236215D01*
X176736Y236188D01*
X176641Y236157D01*
X176546Y236123D01*
X176453Y236085D01*
X176361Y236043D01*
X176271Y235998D01*
X176183Y235949D01*
X176097Y235897D01*
X176013Y235842D01*
X175931Y235783D01*
X175851Y235722D01*
X175774Y235657D01*
X175700Y235589D01*
X175628Y235519D01*
X175559Y235446D01*
X175492Y235370D01*
X175429Y235291D01*
X175369Y235211D01*
X175312Y235128D01*
X175258Y235042D01*
X175208Y234955D01*
X175161Y234866D01*
X175118Y234775D01*
X175078Y234683D01*
X175042Y234589D01*
X175009Y234494D01*
X174980Y234397D01*
X174955Y234300D01*
X174934Y234201D01*
X174916Y234102D01*
X174903Y234002D01*
X174893Y233902D01*
X174887Y233802D01*
X174885Y233701D01*
X174885Y232403D01*
X180077Y232403D01*
X170552Y236297D02*
X167956Y228508D01*
X165360Y236297D01*
X159080Y228508D02*
X155835Y228508D01*
X159080Y228508D02*
X159167Y228510D01*
X159255Y228516D01*
X159341Y228526D01*
X159428Y228539D01*
X159513Y228557D01*
X159598Y228578D01*
X159682Y228603D01*
X159764Y228632D01*
X159845Y228665D01*
X159925Y228701D01*
X160003Y228740D01*
X160079Y228784D01*
X160153Y228830D01*
X160224Y228880D01*
X160294Y228933D01*
X160361Y228989D01*
X160425Y229048D01*
X160487Y229110D01*
X160546Y229174D01*
X160602Y229241D01*
X160655Y229311D01*
X160705Y229382D01*
X160751Y229456D01*
X160795Y229532D01*
X160834Y229610D01*
X160870Y229690D01*
X160903Y229771D01*
X160932Y229853D01*
X160957Y229937D01*
X160978Y230022D01*
X160996Y230107D01*
X161009Y230194D01*
X161019Y230280D01*
X161025Y230368D01*
X161027Y230455D01*
X161027Y233701D01*
X161025Y233802D01*
X161019Y233902D01*
X161009Y234002D01*
X160996Y234102D01*
X160978Y234201D01*
X160957Y234300D01*
X160932Y234397D01*
X160903Y234494D01*
X160870Y234589D01*
X160834Y234683D01*
X160794Y234775D01*
X160751Y234866D01*
X160704Y234955D01*
X160654Y235042D01*
X160600Y235128D01*
X160543Y235211D01*
X160483Y235291D01*
X160420Y235370D01*
X160353Y235446D01*
X160284Y235519D01*
X160212Y235589D01*
X160138Y235657D01*
X160061Y235722D01*
X159981Y235783D01*
X159899Y235842D01*
X159815Y235897D01*
X159729Y235949D01*
X159641Y235998D01*
X159551Y236043D01*
X159459Y236085D01*
X159366Y236123D01*
X159271Y236157D01*
X159176Y236188D01*
X159079Y236215D01*
X158981Y236238D01*
X158882Y236258D01*
X158782Y236273D01*
X158682Y236285D01*
X158582Y236293D01*
X158481Y236297D01*
X158381Y236297D01*
X158280Y236293D01*
X158180Y236285D01*
X158080Y236273D01*
X157980Y236258D01*
X157881Y236238D01*
X157783Y236215D01*
X157686Y236188D01*
X157591Y236157D01*
X157496Y236123D01*
X157403Y236085D01*
X157311Y236043D01*
X157221Y235998D01*
X157133Y235949D01*
X157047Y235897D01*
X156963Y235842D01*
X156881Y235783D01*
X156801Y235722D01*
X156724Y235657D01*
X156650Y235589D01*
X156578Y235519D01*
X156509Y235446D01*
X156442Y235370D01*
X156379Y235291D01*
X156319Y235211D01*
X156262Y235128D01*
X156208Y235042D01*
X156158Y234955D01*
X156111Y234866D01*
X156068Y234775D01*
X156028Y234683D01*
X155992Y234589D01*
X155959Y234494D01*
X155930Y234397D01*
X155905Y234300D01*
X155884Y234201D01*
X155866Y234102D01*
X155853Y234002D01*
X155843Y233902D01*
X155837Y233802D01*
X155835Y233701D01*
X155835Y232403D01*
X161027Y232403D01*
X150972Y230455D02*
X150972Y240192D01*
X150972Y230455D02*
X150970Y230368D01*
X150964Y230280D01*
X150954Y230194D01*
X150941Y230107D01*
X150923Y230022D01*
X150902Y229937D01*
X150877Y229853D01*
X150848Y229771D01*
X150815Y229690D01*
X150779Y229610D01*
X150740Y229532D01*
X150696Y229456D01*
X150650Y229382D01*
X150600Y229311D01*
X150547Y229241D01*
X150491Y229174D01*
X150432Y229110D01*
X150370Y229048D01*
X150306Y228989D01*
X150239Y228933D01*
X150169Y228880D01*
X150098Y228830D01*
X150024Y228784D01*
X149948Y228740D01*
X149870Y228701D01*
X149790Y228665D01*
X149709Y228632D01*
X149627Y228603D01*
X149543Y228578D01*
X149458Y228557D01*
X149373Y228539D01*
X149286Y228526D01*
X149200Y228516D01*
X149112Y228510D01*
X149025Y228508D01*
X144052Y233052D02*
X140806Y231754D01*
X144052Y233051D02*
X144127Y233084D01*
X144201Y233120D01*
X144273Y233159D01*
X144343Y233202D01*
X144410Y233248D01*
X144476Y233298D01*
X144538Y233350D01*
X144599Y233406D01*
X144656Y233464D01*
X144711Y233525D01*
X144762Y233589D01*
X144810Y233655D01*
X144855Y233724D01*
X144897Y233794D01*
X144935Y233867D01*
X144970Y233941D01*
X145001Y234017D01*
X145028Y234094D01*
X145051Y234173D01*
X145071Y234252D01*
X145086Y234333D01*
X145098Y234414D01*
X145106Y234496D01*
X145110Y234577D01*
X145109Y234659D01*
X145105Y234741D01*
X145097Y234823D01*
X145085Y234904D01*
X145069Y234984D01*
X145049Y235064D01*
X145025Y235142D01*
X144997Y235219D01*
X144966Y235295D01*
X144931Y235369D01*
X144893Y235441D01*
X144851Y235512D01*
X144805Y235580D01*
X144757Y235646D01*
X144705Y235709D01*
X144650Y235770D01*
X144592Y235828D01*
X144532Y235884D01*
X144469Y235936D01*
X144403Y235985D01*
X144335Y236031D01*
X144265Y236073D01*
X144193Y236113D01*
X144119Y236148D01*
X144044Y236180D01*
X143967Y236208D01*
X143889Y236232D01*
X143809Y236253D01*
X143729Y236270D01*
X143648Y236282D01*
X143567Y236291D01*
X143485Y236296D01*
X143403Y236297D01*
X143226Y236293D01*
X143049Y236284D01*
X142872Y236270D01*
X142695Y236253D01*
X142520Y236231D01*
X142344Y236206D01*
X142170Y236175D01*
X141996Y236141D01*
X141823Y236103D01*
X141651Y236060D01*
X141480Y236013D01*
X141310Y235963D01*
X141141Y235908D01*
X140974Y235849D01*
X140809Y235786D01*
X140644Y235719D01*
X140482Y235648D01*
X140806Y231754D02*
X140731Y231721D01*
X140657Y231685D01*
X140585Y231646D01*
X140515Y231603D01*
X140448Y231557D01*
X140382Y231507D01*
X140320Y231455D01*
X140259Y231399D01*
X140202Y231341D01*
X140147Y231280D01*
X140096Y231216D01*
X140048Y231150D01*
X140003Y231081D01*
X139961Y231011D01*
X139923Y230938D01*
X139888Y230864D01*
X139857Y230788D01*
X139830Y230711D01*
X139807Y230632D01*
X139787Y230553D01*
X139772Y230472D01*
X139760Y230391D01*
X139752Y230309D01*
X139748Y230228D01*
X139749Y230146D01*
X139753Y230064D01*
X139761Y229982D01*
X139773Y229901D01*
X139789Y229821D01*
X139809Y229741D01*
X139833Y229663D01*
X139861Y229586D01*
X139892Y229510D01*
X139927Y229436D01*
X139965Y229364D01*
X140007Y229293D01*
X140053Y229225D01*
X140101Y229159D01*
X140153Y229096D01*
X140208Y229035D01*
X140266Y228977D01*
X140326Y228921D01*
X140389Y228869D01*
X140455Y228820D01*
X140523Y228774D01*
X140593Y228732D01*
X140665Y228692D01*
X140739Y228657D01*
X140814Y228625D01*
X140891Y228597D01*
X140969Y228573D01*
X141049Y228552D01*
X141129Y228535D01*
X141210Y228523D01*
X141291Y228514D01*
X141373Y228509D01*
X141455Y228508D01*
X141715Y228515D01*
X141975Y228528D01*
X142235Y228547D01*
X142494Y228572D01*
X142753Y228604D01*
X143010Y228641D01*
X143267Y228685D01*
X143523Y228734D01*
X143777Y228790D01*
X144030Y228851D01*
X144281Y228919D01*
X144531Y228993D01*
X144779Y229072D01*
X145025Y229157D01*
X189219Y178192D02*
X189219Y166508D01*
X189219Y178192D02*
X185973Y178192D01*
X185860Y178190D01*
X185747Y178184D01*
X185634Y178174D01*
X185521Y178160D01*
X185409Y178143D01*
X185298Y178121D01*
X185188Y178096D01*
X185078Y178066D01*
X184970Y178033D01*
X184863Y177996D01*
X184757Y177956D01*
X184653Y177911D01*
X184550Y177863D01*
X184449Y177812D01*
X184350Y177757D01*
X184253Y177699D01*
X184158Y177637D01*
X184065Y177572D01*
X183975Y177504D01*
X183887Y177433D01*
X183801Y177358D01*
X183718Y177281D01*
X183638Y177201D01*
X183561Y177118D01*
X183486Y177032D01*
X183415Y176944D01*
X183347Y176854D01*
X183282Y176761D01*
X183220Y176666D01*
X183162Y176569D01*
X183107Y176470D01*
X183056Y176369D01*
X183008Y176266D01*
X182963Y176162D01*
X182923Y176056D01*
X182886Y175949D01*
X182853Y175841D01*
X182823Y175731D01*
X182798Y175621D01*
X182776Y175510D01*
X182759Y175398D01*
X182745Y175285D01*
X182735Y175172D01*
X182729Y175059D01*
X182727Y174946D01*
X182729Y174833D01*
X182735Y174720D01*
X182745Y174607D01*
X182759Y174494D01*
X182776Y174382D01*
X182798Y174271D01*
X182823Y174161D01*
X182853Y174051D01*
X182886Y173943D01*
X182923Y173836D01*
X182963Y173730D01*
X183008Y173626D01*
X183056Y173523D01*
X183107Y173422D01*
X183162Y173323D01*
X183220Y173226D01*
X183282Y173131D01*
X183347Y173038D01*
X183415Y172948D01*
X183486Y172860D01*
X183561Y172774D01*
X183638Y172691D01*
X183718Y172611D01*
X183801Y172534D01*
X183887Y172459D01*
X183975Y172388D01*
X184065Y172320D01*
X184158Y172255D01*
X184253Y172193D01*
X184350Y172135D01*
X184449Y172080D01*
X184550Y172029D01*
X184653Y171981D01*
X184757Y171936D01*
X184863Y171896D01*
X184970Y171859D01*
X185078Y171826D01*
X185188Y171796D01*
X185298Y171771D01*
X185409Y171749D01*
X185521Y171732D01*
X185634Y171718D01*
X185747Y171708D01*
X185860Y171702D01*
X185973Y171700D01*
X185973Y171701D02*
X189219Y171701D01*
X178452Y171701D02*
X178452Y169104D01*
X178452Y171701D02*
X178450Y171802D01*
X178444Y171902D01*
X178434Y172002D01*
X178421Y172102D01*
X178403Y172201D01*
X178382Y172300D01*
X178357Y172397D01*
X178328Y172494D01*
X178295Y172589D01*
X178259Y172683D01*
X178219Y172775D01*
X178176Y172866D01*
X178129Y172955D01*
X178079Y173042D01*
X178025Y173128D01*
X177968Y173211D01*
X177908Y173291D01*
X177845Y173370D01*
X177778Y173446D01*
X177709Y173519D01*
X177637Y173589D01*
X177563Y173657D01*
X177486Y173722D01*
X177406Y173783D01*
X177324Y173842D01*
X177240Y173897D01*
X177154Y173949D01*
X177066Y173998D01*
X176976Y174043D01*
X176884Y174085D01*
X176791Y174123D01*
X176696Y174157D01*
X176601Y174188D01*
X176504Y174215D01*
X176406Y174238D01*
X176307Y174258D01*
X176207Y174273D01*
X176107Y174285D01*
X176007Y174293D01*
X175906Y174297D01*
X175806Y174297D01*
X175705Y174293D01*
X175605Y174285D01*
X175505Y174273D01*
X175405Y174258D01*
X175306Y174238D01*
X175208Y174215D01*
X175111Y174188D01*
X175016Y174157D01*
X174921Y174123D01*
X174828Y174085D01*
X174736Y174043D01*
X174646Y173998D01*
X174558Y173949D01*
X174472Y173897D01*
X174388Y173842D01*
X174306Y173783D01*
X174226Y173722D01*
X174149Y173657D01*
X174075Y173589D01*
X174003Y173519D01*
X173934Y173446D01*
X173867Y173370D01*
X173804Y173291D01*
X173744Y173211D01*
X173687Y173128D01*
X173633Y173042D01*
X173583Y172955D01*
X173536Y172866D01*
X173493Y172775D01*
X173453Y172683D01*
X173417Y172589D01*
X173384Y172494D01*
X173355Y172397D01*
X173330Y172300D01*
X173309Y172201D01*
X173291Y172102D01*
X173278Y172002D01*
X173268Y171902D01*
X173262Y171802D01*
X173260Y171701D01*
X173259Y171701D02*
X173259Y169104D01*
X173260Y169104D02*
X173262Y169003D01*
X173268Y168903D01*
X173278Y168803D01*
X173291Y168703D01*
X173309Y168604D01*
X173330Y168505D01*
X173355Y168408D01*
X173384Y168311D01*
X173417Y168216D01*
X173453Y168122D01*
X173493Y168030D01*
X173536Y167939D01*
X173583Y167850D01*
X173633Y167763D01*
X173687Y167677D01*
X173744Y167594D01*
X173804Y167514D01*
X173867Y167435D01*
X173934Y167359D01*
X174003Y167286D01*
X174075Y167216D01*
X174149Y167148D01*
X174226Y167083D01*
X174306Y167022D01*
X174388Y166963D01*
X174472Y166908D01*
X174558Y166856D01*
X174646Y166807D01*
X174736Y166762D01*
X174828Y166720D01*
X174921Y166682D01*
X175016Y166648D01*
X175111Y166617D01*
X175208Y166590D01*
X175306Y166567D01*
X175405Y166547D01*
X175505Y166532D01*
X175605Y166520D01*
X175705Y166512D01*
X175806Y166508D01*
X175906Y166508D01*
X176007Y166512D01*
X176107Y166520D01*
X176207Y166532D01*
X176307Y166547D01*
X176406Y166567D01*
X176504Y166590D01*
X176601Y166617D01*
X176696Y166648D01*
X176791Y166682D01*
X176884Y166720D01*
X176976Y166762D01*
X177066Y166807D01*
X177154Y166856D01*
X177240Y166908D01*
X177324Y166963D01*
X177406Y167022D01*
X177486Y167083D01*
X177563Y167148D01*
X177637Y167216D01*
X177709Y167286D01*
X177778Y167359D01*
X177845Y167435D01*
X177908Y167514D01*
X177968Y167594D01*
X178025Y167677D01*
X178079Y167763D01*
X178129Y167850D01*
X178176Y167939D01*
X178219Y168030D01*
X178259Y168122D01*
X178295Y168216D01*
X178328Y168311D01*
X178357Y168408D01*
X178382Y168505D01*
X178403Y168604D01*
X178421Y168703D01*
X178434Y168803D01*
X178444Y168903D01*
X178450Y169003D01*
X178452Y169104D01*
X168701Y174297D02*
X166754Y166508D01*
X164807Y171701D01*
X162859Y166508D01*
X160912Y174297D01*
X154407Y166508D02*
X151161Y166508D01*
X154407Y166508D02*
X154494Y166510D01*
X154582Y166516D01*
X154668Y166526D01*
X154755Y166539D01*
X154840Y166557D01*
X154925Y166578D01*
X155009Y166603D01*
X155091Y166632D01*
X155172Y166665D01*
X155252Y166701D01*
X155330Y166740D01*
X155406Y166784D01*
X155480Y166830D01*
X155551Y166880D01*
X155621Y166933D01*
X155688Y166989D01*
X155752Y167048D01*
X155814Y167110D01*
X155873Y167174D01*
X155929Y167241D01*
X155982Y167311D01*
X156032Y167382D01*
X156078Y167456D01*
X156122Y167532D01*
X156161Y167610D01*
X156197Y167690D01*
X156230Y167771D01*
X156259Y167853D01*
X156284Y167937D01*
X156305Y168022D01*
X156323Y168107D01*
X156336Y168194D01*
X156346Y168280D01*
X156352Y168368D01*
X156354Y168455D01*
X156354Y171701D01*
X156352Y171802D01*
X156346Y171902D01*
X156336Y172002D01*
X156323Y172102D01*
X156305Y172201D01*
X156284Y172300D01*
X156259Y172397D01*
X156230Y172494D01*
X156197Y172589D01*
X156161Y172683D01*
X156121Y172775D01*
X156078Y172866D01*
X156031Y172955D01*
X155981Y173042D01*
X155927Y173128D01*
X155870Y173211D01*
X155810Y173291D01*
X155747Y173370D01*
X155680Y173446D01*
X155611Y173519D01*
X155539Y173589D01*
X155465Y173657D01*
X155388Y173722D01*
X155308Y173783D01*
X155226Y173842D01*
X155142Y173897D01*
X155056Y173949D01*
X154968Y173998D01*
X154878Y174043D01*
X154786Y174085D01*
X154693Y174123D01*
X154598Y174157D01*
X154503Y174188D01*
X154406Y174215D01*
X154308Y174238D01*
X154209Y174258D01*
X154109Y174273D01*
X154009Y174285D01*
X153909Y174293D01*
X153808Y174297D01*
X153708Y174297D01*
X153607Y174293D01*
X153507Y174285D01*
X153407Y174273D01*
X153307Y174258D01*
X153208Y174238D01*
X153110Y174215D01*
X153013Y174188D01*
X152918Y174157D01*
X152823Y174123D01*
X152730Y174085D01*
X152638Y174043D01*
X152548Y173998D01*
X152460Y173949D01*
X152374Y173897D01*
X152290Y173842D01*
X152208Y173783D01*
X152128Y173722D01*
X152051Y173657D01*
X151977Y173589D01*
X151905Y173519D01*
X151836Y173446D01*
X151769Y173370D01*
X151706Y173291D01*
X151646Y173211D01*
X151589Y173128D01*
X151535Y173042D01*
X151485Y172955D01*
X151438Y172866D01*
X151395Y172775D01*
X151355Y172683D01*
X151319Y172589D01*
X151286Y172494D01*
X151257Y172397D01*
X151232Y172300D01*
X151211Y172201D01*
X151193Y172102D01*
X151180Y172002D01*
X151170Y171902D01*
X151164Y171802D01*
X151162Y171701D01*
X151161Y171701D02*
X151161Y170403D01*
X156354Y170403D01*
X146001Y166508D02*
X146001Y174297D01*
X142106Y174297D01*
X142106Y172999D01*
X131279Y178192D02*
X131279Y166508D01*
X132577Y166508D02*
X129980Y166508D01*
X129980Y178192D02*
X132577Y178192D01*
X124999Y178192D02*
X124999Y166508D01*
X118508Y166508D02*
X124999Y178192D01*
X118508Y178192D02*
X118508Y166508D01*
X217265Y50104D02*
X217267Y50005D01*
X217273Y49905D01*
X217282Y49806D01*
X217295Y49708D01*
X217312Y49610D01*
X217333Y49512D01*
X217358Y49416D01*
X217386Y49321D01*
X217418Y49227D01*
X217453Y49134D01*
X217492Y49042D01*
X217535Y48952D01*
X217580Y48864D01*
X217630Y48777D01*
X217682Y48693D01*
X217738Y48610D01*
X217796Y48530D01*
X217858Y48452D01*
X217923Y48377D01*
X217991Y48304D01*
X218061Y48234D01*
X218134Y48166D01*
X218209Y48101D01*
X218287Y48039D01*
X218367Y47981D01*
X218450Y47925D01*
X218534Y47873D01*
X218621Y47823D01*
X218709Y47778D01*
X218799Y47735D01*
X218891Y47696D01*
X218984Y47661D01*
X219078Y47629D01*
X219173Y47601D01*
X219269Y47576D01*
X219367Y47555D01*
X219465Y47538D01*
X219563Y47525D01*
X219662Y47516D01*
X219762Y47510D01*
X219861Y47508D01*
X220005Y47510D01*
X220150Y47516D01*
X220294Y47525D01*
X220437Y47538D01*
X220581Y47555D01*
X220724Y47576D01*
X220866Y47601D01*
X221007Y47629D01*
X221148Y47661D01*
X221288Y47697D01*
X221427Y47736D01*
X221565Y47779D01*
X221701Y47826D01*
X221837Y47876D01*
X221971Y47930D01*
X222103Y47987D01*
X222234Y48048D01*
X222363Y48112D01*
X222491Y48180D01*
X222617Y48251D01*
X222741Y48325D01*
X222862Y48402D01*
X222982Y48483D01*
X223100Y48566D01*
X223215Y48653D01*
X223328Y48743D01*
X223439Y48836D01*
X223547Y48931D01*
X223653Y49030D01*
X223756Y49131D01*
X223431Y56596D02*
X223429Y56695D01*
X223423Y56795D01*
X223414Y56894D01*
X223401Y56992D01*
X223384Y57090D01*
X223363Y57188D01*
X223338Y57284D01*
X223310Y57379D01*
X223278Y57473D01*
X223243Y57566D01*
X223204Y57658D01*
X223161Y57748D01*
X223116Y57836D01*
X223066Y57923D01*
X223014Y58007D01*
X222958Y58090D01*
X222900Y58170D01*
X222838Y58248D01*
X222773Y58323D01*
X222705Y58396D01*
X222635Y58466D01*
X222562Y58534D01*
X222487Y58599D01*
X222409Y58661D01*
X222329Y58719D01*
X222246Y58775D01*
X222162Y58827D01*
X222075Y58877D01*
X221987Y58922D01*
X221897Y58965D01*
X221805Y59004D01*
X221712Y59039D01*
X221618Y59071D01*
X221523Y59099D01*
X221427Y59124D01*
X221329Y59145D01*
X221231Y59162D01*
X221133Y59175D01*
X221034Y59184D01*
X220934Y59190D01*
X220835Y59192D01*
X220699Y59190D01*
X220563Y59184D01*
X220427Y59175D01*
X220291Y59162D01*
X220156Y59144D01*
X220022Y59124D01*
X219888Y59099D01*
X219754Y59071D01*
X219622Y59038D01*
X219491Y59003D01*
X219360Y58963D01*
X219231Y58920D01*
X219103Y58874D01*
X218977Y58823D01*
X218851Y58770D01*
X218728Y58712D01*
X218606Y58652D01*
X218486Y58588D01*
X218367Y58520D01*
X218251Y58450D01*
X218137Y58376D01*
X218024Y58299D01*
X217914Y58218D01*
X222134Y54324D02*
X222220Y54377D01*
X222304Y54434D01*
X222386Y54493D01*
X222466Y54556D01*
X222543Y54622D01*
X222618Y54690D01*
X222690Y54762D01*
X222759Y54836D01*
X222825Y54913D01*
X222888Y54992D01*
X222948Y55074D01*
X223005Y55158D01*
X223059Y55244D01*
X223109Y55332D01*
X223156Y55422D01*
X223200Y55513D01*
X223239Y55607D01*
X223276Y55701D01*
X223308Y55797D01*
X223337Y55895D01*
X223362Y55993D01*
X223383Y56092D01*
X223401Y56192D01*
X223414Y56292D01*
X223424Y56393D01*
X223430Y56495D01*
X223432Y56596D01*
X218563Y52376D02*
X218477Y52323D01*
X218393Y52266D01*
X218311Y52207D01*
X218231Y52144D01*
X218154Y52078D01*
X218079Y52010D01*
X218007Y51938D01*
X217938Y51864D01*
X217872Y51787D01*
X217809Y51708D01*
X217749Y51626D01*
X217692Y51542D01*
X217638Y51456D01*
X217588Y51368D01*
X217541Y51278D01*
X217497Y51187D01*
X217458Y51093D01*
X217421Y50999D01*
X217389Y50903D01*
X217360Y50805D01*
X217335Y50707D01*
X217314Y50608D01*
X217296Y50508D01*
X217283Y50408D01*
X217273Y50307D01*
X217267Y50205D01*
X217265Y50104D01*
X218563Y52376D02*
X222133Y54324D01*
X212380Y55297D02*
X212380Y43613D01*
X212380Y55297D02*
X209135Y55297D01*
X209048Y55295D01*
X208960Y55289D01*
X208874Y55279D01*
X208787Y55266D01*
X208702Y55248D01*
X208617Y55227D01*
X208533Y55202D01*
X208451Y55173D01*
X208370Y55140D01*
X208290Y55104D01*
X208212Y55065D01*
X208136Y55021D01*
X208062Y54975D01*
X207991Y54925D01*
X207921Y54872D01*
X207854Y54816D01*
X207790Y54757D01*
X207728Y54696D01*
X207669Y54631D01*
X207613Y54564D01*
X207560Y54494D01*
X207510Y54423D01*
X207464Y54349D01*
X207421Y54273D01*
X207381Y54195D01*
X207345Y54115D01*
X207312Y54034D01*
X207283Y53952D01*
X207258Y53868D01*
X207237Y53783D01*
X207219Y53698D01*
X207206Y53611D01*
X207196Y53525D01*
X207190Y53437D01*
X207188Y53350D01*
X207187Y53350D02*
X207187Y49455D01*
X207188Y49455D02*
X207190Y49368D01*
X207196Y49280D01*
X207206Y49194D01*
X207219Y49107D01*
X207237Y49022D01*
X207258Y48937D01*
X207283Y48853D01*
X207312Y48771D01*
X207345Y48690D01*
X207381Y48610D01*
X207420Y48532D01*
X207464Y48456D01*
X207510Y48382D01*
X207560Y48311D01*
X207613Y48241D01*
X207669Y48174D01*
X207728Y48109D01*
X207790Y48048D01*
X207854Y47989D01*
X207921Y47933D01*
X207991Y47880D01*
X208062Y47830D01*
X208136Y47784D01*
X208212Y47740D01*
X208290Y47701D01*
X208370Y47665D01*
X208451Y47632D01*
X208533Y47603D01*
X208617Y47578D01*
X208702Y47557D01*
X208787Y47539D01*
X208874Y47526D01*
X208961Y47516D01*
X209048Y47510D01*
X209135Y47508D01*
X212380Y47508D01*
X200586Y47508D02*
X197340Y47508D01*
X200586Y47508D02*
X200673Y47510D01*
X200761Y47516D01*
X200847Y47526D01*
X200934Y47539D01*
X201019Y47557D01*
X201104Y47578D01*
X201188Y47603D01*
X201270Y47632D01*
X201351Y47665D01*
X201431Y47701D01*
X201509Y47740D01*
X201585Y47784D01*
X201659Y47830D01*
X201730Y47880D01*
X201800Y47933D01*
X201867Y47989D01*
X201931Y48048D01*
X201993Y48110D01*
X202052Y48174D01*
X202108Y48241D01*
X202161Y48311D01*
X202211Y48382D01*
X202257Y48456D01*
X202301Y48532D01*
X202340Y48610D01*
X202376Y48690D01*
X202409Y48771D01*
X202438Y48853D01*
X202463Y48937D01*
X202484Y49022D01*
X202502Y49107D01*
X202515Y49194D01*
X202525Y49280D01*
X202531Y49368D01*
X202533Y49455D01*
X202533Y52701D01*
X202531Y52802D01*
X202525Y52902D01*
X202515Y53002D01*
X202502Y53102D01*
X202484Y53201D01*
X202463Y53300D01*
X202438Y53397D01*
X202409Y53494D01*
X202376Y53589D01*
X202340Y53683D01*
X202300Y53775D01*
X202257Y53866D01*
X202210Y53955D01*
X202160Y54042D01*
X202106Y54128D01*
X202049Y54211D01*
X201989Y54291D01*
X201926Y54370D01*
X201859Y54446D01*
X201790Y54519D01*
X201718Y54589D01*
X201644Y54657D01*
X201567Y54722D01*
X201487Y54783D01*
X201405Y54842D01*
X201321Y54897D01*
X201235Y54949D01*
X201147Y54998D01*
X201057Y55043D01*
X200965Y55085D01*
X200872Y55123D01*
X200777Y55157D01*
X200682Y55188D01*
X200585Y55215D01*
X200487Y55238D01*
X200388Y55258D01*
X200288Y55273D01*
X200188Y55285D01*
X200088Y55293D01*
X199987Y55297D01*
X199887Y55297D01*
X199786Y55293D01*
X199686Y55285D01*
X199586Y55273D01*
X199486Y55258D01*
X199387Y55238D01*
X199289Y55215D01*
X199192Y55188D01*
X199097Y55157D01*
X199002Y55123D01*
X198909Y55085D01*
X198817Y55043D01*
X198727Y54998D01*
X198639Y54949D01*
X198553Y54897D01*
X198469Y54842D01*
X198387Y54783D01*
X198307Y54722D01*
X198230Y54657D01*
X198156Y54589D01*
X198084Y54519D01*
X198015Y54446D01*
X197948Y54370D01*
X197885Y54291D01*
X197825Y54211D01*
X197768Y54128D01*
X197714Y54042D01*
X197664Y53955D01*
X197617Y53866D01*
X197574Y53775D01*
X197534Y53683D01*
X197498Y53589D01*
X197465Y53494D01*
X197436Y53397D01*
X197411Y53300D01*
X197390Y53201D01*
X197372Y53102D01*
X197359Y53002D01*
X197349Y52902D01*
X197343Y52802D01*
X197341Y52701D01*
X197340Y52701D02*
X197340Y51403D01*
X202533Y51403D01*
X190414Y52052D02*
X187493Y52052D01*
X190414Y52052D02*
X190508Y52050D01*
X190602Y52044D01*
X190695Y52035D01*
X190788Y52021D01*
X190880Y52004D01*
X190972Y51982D01*
X191062Y51958D01*
X191152Y51929D01*
X191240Y51897D01*
X191327Y51861D01*
X191412Y51821D01*
X191495Y51778D01*
X191577Y51732D01*
X191657Y51682D01*
X191734Y51629D01*
X191809Y51573D01*
X191882Y51514D01*
X191953Y51452D01*
X192021Y51387D01*
X192086Y51319D01*
X192148Y51248D01*
X192207Y51175D01*
X192263Y51100D01*
X192316Y51023D01*
X192366Y50943D01*
X192412Y50861D01*
X192455Y50778D01*
X192495Y50693D01*
X192531Y50606D01*
X192563Y50518D01*
X192592Y50428D01*
X192616Y50338D01*
X192638Y50246D01*
X192655Y50154D01*
X192669Y50061D01*
X192678Y49968D01*
X192684Y49874D01*
X192686Y49780D01*
X192684Y49686D01*
X192678Y49592D01*
X192669Y49499D01*
X192655Y49406D01*
X192638Y49314D01*
X192616Y49222D01*
X192592Y49132D01*
X192563Y49042D01*
X192531Y48954D01*
X192495Y48867D01*
X192455Y48782D01*
X192412Y48699D01*
X192366Y48617D01*
X192316Y48537D01*
X192263Y48460D01*
X192207Y48385D01*
X192148Y48312D01*
X192086Y48241D01*
X192021Y48173D01*
X191953Y48108D01*
X191882Y48046D01*
X191809Y47987D01*
X191734Y47931D01*
X191657Y47878D01*
X191577Y47828D01*
X191495Y47782D01*
X191412Y47739D01*
X191327Y47699D01*
X191240Y47663D01*
X191152Y47631D01*
X191062Y47602D01*
X190972Y47578D01*
X190880Y47556D01*
X190788Y47539D01*
X190695Y47525D01*
X190602Y47516D01*
X190508Y47510D01*
X190414Y47508D01*
X187493Y47508D01*
X187493Y53350D01*
X187495Y53437D01*
X187501Y53525D01*
X187511Y53611D01*
X187524Y53698D01*
X187542Y53783D01*
X187563Y53868D01*
X187588Y53952D01*
X187617Y54034D01*
X187650Y54115D01*
X187686Y54195D01*
X187725Y54273D01*
X187769Y54349D01*
X187815Y54423D01*
X187865Y54494D01*
X187918Y54564D01*
X187974Y54631D01*
X188033Y54696D01*
X188095Y54757D01*
X188159Y54816D01*
X188226Y54872D01*
X188296Y54925D01*
X188367Y54975D01*
X188441Y55021D01*
X188517Y55065D01*
X188595Y55104D01*
X188675Y55140D01*
X188756Y55173D01*
X188838Y55202D01*
X188922Y55227D01*
X189007Y55248D01*
X189092Y55266D01*
X189179Y55279D01*
X189266Y55289D01*
X189353Y55295D01*
X189440Y55297D01*
X192037Y55297D01*
X181824Y59192D02*
X181824Y47508D01*
X181824Y51403D02*
X176631Y55297D01*
X179552Y53025D02*
X176631Y47508D01*
X170487Y47508D02*
X167241Y47508D01*
X170487Y47508D02*
X170574Y47510D01*
X170662Y47516D01*
X170748Y47526D01*
X170835Y47539D01*
X170920Y47557D01*
X171005Y47578D01*
X171089Y47603D01*
X171171Y47632D01*
X171252Y47665D01*
X171332Y47701D01*
X171410Y47740D01*
X171486Y47784D01*
X171560Y47830D01*
X171631Y47880D01*
X171701Y47933D01*
X171768Y47989D01*
X171832Y48048D01*
X171894Y48110D01*
X171953Y48174D01*
X172009Y48241D01*
X172062Y48311D01*
X172112Y48382D01*
X172158Y48456D01*
X172202Y48532D01*
X172241Y48610D01*
X172277Y48690D01*
X172310Y48771D01*
X172339Y48853D01*
X172364Y48937D01*
X172385Y49022D01*
X172403Y49107D01*
X172416Y49194D01*
X172426Y49280D01*
X172432Y49368D01*
X172434Y49455D01*
X172434Y52701D01*
X172432Y52802D01*
X172426Y52902D01*
X172416Y53002D01*
X172403Y53102D01*
X172385Y53201D01*
X172364Y53300D01*
X172339Y53397D01*
X172310Y53494D01*
X172277Y53589D01*
X172241Y53683D01*
X172201Y53775D01*
X172158Y53866D01*
X172111Y53955D01*
X172061Y54042D01*
X172007Y54128D01*
X171950Y54211D01*
X171890Y54291D01*
X171827Y54370D01*
X171760Y54446D01*
X171691Y54519D01*
X171619Y54589D01*
X171545Y54657D01*
X171468Y54722D01*
X171388Y54783D01*
X171306Y54842D01*
X171222Y54897D01*
X171136Y54949D01*
X171048Y54998D01*
X170958Y55043D01*
X170866Y55085D01*
X170773Y55123D01*
X170678Y55157D01*
X170583Y55188D01*
X170486Y55215D01*
X170388Y55238D01*
X170289Y55258D01*
X170189Y55273D01*
X170089Y55285D01*
X169989Y55293D01*
X169888Y55297D01*
X169788Y55297D01*
X169687Y55293D01*
X169587Y55285D01*
X169487Y55273D01*
X169387Y55258D01*
X169288Y55238D01*
X169190Y55215D01*
X169093Y55188D01*
X168998Y55157D01*
X168903Y55123D01*
X168810Y55085D01*
X168718Y55043D01*
X168628Y54998D01*
X168540Y54949D01*
X168454Y54897D01*
X168370Y54842D01*
X168288Y54783D01*
X168208Y54722D01*
X168131Y54657D01*
X168057Y54589D01*
X167985Y54519D01*
X167916Y54446D01*
X167849Y54370D01*
X167786Y54291D01*
X167726Y54211D01*
X167669Y54128D01*
X167615Y54042D01*
X167565Y53955D01*
X167518Y53866D01*
X167475Y53775D01*
X167435Y53683D01*
X167399Y53589D01*
X167366Y53494D01*
X167337Y53397D01*
X167312Y53300D01*
X167291Y53201D01*
X167273Y53102D01*
X167260Y53002D01*
X167250Y52902D01*
X167244Y52802D01*
X167242Y52701D01*
X167241Y52701D02*
X167241Y51403D01*
X172434Y51403D01*
X162081Y47508D02*
X162081Y55297D01*
X158186Y55297D01*
X158186Y53999D01*
X145755Y47508D02*
X143158Y47508D01*
X145755Y47508D02*
X145854Y47510D01*
X145954Y47516D01*
X146053Y47525D01*
X146151Y47538D01*
X146249Y47555D01*
X146347Y47576D01*
X146443Y47601D01*
X146538Y47629D01*
X146632Y47661D01*
X146725Y47696D01*
X146817Y47735D01*
X146907Y47778D01*
X146995Y47823D01*
X147082Y47873D01*
X147166Y47925D01*
X147249Y47981D01*
X147329Y48039D01*
X147407Y48101D01*
X147482Y48166D01*
X147555Y48234D01*
X147625Y48304D01*
X147693Y48377D01*
X147758Y48452D01*
X147820Y48530D01*
X147878Y48610D01*
X147934Y48693D01*
X147986Y48777D01*
X148036Y48864D01*
X148081Y48952D01*
X148124Y49042D01*
X148163Y49134D01*
X148198Y49227D01*
X148230Y49321D01*
X148258Y49416D01*
X148283Y49512D01*
X148304Y49610D01*
X148321Y49708D01*
X148334Y49806D01*
X148343Y49905D01*
X148349Y50005D01*
X148351Y50104D01*
X148351Y56596D01*
X148349Y56695D01*
X148343Y56795D01*
X148334Y56894D01*
X148321Y56992D01*
X148304Y57090D01*
X148283Y57188D01*
X148258Y57284D01*
X148230Y57379D01*
X148198Y57473D01*
X148163Y57566D01*
X148124Y57658D01*
X148081Y57748D01*
X148036Y57836D01*
X147986Y57923D01*
X147934Y58007D01*
X147878Y58090D01*
X147820Y58170D01*
X147758Y58248D01*
X147693Y58323D01*
X147625Y58396D01*
X147555Y58466D01*
X147482Y58534D01*
X147407Y58599D01*
X147329Y58661D01*
X147249Y58719D01*
X147166Y58775D01*
X147082Y58827D01*
X146995Y58877D01*
X146907Y58922D01*
X146817Y58965D01*
X146725Y59004D01*
X146632Y59039D01*
X146538Y59071D01*
X146443Y59099D01*
X146347Y59124D01*
X146249Y59145D01*
X146151Y59162D01*
X146053Y59175D01*
X145954Y59184D01*
X145854Y59190D01*
X145755Y59192D01*
X143158Y59192D01*
X138906Y52701D02*
X138906Y50104D01*
X138906Y52701D02*
X138904Y52802D01*
X138898Y52902D01*
X138888Y53002D01*
X138875Y53102D01*
X138857Y53201D01*
X138836Y53300D01*
X138811Y53397D01*
X138782Y53494D01*
X138749Y53589D01*
X138713Y53683D01*
X138673Y53775D01*
X138630Y53866D01*
X138583Y53955D01*
X138533Y54042D01*
X138479Y54128D01*
X138422Y54211D01*
X138362Y54291D01*
X138299Y54370D01*
X138232Y54446D01*
X138163Y54519D01*
X138091Y54589D01*
X138017Y54657D01*
X137940Y54722D01*
X137860Y54783D01*
X137778Y54842D01*
X137694Y54897D01*
X137608Y54949D01*
X137520Y54998D01*
X137430Y55043D01*
X137338Y55085D01*
X137245Y55123D01*
X137150Y55157D01*
X137055Y55188D01*
X136958Y55215D01*
X136860Y55238D01*
X136761Y55258D01*
X136661Y55273D01*
X136561Y55285D01*
X136461Y55293D01*
X136360Y55297D01*
X136260Y55297D01*
X136159Y55293D01*
X136059Y55285D01*
X135959Y55273D01*
X135859Y55258D01*
X135760Y55238D01*
X135662Y55215D01*
X135565Y55188D01*
X135470Y55157D01*
X135375Y55123D01*
X135282Y55085D01*
X135190Y55043D01*
X135100Y54998D01*
X135012Y54949D01*
X134926Y54897D01*
X134842Y54842D01*
X134760Y54783D01*
X134680Y54722D01*
X134603Y54657D01*
X134529Y54589D01*
X134457Y54519D01*
X134388Y54446D01*
X134321Y54370D01*
X134258Y54291D01*
X134198Y54211D01*
X134141Y54128D01*
X134087Y54042D01*
X134037Y53955D01*
X133990Y53866D01*
X133947Y53775D01*
X133907Y53683D01*
X133871Y53589D01*
X133838Y53494D01*
X133809Y53397D01*
X133784Y53300D01*
X133763Y53201D01*
X133745Y53102D01*
X133732Y53002D01*
X133722Y52902D01*
X133716Y52802D01*
X133714Y52701D01*
X133713Y52701D02*
X133713Y50104D01*
X133714Y50104D02*
X133716Y50003D01*
X133722Y49903D01*
X133732Y49803D01*
X133745Y49703D01*
X133763Y49604D01*
X133784Y49505D01*
X133809Y49408D01*
X133838Y49311D01*
X133871Y49216D01*
X133907Y49122D01*
X133947Y49030D01*
X133990Y48939D01*
X134037Y48850D01*
X134087Y48763D01*
X134141Y48677D01*
X134198Y48594D01*
X134258Y48514D01*
X134321Y48435D01*
X134388Y48359D01*
X134457Y48286D01*
X134529Y48216D01*
X134603Y48148D01*
X134680Y48083D01*
X134760Y48022D01*
X134842Y47963D01*
X134926Y47908D01*
X135012Y47856D01*
X135100Y47807D01*
X135190Y47762D01*
X135282Y47720D01*
X135375Y47682D01*
X135470Y47648D01*
X135565Y47617D01*
X135662Y47590D01*
X135760Y47567D01*
X135859Y47547D01*
X135959Y47532D01*
X136059Y47520D01*
X136159Y47512D01*
X136260Y47508D01*
X136360Y47508D01*
X136461Y47512D01*
X136561Y47520D01*
X136661Y47532D01*
X136761Y47547D01*
X136860Y47567D01*
X136958Y47590D01*
X137055Y47617D01*
X137150Y47648D01*
X137245Y47682D01*
X137338Y47720D01*
X137430Y47762D01*
X137520Y47807D01*
X137608Y47856D01*
X137694Y47908D01*
X137778Y47963D01*
X137860Y48022D01*
X137940Y48083D01*
X138017Y48148D01*
X138091Y48216D01*
X138163Y48286D01*
X138232Y48359D01*
X138299Y48435D01*
X138362Y48514D01*
X138422Y48594D01*
X138479Y48677D01*
X138533Y48763D01*
X138583Y48850D01*
X138630Y48939D01*
X138673Y49030D01*
X138713Y49122D01*
X138749Y49216D01*
X138782Y49311D01*
X138811Y49408D01*
X138836Y49505D01*
X138857Y49604D01*
X138875Y49703D01*
X138888Y49803D01*
X138898Y49903D01*
X138904Y50003D01*
X138906Y50104D01*
X128619Y47508D02*
X128619Y55297D01*
X125373Y55297D01*
X125286Y55295D01*
X125198Y55289D01*
X125112Y55279D01*
X125025Y55266D01*
X124940Y55248D01*
X124855Y55227D01*
X124771Y55202D01*
X124689Y55173D01*
X124608Y55140D01*
X124528Y55104D01*
X124450Y55065D01*
X124374Y55021D01*
X124300Y54975D01*
X124229Y54925D01*
X124159Y54872D01*
X124092Y54816D01*
X124028Y54757D01*
X123966Y54696D01*
X123907Y54631D01*
X123851Y54564D01*
X123798Y54494D01*
X123748Y54423D01*
X123702Y54349D01*
X123659Y54273D01*
X123619Y54195D01*
X123583Y54115D01*
X123550Y54034D01*
X123521Y53952D01*
X123496Y53868D01*
X123475Y53783D01*
X123457Y53698D01*
X123444Y53611D01*
X123434Y53525D01*
X123428Y53437D01*
X123426Y53350D01*
X123426Y47508D01*
X117951Y47508D02*
X117951Y55297D01*
X114705Y55297D01*
X114618Y55295D01*
X114530Y55289D01*
X114444Y55279D01*
X114357Y55266D01*
X114272Y55248D01*
X114187Y55227D01*
X114103Y55202D01*
X114021Y55173D01*
X113940Y55140D01*
X113860Y55104D01*
X113782Y55065D01*
X113706Y55021D01*
X113632Y54975D01*
X113561Y54925D01*
X113491Y54872D01*
X113424Y54816D01*
X113360Y54757D01*
X113298Y54696D01*
X113239Y54631D01*
X113183Y54564D01*
X113130Y54494D01*
X113080Y54423D01*
X113034Y54349D01*
X112991Y54273D01*
X112951Y54195D01*
X112915Y54115D01*
X112882Y54034D01*
X112853Y53952D01*
X112828Y53868D01*
X112807Y53783D01*
X112789Y53698D01*
X112776Y53611D01*
X112766Y53525D01*
X112760Y53437D01*
X112758Y53350D01*
X112758Y47508D01*
X105717Y47508D02*
X102471Y47508D01*
X105717Y47508D02*
X105804Y47510D01*
X105892Y47516D01*
X105978Y47526D01*
X106065Y47539D01*
X106150Y47557D01*
X106235Y47578D01*
X106319Y47603D01*
X106401Y47632D01*
X106482Y47665D01*
X106562Y47701D01*
X106640Y47740D01*
X106716Y47784D01*
X106790Y47830D01*
X106861Y47880D01*
X106931Y47933D01*
X106998Y47989D01*
X107062Y48048D01*
X107124Y48110D01*
X107183Y48174D01*
X107239Y48241D01*
X107292Y48311D01*
X107342Y48382D01*
X107388Y48456D01*
X107432Y48532D01*
X107471Y48610D01*
X107507Y48690D01*
X107540Y48771D01*
X107569Y48853D01*
X107594Y48937D01*
X107615Y49022D01*
X107633Y49107D01*
X107646Y49194D01*
X107656Y49280D01*
X107662Y49368D01*
X107664Y49455D01*
X107664Y52701D01*
X107662Y52802D01*
X107656Y52902D01*
X107646Y53002D01*
X107633Y53102D01*
X107615Y53201D01*
X107594Y53300D01*
X107569Y53397D01*
X107540Y53494D01*
X107507Y53589D01*
X107471Y53683D01*
X107431Y53775D01*
X107388Y53866D01*
X107341Y53955D01*
X107291Y54042D01*
X107237Y54128D01*
X107180Y54211D01*
X107120Y54291D01*
X107057Y54370D01*
X106990Y54446D01*
X106921Y54519D01*
X106849Y54589D01*
X106775Y54657D01*
X106698Y54722D01*
X106618Y54783D01*
X106536Y54842D01*
X106452Y54897D01*
X106366Y54949D01*
X106278Y54998D01*
X106188Y55043D01*
X106096Y55085D01*
X106003Y55123D01*
X105908Y55157D01*
X105813Y55188D01*
X105716Y55215D01*
X105618Y55238D01*
X105519Y55258D01*
X105419Y55273D01*
X105319Y55285D01*
X105219Y55293D01*
X105118Y55297D01*
X105018Y55297D01*
X104917Y55293D01*
X104817Y55285D01*
X104717Y55273D01*
X104617Y55258D01*
X104518Y55238D01*
X104420Y55215D01*
X104323Y55188D01*
X104228Y55157D01*
X104133Y55123D01*
X104040Y55085D01*
X103948Y55043D01*
X103858Y54998D01*
X103770Y54949D01*
X103684Y54897D01*
X103600Y54842D01*
X103518Y54783D01*
X103438Y54722D01*
X103361Y54657D01*
X103287Y54589D01*
X103215Y54519D01*
X103146Y54446D01*
X103079Y54370D01*
X103016Y54291D01*
X102956Y54211D01*
X102899Y54128D01*
X102845Y54042D01*
X102795Y53955D01*
X102748Y53866D01*
X102705Y53775D01*
X102665Y53683D01*
X102629Y53589D01*
X102596Y53494D01*
X102567Y53397D01*
X102542Y53300D01*
X102521Y53201D01*
X102503Y53102D01*
X102490Y53002D01*
X102480Y52902D01*
X102474Y52802D01*
X102472Y52701D01*
X102471Y52701D02*
X102471Y51403D01*
X107664Y51403D01*
X95797Y47508D02*
X93201Y47508D01*
X95797Y47508D02*
X95884Y47510D01*
X95972Y47516D01*
X96058Y47526D01*
X96145Y47539D01*
X96230Y47557D01*
X96315Y47578D01*
X96399Y47603D01*
X96481Y47632D01*
X96562Y47665D01*
X96642Y47701D01*
X96720Y47740D01*
X96796Y47784D01*
X96870Y47830D01*
X96941Y47880D01*
X97011Y47933D01*
X97078Y47989D01*
X97142Y48048D01*
X97204Y48110D01*
X97263Y48174D01*
X97319Y48241D01*
X97372Y48311D01*
X97422Y48382D01*
X97468Y48456D01*
X97512Y48532D01*
X97551Y48610D01*
X97587Y48690D01*
X97620Y48771D01*
X97649Y48853D01*
X97674Y48937D01*
X97695Y49022D01*
X97713Y49107D01*
X97726Y49194D01*
X97736Y49280D01*
X97742Y49368D01*
X97744Y49455D01*
X97745Y49455D02*
X97745Y53350D01*
X97744Y53350D02*
X97742Y53437D01*
X97736Y53525D01*
X97726Y53611D01*
X97713Y53698D01*
X97695Y53783D01*
X97674Y53868D01*
X97649Y53952D01*
X97620Y54034D01*
X97587Y54115D01*
X97551Y54195D01*
X97512Y54273D01*
X97468Y54349D01*
X97422Y54423D01*
X97372Y54494D01*
X97319Y54564D01*
X97263Y54631D01*
X97204Y54695D01*
X97142Y54757D01*
X97078Y54816D01*
X97011Y54872D01*
X96941Y54925D01*
X96870Y54975D01*
X96796Y55021D01*
X96720Y55065D01*
X96642Y55104D01*
X96562Y55140D01*
X96481Y55173D01*
X96399Y55202D01*
X96315Y55227D01*
X96230Y55248D01*
X96145Y55266D01*
X96058Y55279D01*
X95972Y55289D01*
X95884Y55295D01*
X95797Y55297D01*
X93201Y55297D01*
X89962Y55297D02*
X86068Y55297D01*
X88664Y59192D02*
X88664Y49455D01*
X88662Y49368D01*
X88656Y49280D01*
X88646Y49194D01*
X88633Y49107D01*
X88615Y49022D01*
X88594Y48937D01*
X88569Y48853D01*
X88540Y48771D01*
X88507Y48690D01*
X88471Y48610D01*
X88432Y48532D01*
X88388Y48456D01*
X88342Y48382D01*
X88292Y48311D01*
X88239Y48241D01*
X88183Y48174D01*
X88124Y48110D01*
X88062Y48048D01*
X87998Y47989D01*
X87931Y47933D01*
X87861Y47880D01*
X87790Y47830D01*
X87716Y47784D01*
X87640Y47740D01*
X87562Y47701D01*
X87482Y47665D01*
X87401Y47632D01*
X87319Y47603D01*
X87235Y47578D01*
X87150Y47557D01*
X87065Y47539D01*
X86978Y47526D01*
X86892Y47516D01*
X86804Y47510D01*
X86717Y47508D01*
X86068Y47508D01*
X81756Y50104D02*
X81756Y52701D01*
X81754Y52802D01*
X81748Y52902D01*
X81738Y53002D01*
X81725Y53102D01*
X81707Y53201D01*
X81686Y53300D01*
X81661Y53397D01*
X81632Y53494D01*
X81599Y53589D01*
X81563Y53683D01*
X81523Y53775D01*
X81480Y53866D01*
X81433Y53955D01*
X81383Y54042D01*
X81329Y54128D01*
X81272Y54211D01*
X81212Y54291D01*
X81149Y54370D01*
X81082Y54446D01*
X81013Y54519D01*
X80941Y54589D01*
X80867Y54657D01*
X80790Y54722D01*
X80710Y54783D01*
X80628Y54842D01*
X80544Y54897D01*
X80458Y54949D01*
X80370Y54998D01*
X80280Y55043D01*
X80188Y55085D01*
X80095Y55123D01*
X80000Y55157D01*
X79905Y55188D01*
X79808Y55215D01*
X79710Y55238D01*
X79611Y55258D01*
X79511Y55273D01*
X79411Y55285D01*
X79311Y55293D01*
X79210Y55297D01*
X79110Y55297D01*
X79009Y55293D01*
X78909Y55285D01*
X78809Y55273D01*
X78709Y55258D01*
X78610Y55238D01*
X78512Y55215D01*
X78415Y55188D01*
X78320Y55157D01*
X78225Y55123D01*
X78132Y55085D01*
X78040Y55043D01*
X77950Y54998D01*
X77862Y54949D01*
X77776Y54897D01*
X77692Y54842D01*
X77610Y54783D01*
X77530Y54722D01*
X77453Y54657D01*
X77379Y54589D01*
X77307Y54519D01*
X77238Y54446D01*
X77171Y54370D01*
X77108Y54291D01*
X77048Y54211D01*
X76991Y54128D01*
X76937Y54042D01*
X76887Y53955D01*
X76840Y53866D01*
X76797Y53775D01*
X76757Y53683D01*
X76721Y53589D01*
X76688Y53494D01*
X76659Y53397D01*
X76634Y53300D01*
X76613Y53201D01*
X76595Y53102D01*
X76582Y53002D01*
X76572Y52902D01*
X76566Y52802D01*
X76564Y52701D01*
X76563Y52701D02*
X76563Y50104D01*
X76564Y50104D02*
X76566Y50003D01*
X76572Y49903D01*
X76582Y49803D01*
X76595Y49703D01*
X76613Y49604D01*
X76634Y49505D01*
X76659Y49408D01*
X76688Y49311D01*
X76721Y49216D01*
X76757Y49122D01*
X76797Y49030D01*
X76840Y48939D01*
X76887Y48850D01*
X76937Y48763D01*
X76991Y48677D01*
X77048Y48594D01*
X77108Y48514D01*
X77171Y48435D01*
X77238Y48359D01*
X77307Y48286D01*
X77379Y48216D01*
X77453Y48148D01*
X77530Y48083D01*
X77610Y48022D01*
X77692Y47963D01*
X77776Y47908D01*
X77862Y47856D01*
X77950Y47807D01*
X78040Y47762D01*
X78132Y47720D01*
X78225Y47682D01*
X78320Y47648D01*
X78415Y47617D01*
X78512Y47590D01*
X78610Y47567D01*
X78709Y47547D01*
X78809Y47532D01*
X78909Y47520D01*
X79009Y47512D01*
X79110Y47508D01*
X79210Y47508D01*
X79311Y47512D01*
X79411Y47520D01*
X79511Y47532D01*
X79611Y47547D01*
X79710Y47567D01*
X79808Y47590D01*
X79905Y47617D01*
X80000Y47648D01*
X80095Y47682D01*
X80188Y47720D01*
X80280Y47762D01*
X80370Y47807D01*
X80458Y47856D01*
X80544Y47908D01*
X80628Y47963D01*
X80710Y48022D01*
X80790Y48083D01*
X80867Y48148D01*
X80941Y48216D01*
X81013Y48286D01*
X81082Y48359D01*
X81149Y48435D01*
X81212Y48514D01*
X81272Y48594D01*
X81329Y48677D01*
X81383Y48763D01*
X81433Y48850D01*
X81480Y48939D01*
X81523Y49030D01*
X81563Y49122D01*
X81599Y49216D01*
X81632Y49311D01*
X81661Y49408D01*
X81686Y49505D01*
X81707Y49604D01*
X81725Y49703D01*
X81738Y49803D01*
X81748Y49903D01*
X81754Y50003D01*
X81756Y50104D01*
X71403Y47508D02*
X71403Y55297D01*
X67508Y55297D01*
X67508Y53999D01*
X219015Y544508D02*
X219015Y556192D01*
X219015Y544508D02*
X213822Y544508D01*
X209109Y544508D02*
X203916Y544508D01*
X209109Y544508D02*
X209109Y556192D01*
X203916Y556192D01*
X205214Y550999D02*
X209109Y550999D01*
X199225Y556192D02*
X199225Y544508D01*
X199225Y556192D02*
X195980Y556192D01*
X195867Y556190D01*
X195754Y556184D01*
X195641Y556174D01*
X195528Y556160D01*
X195416Y556143D01*
X195305Y556121D01*
X195195Y556096D01*
X195085Y556066D01*
X194977Y556033D01*
X194870Y555996D01*
X194764Y555956D01*
X194660Y555911D01*
X194557Y555863D01*
X194456Y555812D01*
X194357Y555757D01*
X194260Y555699D01*
X194165Y555637D01*
X194072Y555572D01*
X193982Y555504D01*
X193894Y555433D01*
X193808Y555358D01*
X193725Y555281D01*
X193645Y555201D01*
X193568Y555118D01*
X193493Y555032D01*
X193422Y554944D01*
X193354Y554854D01*
X193289Y554761D01*
X193227Y554666D01*
X193169Y554569D01*
X193114Y554470D01*
X193063Y554369D01*
X193015Y554266D01*
X192970Y554162D01*
X192930Y554056D01*
X192893Y553949D01*
X192860Y553841D01*
X192830Y553731D01*
X192805Y553621D01*
X192783Y553510D01*
X192766Y553398D01*
X192752Y553285D01*
X192742Y553172D01*
X192736Y553059D01*
X192734Y552946D01*
X192734Y547754D01*
X192736Y547641D01*
X192742Y547528D01*
X192752Y547415D01*
X192766Y547302D01*
X192783Y547190D01*
X192805Y547079D01*
X192830Y546969D01*
X192860Y546859D01*
X192893Y546751D01*
X192930Y546644D01*
X192970Y546538D01*
X193015Y546434D01*
X193063Y546331D01*
X193114Y546230D01*
X193169Y546131D01*
X193227Y546034D01*
X193289Y545939D01*
X193354Y545846D01*
X193422Y545756D01*
X193493Y545668D01*
X193568Y545582D01*
X193645Y545499D01*
X193725Y545419D01*
X193808Y545342D01*
X193894Y545267D01*
X193982Y545196D01*
X194072Y545128D01*
X194165Y545063D01*
X194260Y545001D01*
X194357Y544943D01*
X194456Y544888D01*
X194557Y544837D01*
X194660Y544789D01*
X194764Y544744D01*
X194870Y544704D01*
X194977Y544667D01*
X195085Y544634D01*
X195195Y544604D01*
X195305Y544579D01*
X195416Y544557D01*
X195528Y544540D01*
X195641Y544526D01*
X195754Y544516D01*
X195867Y544510D01*
X195980Y544508D01*
X199225Y544508D01*
X178755Y544508D02*
X176158Y544508D01*
X178755Y544508D02*
X178854Y544510D01*
X178954Y544516D01*
X179053Y544525D01*
X179151Y544538D01*
X179249Y544555D01*
X179347Y544576D01*
X179443Y544601D01*
X179538Y544629D01*
X179632Y544661D01*
X179725Y544696D01*
X179817Y544735D01*
X179907Y544778D01*
X179995Y544823D01*
X180082Y544873D01*
X180166Y544925D01*
X180249Y544981D01*
X180329Y545039D01*
X180407Y545101D01*
X180482Y545166D01*
X180555Y545234D01*
X180625Y545304D01*
X180693Y545377D01*
X180758Y545452D01*
X180820Y545530D01*
X180878Y545610D01*
X180934Y545693D01*
X180986Y545777D01*
X181036Y545864D01*
X181081Y545952D01*
X181124Y546042D01*
X181163Y546134D01*
X181198Y546227D01*
X181230Y546321D01*
X181258Y546416D01*
X181283Y546512D01*
X181304Y546610D01*
X181321Y546708D01*
X181334Y546806D01*
X181343Y546905D01*
X181349Y547005D01*
X181351Y547104D01*
X181351Y553596D01*
X181349Y553695D01*
X181343Y553795D01*
X181334Y553894D01*
X181321Y553992D01*
X181304Y554090D01*
X181283Y554188D01*
X181258Y554284D01*
X181230Y554379D01*
X181198Y554473D01*
X181163Y554566D01*
X181124Y554658D01*
X181081Y554748D01*
X181036Y554836D01*
X180986Y554923D01*
X180934Y555007D01*
X180878Y555090D01*
X180820Y555170D01*
X180758Y555248D01*
X180693Y555323D01*
X180625Y555396D01*
X180555Y555466D01*
X180482Y555534D01*
X180407Y555599D01*
X180329Y555661D01*
X180249Y555719D01*
X180166Y555775D01*
X180082Y555827D01*
X179995Y555877D01*
X179907Y555922D01*
X179817Y555965D01*
X179725Y556004D01*
X179632Y556039D01*
X179538Y556071D01*
X179443Y556099D01*
X179347Y556124D01*
X179249Y556145D01*
X179151Y556162D01*
X179053Y556175D01*
X178954Y556184D01*
X178854Y556190D01*
X178755Y556192D01*
X176158Y556192D01*
X171906Y549701D02*
X171906Y547104D01*
X171906Y549701D02*
X171904Y549802D01*
X171898Y549902D01*
X171888Y550002D01*
X171875Y550102D01*
X171857Y550201D01*
X171836Y550300D01*
X171811Y550397D01*
X171782Y550494D01*
X171749Y550589D01*
X171713Y550683D01*
X171673Y550775D01*
X171630Y550866D01*
X171583Y550955D01*
X171533Y551042D01*
X171479Y551128D01*
X171422Y551211D01*
X171362Y551291D01*
X171299Y551370D01*
X171232Y551446D01*
X171163Y551519D01*
X171091Y551589D01*
X171017Y551657D01*
X170940Y551722D01*
X170860Y551783D01*
X170778Y551842D01*
X170694Y551897D01*
X170608Y551949D01*
X170520Y551998D01*
X170430Y552043D01*
X170338Y552085D01*
X170245Y552123D01*
X170150Y552157D01*
X170055Y552188D01*
X169958Y552215D01*
X169860Y552238D01*
X169761Y552258D01*
X169661Y552273D01*
X169561Y552285D01*
X169461Y552293D01*
X169360Y552297D01*
X169260Y552297D01*
X169159Y552293D01*
X169059Y552285D01*
X168959Y552273D01*
X168859Y552258D01*
X168760Y552238D01*
X168662Y552215D01*
X168565Y552188D01*
X168470Y552157D01*
X168375Y552123D01*
X168282Y552085D01*
X168190Y552043D01*
X168100Y551998D01*
X168012Y551949D01*
X167926Y551897D01*
X167842Y551842D01*
X167760Y551783D01*
X167680Y551722D01*
X167603Y551657D01*
X167529Y551589D01*
X167457Y551519D01*
X167388Y551446D01*
X167321Y551370D01*
X167258Y551291D01*
X167198Y551211D01*
X167141Y551128D01*
X167087Y551042D01*
X167037Y550955D01*
X166990Y550866D01*
X166947Y550775D01*
X166907Y550683D01*
X166871Y550589D01*
X166838Y550494D01*
X166809Y550397D01*
X166784Y550300D01*
X166763Y550201D01*
X166745Y550102D01*
X166732Y550002D01*
X166722Y549902D01*
X166716Y549802D01*
X166714Y549701D01*
X166713Y549701D02*
X166713Y547104D01*
X166714Y547104D02*
X166716Y547003D01*
X166722Y546903D01*
X166732Y546803D01*
X166745Y546703D01*
X166763Y546604D01*
X166784Y546505D01*
X166809Y546408D01*
X166838Y546311D01*
X166871Y546216D01*
X166907Y546122D01*
X166947Y546030D01*
X166990Y545939D01*
X167037Y545850D01*
X167087Y545763D01*
X167141Y545677D01*
X167198Y545594D01*
X167258Y545514D01*
X167321Y545435D01*
X167388Y545359D01*
X167457Y545286D01*
X167529Y545216D01*
X167603Y545148D01*
X167680Y545083D01*
X167760Y545022D01*
X167842Y544963D01*
X167926Y544908D01*
X168012Y544856D01*
X168100Y544807D01*
X168190Y544762D01*
X168282Y544720D01*
X168375Y544682D01*
X168470Y544648D01*
X168565Y544617D01*
X168662Y544590D01*
X168760Y544567D01*
X168859Y544547D01*
X168959Y544532D01*
X169059Y544520D01*
X169159Y544512D01*
X169260Y544508D01*
X169360Y544508D01*
X169461Y544512D01*
X169561Y544520D01*
X169661Y544532D01*
X169761Y544547D01*
X169860Y544567D01*
X169958Y544590D01*
X170055Y544617D01*
X170150Y544648D01*
X170245Y544682D01*
X170338Y544720D01*
X170430Y544762D01*
X170520Y544807D01*
X170608Y544856D01*
X170694Y544908D01*
X170778Y544963D01*
X170860Y545022D01*
X170940Y545083D01*
X171017Y545148D01*
X171091Y545216D01*
X171163Y545286D01*
X171232Y545359D01*
X171299Y545435D01*
X171362Y545514D01*
X171422Y545594D01*
X171479Y545677D01*
X171533Y545763D01*
X171583Y545850D01*
X171630Y545939D01*
X171673Y546030D01*
X171713Y546122D01*
X171749Y546216D01*
X171782Y546311D01*
X171811Y546408D01*
X171836Y546505D01*
X171857Y546604D01*
X171875Y546703D01*
X171888Y546803D01*
X171898Y546903D01*
X171904Y547003D01*
X171906Y547104D01*
X161619Y544508D02*
X161619Y552297D01*
X158373Y552297D01*
X158286Y552295D01*
X158198Y552289D01*
X158112Y552279D01*
X158025Y552266D01*
X157940Y552248D01*
X157855Y552227D01*
X157771Y552202D01*
X157689Y552173D01*
X157608Y552140D01*
X157528Y552104D01*
X157450Y552065D01*
X157374Y552021D01*
X157300Y551975D01*
X157229Y551925D01*
X157159Y551872D01*
X157092Y551816D01*
X157028Y551757D01*
X156966Y551696D01*
X156907Y551631D01*
X156851Y551564D01*
X156798Y551494D01*
X156748Y551423D01*
X156702Y551349D01*
X156659Y551273D01*
X156619Y551195D01*
X156583Y551115D01*
X156550Y551034D01*
X156521Y550952D01*
X156496Y550868D01*
X156475Y550783D01*
X156457Y550698D01*
X156444Y550611D01*
X156434Y550525D01*
X156428Y550437D01*
X156426Y550350D01*
X156426Y544508D01*
X150951Y544508D02*
X150951Y552297D01*
X147705Y552297D01*
X147618Y552295D01*
X147530Y552289D01*
X147444Y552279D01*
X147357Y552266D01*
X147272Y552248D01*
X147187Y552227D01*
X147103Y552202D01*
X147021Y552173D01*
X146940Y552140D01*
X146860Y552104D01*
X146782Y552065D01*
X146706Y552021D01*
X146632Y551975D01*
X146561Y551925D01*
X146491Y551872D01*
X146424Y551816D01*
X146360Y551757D01*
X146298Y551696D01*
X146239Y551631D01*
X146183Y551564D01*
X146130Y551494D01*
X146080Y551423D01*
X146034Y551349D01*
X145991Y551273D01*
X145951Y551195D01*
X145915Y551115D01*
X145882Y551034D01*
X145853Y550952D01*
X145828Y550868D01*
X145807Y550783D01*
X145789Y550698D01*
X145776Y550611D01*
X145766Y550525D01*
X145760Y550437D01*
X145758Y550350D01*
X145758Y544508D01*
X138717Y544508D02*
X135471Y544508D01*
X138717Y544508D02*
X138804Y544510D01*
X138892Y544516D01*
X138978Y544526D01*
X139065Y544539D01*
X139150Y544557D01*
X139235Y544578D01*
X139319Y544603D01*
X139401Y544632D01*
X139482Y544665D01*
X139562Y544701D01*
X139640Y544740D01*
X139716Y544784D01*
X139790Y544830D01*
X139861Y544880D01*
X139931Y544933D01*
X139998Y544989D01*
X140062Y545048D01*
X140124Y545110D01*
X140183Y545174D01*
X140239Y545241D01*
X140292Y545311D01*
X140342Y545382D01*
X140388Y545456D01*
X140432Y545532D01*
X140471Y545610D01*
X140507Y545690D01*
X140540Y545771D01*
X140569Y545853D01*
X140594Y545937D01*
X140615Y546022D01*
X140633Y546107D01*
X140646Y546194D01*
X140656Y546280D01*
X140662Y546368D01*
X140664Y546455D01*
X140664Y549701D01*
X140662Y549802D01*
X140656Y549902D01*
X140646Y550002D01*
X140633Y550102D01*
X140615Y550201D01*
X140594Y550300D01*
X140569Y550397D01*
X140540Y550494D01*
X140507Y550589D01*
X140471Y550683D01*
X140431Y550775D01*
X140388Y550866D01*
X140341Y550955D01*
X140291Y551042D01*
X140237Y551128D01*
X140180Y551211D01*
X140120Y551291D01*
X140057Y551370D01*
X139990Y551446D01*
X139921Y551519D01*
X139849Y551589D01*
X139775Y551657D01*
X139698Y551722D01*
X139618Y551783D01*
X139536Y551842D01*
X139452Y551897D01*
X139366Y551949D01*
X139278Y551998D01*
X139188Y552043D01*
X139096Y552085D01*
X139003Y552123D01*
X138908Y552157D01*
X138813Y552188D01*
X138716Y552215D01*
X138618Y552238D01*
X138519Y552258D01*
X138419Y552273D01*
X138319Y552285D01*
X138219Y552293D01*
X138118Y552297D01*
X138018Y552297D01*
X137917Y552293D01*
X137817Y552285D01*
X137717Y552273D01*
X137617Y552258D01*
X137518Y552238D01*
X137420Y552215D01*
X137323Y552188D01*
X137228Y552157D01*
X137133Y552123D01*
X137040Y552085D01*
X136948Y552043D01*
X136858Y551998D01*
X136770Y551949D01*
X136684Y551897D01*
X136600Y551842D01*
X136518Y551783D01*
X136438Y551722D01*
X136361Y551657D01*
X136287Y551589D01*
X136215Y551519D01*
X136146Y551446D01*
X136079Y551370D01*
X136016Y551291D01*
X135956Y551211D01*
X135899Y551128D01*
X135845Y551042D01*
X135795Y550955D01*
X135748Y550866D01*
X135705Y550775D01*
X135665Y550683D01*
X135629Y550589D01*
X135596Y550494D01*
X135567Y550397D01*
X135542Y550300D01*
X135521Y550201D01*
X135503Y550102D01*
X135490Y550002D01*
X135480Y549902D01*
X135474Y549802D01*
X135472Y549701D01*
X135471Y549701D02*
X135471Y548403D01*
X140664Y548403D01*
X128797Y544508D02*
X126201Y544508D01*
X128797Y544508D02*
X128884Y544510D01*
X128972Y544516D01*
X129058Y544526D01*
X129145Y544539D01*
X129230Y544557D01*
X129315Y544578D01*
X129399Y544603D01*
X129481Y544632D01*
X129562Y544665D01*
X129642Y544701D01*
X129720Y544740D01*
X129796Y544784D01*
X129870Y544830D01*
X129941Y544880D01*
X130011Y544933D01*
X130078Y544989D01*
X130142Y545048D01*
X130204Y545110D01*
X130263Y545174D01*
X130319Y545241D01*
X130372Y545311D01*
X130422Y545382D01*
X130468Y545456D01*
X130512Y545532D01*
X130551Y545610D01*
X130587Y545690D01*
X130620Y545771D01*
X130649Y545853D01*
X130674Y545937D01*
X130695Y546022D01*
X130713Y546107D01*
X130726Y546194D01*
X130736Y546280D01*
X130742Y546368D01*
X130744Y546455D01*
X130745Y546455D02*
X130745Y550350D01*
X130744Y550350D02*
X130742Y550437D01*
X130736Y550525D01*
X130726Y550611D01*
X130713Y550698D01*
X130695Y550783D01*
X130674Y550868D01*
X130649Y550952D01*
X130620Y551034D01*
X130587Y551115D01*
X130551Y551195D01*
X130512Y551273D01*
X130468Y551349D01*
X130422Y551423D01*
X130372Y551494D01*
X130319Y551564D01*
X130263Y551631D01*
X130204Y551695D01*
X130142Y551757D01*
X130078Y551816D01*
X130011Y551872D01*
X129941Y551925D01*
X129870Y551975D01*
X129796Y552021D01*
X129720Y552065D01*
X129642Y552104D01*
X129562Y552140D01*
X129481Y552173D01*
X129399Y552202D01*
X129315Y552227D01*
X129230Y552248D01*
X129145Y552266D01*
X129058Y552279D01*
X128972Y552289D01*
X128884Y552295D01*
X128797Y552297D01*
X126201Y552297D01*
X122962Y552297D02*
X119068Y552297D01*
X121664Y556192D02*
X121664Y546455D01*
X121662Y546368D01*
X121656Y546280D01*
X121646Y546194D01*
X121633Y546107D01*
X121615Y546022D01*
X121594Y545937D01*
X121569Y545853D01*
X121540Y545771D01*
X121507Y545690D01*
X121471Y545610D01*
X121432Y545532D01*
X121388Y545456D01*
X121342Y545382D01*
X121292Y545311D01*
X121239Y545241D01*
X121183Y545174D01*
X121124Y545110D01*
X121062Y545048D01*
X120998Y544989D01*
X120931Y544933D01*
X120861Y544880D01*
X120790Y544830D01*
X120716Y544784D01*
X120640Y544740D01*
X120562Y544701D01*
X120482Y544665D01*
X120401Y544632D01*
X120319Y544603D01*
X120235Y544578D01*
X120150Y544557D01*
X120065Y544539D01*
X119978Y544526D01*
X119892Y544516D01*
X119804Y544510D01*
X119717Y544508D01*
X119068Y544508D01*
X114756Y547104D02*
X114756Y549701D01*
X114754Y549802D01*
X114748Y549902D01*
X114738Y550002D01*
X114725Y550102D01*
X114707Y550201D01*
X114686Y550300D01*
X114661Y550397D01*
X114632Y550494D01*
X114599Y550589D01*
X114563Y550683D01*
X114523Y550775D01*
X114480Y550866D01*
X114433Y550955D01*
X114383Y551042D01*
X114329Y551128D01*
X114272Y551211D01*
X114212Y551291D01*
X114149Y551370D01*
X114082Y551446D01*
X114013Y551519D01*
X113941Y551589D01*
X113867Y551657D01*
X113790Y551722D01*
X113710Y551783D01*
X113628Y551842D01*
X113544Y551897D01*
X113458Y551949D01*
X113370Y551998D01*
X113280Y552043D01*
X113188Y552085D01*
X113095Y552123D01*
X113000Y552157D01*
X112905Y552188D01*
X112808Y552215D01*
X112710Y552238D01*
X112611Y552258D01*
X112511Y552273D01*
X112411Y552285D01*
X112311Y552293D01*
X112210Y552297D01*
X112110Y552297D01*
X112009Y552293D01*
X111909Y552285D01*
X111809Y552273D01*
X111709Y552258D01*
X111610Y552238D01*
X111512Y552215D01*
X111415Y552188D01*
X111320Y552157D01*
X111225Y552123D01*
X111132Y552085D01*
X111040Y552043D01*
X110950Y551998D01*
X110862Y551949D01*
X110776Y551897D01*
X110692Y551842D01*
X110610Y551783D01*
X110530Y551722D01*
X110453Y551657D01*
X110379Y551589D01*
X110307Y551519D01*
X110238Y551446D01*
X110171Y551370D01*
X110108Y551291D01*
X110048Y551211D01*
X109991Y551128D01*
X109937Y551042D01*
X109887Y550955D01*
X109840Y550866D01*
X109797Y550775D01*
X109757Y550683D01*
X109721Y550589D01*
X109688Y550494D01*
X109659Y550397D01*
X109634Y550300D01*
X109613Y550201D01*
X109595Y550102D01*
X109582Y550002D01*
X109572Y549902D01*
X109566Y549802D01*
X109564Y549701D01*
X109563Y549701D02*
X109563Y547104D01*
X109564Y547104D02*
X109566Y547003D01*
X109572Y546903D01*
X109582Y546803D01*
X109595Y546703D01*
X109613Y546604D01*
X109634Y546505D01*
X109659Y546408D01*
X109688Y546311D01*
X109721Y546216D01*
X109757Y546122D01*
X109797Y546030D01*
X109840Y545939D01*
X109887Y545850D01*
X109937Y545763D01*
X109991Y545677D01*
X110048Y545594D01*
X110108Y545514D01*
X110171Y545435D01*
X110238Y545359D01*
X110307Y545286D01*
X110379Y545216D01*
X110453Y545148D01*
X110530Y545083D01*
X110610Y545022D01*
X110692Y544963D01*
X110776Y544908D01*
X110862Y544856D01*
X110950Y544807D01*
X111040Y544762D01*
X111132Y544720D01*
X111225Y544682D01*
X111320Y544648D01*
X111415Y544617D01*
X111512Y544590D01*
X111610Y544567D01*
X111709Y544547D01*
X111809Y544532D01*
X111909Y544520D01*
X112009Y544512D01*
X112110Y544508D01*
X112210Y544508D01*
X112311Y544512D01*
X112411Y544520D01*
X112511Y544532D01*
X112611Y544547D01*
X112710Y544567D01*
X112808Y544590D01*
X112905Y544617D01*
X113000Y544648D01*
X113095Y544682D01*
X113188Y544720D01*
X113280Y544762D01*
X113370Y544807D01*
X113458Y544856D01*
X113544Y544908D01*
X113628Y544963D01*
X113710Y545022D01*
X113790Y545083D01*
X113867Y545148D01*
X113941Y545216D01*
X114013Y545286D01*
X114082Y545359D01*
X114149Y545435D01*
X114212Y545514D01*
X114272Y545594D01*
X114329Y545677D01*
X114383Y545763D01*
X114433Y545850D01*
X114480Y545939D01*
X114523Y546030D01*
X114563Y546122D01*
X114599Y546216D01*
X114632Y546311D01*
X114661Y546408D01*
X114686Y546505D01*
X114707Y546604D01*
X114725Y546703D01*
X114738Y546803D01*
X114748Y546903D01*
X114754Y547003D01*
X114756Y547104D01*
X104403Y544508D02*
X104403Y552297D01*
X100508Y552297D01*
X100508Y550999D01*
X305645Y91374D02*
X305647Y91275D01*
X305653Y91175D01*
X305662Y91076D01*
X305675Y90978D01*
X305692Y90880D01*
X305713Y90782D01*
X305738Y90686D01*
X305766Y90591D01*
X305798Y90497D01*
X305833Y90404D01*
X305872Y90312D01*
X305915Y90222D01*
X305960Y90134D01*
X306010Y90047D01*
X306062Y89963D01*
X306118Y89880D01*
X306176Y89800D01*
X306238Y89722D01*
X306303Y89647D01*
X306371Y89574D01*
X306441Y89504D01*
X306514Y89436D01*
X306589Y89371D01*
X306667Y89309D01*
X306747Y89251D01*
X306830Y89195D01*
X306914Y89143D01*
X307001Y89093D01*
X307089Y89048D01*
X307179Y89005D01*
X307271Y88966D01*
X307364Y88931D01*
X307458Y88899D01*
X307553Y88871D01*
X307649Y88846D01*
X307747Y88825D01*
X307845Y88808D01*
X307943Y88795D01*
X308042Y88786D01*
X308142Y88780D01*
X308241Y88778D01*
X308241Y88777D02*
X308385Y88779D01*
X308530Y88785D01*
X308674Y88794D01*
X308817Y88807D01*
X308961Y88824D01*
X309104Y88845D01*
X309246Y88870D01*
X309387Y88898D01*
X309528Y88930D01*
X309668Y88966D01*
X309807Y89005D01*
X309945Y89048D01*
X310081Y89095D01*
X310217Y89145D01*
X310351Y89199D01*
X310483Y89256D01*
X310614Y89317D01*
X310743Y89381D01*
X310871Y89449D01*
X310997Y89520D01*
X311121Y89594D01*
X311242Y89671D01*
X311362Y89752D01*
X311480Y89835D01*
X311595Y89922D01*
X311708Y90012D01*
X311819Y90105D01*
X311927Y90200D01*
X312033Y90299D01*
X312136Y90400D01*
X311811Y97865D02*
X311809Y97964D01*
X311803Y98064D01*
X311794Y98163D01*
X311781Y98261D01*
X311764Y98359D01*
X311743Y98457D01*
X311718Y98553D01*
X311690Y98648D01*
X311658Y98742D01*
X311623Y98835D01*
X311584Y98927D01*
X311541Y99017D01*
X311496Y99105D01*
X311446Y99192D01*
X311394Y99276D01*
X311338Y99359D01*
X311280Y99439D01*
X311218Y99517D01*
X311153Y99592D01*
X311085Y99665D01*
X311015Y99735D01*
X310942Y99803D01*
X310867Y99868D01*
X310789Y99930D01*
X310709Y99988D01*
X310626Y100044D01*
X310542Y100096D01*
X310455Y100146D01*
X310367Y100191D01*
X310277Y100234D01*
X310185Y100273D01*
X310092Y100308D01*
X309998Y100340D01*
X309903Y100368D01*
X309807Y100393D01*
X309709Y100414D01*
X309611Y100431D01*
X309513Y100444D01*
X309414Y100453D01*
X309314Y100459D01*
X309215Y100461D01*
X309079Y100459D01*
X308943Y100453D01*
X308807Y100444D01*
X308671Y100431D01*
X308536Y100413D01*
X308402Y100393D01*
X308268Y100368D01*
X308134Y100340D01*
X308002Y100307D01*
X307871Y100272D01*
X307740Y100232D01*
X307611Y100189D01*
X307483Y100143D01*
X307357Y100092D01*
X307231Y100039D01*
X307108Y99981D01*
X306986Y99921D01*
X306866Y99857D01*
X306747Y99789D01*
X306631Y99719D01*
X306517Y99645D01*
X306404Y99568D01*
X306294Y99487D01*
X310514Y95593D02*
X310600Y95646D01*
X310684Y95703D01*
X310766Y95762D01*
X310846Y95825D01*
X310923Y95891D01*
X310998Y95959D01*
X311070Y96031D01*
X311139Y96105D01*
X311205Y96182D01*
X311268Y96261D01*
X311328Y96343D01*
X311385Y96427D01*
X311439Y96513D01*
X311489Y96601D01*
X311536Y96691D01*
X311580Y96782D01*
X311619Y96876D01*
X311656Y96970D01*
X311688Y97066D01*
X311717Y97164D01*
X311742Y97262D01*
X311763Y97361D01*
X311781Y97461D01*
X311794Y97561D01*
X311804Y97662D01*
X311810Y97764D01*
X311812Y97865D01*
X306943Y93646D02*
X306857Y93593D01*
X306773Y93536D01*
X306691Y93477D01*
X306611Y93414D01*
X306534Y93348D01*
X306459Y93280D01*
X306387Y93208D01*
X306318Y93134D01*
X306252Y93057D01*
X306189Y92978D01*
X306129Y92896D01*
X306072Y92812D01*
X306018Y92726D01*
X305968Y92638D01*
X305921Y92548D01*
X305877Y92457D01*
X305838Y92363D01*
X305801Y92269D01*
X305769Y92173D01*
X305740Y92075D01*
X305715Y91977D01*
X305694Y91878D01*
X305676Y91778D01*
X305663Y91678D01*
X305653Y91577D01*
X305647Y91475D01*
X305645Y91374D01*
X306943Y93645D02*
X310513Y95593D01*
X300974Y93321D02*
X293185Y93321D01*
X305324Y47135D02*
X305326Y47036D01*
X305332Y46936D01*
X305341Y46837D01*
X305354Y46739D01*
X305371Y46641D01*
X305392Y46543D01*
X305417Y46447D01*
X305445Y46352D01*
X305477Y46258D01*
X305512Y46165D01*
X305551Y46073D01*
X305594Y45983D01*
X305639Y45895D01*
X305689Y45808D01*
X305741Y45724D01*
X305797Y45641D01*
X305855Y45561D01*
X305917Y45483D01*
X305982Y45408D01*
X306050Y45335D01*
X306120Y45265D01*
X306193Y45197D01*
X306268Y45132D01*
X306346Y45070D01*
X306426Y45012D01*
X306509Y44956D01*
X306593Y44904D01*
X306680Y44854D01*
X306768Y44809D01*
X306858Y44766D01*
X306950Y44727D01*
X307043Y44692D01*
X307137Y44660D01*
X307232Y44632D01*
X307328Y44607D01*
X307426Y44586D01*
X307524Y44569D01*
X307622Y44556D01*
X307721Y44547D01*
X307821Y44541D01*
X307920Y44539D01*
X308064Y44541D01*
X308209Y44547D01*
X308353Y44556D01*
X308496Y44569D01*
X308640Y44586D01*
X308783Y44607D01*
X308925Y44632D01*
X309066Y44660D01*
X309207Y44692D01*
X309347Y44728D01*
X309486Y44767D01*
X309624Y44810D01*
X309760Y44857D01*
X309896Y44907D01*
X310030Y44961D01*
X310162Y45018D01*
X310293Y45079D01*
X310422Y45143D01*
X310550Y45211D01*
X310676Y45282D01*
X310800Y45356D01*
X310921Y45433D01*
X311041Y45514D01*
X311159Y45597D01*
X311274Y45684D01*
X311387Y45774D01*
X311498Y45867D01*
X311606Y45962D01*
X311712Y46061D01*
X311815Y46162D01*
X311490Y53626D02*
X311488Y53725D01*
X311482Y53825D01*
X311473Y53924D01*
X311460Y54022D01*
X311443Y54120D01*
X311422Y54218D01*
X311397Y54314D01*
X311369Y54409D01*
X311337Y54503D01*
X311302Y54596D01*
X311263Y54688D01*
X311220Y54778D01*
X311175Y54866D01*
X311125Y54953D01*
X311073Y55037D01*
X311017Y55120D01*
X310959Y55200D01*
X310897Y55278D01*
X310832Y55353D01*
X310764Y55426D01*
X310694Y55496D01*
X310621Y55564D01*
X310546Y55629D01*
X310468Y55691D01*
X310388Y55749D01*
X310305Y55805D01*
X310221Y55857D01*
X310134Y55907D01*
X310046Y55952D01*
X309956Y55995D01*
X309864Y56034D01*
X309771Y56069D01*
X309677Y56101D01*
X309582Y56129D01*
X309486Y56154D01*
X309388Y56175D01*
X309290Y56192D01*
X309192Y56205D01*
X309093Y56214D01*
X308993Y56220D01*
X308894Y56222D01*
X308894Y56223D02*
X308758Y56221D01*
X308622Y56215D01*
X308486Y56206D01*
X308350Y56193D01*
X308215Y56175D01*
X308081Y56155D01*
X307947Y56130D01*
X307813Y56102D01*
X307681Y56069D01*
X307550Y56034D01*
X307419Y55994D01*
X307290Y55951D01*
X307162Y55905D01*
X307036Y55854D01*
X306910Y55801D01*
X306787Y55743D01*
X306665Y55683D01*
X306545Y55619D01*
X306426Y55551D01*
X306310Y55481D01*
X306196Y55407D01*
X306083Y55330D01*
X305973Y55249D01*
X310193Y51354D02*
X310279Y51407D01*
X310363Y51464D01*
X310445Y51523D01*
X310525Y51586D01*
X310602Y51652D01*
X310677Y51720D01*
X310749Y51792D01*
X310818Y51866D01*
X310884Y51943D01*
X310947Y52022D01*
X311007Y52104D01*
X311064Y52188D01*
X311118Y52274D01*
X311168Y52362D01*
X311215Y52452D01*
X311259Y52543D01*
X311298Y52637D01*
X311335Y52731D01*
X311367Y52827D01*
X311396Y52925D01*
X311421Y53023D01*
X311442Y53122D01*
X311460Y53222D01*
X311473Y53322D01*
X311483Y53423D01*
X311489Y53525D01*
X311491Y53626D01*
X306622Y49407D02*
X306536Y49354D01*
X306452Y49297D01*
X306370Y49238D01*
X306290Y49175D01*
X306213Y49109D01*
X306138Y49041D01*
X306066Y48969D01*
X305997Y48895D01*
X305931Y48818D01*
X305868Y48739D01*
X305808Y48657D01*
X305751Y48573D01*
X305697Y48487D01*
X305647Y48399D01*
X305600Y48309D01*
X305556Y48218D01*
X305517Y48124D01*
X305480Y48030D01*
X305448Y47934D01*
X305419Y47836D01*
X305394Y47738D01*
X305373Y47639D01*
X305355Y47539D01*
X305342Y47439D01*
X305332Y47338D01*
X305326Y47236D01*
X305324Y47135D01*
X306622Y49407D02*
X310192Y51355D01*
X300653Y49083D02*
X292864Y49083D01*
X296759Y52977D02*
X296759Y45188D01*
D11*
X176000Y514000D02*
X192000Y520000D01*
X176000Y514000D02*
X160000Y514000D01*
X216000Y520000D02*
X216000Y508000D01*
X206000Y498000D01*
X160000Y498000D01*
X240000Y496000D02*
X240000Y520000D01*
X240000Y496000D02*
X206000Y484000D01*
X158000Y484000D01*
X264000Y96000D02*
X240000Y72000D01*
X264000Y96000D02*
X288000Y96000D01*
X248000Y48000D02*
X216000Y80000D01*
X248000Y48000D02*
X288000Y48000D01*
D10*
X155709Y483666D02*
X147920Y483666D01*
X151815Y479771D02*
X151815Y487561D01*
X142868Y479122D02*
X138974Y479122D01*
X138974Y479123D02*
X138875Y479125D01*
X138775Y479131D01*
X138676Y479140D01*
X138578Y479153D01*
X138480Y479170D01*
X138382Y479191D01*
X138286Y479216D01*
X138191Y479244D01*
X138097Y479276D01*
X138004Y479311D01*
X137912Y479350D01*
X137822Y479393D01*
X137734Y479438D01*
X137647Y479488D01*
X137563Y479540D01*
X137480Y479596D01*
X137400Y479654D01*
X137322Y479716D01*
X137247Y479781D01*
X137174Y479849D01*
X137104Y479919D01*
X137036Y479992D01*
X136971Y480067D01*
X136909Y480145D01*
X136851Y480225D01*
X136795Y480308D01*
X136743Y480392D01*
X136693Y480479D01*
X136648Y480567D01*
X136605Y480657D01*
X136566Y480749D01*
X136531Y480842D01*
X136499Y480936D01*
X136471Y481031D01*
X136446Y481127D01*
X136425Y481225D01*
X136408Y481323D01*
X136395Y481421D01*
X136386Y481520D01*
X136380Y481620D01*
X136378Y481719D01*
X136377Y481719D02*
X136377Y483017D01*
X136378Y483017D02*
X136380Y483116D01*
X136386Y483216D01*
X136395Y483315D01*
X136408Y483413D01*
X136425Y483511D01*
X136446Y483609D01*
X136471Y483705D01*
X136499Y483800D01*
X136531Y483894D01*
X136566Y483987D01*
X136605Y484079D01*
X136648Y484169D01*
X136693Y484257D01*
X136743Y484344D01*
X136795Y484428D01*
X136851Y484511D01*
X136909Y484591D01*
X136971Y484669D01*
X137036Y484744D01*
X137104Y484817D01*
X137174Y484887D01*
X137247Y484955D01*
X137322Y485020D01*
X137400Y485082D01*
X137480Y485140D01*
X137563Y485196D01*
X137647Y485248D01*
X137734Y485298D01*
X137822Y485343D01*
X137912Y485386D01*
X138004Y485425D01*
X138097Y485460D01*
X138191Y485492D01*
X138286Y485520D01*
X138382Y485545D01*
X138480Y485566D01*
X138578Y485583D01*
X138676Y485596D01*
X138775Y485605D01*
X138875Y485611D01*
X138974Y485613D01*
X142868Y485613D01*
X142868Y490806D01*
X136377Y490806D01*
X131932Y486912D02*
X129336Y479122D01*
X126739Y486912D01*
D11*
X317000Y533000D02*
X495000Y533000D01*
X495000Y51000D01*
X317000Y51000D01*
X317000Y533000D01*
D12*
X230500Y529000D02*
X226000Y533500D01*
X206000Y533500D01*
X203500Y531000D01*
X203000Y531000D01*
X200500Y533500D01*
X180500Y533500D01*
X178000Y531000D01*
X178000Y510500D01*
X180500Y508000D01*
X200500Y508000D01*
X203000Y510500D01*
X203500Y510500D01*
X206000Y508000D01*
X226000Y508000D01*
X228500Y510500D01*
X89000Y447000D02*
X86000Y444000D01*
X89000Y447000D02*
X89000Y467000D01*
X86000Y470000D01*
X66000Y470000D01*
X63500Y467500D01*
X63500Y447000D01*
X67000Y443500D01*
X89000Y383500D02*
X86000Y380500D01*
X89000Y383500D02*
X89000Y403500D01*
X86000Y406500D01*
X66000Y406500D01*
X63500Y404000D01*
X63500Y383500D01*
X70500Y376500D01*
X63500Y320000D02*
X68000Y315500D01*
X63500Y320000D02*
X63500Y340500D01*
X66000Y343000D01*
X86000Y343000D01*
X85500Y317000D02*
X85500Y316500D01*
X89000Y320000D01*
X89000Y340000D01*
X86000Y343000D01*
X67000Y253000D02*
X67000Y252500D01*
X67000Y253000D02*
X63500Y256500D01*
X63500Y277000D01*
X66000Y279500D01*
X86000Y279500D01*
X89000Y276500D01*
X89000Y256500D01*
X86000Y253500D01*
X63500Y142000D02*
X67500Y138000D01*
X63500Y142000D02*
X63500Y162500D01*
X66000Y165000D01*
X86000Y165000D01*
X89000Y162000D01*
X89000Y142500D01*
X84500Y138000D01*
X227000Y84500D02*
X231500Y89000D01*
X251500Y89000D01*
X254000Y86500D01*
X254000Y66000D01*
X251500Y63500D01*
X231000Y63500D01*
X228000Y66500D01*
D13*
X92000Y112000D02*
X78000Y126000D01*
X92000Y112000D02*
X154000Y112000D01*
X100000Y150000D02*
X78000Y150000D01*
X100000Y150000D02*
X110000Y140000D01*
X154000Y140000D01*
D10*
X183001Y142999D02*
X184948Y142999D01*
X183001Y142999D02*
X183001Y136508D01*
X186896Y136508D01*
X186995Y136510D01*
X187095Y136516D01*
X187194Y136525D01*
X187292Y136538D01*
X187390Y136555D01*
X187488Y136576D01*
X187584Y136601D01*
X187679Y136629D01*
X187773Y136661D01*
X187866Y136696D01*
X187958Y136735D01*
X188048Y136778D01*
X188136Y136823D01*
X188223Y136873D01*
X188307Y136925D01*
X188390Y136981D01*
X188470Y137039D01*
X188548Y137101D01*
X188623Y137166D01*
X188696Y137234D01*
X188766Y137304D01*
X188834Y137377D01*
X188899Y137452D01*
X188961Y137530D01*
X189019Y137610D01*
X189075Y137693D01*
X189127Y137777D01*
X189177Y137864D01*
X189222Y137952D01*
X189265Y138042D01*
X189304Y138134D01*
X189339Y138227D01*
X189371Y138321D01*
X189399Y138416D01*
X189424Y138512D01*
X189445Y138610D01*
X189462Y138708D01*
X189475Y138806D01*
X189484Y138905D01*
X189490Y139005D01*
X189492Y139104D01*
X189492Y145596D01*
X189490Y145695D01*
X189484Y145795D01*
X189475Y145894D01*
X189462Y145992D01*
X189445Y146090D01*
X189424Y146188D01*
X189399Y146284D01*
X189371Y146379D01*
X189339Y146473D01*
X189304Y146566D01*
X189265Y146658D01*
X189222Y146748D01*
X189177Y146836D01*
X189127Y146923D01*
X189075Y147007D01*
X189019Y147090D01*
X188961Y147170D01*
X188899Y147248D01*
X188834Y147323D01*
X188766Y147396D01*
X188696Y147466D01*
X188623Y147534D01*
X188548Y147599D01*
X188470Y147661D01*
X188390Y147719D01*
X188307Y147775D01*
X188223Y147827D01*
X188136Y147877D01*
X188048Y147922D01*
X187958Y147965D01*
X187866Y148004D01*
X187773Y148039D01*
X187679Y148071D01*
X187584Y148099D01*
X187488Y148124D01*
X187390Y148145D01*
X187292Y148162D01*
X187194Y148175D01*
X187095Y148184D01*
X186995Y148190D01*
X186896Y148192D01*
X183001Y148192D01*
X177300Y148192D02*
X177300Y136508D01*
X170809Y136508D02*
X177300Y148192D01*
X170809Y148192D02*
X170809Y136508D01*
X165108Y136508D02*
X165108Y148192D01*
X161863Y148192D01*
X161750Y148190D01*
X161637Y148184D01*
X161524Y148174D01*
X161411Y148160D01*
X161299Y148143D01*
X161188Y148121D01*
X161078Y148096D01*
X160968Y148066D01*
X160860Y148033D01*
X160753Y147996D01*
X160647Y147956D01*
X160543Y147911D01*
X160440Y147863D01*
X160339Y147812D01*
X160240Y147757D01*
X160143Y147699D01*
X160048Y147637D01*
X159955Y147572D01*
X159865Y147504D01*
X159777Y147433D01*
X159691Y147358D01*
X159608Y147281D01*
X159528Y147201D01*
X159451Y147118D01*
X159376Y147032D01*
X159305Y146944D01*
X159237Y146854D01*
X159172Y146761D01*
X159110Y146666D01*
X159052Y146569D01*
X158997Y146470D01*
X158946Y146369D01*
X158898Y146266D01*
X158853Y146162D01*
X158813Y146056D01*
X158776Y145949D01*
X158743Y145841D01*
X158713Y145731D01*
X158688Y145621D01*
X158666Y145510D01*
X158649Y145398D01*
X158635Y145285D01*
X158625Y145172D01*
X158619Y145059D01*
X158617Y144946D01*
X158617Y139754D01*
X158619Y139641D01*
X158625Y139528D01*
X158635Y139415D01*
X158649Y139302D01*
X158666Y139190D01*
X158688Y139079D01*
X158713Y138969D01*
X158743Y138859D01*
X158776Y138751D01*
X158813Y138644D01*
X158853Y138538D01*
X158898Y138434D01*
X158946Y138331D01*
X158997Y138230D01*
X159052Y138131D01*
X159110Y138034D01*
X159172Y137939D01*
X159237Y137846D01*
X159305Y137756D01*
X159376Y137668D01*
X159451Y137582D01*
X159528Y137499D01*
X159608Y137419D01*
X159691Y137342D01*
X159777Y137267D01*
X159865Y137196D01*
X159955Y137128D01*
X160048Y137063D01*
X160143Y137001D01*
X160240Y136943D01*
X160339Y136888D01*
X160440Y136837D01*
X160543Y136789D01*
X160647Y136744D01*
X160753Y136704D01*
X160860Y136667D01*
X160968Y136634D01*
X161078Y136604D01*
X161188Y136579D01*
X161299Y136557D01*
X161411Y136540D01*
X161524Y136526D01*
X161637Y136516D01*
X161750Y136510D01*
X161863Y136508D01*
X165108Y136508D01*
X183703Y113052D02*
X191492Y113052D01*
X187597Y116946D02*
X187597Y109157D01*
X178651Y108508D02*
X174756Y108508D01*
X174657Y108510D01*
X174557Y108516D01*
X174458Y108525D01*
X174360Y108538D01*
X174262Y108555D01*
X174164Y108576D01*
X174068Y108601D01*
X173973Y108629D01*
X173879Y108661D01*
X173786Y108696D01*
X173694Y108735D01*
X173604Y108778D01*
X173516Y108823D01*
X173429Y108873D01*
X173345Y108925D01*
X173262Y108981D01*
X173182Y109039D01*
X173104Y109101D01*
X173029Y109166D01*
X172956Y109234D01*
X172886Y109304D01*
X172818Y109377D01*
X172753Y109452D01*
X172691Y109530D01*
X172633Y109610D01*
X172577Y109693D01*
X172525Y109777D01*
X172475Y109864D01*
X172430Y109952D01*
X172387Y110042D01*
X172348Y110134D01*
X172313Y110227D01*
X172281Y110321D01*
X172253Y110416D01*
X172228Y110512D01*
X172207Y110610D01*
X172190Y110708D01*
X172177Y110806D01*
X172168Y110905D01*
X172162Y111005D01*
X172160Y111104D01*
X172160Y112403D01*
X172162Y112502D01*
X172168Y112602D01*
X172177Y112701D01*
X172190Y112799D01*
X172207Y112897D01*
X172228Y112995D01*
X172253Y113091D01*
X172281Y113186D01*
X172313Y113280D01*
X172348Y113373D01*
X172387Y113465D01*
X172430Y113555D01*
X172475Y113643D01*
X172525Y113730D01*
X172577Y113814D01*
X172633Y113897D01*
X172691Y113977D01*
X172753Y114055D01*
X172818Y114130D01*
X172886Y114203D01*
X172956Y114273D01*
X173029Y114341D01*
X173104Y114406D01*
X173182Y114468D01*
X173262Y114526D01*
X173345Y114582D01*
X173429Y114634D01*
X173516Y114684D01*
X173604Y114729D01*
X173694Y114772D01*
X173786Y114811D01*
X173879Y114846D01*
X173973Y114878D01*
X174068Y114906D01*
X174164Y114931D01*
X174262Y114952D01*
X174360Y114969D01*
X174458Y114982D01*
X174557Y114991D01*
X174657Y114997D01*
X174756Y114999D01*
X178651Y114999D01*
X178651Y120192D01*
X172160Y120192D01*
X167870Y120192D02*
X163975Y108508D01*
X160081Y120192D01*
D14*
X116505Y108765D02*
X116505Y97335D01*
X116505Y108765D02*
X113330Y108765D01*
X113219Y108763D01*
X113109Y108757D01*
X112998Y108748D01*
X112888Y108734D01*
X112779Y108717D01*
X112670Y108696D01*
X112562Y108671D01*
X112455Y108642D01*
X112349Y108610D01*
X112244Y108574D01*
X112141Y108534D01*
X112039Y108491D01*
X111938Y108444D01*
X111839Y108393D01*
X111743Y108340D01*
X111648Y108283D01*
X111555Y108222D01*
X111464Y108159D01*
X111375Y108092D01*
X111289Y108022D01*
X111206Y107949D01*
X111124Y107874D01*
X111046Y107796D01*
X110971Y107714D01*
X110898Y107631D01*
X110828Y107545D01*
X110761Y107456D01*
X110698Y107365D01*
X110637Y107272D01*
X110580Y107178D01*
X110527Y107081D01*
X110476Y106982D01*
X110429Y106881D01*
X110386Y106779D01*
X110346Y106676D01*
X110310Y106571D01*
X110278Y106465D01*
X110249Y106358D01*
X110224Y106250D01*
X110203Y106141D01*
X110186Y106032D01*
X110172Y105922D01*
X110163Y105811D01*
X110157Y105701D01*
X110155Y105590D01*
X110155Y100510D01*
X110157Y100399D01*
X110163Y100289D01*
X110172Y100178D01*
X110186Y100068D01*
X110203Y99959D01*
X110224Y99850D01*
X110249Y99742D01*
X110278Y99635D01*
X110310Y99529D01*
X110346Y99424D01*
X110386Y99321D01*
X110429Y99219D01*
X110476Y99118D01*
X110527Y99019D01*
X110580Y98923D01*
X110637Y98828D01*
X110698Y98735D01*
X110761Y98644D01*
X110828Y98555D01*
X110898Y98469D01*
X110971Y98386D01*
X111046Y98304D01*
X111124Y98226D01*
X111206Y98151D01*
X111289Y98078D01*
X111375Y98008D01*
X111464Y97941D01*
X111555Y97878D01*
X111648Y97817D01*
X111743Y97760D01*
X111839Y97707D01*
X111938Y97656D01*
X112039Y97609D01*
X112141Y97566D01*
X112244Y97526D01*
X112349Y97490D01*
X112455Y97458D01*
X112562Y97429D01*
X112670Y97404D01*
X112779Y97383D01*
X112888Y97366D01*
X112998Y97352D01*
X113109Y97343D01*
X113219Y97337D01*
X113330Y97335D01*
X116505Y97335D01*
X104694Y106225D02*
X101519Y108765D01*
X101519Y97335D01*
X104694Y97335D02*
X98344Y97335D01*
M02*
