G04 EAGLE Gerber RS-274X export*
G75*
%MOMM*%
%FSLAX34Y34*%
%LPD*%
%INSoldermask Bottom*%
%IPPOS*%
%AMOC8*
5,1,8,0,0,1.08239X$1,22.5*%
G01*
%ADD10C,1.625600*%
%ADD11C,1.676400*%
%ADD12C,1.311200*%
%ADD13C,1.524000*%


D10*
X69088Y127000D02*
X83312Y127000D01*
X83312Y152400D02*
X69088Y152400D01*
X69088Y431800D02*
X83312Y431800D01*
X83312Y457200D02*
X69088Y457200D01*
X69088Y368300D02*
X83312Y368300D01*
X83312Y393700D02*
X69088Y393700D01*
X69088Y304800D02*
X83312Y304800D01*
X83312Y330200D02*
X69088Y330200D01*
X69088Y241300D02*
X83312Y241300D01*
X83312Y266700D02*
X69088Y266700D01*
X241300Y83312D02*
X241300Y69088D01*
X215900Y69088D02*
X215900Y83312D01*
X190500Y513588D02*
X190500Y527812D01*
X215900Y527812D02*
X215900Y513588D01*
X241300Y513588D02*
X241300Y527812D01*
D11*
X279400Y127000D03*
X279400Y152400D03*
X279400Y177800D03*
X279400Y203200D03*
X279400Y228600D03*
X279400Y254000D03*
X279400Y279400D03*
X279400Y304800D03*
X279400Y330200D03*
X279400Y355600D03*
X279400Y381000D03*
X279400Y406400D03*
X279400Y431800D03*
X279400Y457200D03*
X254000Y457200D03*
X228600Y457200D03*
X203200Y457200D03*
X177800Y457200D03*
X152400Y457200D03*
X127000Y457200D03*
X127000Y431800D03*
X127000Y406400D03*
X127000Y381000D03*
X127000Y355600D03*
X127000Y330200D03*
X127000Y304800D03*
X127000Y279400D03*
X127000Y254000D03*
X127000Y228600D03*
X127000Y203200D03*
X127000Y177800D03*
X127000Y152400D03*
X127000Y127000D03*
X482600Y127000D03*
X482600Y152400D03*
X482600Y177800D03*
X482600Y203200D03*
X482600Y228600D03*
X482600Y254000D03*
X482600Y279400D03*
X482600Y304800D03*
X482600Y330200D03*
X482600Y355600D03*
X482600Y381000D03*
X482600Y406400D03*
X482600Y431800D03*
X482600Y457200D03*
X457200Y457200D03*
X431800Y457200D03*
X406400Y457200D03*
X381000Y457200D03*
X355600Y457200D03*
X330200Y457200D03*
X330200Y431800D03*
X330200Y406400D03*
X330200Y381000D03*
X330200Y355600D03*
X330200Y330200D03*
X330200Y304800D03*
X330200Y279400D03*
X330200Y254000D03*
X330200Y228600D03*
X330200Y203200D03*
X330200Y177800D03*
X330200Y152400D03*
X330200Y127000D03*
D12*
X444500Y63500D03*
X419100Y63500D03*
X393700Y63500D03*
X368300Y63500D03*
X419100Y520700D03*
X393700Y520700D03*
X368300Y520700D03*
X444500Y520700D03*
D13*
X158704Y84000D02*
X145496Y84000D01*
X82504Y84000D02*
X69296Y84000D01*
M02*
